<?xml version="1.0" encoding="UTF-8" standalone="no"?>
<!-- Created with Inkscape (http://www.inkscape.org/) -->

<svg
   xmlns:dc="http://purl.org/dc/elements/1.1/"
   xmlns:cc="http://creativecommons.org/ns#"
   xmlns:rdf="http://www.w3.org/1999/02/22-rdf-syntax-ns#"
   xmlns:svg="http://www.w3.org/2000/svg"
   xmlns="http://www.w3.org/2000/svg"
   xmlns:sodipodi="http://sodipodi.sourceforge.net/DTD/sodipodi-0.dtd"
   xmlns:inkscape="http://www.inkscape.org/namespaces/inkscape"
   width="629.60156"
   height="169.92833"
   id="svg2"
   version="1.1"
   inkscape:version="0.48.4 r9939"
   sodipodi:docname="abaqus.svg">
  <sodipodi:namedview
     id="base"
     pagecolor="#ffffff"
     bordercolor="#666666"
     borderopacity="1.0"
     inkscape:pageopacity="0.0"
     inkscape:pageshadow="2"
     inkscape:zoom="0.98994949"
     inkscape:cx="118.18726"
     inkscape:cy="83.611773"
     inkscape:document-units="px"
     inkscape:current-layer="layer1"
     showgrid="false"
     fit-margin-top="10"
     fit-margin-left="0"
     fit-margin-right="0"
     fit-margin-bottom="10"
     inkscape:window-width="1920"
     inkscape:window-height="1138"
     inkscape:window-x="-8"
     inkscape:window-y="-8"
     inkscape:window-maximized="1" />
  <defs
     id="defs4">
    <filter
       id="filter7424"
       inkscape:menu-tooltip="Adds a turbulent transparency which displaces pixels at the same time"
       inkscape:menu="Image effects, transparent"
       inkscape:label="Rough transparency"
       color-interpolation-filters="sRGB">
      <feTurbulence
         id="feTurbulence7426"
         result="result3"
         baseFrequency="0.3"
         type="fractalNoise"
         seed="0"
         numOctaves="3" />
      <feGaussianBlur
         id="feGaussianBlur7428"
         stdDeviation="1.5"
         result="result91" />
      <feDisplacementMap
         id="feDisplacementMap7430"
         in2="result91"
         result="fbSourceGraphic"
         in="SourceGraphic"
         xChannelSelector="R"
         yChannelSelector="G"
         scale="30" />
      <feColorMatrix
         id="feColorMatrix7432"
         type="luminanceToAlpha"
         in="fbSourceGraphic"
         result="result0" />
      <feColorMatrix
         id="feColorMatrix7434"
         result="result2"
         values="1 0 0 0 0 0 1 0 0 0 0 0 1 0 0 0 0 0 1 0 " />
      <feComposite
         id="feComposite7436"
         in2="result2"
         operator="over"
         in="result3"
         result="result4" />
      <feGaussianBlur
         id="feGaussianBlur7438"
         stdDeviation="2"
         result="result5" />
      <feDisplacementMap
         id="feDisplacementMap7440"
         in2="result3"
         scale="100"
         xChannelSelector="R"
         in="result5"
         yChannelSelector="G" />
      <feColorMatrix
         id="feColorMatrix7442"
         values="1 0 0 0 0 0 1 0 0 0 0 0 1 0 0 0 0 0 6.5 -4.5 "
         result="result92" />
      <feComposite
         id="feComposite7444"
         in2="result92"
         in="fbSourceGraphic"
         operator="out" />
    </filter>
    <filter
       id="filter7493"
       inkscape:label="Blueprint"
       x="0"
       y="0"
       width="1"
       height="1"
       inkscape:menu="Image effects"
       inkscape:menu-tooltip="Detect color edges and retrace them in blue"
       color-interpolation-filters="sRGB">
      <feConvolveMatrix
         id="feConvolveMatrix7495"
         order="3 3"
         kernelMatrix="1 1 1 1 -8 1 1 1 1"
         in="SourceGraphic"
         divisor="1"
         targetX="1"
         targetY="1"
         preserveAlpha="true"
         result="result0"
         bias="0" />
      <feColorMatrix
         id="feColorMatrix7497"
         result="result3"
         values="-0.15 -0.3 -0.05 0 1 -0.15 -0.3 -0.05 0 1 0 0 0 0 1 0 0 0 1 0" />
    </filter>
    <filter
       id="filter7499"
       x="0"
       y="0"
       width="1"
       height="1"
       inkscape:menu-tooltip="Give lead pencil or chromolithography or engraving or other effects to images and material filled objects"
       inkscape:menu="Image effects"
       inkscape:label="Drawing"
       color-interpolation-filters="sRGB">
      <feGaussianBlur
         id="feGaussianBlur7501"
         stdDeviation="0.5"
         result="result8" />
      <feConvolveMatrix
         id="feConvolveMatrix7503"
         bias="0"
         result="result0"
         preserveAlpha="true"
         targetY="1"
         targetX="1"
         divisor="1"
         in="result8"
         kernelMatrix="1 1 1 1 -8 1 1 1 1 "
         order="3 3" />
      <feColorMatrix
         id="feColorMatrix7505"
         values="0 -6 0 0 1 0 -6 0 0 1 0 -6 0 0 1 0 0 0 1 0 "
         result="result3" />
      <feComposite
         id="feComposite7507"
         in2="result3"
         k3="0.3"
         k1="1"
         operator="arithmetic"
         in="SourceGraphic"
         result="fbSourceGraphic"
         k2="0"
         k4="0" />
      <feGaussianBlur
         id="feGaussianBlur7509"
         stdDeviation="0.01"
         in="fbSourceGraphic"
         result="result7" />
      <feBlend
         id="feBlend7511"
         in2="result7"
         in="result7"
         mode="multiply"
         result="result9" />
      <feComposite
         id="feComposite7513"
         in2="SourceGraphic"
         operator="in" />
    </filter>
  </defs>
  <metadata
     id="metadata7">
    <rdf:RDF>
      <cc:Work
         rdf:about="">
        <dc:format>image/svg+xml</dc:format>
        <dc:type
           rdf:resource="http://purl.org/dc/dcmitype/StillImage" />
        <dc:title />
      </cc:Work>
    </rdf:RDF>
  </metadata>
  <g
     inkscape:label="Layer 1"
     inkscape:groupmode="layer"
     id="layer1"
     transform="translate(-87.872711,-437.41115)">
    <path
       style="fill:#025589;fill-opacity:1"
       d="m 513.8512,531.64062 -8.94003,-9.56077 -11,-0.18529 c -9.74274,-0.16411 -11.71256,-0.51095 -17.23431,-3.03458 -7.24448,-3.31097 -14.33263,-10.31766 -17.575,-17.37301 -1.83849,-4.00053 -2.16959,-6.54041 -2.17927,-16.71723 -0.0103,-10.8714 0.23497,-12.52541 2.6084,-17.58648 3.44876,-7.35413 8.71708,-12.46558 16.79158,-16.29159 6.19088,-2.93348 7.28279,-3.12182 18.0886,-3.12018 10.50463,0.002 12.02888,0.24603 17.61039,2.82392 3.39745,1.56915 8.14963,4.89828 10.7034,7.49824 6.48555,6.60288 8.8842,12.63317 9.46852,23.80424 0.62969,12.03859 -1.88676,20.93681 -7.83069,27.68948 -2.25009,2.55624 -3.84105,5.05226 -3.53546,5.54671 0.30559,0.49446 2.81197,2.61972 5.56973,4.72282 2.75776,2.1031 5.01411,4.13608 5.01411,4.51775 0,0.38166 -1.93949,4.32381 -4.30997,8.76033 l -4.30998,8.06641 -8.94002,-9.56077 z m -10.44003,-28.92267 c 3.41625,-1.73499 7.65121,-6.36183 8.93638,-9.76331 1.78471,-4.72363 1.28661,-13.59282 -1.03243,-18.38331 -6.11677,-12.63557 -26.29745,-13.01814 -33.55381,-0.63608 -1.84157,3.1424 -2.46081,5.66252 -2.48204,10.10118 -0.0352,7.36904 1.78444,11.84304 6.50128,15.98448 3.39314,2.97922 4.59518,3.51795 10.13062,4.54037 2.90643,0.53683 8.61513,-0.37822 11.5,-1.84333 z m 59.80321,18.21225 c -6.69442,-1.88749 -12.28701,-5.92349 -15.2764,-11.0245 -4.33069,-7.38976 -5.49021,-15.78416 -5.50945,-39.88596 l -0.0174,-21.75 9.41944,0 9.41943,0 0.33083,23.25 c 0.36727,25.81142 0.89602,28.18126 6.99095,31.33307 4.50169,2.32792 14.35487,2.15876 17.71693,-0.30416 5.62667,-4.12188 6.11917,-6.65875 6.12087,-31.52891 l 0.002,-22.75 10.12438,0 10.12438,0 -0.52998,23.75 c -0.53525,23.98691 -1.31625,29.70851 -5.03678,36.89963 -2.16309,4.18085 -8.72155,9.69333 -13.40703,11.26879 -5.58555,1.8781 -24.78429,2.34563 -30.47176,0.74204 z m 77,0.003 c -9.29289,-2.62702 -16.88342,-9.81499 -18.40648,-17.4303 -0.54435,-2.72176 -0.34992,-3.23645 1.22827,-3.25141 1.03125,-0.01 5.84095,-0.43502 10.68823,-0.94501 l 8.81323,-0.92724 2.77507,3.10584 c 2.36254,2.64414 3.45228,3.0956 7.33068,3.03697 7.17756,-0.10851 10.98393,-3.16919 7.51779,-6.04502 -0.6875,-0.57041 -5.47648,-2.22535 -10.64219,-3.67764 -10.61837,-2.98527 -17.57831,-6.2277 -20.81008,-9.69479 -7.53277,-8.08127 -6.88083,-23.33649 1.32617,-31.03229 4.2978,-4.0301 9.95834,-5.99014 18.92786,-6.55403 14.80941,-0.93106 24.95387,4.21116 30.08684,15.25096 l 2.32475,5 -3.23167,0.68413 c -1.77743,0.37628 -6.7757,0.78184 -11.10728,0.90126 -6.28694,0.17332 -8.05354,-0.10084 -8.75772,-1.35913 -2.3978,-4.28464 -12.86668,-4.11068 -12.86668,0.21381 0,2.62195 2.09556,3.63393 12.59394,6.08183 11.50057,2.68159 16.21727,4.86001 20.10151,9.28397 7.12648,8.11671 6.81777,20.42132 -0.72741,28.9931 -5.50533,6.25439 -12.15127,8.8998 -23.46804,9.34147 -5.52621,0.21567 -10.81285,-0.16124 -13.69679,-0.9765 z m -518.22547,-1.87946 c -6.8814,-4.00716 -5.91973,-4.784 5.92226,-4.784 11.30924,0 12.30275,0.56491 7.4135,4.21526 -3.9947,2.98247 -8.83614,3.18895 -13.33576,0.56874 z m 25.75482,0.15156 c -2.29209,-1.13458 -4.41546,-2.70922 -4.71861,-3.49921 -0.45838,-1.19451 1.29034,-1.43635 10.38605,-1.43635 9.44537,0 10.85649,0.21041 10.34528,1.5426 -0.68851,1.79423 -7.43967,5.45776 -10.05544,5.45661 -0.98441,-4.3e-4 -3.66518,-0.92908 -5.95728,-2.06365 z m 28.64269,-0.50066 c -0.53639,-1.4108 -0.99258,-5.7983 -1.01377,-9.75 -0.0372,-6.94664 -0.14268,-7.25122 -3.17963,-9.1849 -5.92607,-3.77323 -4.85452,-4.5 6.63482,-4.5 6.1029,0 10.58333,0.40686 10.58333,0.96105 0,1.37691 -4.13414,5.03895 -5.68856,5.03895 -0.96432,0 -1.31144,1.96788 -1.31144,7.4349 0,8.31166 -1.18479,12.5651 -3.5,12.5651 -0.85222,0 -1.98836,-1.15429 -2.52475,-2.5651 z m 32.04734,2.34785 c 0.0124,-0.15551 6.03707,-16.48275 13.38809,-36.28275 l 13.36551,-36 13.86191,-0.25896 13.8619,-0.25895 12.93109,35.25895 c 7.11209,19.39243 13.12274,35.82146 13.35699,36.50896 0.32371,0.9501 -2.21554,1.25 -10.58369,1.25 l -11.00959,0 -2.12618,-7 -2.12619,-7 -14.32747,0 -14.32747,0 -1.92853,6.75 -1.92852,6.75 -11.21522,0.28275 c -6.16837,0.15551 -11.20505,0.15551 -11.19263,0 z m 48.60426,-33.53275 c -1.21584,-4.18902 -6.81991,-22.88693 -7.26811,-24.25 -0.71691,-2.1802 -1.6823,-0.13732 -4.25311,9 -1.16058,4.125 -2.7626,9.6375 -3.56005,12.25 l -1.44992,4.75 8.51956,0 c 7.64069,0 8.46716,-0.18053 8.01163,-1.75 z m 40.37315,-2.75 0,-36.5 18.25,0.008 c 21.40675,0.009 33.61108,1.20959 38.63398,3.80089 5.41973,2.79603 8.11602,7.40439 8.11602,13.87152 0,9.19473 -3.10189,13.85795 -10.5,15.78511 -3.24196,0.84451 -2.9693,1.0415 2.77138,2.00232 8.81344,1.47511 14.12427,10.84715 11.9691,21.12195 -2.95029,14.06564 -9.56675,16.32392 -47.99048,16.37974 l -21.25,0.0309 0,-36.5 z m 44.91052,17.8679 c 4.48117,-0.89624 5.92626,-3.97523 3.16321,-6.73974 -1.91839,-1.9194 -3.44871,-2.16231 -15.60038,-2.47627 l -13.47335,-0.34812 0,5.09812 0,5.09811 11.375,0 c 6.25625,0 12.79723,-0.28445 14.53552,-0.6321 z m -2.47562,-28.34315 c 3.48869,-1.3264 3.49908,-5.27817 0.018,-6.86423 -1.41387,-0.64423 -7.19731,-1.16052 -12.99995,-1.16052 l -10.45295,0 0,4.5 0,4.5 10.4349,0 c 5.7392,0 11.5892,-0.43886 13,-0.97525 z m 32.99361,43.25769 c 1.66534,-4.62253 20.54137,-55.5473 23.54925,-63.53244 l 2.16594,-5.75 13.6793,0 13.6793,0 13.24885,35.8136 c 7.28687,19.69748 13.24885,36.12248 13.24885,36.5 0,0.37752 -4.86143,0.6864 -10.80317,0.6864 l -10.80316,0 -2.2545,-7 -2.25451,-7 -14.25747,0 -14.25748,0 -1.93909,6.75 -1.93909,6.75 -11.21285,0.28244 -11.21286,0.28245 1.36269,-3.78245 z m 47.31579,-30.03244 c -2.27221,-8.13215 -7.21717,-24.83368 -7.45132,-25.16667 -0.65947,-0.93787 -1.44612,1.15406 -5.16641,13.73895 l -3.89554,13.17772 8.50112,0 c 7.6159,0 8.4502,-0.18223 8.01215,-1.75 z m -299.4943,20.3524 c 2.0625,-1.8229 3.73267,-3.94166 3.71148,-4.70838 -0.0212,-0.76671 -1.45202,-2.29402 -3.17963,-3.39402 -5.92607,-3.77323 -4.85452,-4.5 6.63482,-4.5 5.82083,0 10.58333,0.37156 10.58333,0.82569 0,1.22199 -4.44127,5.17431 -5.81445,5.17431 -2.47063,0 -1.01961,3.59145 2.32683,5.75919 1.91819,1.24256 3.48762,2.70506 3.48762,3.25 0,0.59555 -4.28849,0.9742 -10.75,0.94918 l -10.75,-0.0416 3.75,-3.31435 z m 23.73386,0.91479 c 1.28286,-1.36555 3.1613,-2.74587 4.17431,-3.06739 2.75585,-0.87467 2.22384,-3.2009 -1.12852,-4.93447 -1.6337,-0.84482 -3.44953,-2.43137 -4.03519,-3.52568 -1.03317,-1.93051 -0.73575,-1.98965 10.00554,-1.98965 10.7413,0 11.03872,0.0591 10.00554,1.98965 -0.58565,1.09431 -2.40149,2.68086 -4.03518,3.52568 -3.35236,1.73357 -3.88438,4.0598 -1.12852,4.93447 1.013,0.32152 2.89144,1.70184 4.17431,3.06739 l 2.33248,2.48281 -11.34863,0 -11.34863,0 2.33249,-2.48281 z m -24.98386,-19.01719 c 1.29175,-1.375 2.94519,-2.5 3.67431,-2.5 1.02361,0 1.32569,-2.60508 1.32569,-11.43261 0,-10.28532 -0.18747,-11.49212 -1.86812,-12.02553 -1.02746,-0.32611 -2.6722,-1.48143 -3.65498,-2.56739 -1.7687,-1.95439 -1.67694,-1.97447 9.0231,-1.97447 10.70004,0 10.7918,0.0201 9.0231,1.97447 -0.98277,1.08596 -2.62752,2.24128 -3.65498,2.56739 -1.67331,0.53108 -1.86812,1.72711 -1.86812,11.46899 l 0,10.87608 2.96864,1.75362 c 6.01323,3.5521 4.77718,4.35945 -6.67434,4.35945 l -10.64293,0 2.34863,-2.5 z m 24,1.46627 c 0,-0.56854 1.575,-1.96299 3.5,-3.09877 l 3.5,-2.06505 0,-10.83384 c 0,-9.70063 -0.1954,-10.89585 -1.86811,-11.42675 -1.02747,-0.32611 -2.67221,-1.48143 -3.65499,-2.56739 -1.76867,-1.95436 -1.67708,-1.97447 8.99056,-1.97447 9.66825,0 10.64368,0.16116 9.47782,1.56594 -0.71479,0.86126 -2.56989,2.22282 -4.12244,3.02568 -2.82194,1.45928 -2.82284,1.46302 -2.82284,11.83528 l 0,10.37555 3.5,2.06505 c 5.65931,3.33907 4.41133,4.1325 -6.5,4.1325 -6.2175,0 -10,-0.39101 -10,-1.03373 z m 26.4769,-0.94074 c 0.98278,-1.08596 2.62752,-2.24128 3.65499,-2.56739 2.99233,-0.94973 2.18669,-4.07262 -1.63189,-6.32564 -5.71104,-3.3696 -4.41877,-4.1325 7,-4.1325 11.41877,0 12.71105,0.7629 7,4.1325 -4.27887,2.5246 -4.41671,4.21291 -0.53136,6.50805 6.01099,3.55078 4.7765,4.35945 -6.65501,4.35945 -10.51447,0 -10.60525,-0.0203 -8.83673,-1.97447 z m -1.4769,-17.01634 c 0,-0.54494 1.56943,-2.00744 3.48762,-3.25 3.82221,-2.47592 4.5664,-5.28988 1.64427,-6.21733 -1.02747,-0.32611 -2.67221,-1.48143 -3.65499,-2.56739 -1.7687,-1.95439 -1.67694,-1.97447 9.0231,-1.97447 10.70005,0 10.79181,0.0201 9.02311,1.97447 -0.98278,1.08596 -2.62753,2.24128 -3.65499,2.56739 -2.8163,0.89386 -2.17776,3.71193 1.35003,5.95814 5.92607,3.77323 4.85453,4.5 -6.63482,4.5 -6.32342,0 -10.58333,-0.39881 -10.58333,-0.99081 z m -48.97941,-20.5311 c 4.21816,-4.49003 10.67265,-4.87478 16.60211,-0.98965 4.31096,2.82465 2.68794,3.51156 -8.29701,3.51156 l -10.67432,0 2.36922,-2.52191 z m 24.19098,1.27191 c 0.20803,-0.6875 2.3847,-2.25683 4.83705,-3.4874 3.71748,-1.8654 5.05246,-2.07348 8.02935,-1.25152 1.9638,0.54223 4.62807,2.11156 5.9206,3.4874 l 2.35006,2.50152 -10.75765,0 c -8.14117,0 -10.66565,-0.30402 -10.37941,-1.25 z m 26.78986,-1.25152 c 1.29253,-1.37584 3.9568,-2.94517 5.9206,-3.4874 2.9769,-0.82196 4.31187,-0.61388 8.02936,1.25152 7.61234,3.81981 6.53884,4.7374 -5.54237,4.7374 l -10.75765,0 2.35006,-2.50152 z"
       id="path7336"
       inkscape:connector-curvature="0" />
    <g
       style="font-size:11px;font-style:normal;font-variant:normal;font-weight:normal;font-stretch:normal;text-align:center;line-height:125%;letter-spacing:0px;word-spacing:0px;writing-mode:lr-tb;text-anchor:middle;fill:#4c4f58;fill-opacity:1;stroke:none;font-family:Times New Roman;-inkscape-font-specification:Times New Roman"
       id="text7479">
      <path
         d="m 111.84927,573.26917 0,3.11718 c -2e-5,0.3594 -0.0703,0.6094 -0.21093,0.75 -0.14065,0.14065 -0.39065,0.21096 -0.75,0.21094 l -22.054691,0 c -0.359378,2e-5 -0.609377,-0.0703 -0.75,-0.21094 -0.140627,-0.1406 -0.21094,-0.3906 -0.210938,-0.75 l 0,-3.11718 c -2e-6,-0.35936 0.07031,-0.60936 0.210938,-0.75 0.140623,-0.14061 0.390622,-0.21092 0.75,-0.21094 l 22.054691,0 c 0.35935,2e-5 0.60935,0.0703 0.75,0.21094 0.1406,0.14064 0.21091,0.39064 0.21093,0.75 z m 0,9.67968 0,3.11719 c -2e-5,0.35938 -0.0703,0.60938 -0.21093,0.75 -0.14065,0.14063 -0.39065,0.21095 -0.75,0.21094 l -22.054691,0 c -0.359378,10e-6 -0.609377,-0.0703 -0.75,-0.21094 -0.140627,-0.14062 -0.21094,-0.39062 -0.210938,-0.75 l 0,-3.11719 c -2e-6,-0.35936 0.07031,-0.60936 0.210938,-0.75 0.140623,-0.14061 0.390622,-0.21092 0.75,-0.21093 l 22.054691,0 c 0.35935,10e-6 0.60935,0.0703 0.75,0.21093 0.1406,0.14064 0.21091,0.39064 0.21093,0.75 z"
         style="font-size:48px;fill:#150513;font-family:Stencil;-inkscape-font-specification:Stencil"
         id="path7666"
         inkscape:connector-curvature="0" />
      <path
         d="m 136.95084,563.70667 9.44531,0 6.51562,27.53906 c 0.12498,0.48438 0.2656,0.91406 0.42188,1.28906 0.1406,0.29688 0.4531,0.53907 0.9375,0.72656 0.40622,0.17188 0.68747,0.34375 0.84375,0.51563 0.15622,0.17187 0.23434,0.40625 0.23437,0.70312 -3e-5,0.8125 -0.6094,1.21875 -1.82812,1.21875 l -11.69531,0 c -0.46877,0 -0.84377,-0.11328 -1.125,-0.33984 -0.28127,-0.22656 -0.42189,-0.52734 -0.42188,-0.90234 -1e-5,-0.3125 0.0625,-0.54688 0.1875,-0.70313 0.12499,-0.15625 0.40624,-0.35156 0.84375,-0.58594 0.31249,-0.15624 0.53123,-0.32812 0.65625,-0.51562 0.12498,-0.1875 0.18748,-0.42187 0.1875,-0.70313 -2e-5,-0.26562 -0.0235,-0.49999 -0.0703,-0.70312 l -0.75,-3.39844 -6.53906,0 0.63281,-2.78906 5.25,0 -4.3125,-19.05469 z m -1.61719,5.95312 1.19531,4.85156 -4.14844,15.14063 c -0.125,0.4375 -0.1875,0.84375 -0.1875,1.21875 0,0.98438 0.46093,1.6875 1.38282,2.10937 l 0.82031,0.375 c 0.51561,0.23438 0.77343,0.625 0.77344,1.17188 -1e-5,0.78125 -0.57033,1.17187 -1.71094,1.17187 l -5.95313,0 c -0.57812,0 -1.03515,-0.12109 -1.37109,-0.36328 -0.33594,-0.24219 -0.50391,-0.57422 -0.50391,-0.99609 0,-0.45313 0.34375,-0.82813 1.03125,-1.125 0.64063,-0.28125 1.11328,-0.53516 1.41797,-0.76172 0.30469,-0.22656 0.59766,-0.53515 0.87891,-0.92578 0.43749,-0.64062 0.79687,-1.49218 1.07812,-2.55469 z"
         style="font-size:48px;fill:#7b26a7;font-family:Stencil;-inkscape-font-specification:Stencil"
         id="path7668"
         inkscape:connector-curvature="0" />
      <path
         d="m 170.06802,563.70667 0,31.99218 -10.42968,0 -0.60938,0 c -0.5625,0 -0.9961,-0.10547 -1.30078,-0.3164 -0.30469,-0.21094 -0.45703,-0.51172 -0.45703,-0.90235 0,-0.64062 0.3125,-1.0625 0.9375,-1.26562 0.51562,-0.17187 0.8164,-0.27734 0.90234,-0.31641 0.0859,-0.0391 0.17578,-0.1289 0.26953,-0.26953 0.1875,-0.25 0.28125,-0.64843 0.28125,-1.19531 l 0,-23.46094 c 0,-0.54685 -0.0937,-0.94528 -0.28125,-1.19531 -0.0937,-0.1406 -0.18359,-0.23044 -0.26953,-0.26953 -0.0859,-0.039 -0.38672,-0.14451 -0.90234,-0.31641 -0.625,-0.2031 -0.9375,-0.62497 -0.9375,-1.26562 0,-0.3906 0.15234,-0.69138 0.45703,-0.90235 0.30468,-0.2109 0.73828,-0.31637 1.30078,-0.3164 l 0.60938,0 z m 7.28907,15.42187 c 1.40622,0.28127 2.48825,0.5547 3.24609,0.82031 0.75779,0.26564 1.44138,0.60158 2.05078,1.00782 1.04685,0.67188 1.84763,1.5586 2.40234,2.66015 0.55466,1.10157 0.83201,2.33204 0.83204,3.69141 -3e-5,2.67188 -0.98441,4.75781 -2.95313,6.25781 -1.01565,0.78125 -2.13674,1.33203 -3.36328,1.65234 -1.22659,0.32032 -2.83205,0.48047 -4.81641,0.48047 l -2.78906,0 0,-2.46093 c 0.62498,-0.0469 1.11717,-0.13672 1.47656,-0.26954 0.35936,-0.13281 0.67967,-0.35546 0.96094,-0.66796 0.51561,-0.57813 0.77342,-1.47656 0.77344,-2.69532 l 0,-5.32031 c -2e-5,-0.78124 -0.0664,-1.39061 -0.19922,-1.82812 -0.13283,-0.43749 -0.37893,-0.83593 -0.73828,-1.19532 -0.26564,-0.28123 -0.55471,-0.48436 -0.86719,-0.60937 -0.31252,-0.12499 -0.75783,-0.22655 -1.33594,-0.30469 l 0,-2.4375 c 0.57811,-0.0469 1.02733,-0.12498 1.34766,-0.23437 0.32029,-0.10936 0.61326,-0.28905 0.87891,-0.53907 0.24998,-0.23435 0.46091,-0.53904 0.63281,-0.91406 0.17185,-0.37498 0.2656,-0.71873 0.28125,-1.03125 l 0,-1.28906 0,-4.05469 c -2e-5,-0.42185 -0.0703,-0.86325 -0.21094,-1.32422 -0.14064,-0.46091 -0.31252,-0.82419 -0.51562,-1.08984 -0.2969,-0.35935 -0.62893,-0.62497 -0.9961,-0.79688 -0.3672,-0.17184 -0.8633,-0.28903 -1.48828,-0.35156 l 0,-2.57812 2.69531,0 c 3.56248,3e-5 6.28123,0.7344 8.15625,2.20312 0.85935,0.6719 1.5156,1.4844 1.96875,2.4375 0.4531,0.95315 0.67966,1.9844 0.67969,3.09375 -3e-5,1.09377 -0.2305,2.12502 -0.69141,3.09375 -0.46096,0.96877 -1.10549,1.77346 -1.93359,2.41406 -0.6094,0.50002 -1.31252,0.90627 -2.10937,1.21875 -0.7969,0.31252 -1.9219,0.63283 -3.375,0.96094 z"
         style="font-size:48px;fill:#a7a3a6;font-family:Stencil;-inkscape-font-specification:Stencil"
         id="path7670"
         inkscape:connector-curvature="0" />
      <path
         d="m 198.82584,563.70667 9.44531,0 6.51562,27.53906 c 0.12498,0.48438 0.2656,0.91406 0.42188,1.28906 0.1406,0.29688 0.4531,0.53907 0.9375,0.72656 0.40622,0.17188 0.68747,0.34375 0.84375,0.51563 0.15622,0.17187 0.23434,0.40625 0.23437,0.70312 -3e-5,0.8125 -0.6094,1.21875 -1.82812,1.21875 l -11.69531,0 c -0.46877,0 -0.84377,-0.11328 -1.125,-0.33984 -0.28127,-0.22656 -0.42189,-0.52734 -0.42188,-0.90234 -1e-5,-0.3125 0.0625,-0.54688 0.1875,-0.70313 0.12499,-0.15625 0.40624,-0.35156 0.84375,-0.58594 0.31249,-0.15624 0.53123,-0.32812 0.65625,-0.51562 0.12498,-0.1875 0.18748,-0.42187 0.1875,-0.70313 -2e-5,-0.26562 -0.0235,-0.49999 -0.0703,-0.70312 l -0.75,-3.39844 -6.53906,0 0.63281,-2.78906 5.25,0 -4.3125,-19.05469 z m -1.61719,5.95312 1.19531,4.85156 -4.14844,15.14063 c -0.125,0.4375 -0.1875,0.84375 -0.1875,1.21875 0,0.98438 0.46093,1.6875 1.38282,2.10937 l 0.82031,0.375 c 0.51561,0.23438 0.77343,0.625 0.77344,1.17188 -1e-5,0.78125 -0.57033,1.17187 -1.71094,1.17187 l -5.95313,0 c -0.57812,0 -1.03515,-0.12109 -1.37109,-0.36328 -0.33594,-0.24219 -0.50391,-0.57422 -0.50391,-0.99609 0,-0.45313 0.34375,-0.82813 1.03125,-1.125 0.64063,-0.28125 1.11328,-0.53516 1.41797,-0.76172 0.30469,-0.22656 0.59766,-0.53515 0.87891,-0.92578 0.43749,-0.64062 0.79687,-1.49218 1.07812,-2.55469 z"
         style="font-size:48px;fill:#000100;font-family:Stencil;-inkscape-font-specification:Stencil"
         id="path7672"
         inkscape:connector-curvature="0" />
      <path
         d="m 241.62271,593.02698 c 0.5781,0.57812 1.34373,0.86719 2.29688,0.86719 0.54684,0 1.03903,-0.10157 1.47656,-0.30469 0.3906,-0.17188 0.66403,-0.25781 0.82031,-0.25781 0.18747,0 0.36325,0.10547 0.52734,0.3164 0.16404,0.21094 0.24607,0.44141 0.2461,0.69141 -3e-5,0.5 -0.37503,1.02344 -1.125,1.57031 -1.34378,0.95312 -2.72659,1.42969 -4.14844,1.42969 -1.87502,0 -3.36721,-0.57813 -4.47656,-1.73438 -1.0469,0.375 -2.28127,0.625 -3.70313,0.75 l 0,-2.60156 c 0.34374,-0.0781 0.59764,-0.16015 0.76172,-0.24609 0.16405,-0.0859 0.34764,-0.23047 0.55078,-0.4336 l -0.1875,-0.1875 c -0.42189,-0.51562 -0.76564,-0.87109 -1.03125,-1.0664 -0.26564,-0.19531 -0.58595,-0.32422 -0.96093,-0.38672 -0.48439,-0.0937 -0.79299,-0.16797 -0.92579,-0.22266 -0.13282,-0.0547 -0.2461,-0.15234 -0.33984,-0.29297 -0.15626,-0.18749 -0.23439,-0.41405 -0.23437,-0.67968 -2e-5,-0.4375 0.18748,-0.78125 0.5625,-1.03125 0.37498,-0.25 0.88279,-0.375 1.52343,-0.375 0.51561,0 0.95702,0.0469 1.32422,0.14062 0.36717,0.0938 0.75389,0.25782 1.16016,0.49219 l 0,-20.57813 c -2e-5,-0.82809 -0.14064,-1.48434 -0.42188,-1.96875 -0.18751,-0.32809 -0.41017,-0.58591 -0.66797,-0.77343 -0.25782,-0.18748 -0.62892,-0.36716 -1.11328,-0.53907 l 0,-2.53125 c 1.68749,0.0782 3.23045,0.42191 4.62891,1.03125 1.39842,0.60941 2.6992,1.50003 3.90234,2.67188 3.18748,3.12502 4.78122,7.45314 4.78125,12.98437 -3e-5,5.70314 -1.74221,10.12501 -5.22656,13.26563 z M 231.6149,565.6051 c -0.79689,0.28128 -1.35939,0.66409 -1.6875,1.14844 -0.32814,0.4844 -0.4922,1.19534 -0.49219,2.13281 l 0,20.95313 c -1e-5,1.375 0.18749,2.34375 0.5625,2.90625 0.29686,0.46875 0.83593,0.80469 1.61719,1.00781 l 0,2.57813 c -3.46876,-0.28126 -6.37501,-1.58594 -8.71875,-3.91407 -3.04688,-3.03124 -4.57031,-7.2578 -4.57031,-12.67968 0,-2.71874 0.40234,-5.17577 1.20703,-7.3711 0.80468,-2.19529 1.99609,-4.05857 3.57422,-5.58984 1.20311,-1.17185 2.49999,-2.06247 3.89062,-2.67188 1.39062,-0.60934 2.92968,-0.95309 4.61719,-1.03125 z"
         style="font-size:48px;fill:#8e7b99;font-family:Stencil;-inkscape-font-specification:Stencil"
         id="path7674"
         inkscape:connector-curvature="0" />
      <path
         d="m 251.88834,586.34729 0,-18.375 c -1e-5,-0.54685 -0.0938,-0.94528 -0.28125,-1.19531 -0.0938,-0.1406 -0.1836,-0.23044 -0.26954,-0.26953 -0.0859,-0.039 -0.38672,-0.14451 -0.90234,-0.31641 -0.625,-0.2031 -0.9375,-0.61716 -0.9375,-1.24219 0,-0.40622 0.15234,-0.71481 0.45703,-0.92578 0.30469,-0.2109 0.73828,-0.31637 1.30078,-0.3164 l 0.60938,0 10.45312,0 0.60938,0 0.84375,0.0937 c 0.26561,0.0781 0.48436,0.21878 0.65625,0.42187 0.17186,0.20316 0.25779,0.44534 0.25781,0.72656 -2e-5,0.62503 -0.31252,1.03909 -0.9375,1.24219 -0.51564,0.1719 -0.81642,0.27737 -0.90234,0.31641 -0.086,0.0391 -0.1758,0.12893 -0.26953,0.26953 -0.18752,0.25003 -0.28127,0.64846 -0.28125,1.19531 l 0,19.66406 c -2e-5,1.32813 0.0351,2.25391 0.10546,2.77735 0.0703,0.52344 0.21483,0.99609 0.4336,1.41797 0.20311,0.39062 0.42967,0.67187 0.67969,0.84375 0.24998,0.17187 0.72654,0.36719 1.42968,0.58593 l 0,3.07032 -0.51562,0 c -2.03127,-1e-5 -3.71876,-0.17969 -5.0625,-0.53907 -1.57814,-0.42187 -2.96095,-1.04687 -4.14844,-1.875 -1.1875,-0.82812 -2.03125,-1.75781 -2.53125,-2.78906 -0.53125,-1.09374 -0.79688,-2.68749 -0.79687,-4.78125 z m 15.21093,9.98438 0,-3.07032 c 1.56248,-0.20312 2.86717,-0.84374 3.91407,-1.92187 1.18747,-1.23437 1.78122,-3.00781 1.78125,-5.32031 l 0,-15.28125 c -3e-5,-2.1406 -0.82034,-3.63279 -2.46094,-4.47657 -0.4844,-0.24997 -0.8008,-0.46481 -0.94922,-0.64453 -0.14846,-0.17966 -0.22268,-0.44137 -0.22266,-0.78515 -2e-5,-0.40622 0.14842,-0.69529 0.44532,-0.86719 0.29685,-0.17185 0.78122,-0.25778 1.45312,-0.25781 l 5.74219,0 c 0.48434,3e-5 0.80856,0.0118 0.97265,0.0351 0.16404,0.0235 0.32419,0.0821 0.48047,0.17578 0.40622,0.23441 0.60935,0.55472 0.60938,0.96094 -3e-5,0.34378 -0.12503,0.63284 -0.375,0.86719 -0.0782,0.0782 -0.41409,0.28909 -1.00781,0.63281 -0.68753,0.37503 -1.22659,0.94925 -1.61719,1.72266 -0.39065,0.77346 -0.58597,1.65237 -0.58594,2.63672 l 0,15.30468 c -3e-5,2.62501 -0.57815,4.78126 -1.73437,6.46875 -0.84378,1.25 -2.05471,2.25 -3.63282,3 -0.78127,0.375 -1.71877,0.64844 -2.8125,0.82032 z"
         style="font-size:48px;fill:#176a83;font-family:Stencil;-inkscape-font-specification:Stencil"
         id="path7676"
         inkscape:connector-curvature="0" />
      <path
         d="m 293.23209,563.07385 0,2.69532 c -0.96877,0.26565 -1.70705,0.67581 -2.21485,1.23046 -0.50782,0.55472 -0.76173,1.23831 -0.76172,2.05079 -10e-6,0.78127 0.21093,1.46486 0.63282,2.05078 0.42186,0.58596 1.10936,1.14455 2.0625,1.67578 0.65623,0.3594 2.14061,1.04689 4.45312,2.0625 1.40623,0.60939 2.49608,1.16017 3.26953,1.65234 0.77342,0.49221 1.50389,1.10549 2.19141,1.83985 1.84372,1.93751 2.7656,4.2422 2.76562,6.91406 -2e-5,2.01563 -0.50002,3.85938 -1.5,5.53125 -1.00002,1.67188 -2.37502,2.98437 -4.125,3.9375 -0.93751,0.5 -1.96486,0.89453 -3.08203,1.18359 -1.1172,0.28906 -2.16017,0.43359 -3.1289,0.4336 l 0,-2.67188 c 1.35936,-0.32812 2.33982,-0.78515 2.9414,-1.37109 0.60155,-0.58594 0.90233,-1.37891 0.90235,-2.37891 -2e-5,-1.04687 -0.46877,-1.96874 -1.40625,-2.76562 -0.62502,-0.51562 -1.81252,-1.15625 -3.5625,-1.92188 -1.92189,-0.84374 -3.23829,-1.4453 -3.94922,-1.80469 -0.71095,-0.35936 -1.39454,-0.78123 -2.05078,-1.26562 -2.93751,-2.09374 -4.40626,-4.8828 -4.40625,-8.36719 -1e-5,-1.78123 0.36718,-3.42576 1.10156,-4.93359 0.73437,-1.50779 1.75781,-2.72263 3.07031,-3.64453 1.82812,-1.28122 4.09374,-1.99216 6.79688,-2.13282 z m 1.85156,2.69532 0,-2.57813 c 0.93748,0.0625 1.74998,0.18363 2.4375,0.36328 0.68748,0.17972 1.66404,0.53519 2.92969,1.06641 0.31248,0.12503 0.57029,0.18753 0.77343,0.1875 0.29686,3e-5 0.51561,-0.10153 0.65625,-0.30469 l 0.51563,-0.67969 c 0.24998,-0.34372 0.55466,-0.51559 0.91406,-0.51562 0.42185,3e-5 0.73045,0.15237 0.92578,0.45703 0.19529,0.30472 0.29295,0.78519 0.29297,1.44141 l 0,7.73437 c -2e-5,0.45315 -0.12893,0.82424 -0.38672,1.11328 -0.25783,0.28909 -0.58986,0.43362 -0.99609,0.4336 -0.31252,2e-5 -0.60159,-0.10155 -0.86719,-0.30469 -0.14065,-0.12498 -0.25393,-0.27732 -0.33984,-0.45703 -0.086,-0.17967 -0.16799,-0.48045 -0.2461,-0.90235 -0.17189,-0.7656 -0.46877,-1.55466 -0.89062,-2.36718 -0.4219,-0.81248 -0.91408,-1.53904 -1.47656,-2.17969 -1.12502,-1.2656 -2.53908,-2.10154 -4.24219,-2.50781 z m -3.07031,27.89062 0,2.67188 c -1.28126,-10e-6 -2.69533,-0.36719 -4.24219,-1.10157 -0.57813,-0.26562 -0.97657,-0.4375 -1.19531,-0.51562 -0.21876,-0.0781 -0.4297,-0.11719 -0.63282,-0.11719 -0.3125,0 -0.54688,0.0508 -0.70312,0.15234 -0.15626,0.10157 -0.40626,0.35547 -0.75,0.76172 -0.28126,0.34375 -0.58594,0.51563 -0.91406,0.51563 -0.87501,0 -1.31251,-0.67188 -1.3125,-2.01563 l 0,-8.53125 c -1e-5,-0.43749 0.12499,-0.80858 0.375,-1.11328 0.24999,-0.30467 0.56249,-0.46483 0.9375,-0.48047 0.34374,-0.0156 0.61327,0.082 0.80859,0.29297 0.19531,0.21095 0.36328,0.58204 0.50391,1.11328 0.35937,1.34376 0.8789,2.60157 1.55859,3.77344 0.67968,1.17188 1.47265,2.16407 2.37891,2.97656 0.92186,0.84376 1.98436,1.38282 3.1875,1.61719 z"
         style="font-size:48px;fill:#963e83;font-family:Stencil;-inkscape-font-specification:Stencil"
         id="path7678"
         inkscape:connector-curvature="0" />
      <path
         d="m 334.13052,563.70667 0,27.53906 c -10e-6,0.60938 0.11718,1.04688 0.35157,1.3125 0.12498,0.15625 0.24217,0.25391 0.35156,0.29297 0.10936,0.0391 0.46873,0.13672 1.07812,0.29297 0.74999,0.17187 1.12499,0.60156 1.125,1.28906 -10e-6,0.40625 -0.20314,0.73437 -0.60937,0.98437 -0.29689,0.1875 -0.78908,0.28125 -1.47656,0.28125 l -0.79688,0 -10.45312,0 -0.60938,0 c -0.5625,0 -0.9961,-0.10547 -1.30078,-0.3164 -0.30469,-0.21094 -0.45703,-0.51172 -0.45703,-0.90235 0,-0.64062 0.3125,-1.0625 0.9375,-1.26562 0.51562,-0.17187 0.8164,-0.27734 0.90234,-0.31641 0.0859,-0.0391 0.17578,-0.1289 0.26953,-0.26953 0.1875,-0.25 0.28125,-0.64843 0.28125,-1.19531 l 0,-23.46094 c 0,-0.54685 -0.0937,-0.94528 -0.28125,-1.19531 -0.0937,-0.1406 -0.18359,-0.23044 -0.26953,-0.26953 -0.0859,-0.039 -0.38672,-0.14451 -0.90234,-0.31641 -0.625,-0.2031 -0.9375,-0.62497 -0.9375,-1.26562 0,-0.3906 0.15234,-0.69138 0.45703,-0.90235 0.30468,-0.2109 0.73828,-0.31637 1.30078,-0.3164 l 0.60938,0 z m 7.19532,16.3125 c 1.43747,0.21876 2.54294,0.46095 3.3164,0.72656 0.77341,0.26564 1.47263,0.62501 2.09766,1.07812 0.65622,0.48439 1.16013,1.06252 1.51172,1.73438 0.35153,0.67188 0.52731,1.38282 0.52734,2.13281 l 0,4.85156 c -3e-5,0.50001 0.16403,0.75001 0.49219,0.75 0.12497,10e-6 0.23044,-0.0352 0.3164,-0.10547 0.0859,-0.0703 0.20701,-0.20702 0.36329,-0.41015 0.39059,-0.53125 0.78903,-0.79687 1.19531,-0.79688 0.26559,10e-6 0.53122,0.14063 0.79687,0.42188 0.2656,0.28125 0.39841,0.5625 0.39844,0.84375 -3e-5,0.48438 -0.2305,1.07422 -0.69141,1.76953 -0.46096,0.69531 -1.03518,1.31641 -1.72265,1.86328 -0.64066,0.51563 -1.33597,0.88672 -2.08594,1.11328 -0.75003,0.22656 -1.63284,0.33984 -2.64844,0.33985 -2.06252,-10e-6 -3.67189,-0.58985 -4.82812,-1.76954 -1.15627,-1.17968 -1.7344,-2.82421 -1.73438,-4.93359 l 0,-3.9375 c -2e-5,-0.87499 -0.008,-1.3828 -0.0234,-1.52344 -0.0782,-0.62499 -0.2969,-1.16405 -0.65625,-1.61718 -0.45315,-0.54687 -1.10158,-0.86718 -1.94532,-0.96094 l 0,-2.50781 c 0.84374,-0.12499 1.4453,-0.34374 1.80469,-0.65625 0.31248,-0.28124 0.52733,-0.60155 0.64453,-0.96094 0.11717,-0.35936 0.17576,-0.89061 0.17578,-1.59375 l 0,-6.21094 c -2e-5,-0.98435 -0.19142,-1.71872 -0.57422,-2.20312 -0.38283,-0.48435 -1.07423,-0.86716 -2.07421,-1.14844 l 0,-2.60156 0.60937,0 c 1.73436,3e-5 3.21092,0.0625 4.42969,0.1875 1.81248,0.1719 3.42966,0.76565 4.85156,1.78125 2.04685,1.45315 3.07028,3.52346 3.07031,6.21093 -3e-5,2.20315 -0.68753,4.00783 -2.0625,5.41407 -0.57815,0.59376 -1.25393,1.07814 -2.02734,1.45312 -0.77346,0.37502 -1.94924,0.79689 -3.52734,1.26563 z"
         style="font-size:48px;fill:#a6a6a6;font-family:Stencil;-inkscape-font-specification:Stencil"
         id="path7680"
         inkscape:connector-curvature="0" />
      <path
         d="m 367.69302,563.70667 0,31.99218 -10.42968,0 -0.60938,0 c -0.5625,0 -0.9961,-0.10547 -1.30078,-0.3164 -0.30469,-0.21094 -0.45703,-0.51172 -0.45703,-0.90235 0,-0.64062 0.3125,-1.0625 0.9375,-1.26562 0.51562,-0.17187 0.8164,-0.27734 0.90234,-0.31641 0.0859,-0.0391 0.17578,-0.1289 0.26953,-0.26953 0.1875,-0.25 0.28125,-0.64843 0.28125,-1.19531 l 0,-23.46094 c 0,-0.54685 -0.0937,-0.94528 -0.28125,-1.19531 -0.0937,-0.1406 -0.18359,-0.23044 -0.26953,-0.26953 -0.0859,-0.039 -0.38672,-0.14451 -0.90234,-0.31641 -0.625,-0.2031 -0.9375,-0.62497 -0.9375,-1.26562 0,-0.3906 0.15234,-0.69138 0.45703,-0.90235 0.30468,-0.2109 0.73828,-0.31637 1.30078,-0.3164 l 0.60938,0 z m 2.08594,0 9.44531,0 0,8.29687 c -2e-5,0.4844 -0.0938,0.83596 -0.28125,1.05469 -0.18752,0.21877 -0.4844,0.32814 -0.89062,0.32812 -0.34378,2e-5 -0.59378,-0.0703 -0.75,-0.21093 -0.15628,-0.14061 -0.30471,-0.42967 -0.44531,-0.86719 -0.59378,-1.81248 -1.46487,-3.19529 -2.61329,-4.14844 -1.14845,-0.9531 -2.63673,-1.52341 -4.46484,-1.71094 z m -0.11719,17.0625 0,-2.71875 c 0.90624,-0.43749 1.57811,-0.91405 2.01563,-1.42969 0.43748,-0.51561 0.75779,-1.20311 0.96094,-2.0625 0.12498,-0.59373 0.28904,-1.00389 0.49218,-1.23047 0.20311,-0.22654 0.49217,-0.33982 0.86719,-0.33984 0.49998,2e-5 0.84373,0.19533 1.03125,0.58593 0.10935,0.20315 0.16404,0.66409 0.16406,1.38282 l 0,8.92968 c -2e-5,0.73439 -0.082,1.2422 -0.24609,1.52344 -0.16408,0.28126 -0.46487,0.42188 -0.90234,0.42188 -0.3594,0 -0.64065,-0.10937 -0.84375,-0.32813 -0.20315,-0.21874 -0.36721,-0.58593 -0.49219,-1.10156 -0.26565,-1.07812 -0.64455,-1.90624 -1.13672,-2.48438 -0.49221,-0.57811 -1.12892,-0.96092 -1.91016,-1.14843 z m 0.14063,14.92968 0,-2.53125 c 1.01561,-0.15624 1.85545,-0.37499 2.51953,-0.65625 0.66404,-0.28124 1.33201,-0.71093 2.00391,-1.28906 0.67185,-0.57812 1.207,-1.17578 1.60546,-1.79297 0.39842,-0.61718 0.77732,-1.43358 1.13672,-2.44922 0.17185,-0.49999 0.35154,-0.83983 0.53907,-1.01953 0.18747,-0.17968 0.44528,-0.26952 0.77343,-0.26953 0.43748,10e-6 0.74217,0.12892 0.91407,0.38672 0.17184,0.25782 0.25778,0.70704 0.25781,1.34766 l 0,8.27343 z"
         style="font-size:48px;fill:#788f74;font-family:Stencil;-inkscape-font-specification:Stencil"
         id="path7682"
         inkscape:connector-curvature="0" />
      <path
         d="m 395.91177,595.69885 -10.42968,0 -0.60938,0 c -0.5625,0 -0.9961,-0.10547 -1.30078,-0.3164 -0.30469,-0.21094 -0.45703,-0.51172 -0.45703,-0.90235 0,-0.64062 0.3125,-1.0625 0.9375,-1.26562 0.51562,-0.17187 0.8164,-0.27734 0.90234,-0.31641 0.0859,-0.0391 0.17578,-0.1289 0.26953,-0.26953 0.1875,-0.25 0.28125,-0.64843 0.28125,-1.19531 l 0,-23.46094 c 0,-0.54685 -0.0937,-0.94528 -0.28125,-1.19531 -0.0937,-0.1406 -0.18359,-0.23044 -0.26953,-0.26953 -0.0859,-0.039 -0.38672,-0.14451 -0.90234,-0.31641 -0.625,-0.2031 -0.9375,-0.62497 -0.9375,-1.26562 0,-0.3906 0.15234,-0.69138 0.45703,-0.90235 0.30468,-0.2109 0.73828,-0.31637 1.30078,-0.3164 l 0.60938,0 10.45312,0 0.79688,0 c 0.68748,3e-5 1.17967,0.0938 1.47656,0.28125 0.40623,0.25003 0.60936,0.57815 0.60937,0.98437 -10e-6,0.68753 -0.37501,1.11722 -1.125,1.28906 -0.60939,0.14066 -0.96876,0.23441 -1.07812,0.28125 -0.10939,0.0469 -0.22658,0.14066 -0.35156,0.28125 -0.23439,0.28128 -0.35158,0.71878 -0.35157,1.3125 z m 1.89844,0 0,-2.625 c 0.76561,-0.14062 1.37108,-0.29687 1.81641,-0.46875 0.44529,-0.17187 0.87107,-0.42187 1.27734,-0.75 0.65623,-0.51562 1.25779,-1.22655 1.80469,-2.13281 0.54685,-0.90624 0.99216,-1.91405 1.33594,-3.02344 0.24997,-0.85936 0.48044,-1.42577 0.6914,-1.69922 0.21092,-0.27342 0.51951,-0.41014 0.92578,-0.41015 0.43748,10e-6 0.75779,0.1797 0.96094,0.53906 0.0937,0.17189 0.1406,0.51564 0.14063,1.03125 l 0,9.53906 z"
         style="font-size:48px;fill:#81a5a3;font-family:Stencil;-inkscape-font-specification:Stencil"
         id="path7684"
         inkscape:connector-curvature="0" />
      <path
         d="m 418.10709,563.70667 9.44531,0 6.51562,27.53906 c 0.12498,0.48438 0.2656,0.91406 0.42188,1.28906 0.1406,0.29688 0.4531,0.53907 0.9375,0.72656 0.40622,0.17188 0.68747,0.34375 0.84375,0.51563 0.15622,0.17187 0.23434,0.40625 0.23437,0.70312 -3e-5,0.8125 -0.6094,1.21875 -1.82812,1.21875 l -11.69531,0 c -0.46877,0 -0.84377,-0.11328 -1.125,-0.33984 -0.28127,-0.22656 -0.42189,-0.52734 -0.42188,-0.90234 -10e-6,-0.3125 0.0625,-0.54688 0.1875,-0.70313 0.12499,-0.15625 0.40624,-0.35156 0.84375,-0.58594 0.31249,-0.15624 0.53123,-0.32812 0.65625,-0.51562 0.12498,-0.1875 0.18748,-0.42187 0.1875,-0.70313 -2e-5,-0.26562 -0.0234,-0.49999 -0.0703,-0.70312 l -0.75,-3.39844 -6.53906,0 0.63281,-2.78906 5.25,0 -4.3125,-19.05469 z m -1.61719,5.95312 1.19531,4.85156 -4.14844,15.14063 c -0.125,0.4375 -0.1875,0.84375 -0.1875,1.21875 0,0.98438 0.46093,1.6875 1.38282,2.10937 l 0.82031,0.375 c 0.51561,0.23438 0.77343,0.625 0.77344,1.17188 -1e-5,0.78125 -0.57033,1.17187 -1.71094,1.17187 l -5.95313,0 c -0.57812,0 -1.03515,-0.12109 -1.37109,-0.36328 -0.33594,-0.24219 -0.50391,-0.57422 -0.50391,-0.99609 0,-0.45313 0.34375,-0.82813 1.03125,-1.125 0.64063,-0.28125 1.11328,-0.53516 1.41797,-0.76172 0.30469,-0.22656 0.59766,-0.53515 0.87891,-0.92578 0.43749,-0.64062 0.79687,-1.49218 1.07812,-2.55469 z"
         style="font-size:48px;fill:#1c762d;font-family:Stencil;-inkscape-font-specification:Stencil"
         id="path7686"
         inkscape:connector-curvature="0" />
      <path
         d="m 455.93521,563.70667 0,27.53906 c -2e-5,0.60938 0.11717,1.04688 0.35156,1.3125 0.12498,0.15625 0.24217,0.25391 0.35157,0.29297 0.10935,0.0391 0.46873,0.13672 1.07812,0.29297 0.74998,0.17187 1.12498,0.60156 1.125,1.28906 -2e-5,0.40625 -0.20315,0.73437 -0.60937,0.98437 -0.2969,0.1875 -0.7969,0.28125 -1.5,0.28125 l -0.77344,0 -10.45313,0 -0.77343,0 c -0.68751,0 -1.20704,-0.10547 -1.5586,-0.3164 -0.35157,-0.21094 -0.52735,-0.52735 -0.52734,-0.94922 -10e-6,-0.6875 0.37499,-1.11719 1.125,-1.28906 0.60937,-0.15625 0.96874,-0.25391 1.07812,-0.29297 0.10937,-0.0391 0.21875,-0.13672 0.32813,-0.29297 0.23436,-0.26562 0.35155,-0.70312 0.35156,-1.3125 l 0,-27.53906 z m 8.10938,0 0,9.58593 c -3e-5,0.45315 -0.12894,0.82034 -0.38672,1.10157 -0.25784,0.28127 -0.58987,0.42189 -0.9961,0.42187 -0.39065,2e-5 -0.71487,-0.12889 -0.97265,-0.38672 -0.25784,-0.25779 -0.42581,-0.61326 -0.50391,-1.0664 l -0.23437,-1.42969 c -0.2344,-1.4531 -0.68753,-2.71091 -1.35938,-3.77344 -0.4219,-0.65622 -0.99221,-1.19528 -1.71094,-1.61719 l 0,-2.83593 z m -26.57813,0 6.16406,0 0,2.83593 c -0.73438,0.42191 -1.30469,0.96097 -1.71093,1.61719 -0.67188,1.06253 -1.12501,2.32034 -1.35938,3.77344 l -0.23437,1.42969 c -0.0781,0.45314 -0.2461,0.80861 -0.50391,1.0664 -0.25782,0.25783 -0.58203,0.38674 -0.97266,0.38672 -0.40625,2e-5 -0.73828,-0.1406 -0.99609,-0.42187 -0.25781,-0.28123 -0.38672,-0.64842 -0.38672,-1.10157 z"
         style="font-size:48px;fill:#3d6337;font-family:Stencil;-inkscape-font-specification:Stencil"
         id="path7688"
         inkscape:connector-curvature="0" />
      <path
         d="m 479.72427,563.70667 0,31.99218 -10.42968,0 -0.60938,0 c -0.5625,0 -0.9961,-0.10547 -1.30078,-0.3164 -0.30469,-0.21094 -0.45703,-0.51172 -0.45703,-0.90235 0,-0.64062 0.3125,-1.0625 0.9375,-1.26562 0.51562,-0.17187 0.8164,-0.27734 0.90234,-0.31641 0.0859,-0.0391 0.17578,-0.1289 0.26953,-0.26953 0.1875,-0.25 0.28125,-0.64843 0.28125,-1.19531 l 0,-23.46094 c 0,-0.54685 -0.0937,-0.94528 -0.28125,-1.19531 -0.0937,-0.1406 -0.18359,-0.23044 -0.26953,-0.26953 -0.0859,-0.039 -0.38672,-0.14451 -0.90234,-0.31641 -0.625,-0.2031 -0.9375,-0.62497 -0.9375,-1.26562 0,-0.3906 0.15234,-0.69138 0.45703,-0.90235 0.30468,-0.2109 0.73828,-0.31637 1.30078,-0.3164 l 0.60938,0 z m 2.08594,0 9.44531,0 0,8.29687 c -2e-5,0.4844 -0.0938,0.83596 -0.28125,1.05469 -0.18752,0.21877 -0.4844,0.32814 -0.89062,0.32812 -0.34378,2e-5 -0.59378,-0.0703 -0.75,-0.21093 -0.15628,-0.14061 -0.30471,-0.42967 -0.44531,-0.86719 -0.59378,-1.81248 -1.46487,-3.19529 -2.61329,-4.14844 -1.14845,-0.9531 -2.63673,-1.52341 -4.46484,-1.71094 z m -0.11719,17.0625 0,-2.71875 c 0.90624,-0.43749 1.57811,-0.91405 2.01563,-1.42969 0.43748,-0.51561 0.75779,-1.20311 0.96094,-2.0625 0.12498,-0.59373 0.28904,-1.00389 0.49218,-1.23047 0.20311,-0.22654 0.49217,-0.33982 0.86719,-0.33984 0.49998,2e-5 0.84373,0.19533 1.03125,0.58593 0.10935,0.20315 0.16404,0.66409 0.16406,1.38282 l 0,8.92968 c -2e-5,0.73439 -0.082,1.2422 -0.24609,1.52344 -0.16408,0.28126 -0.46487,0.42188 -0.90234,0.42188 -0.3594,0 -0.64065,-0.10937 -0.84375,-0.32813 -0.20315,-0.21874 -0.36721,-0.58593 -0.49219,-1.10156 -0.26565,-1.07812 -0.64455,-1.90624 -1.13672,-2.48438 -0.49221,-0.57811 -1.12892,-0.96092 -1.91016,-1.14843 z m 0.14063,14.92968 0,-2.53125 c 1.01561,-0.15624 1.85545,-0.37499 2.51953,-0.65625 0.66404,-0.28124 1.33201,-0.71093 2.00391,-1.28906 0.67185,-0.57812 1.207,-1.17578 1.60546,-1.79297 0.39842,-0.61718 0.77732,-1.43358 1.13672,-2.44922 0.17185,-0.49999 0.35154,-0.83983 0.53907,-1.01953 0.18747,-0.17968 0.44528,-0.26952 0.77343,-0.26953 0.43748,10e-6 0.74217,0.12892 0.91407,0.38672 0.17184,0.25782 0.25778,0.70704 0.25781,1.34766 l 0,8.27343 z"
         style="font-size:48px;fill:#9a9681;font-family:Stencil;-inkscape-font-specification:Stencil"
         id="path7690"
         inkscape:connector-curvature="0" />
      <path
         d="m 507.94302,563.70667 0,31.99218 -10.42968,0 -0.60938,0 c -0.5625,0 -0.9961,-0.10547 -1.30078,-0.3164 -0.30469,-0.21094 -0.45703,-0.51172 -0.45703,-0.90235 0,-0.64062 0.3125,-1.0625 0.9375,-1.26562 0.51562,-0.17187 0.8164,-0.27734 0.90234,-0.31641 0.0859,-0.0391 0.17578,-0.1289 0.26953,-0.26953 0.1875,-0.25 0.28125,-0.64843 0.28125,-1.19531 l 0,-23.46094 c 0,-0.54685 -0.0937,-0.94528 -0.28125,-1.19531 -0.0937,-0.1406 -0.18359,-0.23044 -0.26953,-0.26953 -0.0859,-0.039 -0.38672,-0.14451 -0.90234,-0.31641 -0.625,-0.2031 -0.9375,-0.62497 -0.9375,-1.26562 0,-0.3906 0.15234,-0.69138 0.45703,-0.90235 0.30468,-0.2109 0.73828,-0.31637 1.30078,-0.3164 l 0.60938,0 z m 4.73438,25.28906 0,-18.49219 c -2e-5,-1.1406 -0.16408,-2.04685 -0.49219,-2.71875 -0.20314,-0.43747 -0.45314,-0.75778 -0.75,-0.96094 -0.29689,-0.20309 -0.76564,-0.37497 -1.40625,-0.51562 l 0,-2.60156 c 0.82811,3e-5 1.53123,0.0313 2.10938,0.0937 1.98435,0.21878 3.90622,1.06253 5.76562,2.53125 1.84372,1.4219 3.21091,3.27346 4.10156,5.55468 0.92185,2.31252 1.38279,4.87502 1.38282,7.6875 -3e-5,3.18752 -0.58597,6.01954 -1.75782,8.4961 -1.1719,2.47656 -2.85158,4.42578 -5.03906,5.84765 -1.06252,0.6875 -2.0508,1.15625 -2.96484,1.40625 -0.91408,0.25 -2.1133,0.375 -3.59766,0.375 l 0,-2.53125 c 0.65623,-0.17187 1.11326,-0.32812 1.37109,-0.46875 0.2578,-0.14062 0.48046,-0.35937 0.66797,-0.65625 0.23436,-0.34374 0.39452,-0.73046 0.48047,-1.16015 0.0859,-0.42969 0.12889,-1.05859 0.12891,-1.88672 z"
         style="font-size:48px;fill:#9e755f;font-family:Stencil;-inkscape-font-specification:Stencil"
         id="path7692"
         inkscape:connector-curvature="0" />
      <path
         d="m 551.06802,563.70667 0,27.53906 c -1e-5,0.60938 0.11718,1.04688 0.35157,1.3125 0.12498,0.15625 0.24217,0.25391 0.35156,0.29297 0.10936,0.0391 0.46873,0.13672 1.07812,0.29297 0.74999,0.17187 1.12499,0.60156 1.125,1.28906 -1e-5,0.40625 -0.20314,0.73437 -0.60937,0.98437 -0.29689,0.1875 -0.78908,0.28125 -1.47656,0.28125 l -0.79688,0 -10.45312,0 -0.60938,0 c -0.5625,0 -0.9961,-0.10547 -1.30078,-0.3164 -0.30469,-0.21094 -0.45703,-0.51172 -0.45703,-0.90235 0,-0.64062 0.3125,-1.0625 0.9375,-1.26562 0.51562,-0.17187 0.8164,-0.27734 0.90234,-0.31641 0.0859,-0.0391 0.17578,-0.1289 0.26953,-0.26953 0.1875,-0.25 0.28125,-0.64843 0.28125,-1.19531 l 0,-23.46094 c 0,-0.54685 -0.0937,-0.94528 -0.28125,-1.19531 -0.0937,-0.1406 -0.18359,-0.23044 -0.26953,-0.26953 -0.0859,-0.039 -0.38672,-0.14451 -0.90234,-0.31641 -0.625,-0.2031 -0.9375,-0.62497 -0.9375,-1.26562 0,-0.3906 0.15234,-0.69138 0.45703,-0.90235 0.30468,-0.2109 0.73828,-0.31637 1.30078,-0.3164 l 0.60938,0 z m 1.99219,19.73437 0,-2.50781 c 0.67186,-0.15624 1.14451,-0.3203 1.41797,-0.49219 0.27342,-0.17186 0.5117,-0.43748 0.71484,-0.79687 0.32811,-0.60936 0.49217,-1.42967 0.49219,-2.46094 l 0,-7.5 c -2e-5,-0.73435 -0.0547,-1.28123 -0.16406,-1.64063 -0.1094,-0.35934 -0.32815,-0.68747 -0.65625,-0.98437 -0.45314,-0.43747 -1.06252,-0.71091 -1.82813,-0.82031 l 0,-2.53125 c 3.21873,3e-5 5.59373,0.30471 7.125,0.91406 1.7656,0.70315 3.16404,1.78128 4.19532,3.23437 1.04684,1.4844 1.57028,3.30471 1.57031,5.46094 -3e-5,2.40627 -0.53128,4.37502 -1.59375,5.90625 -1.06253,1.51564 -2.5469,2.63283 -4.45313,3.35156 -1.57814,0.57814 -3.85158,0.8672 -6.82031,0.86719 z"
         style="font-size:48px;fill:#604686;font-family:Stencil;-inkscape-font-specification:Stencil"
         id="path7694"
         inkscape:connector-curvature="0" />
      <path
         d="m 581.16177,565.6051 c -0.79688,0.28128 -1.35938,0.66409 -1.6875,1.14844 -0.32813,0.4844 -0.4922,1.19534 -0.49218,2.13281 l 0,20.95313 c -2e-5,1.375 0.18748,2.34375 0.5625,2.90625 0.29686,0.46875 0.83592,0.80469 1.61718,1.00781 l 0,2.57813 c -3.46876,-0.28126 -6.375,-1.58594 -8.71875,-3.91407 -3.04687,-3.03124 -4.57031,-7.2578 -4.57031,-12.67968 0,-2.71874 0.40234,-5.17577 1.20703,-7.3711 0.80469,-2.19529 1.99609,-4.05857 3.57422,-5.58984 1.20312,-1.17185 2.49999,-2.06247 3.89063,-2.67188 1.39061,-0.60934 2.92967,-0.95309 4.61718,-1.03125 z m 1.92188,0 0,-2.53125 c 1.68748,0.0782 3.23045,0.42191 4.6289,1.03125 1.39842,0.60941 2.6992,1.50003 3.90235,2.67188 3.18747,3.1094 4.78122,7.42971 4.78125,12.96094 -3e-5,5.42188 -1.52347,9.64844 -4.57031,12.67968 -2.34378,2.34375 -5.25784,3.64844 -8.74219,3.91407 l 0,-2.57813 c 0.40623,-0.0937 0.72264,-0.21484 0.94922,-0.36328 0.22654,-0.14844 0.43357,-0.36328 0.62109,-0.64453 0.42186,-0.64062 0.6328,-1.60937 0.63281,-2.90625 l 0,-20.95313 c -1e-5,-0.82809 -0.14064,-1.48434 -0.42187,-1.96875 -0.18752,-0.32809 -0.41018,-0.58591 -0.66797,-0.77343 -0.25783,-0.18748 -0.62892,-0.36716 -1.11328,-0.53907 z"
         style="font-size:48px;fill:#a79d6c;font-family:Stencil;-inkscape-font-specification:Stencil"
         id="path7696"
         inkscape:connector-curvature="0" />
      <path
         d="m 610.10709,563.07385 0,2.69532 c -0.96877,0.26565 -1.70705,0.67581 -2.21485,1.23046 -0.50782,0.55472 -0.76173,1.23831 -0.76172,2.05079 -1e-5,0.78127 0.21093,1.46486 0.63282,2.05078 0.42186,0.58596 1.10936,1.14455 2.0625,1.67578 0.65623,0.3594 2.14061,1.04689 4.45312,2.0625 1.40623,0.60939 2.49608,1.16017 3.26953,1.65234 0.77342,0.49221 1.50389,1.10549 2.19141,1.83985 1.84372,1.93751 2.7656,4.2422 2.76562,6.91406 -2e-5,2.01563 -0.50002,3.85938 -1.5,5.53125 -1.00002,1.67188 -2.37502,2.98437 -4.125,3.9375 -0.93751,0.5 -1.96486,0.89453 -3.08203,1.18359 -1.1172,0.28906 -2.16017,0.43359 -3.1289,0.4336 l 0,-2.67188 c 1.35936,-0.32812 2.33982,-0.78515 2.9414,-1.37109 0.60155,-0.58594 0.90233,-1.37891 0.90235,-2.37891 -2e-5,-1.04687 -0.46877,-1.96874 -1.40625,-2.76562 -0.62502,-0.51562 -1.81252,-1.15625 -3.5625,-1.92188 -1.92189,-0.84374 -3.23829,-1.4453 -3.94922,-1.80469 -0.71095,-0.35936 -1.39454,-0.78123 -2.05078,-1.26562 -2.93751,-2.09374 -4.40626,-4.8828 -4.40625,-8.36719 -10e-6,-1.78123 0.36718,-3.42576 1.10156,-4.93359 0.73437,-1.50779 1.75781,-2.72263 3.07031,-3.64453 1.82812,-1.28122 4.09374,-1.99216 6.79688,-2.13282 z m 1.85156,2.69532 0,-2.57813 c 0.93748,0.0625 1.74998,0.18363 2.4375,0.36328 0.68748,0.17972 1.66404,0.53519 2.92969,1.06641 0.31248,0.12503 0.57029,0.18753 0.77343,0.1875 0.29686,3e-5 0.51561,-0.10153 0.65625,-0.30469 l 0.51563,-0.67969 c 0.24998,-0.34372 0.55466,-0.51559 0.91406,-0.51562 0.42185,3e-5 0.73045,0.15237 0.92578,0.45703 0.19529,0.30472 0.29295,0.78519 0.29297,1.44141 l 0,7.73437 c -2e-5,0.45315 -0.12893,0.82424 -0.38672,1.11328 -0.25783,0.28909 -0.58986,0.43362 -0.99609,0.4336 -0.31252,2e-5 -0.60159,-0.10155 -0.86719,-0.30469 -0.14065,-0.12498 -0.25393,-0.27732 -0.33984,-0.45703 -0.086,-0.17967 -0.16799,-0.48045 -0.2461,-0.90235 -0.17189,-0.7656 -0.46877,-1.55466 -0.89062,-2.36718 -0.4219,-0.81248 -0.91408,-1.53904 -1.47656,-2.17969 -1.12502,-1.2656 -2.53908,-2.10154 -4.24219,-2.50781 z m -3.07031,27.89062 0,2.67188 c -1.28126,-10e-6 -2.69533,-0.36719 -4.24219,-1.10157 -0.57813,-0.26562 -0.97657,-0.4375 -1.19531,-0.51562 -0.21876,-0.0781 -0.4297,-0.11719 -0.63282,-0.11719 -0.3125,0 -0.54688,0.0508 -0.70312,0.15234 -0.15626,0.10157 -0.40626,0.35547 -0.75,0.76172 -0.28126,0.34375 -0.58594,0.51563 -0.91406,0.51563 -0.87501,0 -1.31251,-0.67188 -1.3125,-2.01563 l 0,-8.53125 c -10e-6,-0.43749 0.12499,-0.80858 0.375,-1.11328 0.24999,-0.30467 0.56249,-0.46483 0.9375,-0.48047 0.34374,-0.0156 0.61327,0.082 0.80859,0.29297 0.19531,0.21095 0.36328,0.58204 0.50391,1.11328 0.35937,1.34376 0.8789,2.60157 1.55859,3.77344 0.67968,1.17188 1.47265,2.16407 2.37891,2.97656 0.92186,0.84376 1.98436,1.38282 3.1875,1.61719 z"
         style="font-size:48px;fill:#875669;font-family:Stencil;-inkscape-font-specification:Stencil"
         id="path7698"
         inkscape:connector-curvature="0" />
      <path
         d="m 643.71646,563.70667 0,27.53906 c -2e-5,0.60938 0.11717,1.04688 0.35156,1.3125 0.12498,0.15625 0.24217,0.25391 0.35157,0.29297 0.10935,0.0391 0.46873,0.13672 1.07812,0.29297 0.74998,0.17187 1.12498,0.60156 1.125,1.28906 -2e-5,0.40625 -0.20315,0.73437 -0.60937,0.98437 -0.2969,0.1875 -0.7969,0.28125 -1.5,0.28125 l -0.77344,0 -10.45313,0 -0.77343,0 c -0.68751,0 -1.20704,-0.10547 -1.5586,-0.3164 -0.35157,-0.21094 -0.52735,-0.52735 -0.52734,-0.94922 -1e-5,-0.6875 0.37499,-1.11719 1.125,-1.28906 0.60937,-0.15625 0.96874,-0.25391 1.07812,-0.29297 0.10937,-0.0391 0.21875,-0.13672 0.32813,-0.29297 0.23436,-0.26562 0.35155,-0.70312 0.35156,-1.3125 l 0,-27.53906 z m 8.10938,0 0,9.58593 c -3e-5,0.45315 -0.12894,0.82034 -0.38672,1.10157 -0.25784,0.28127 -0.58987,0.42189 -0.9961,0.42187 -0.39065,2e-5 -0.71487,-0.12889 -0.97265,-0.38672 -0.25784,-0.25779 -0.42581,-0.61326 -0.50391,-1.0664 l -0.23437,-1.42969 c -0.2344,-1.4531 -0.68753,-2.71091 -1.35938,-3.77344 -0.4219,-0.65622 -0.99221,-1.19528 -1.71094,-1.61719 l 0,-2.83593 z m -26.57813,0 6.16406,0 0,2.83593 c -0.73438,0.42191 -1.30469,0.96097 -1.71093,1.61719 -0.67188,1.06253 -1.12501,2.32034 -1.35938,3.77344 l -0.23437,1.42969 c -0.0781,0.45314 -0.2461,0.80861 -0.50391,1.0664 -0.25782,0.25783 -0.58203,0.38674 -0.97266,0.38672 -0.40625,2e-5 -0.73828,-0.1406 -0.99609,-0.42187 -0.25781,-0.28123 -0.38672,-0.64842 -0.38672,-1.10157 z"
         style="font-size:48px;fill:#8e94a6;font-family:Stencil;-inkscape-font-specification:Stencil"
         id="path7700"
         inkscape:connector-curvature="0" />
      <path
         d="m 665.51334,563.07385 0,2.69532 c -0.96877,0.26565 -1.70705,0.67581 -2.21485,1.23046 -0.50782,0.55472 -0.76173,1.23831 -0.76172,2.05079 -1e-5,0.78127 0.21093,1.46486 0.63282,2.05078 0.42186,0.58596 1.10936,1.14455 2.0625,1.67578 0.65623,0.3594 2.14061,1.04689 4.45312,2.0625 1.40623,0.60939 2.49608,1.16017 3.26953,1.65234 0.77342,0.49221 1.50389,1.10549 2.19141,1.83985 1.84372,1.93751 2.7656,4.2422 2.76562,6.91406 -2e-5,2.01563 -0.50002,3.85938 -1.5,5.53125 -1.00002,1.67188 -2.37502,2.98437 -4.125,3.9375 -0.93751,0.5 -1.96486,0.89453 -3.08203,1.18359 -1.1172,0.28906 -2.16017,0.43359 -3.1289,0.4336 l 0,-2.67188 c 1.35936,-0.32812 2.33982,-0.78515 2.9414,-1.37109 0.60155,-0.58594 0.90233,-1.37891 0.90235,-2.37891 -2e-5,-1.04687 -0.46877,-1.96874 -1.40625,-2.76562 -0.62502,-0.51562 -1.81252,-1.15625 -3.5625,-1.92188 -1.92189,-0.84374 -3.23829,-1.4453 -3.94922,-1.80469 -0.71095,-0.35936 -1.39454,-0.78123 -2.05078,-1.26562 -2.93751,-2.09374 -4.40626,-4.8828 -4.40625,-8.36719 -10e-6,-1.78123 0.36718,-3.42576 1.10156,-4.93359 0.73437,-1.50779 1.75781,-2.72263 3.07031,-3.64453 1.82812,-1.28122 4.09374,-1.99216 6.79688,-2.13282 z m 1.85156,2.69532 0,-2.57813 c 0.93748,0.0625 1.74998,0.18363 2.4375,0.36328 0.68748,0.17972 1.66404,0.53519 2.92969,1.06641 0.31248,0.12503 0.57029,0.18753 0.77343,0.1875 0.29686,3e-5 0.51561,-0.10153 0.65625,-0.30469 l 0.51563,-0.67969 c 0.24998,-0.34372 0.55466,-0.51559 0.91406,-0.51562 0.42185,3e-5 0.73045,0.15237 0.92578,0.45703 0.19529,0.30472 0.29295,0.78519 0.29297,1.44141 l 0,7.73437 c -2e-5,0.45315 -0.12893,0.82424 -0.38672,1.11328 -0.25783,0.28909 -0.58986,0.43362 -0.99609,0.4336 -0.31252,2e-5 -0.60159,-0.10155 -0.86719,-0.30469 -0.14065,-0.12498 -0.25393,-0.27732 -0.33984,-0.45703 -0.086,-0.17967 -0.16799,-0.48045 -0.2461,-0.90235 -0.17189,-0.7656 -0.46877,-1.55466 -0.89062,-2.36718 -0.4219,-0.81248 -0.91408,-1.53904 -1.47656,-2.17969 -1.12502,-1.2656 -2.53908,-2.10154 -4.24219,-2.50781 z m -3.07031,27.89062 0,2.67188 c -1.28126,-10e-6 -2.69533,-0.36719 -4.24219,-1.10157 -0.57813,-0.26562 -0.97657,-0.4375 -1.19531,-0.51562 -0.21876,-0.0781 -0.4297,-0.11719 -0.63282,-0.11719 -0.3125,0 -0.54688,0.0508 -0.70312,0.15234 -0.15626,0.10157 -0.40626,0.35547 -0.75,0.76172 -0.28126,0.34375 -0.58594,0.51563 -0.91406,0.51563 -0.87501,0 -1.31251,-0.67188 -1.3125,-2.01563 l 0,-8.53125 c -10e-6,-0.43749 0.12499,-0.80858 0.375,-1.11328 0.24999,-0.30467 0.56249,-0.46483 0.9375,-0.48047 0.34374,-0.0156 0.61327,0.082 0.80859,0.29297 0.19531,0.21095 0.36328,0.58204 0.50391,1.11328 0.35937,1.34376 0.8789,2.60157 1.55859,3.77344 0.67968,1.17188 1.47265,2.16407 2.37891,2.97656 0.92186,0.84376 1.98436,1.38282 3.1875,1.61719 z"
         style="font-size:48px;fill:#5f764d;font-family:Stencil;-inkscape-font-specification:Stencil"
         id="path7702"
         inkscape:connector-curvature="0" />
      <path
         d="m 717.47427,573.26917 0,3.11718 c -2e-5,0.3594 -0.0703,0.6094 -0.21093,0.75 -0.14065,0.14065 -0.39065,0.21096 -0.75,0.21094 l -22.05469,0 c -0.35938,2e-5 -0.60938,-0.0703 -0.75,-0.21094 -0.14063,-0.1406 -0.21094,-0.3906 -0.21094,-0.75 l 0,-3.11718 c 0,-0.35936 0.0703,-0.60936 0.21094,-0.75 0.14062,-0.14061 0.39062,-0.21092 0.75,-0.21094 l 22.05469,0 c 0.35935,2e-5 0.60935,0.0703 0.75,0.21094 0.1406,0.14064 0.21091,0.39064 0.21093,0.75 z m 0,9.67968 0,3.11719 c -2e-5,0.35938 -0.0703,0.60938 -0.21093,0.75 -0.14065,0.14063 -0.39065,0.21095 -0.75,0.21094 l -22.05469,0 c -0.35938,10e-6 -0.60938,-0.0703 -0.75,-0.21094 -0.14063,-0.14062 -0.21094,-0.39062 -0.21094,-0.75 l 0,-3.11719 c 0,-0.35936 0.0703,-0.60936 0.21094,-0.75 0.14062,-0.14061 0.39062,-0.21092 0.75,-0.21093 l 22.05469,0 c 0.35935,10e-6 0.60935,0.0703 0.75,0.21093 0.1406,0.14064 0.21091,0.39064 0.21093,0.75 z"
         style="font-size:48px;fill:#000000;font-family:Stencil;-inkscape-font-specification:Stencil"
         id="path7704"
         inkscape:connector-curvature="0" />
    </g>
  </g>
</svg>
