<?xml version="1.0" encoding="UTF-8" standalone="no"?>
<!-- Created with Inkscape (http://www.inkscape.org/) -->

<svg
   xmlns:dc="http://purl.org/dc/elements/1.1/"
   xmlns:cc="http://creativecommons.org/ns#"
   xmlns:rdf="http://www.w3.org/1999/02/22-rdf-syntax-ns#"
   xmlns:svg="http://www.w3.org/2000/svg"
   xmlns="http://www.w3.org/2000/svg"
   xmlns:sodipodi="http://sodipodi.sourceforge.net/DTD/sodipodi-0.dtd"
   xmlns:inkscape="http://www.inkscape.org/namespaces/inkscape"
   width="629.60156"
   height="159.92833"
   id="svg2"
   version="1.1"
   inkscape:version="0.48.4 r9939"
   sodipodi:docname="New document 1">
  <defs
     id="defs4">
    <filter
       id="filter7424"
       inkscape:menu-tooltip="Adds a turbulent transparency which displaces pixels at the same time"
       inkscape:menu="Image effects, transparent"
       inkscape:label="Rough transparency"
       color-interpolation-filters="sRGB">
      <feTurbulence
         id="feTurbulence7426"
         result="result3"
         baseFrequency="0.3"
         type="fractalNoise"
         seed="0"
         numOctaves="3" />
      <feGaussianBlur
         id="feGaussianBlur7428"
         stdDeviation="1.5"
         result="result91" />
      <feDisplacementMap
         id="feDisplacementMap7430"
         in2="result91"
         result="fbSourceGraphic"
         in="SourceGraphic"
         xChannelSelector="R"
         yChannelSelector="G"
         scale="30" />
      <feColorMatrix
         id="feColorMatrix7432"
         type="luminanceToAlpha"
         in="fbSourceGraphic"
         result="result0" />
      <feColorMatrix
         id="feColorMatrix7434"
         result="result2"
         values="1 0 0 0 0 0 1 0 0 0 0 0 1 0 0 0 0 0 1 0 " />
      <feComposite
         id="feComposite7436"
         in2="result2"
         operator="over"
         in="result3"
         result="result4" />
      <feGaussianBlur
         id="feGaussianBlur7438"
         stdDeviation="2"
         result="result5" />
      <feDisplacementMap
         id="feDisplacementMap7440"
         in2="result3"
         scale="100"
         xChannelSelector="R"
         in="result5"
         yChannelSelector="G" />
      <feColorMatrix
         id="feColorMatrix7442"
         values="1 0 0 0 0 0 1 0 0 0 0 0 1 0 0 0 0 0 6.5 -4.5 "
         result="result92" />
      <feComposite
         id="feComposite7444"
         in2="result92"
         in="fbSourceGraphic"
         operator="out" />
    </filter>
    <filter
       id="filter7493"
       inkscape:label="Blueprint"
       x="0"
       y="0"
       width="1"
       height="1"
       inkscape:menu="Image effects"
       inkscape:menu-tooltip="Detect color edges and retrace them in blue"
       color-interpolation-filters="sRGB">
      <feConvolveMatrix
         id="feConvolveMatrix7495"
         order="3 3"
         kernelMatrix="1 1 1 1 -8 1 1 1 1"
         in="SourceGraphic"
         divisor="1"
         targetX="1"
         targetY="1"
         preserveAlpha="true"
         result="result0"
         bias="0" />
      <feColorMatrix
         id="feColorMatrix7497"
         result="result3"
         values="-0.15 -0.3 -0.05 0 1 -0.15 -0.3 -0.05 0 1 0 0 0 0 1 0 0 0 1 0" />
    </filter>
    <filter
       id="filter7499"
       x="0"
       y="0"
       width="1"
       height="1"
       inkscape:menu-tooltip="Give lead pencil or chromolithography or engraving or other effects to images and material filled objects"
       inkscape:menu="Image effects"
       inkscape:label="Drawing"
       color-interpolation-filters="sRGB">
      <feGaussianBlur
         id="feGaussianBlur7501"
         stdDeviation="0.5"
         result="result8" />
      <feConvolveMatrix
         id="feConvolveMatrix7503"
         bias="0"
         result="result0"
         preserveAlpha="true"
         targetY="1"
         targetX="1"
         divisor="1"
         in="result8"
         kernelMatrix="1 1 1 1 -8 1 1 1 1 "
         order="3 3" />
      <feColorMatrix
         id="feColorMatrix7505"
         values="0 -6 0 0 1 0 -6 0 0 1 0 -6 0 0 1 0 0 0 1 0 "
         result="result3" />
      <feComposite
         id="feComposite7507"
         in2="result3"
         k3="0.3"
         k1="1"
         operator="arithmetic"
         in="SourceGraphic"
         result="fbSourceGraphic"
         k2="0"
         k4="0" />
      <feGaussianBlur
         id="feGaussianBlur7509"
         stdDeviation="0.01"
         in="fbSourceGraphic"
         result="result7" />
      <feBlend
         id="feBlend7511"
         in2="result7"
         in="result7"
         mode="multiply"
         result="result9" />
      <feComposite
         id="feComposite7513"
         in2="SourceGraphic"
         operator="in" />
    </filter>
  </defs>
  <sodipodi:namedview
     id="base"
     pagecolor="#ffffff"
     bordercolor="#666666"
     borderopacity="1.0"
     inkscape:pageopacity="0.0"
     inkscape:pageshadow="2"
     inkscape:zoom="0.98994949"
     inkscape:cx="155.11173"
     inkscape:cy="81.609324"
     inkscape:document-units="px"
     inkscape:current-layer="layer1"
     showgrid="false"
     fit-margin-top="10"
     fit-margin-left="0"
     fit-margin-right="0"
     fit-margin-bottom="0"
     inkscape:window-width="1920"
     inkscape:window-height="1138"
     inkscape:window-x="-8"
     inkscape:window-y="-8"
     inkscape:window-maximized="1" />
  <metadata
     id="metadata7">
    <rdf:RDF>
      <cc:Work
         rdf:about="">
        <dc:format>image/svg+xml</dc:format>
        <dc:type
           rdf:resource="http://purl.org/dc/dcmitype/StillImage" />
        <dc:title></dc:title>
      </cc:Work>
    </rdf:RDF>
  </metadata>
  <g
     inkscape:label="Layer 1"
     inkscape:groupmode="layer"
     id="layer1"
     transform="translate(-87.872711,-437.41115)">
    <path
       style="fill:#025589;fill-opacity:1"
       d="m 513.8512,531.64062 -8.94003,-9.56077 -11,-0.18529 c -9.74274,-0.16411 -11.71256,-0.51095 -17.23431,-3.03458 -7.24448,-3.31097 -14.33263,-10.31766 -17.575,-17.37301 -1.83849,-4.00053 -2.16959,-6.54041 -2.17927,-16.71723 -0.0103,-10.8714 0.23497,-12.52541 2.6084,-17.58648 3.44876,-7.35413 8.71708,-12.46558 16.79158,-16.29159 6.19088,-2.93348 7.28279,-3.12182 18.0886,-3.12018 10.50463,0.002 12.02888,0.24603 17.61039,2.82392 3.39745,1.56915 8.14963,4.89828 10.7034,7.49824 6.48555,6.60288 8.8842,12.63317 9.46852,23.80424 0.62969,12.03859 -1.88676,20.93681 -7.83069,27.68948 -2.25009,2.55624 -3.84105,5.05226 -3.53546,5.54671 0.30559,0.49446 2.81197,2.61972 5.56973,4.72282 2.75776,2.1031 5.01411,4.13608 5.01411,4.51775 0,0.38166 -1.93949,4.32381 -4.30997,8.76033 l -4.30998,8.06641 -8.94002,-9.56077 z m -10.44003,-28.92267 c 3.41625,-1.73499 7.65121,-6.36183 8.93638,-9.76331 1.78471,-4.72363 1.28661,-13.59282 -1.03243,-18.38331 -6.11677,-12.63557 -26.29745,-13.01814 -33.55381,-0.63608 -1.84157,3.1424 -2.46081,5.66252 -2.48204,10.10118 -0.0352,7.36904 1.78444,11.84304 6.50128,15.98448 3.39314,2.97922 4.59518,3.51795 10.13062,4.54037 2.90643,0.53683 8.61513,-0.37822 11.5,-1.84333 z m 59.80321,18.21225 c -6.69442,-1.88749 -12.28701,-5.92349 -15.2764,-11.0245 -4.33069,-7.38976 -5.49021,-15.78416 -5.50945,-39.88596 l -0.0174,-21.75 9.41944,0 9.41943,0 0.33083,23.25 c 0.36727,25.81142 0.89602,28.18126 6.99095,31.33307 4.50169,2.32792 14.35487,2.15876 17.71693,-0.30416 5.62667,-4.12188 6.11917,-6.65875 6.12087,-31.52891 l 0.002,-22.75 10.12438,0 10.12438,0 -0.52998,23.75 c -0.53525,23.98691 -1.31625,29.70851 -5.03678,36.89963 -2.16309,4.18085 -8.72155,9.69333 -13.40703,11.26879 -5.58555,1.8781 -24.78429,2.34563 -30.47176,0.74204 z m 77,0.003 c -9.29289,-2.62702 -16.88342,-9.81499 -18.40648,-17.4303 -0.54435,-2.72176 -0.34992,-3.23645 1.22827,-3.25141 1.03125,-0.01 5.84095,-0.43502 10.68823,-0.94501 l 8.81323,-0.92724 2.77507,3.10584 c 2.36254,2.64414 3.45228,3.0956 7.33068,3.03697 7.17756,-0.10851 10.98393,-3.16919 7.51779,-6.04502 -0.6875,-0.57041 -5.47648,-2.22535 -10.64219,-3.67764 -10.61837,-2.98527 -17.57831,-6.2277 -20.81008,-9.69479 -7.53277,-8.08127 -6.88083,-23.33649 1.32617,-31.03229 4.2978,-4.0301 9.95834,-5.99014 18.92786,-6.55403 14.80941,-0.93106 24.95387,4.21116 30.08684,15.25096 l 2.32475,5 -3.23167,0.68413 c -1.77743,0.37628 -6.7757,0.78184 -11.10728,0.90126 -6.28694,0.17332 -8.05354,-0.10084 -8.75772,-1.35913 -2.3978,-4.28464 -12.86668,-4.11068 -12.86668,0.21381 0,2.62195 2.09556,3.63393 12.59394,6.08183 11.50057,2.68159 16.21727,4.86001 20.10151,9.28397 7.12648,8.11671 6.81777,20.42132 -0.72741,28.9931 -5.50533,6.25439 -12.15127,8.8998 -23.46804,9.34147 -5.52621,0.21567 -10.81285,-0.16124 -13.69679,-0.9765 z m -518.22547,-1.87946 c -6.8814,-4.00716 -5.91973,-4.784 5.92226,-4.784 11.30924,0 12.30275,0.56491 7.4135,4.21526 -3.9947,2.98247 -8.83614,3.18895 -13.33576,0.56874 z m 25.75482,0.15156 c -2.29209,-1.13458 -4.41546,-2.70922 -4.71861,-3.49921 -0.45838,-1.19451 1.29034,-1.43635 10.38605,-1.43635 9.44537,0 10.85649,0.21041 10.34528,1.5426 -0.68851,1.79423 -7.43967,5.45776 -10.05544,5.45661 -0.98441,-4.3e-4 -3.66518,-0.92908 -5.95728,-2.06365 z m 28.64269,-0.50066 c -0.53639,-1.4108 -0.99258,-5.7983 -1.01377,-9.75 -0.0372,-6.94664 -0.14268,-7.25122 -3.17963,-9.1849 -5.92607,-3.77323 -4.85452,-4.5 6.63482,-4.5 6.1029,0 10.58333,0.40686 10.58333,0.96105 0,1.37691 -4.13414,5.03895 -5.68856,5.03895 -0.96432,0 -1.31144,1.96788 -1.31144,7.4349 0,8.31166 -1.18479,12.5651 -3.5,12.5651 -0.85222,0 -1.98836,-1.15429 -2.52475,-2.5651 z m 32.04734,2.34785 c 0.0124,-0.15551 6.03707,-16.48275 13.38809,-36.28275 l 13.36551,-36 13.86191,-0.25896 13.8619,-0.25895 12.93109,35.25895 c 7.11209,19.39243 13.12274,35.82146 13.35699,36.50896 0.32371,0.9501 -2.21554,1.25 -10.58369,1.25 l -11.00959,0 -2.12618,-7 -2.12619,-7 -14.32747,0 -14.32747,0 -1.92853,6.75 -1.92852,6.75 -11.21522,0.28275 c -6.16837,0.15551 -11.20505,0.15551 -11.19263,0 z m 48.60426,-33.53275 c -1.21584,-4.18902 -6.81991,-22.88693 -7.26811,-24.25 -0.71691,-2.1802 -1.6823,-0.13732 -4.25311,9 -1.16058,4.125 -2.7626,9.6375 -3.56005,12.25 l -1.44992,4.75 8.51956,0 c 7.64069,0 8.46716,-0.18053 8.01163,-1.75 z m 40.37315,-2.75 0,-36.5 18.25,0.008 c 21.40675,0.009 33.61108,1.20959 38.63398,3.80089 5.41973,2.79603 8.11602,7.40439 8.11602,13.87152 0,9.19473 -3.10189,13.85795 -10.5,15.78511 -3.24196,0.84451 -2.9693,1.0415 2.77138,2.00232 8.81344,1.47511 14.12427,10.84715 11.9691,21.12195 -2.95029,14.06564 -9.56675,16.32392 -47.99048,16.37974 l -21.25,0.0309 0,-36.5 z m 44.91052,17.8679 c 4.48117,-0.89624 5.92626,-3.97523 3.16321,-6.73974 -1.91839,-1.9194 -3.44871,-2.16231 -15.60038,-2.47627 l -13.47335,-0.34812 0,5.09812 0,5.09811 11.375,0 c 6.25625,0 12.79723,-0.28445 14.53552,-0.6321 z m -2.47562,-28.34315 c 3.48869,-1.3264 3.49908,-5.27817 0.018,-6.86423 -1.41387,-0.64423 -7.19731,-1.16052 -12.99995,-1.16052 l -10.45295,0 0,4.5 0,4.5 10.4349,0 c 5.7392,0 11.5892,-0.43886 13,-0.97525 z m 32.99361,43.25769 c 1.66534,-4.62253 20.54137,-55.5473 23.54925,-63.53244 l 2.16594,-5.75 13.6793,0 13.6793,0 13.24885,35.8136 c 7.28687,19.69748 13.24885,36.12248 13.24885,36.5 0,0.37752 -4.86143,0.6864 -10.80317,0.6864 l -10.80316,0 -2.2545,-7 -2.25451,-7 -14.25747,0 -14.25748,0 -1.93909,6.75 -1.93909,6.75 -11.21285,0.28244 -11.21286,0.28245 1.36269,-3.78245 z m 47.31579,-30.03244 c -2.27221,-8.13215 -7.21717,-24.83368 -7.45132,-25.16667 -0.65947,-0.93787 -1.44612,1.15406 -5.16641,13.73895 l -3.89554,13.17772 8.50112,0 c 7.6159,0 8.4502,-0.18223 8.01215,-1.75 z m -299.4943,20.3524 c 2.0625,-1.8229 3.73267,-3.94166 3.71148,-4.70838 -0.0212,-0.76671 -1.45202,-2.29402 -3.17963,-3.39402 -5.92607,-3.77323 -4.85452,-4.5 6.63482,-4.5 5.82083,0 10.58333,0.37156 10.58333,0.82569 0,1.22199 -4.44127,5.17431 -5.81445,5.17431 -2.47063,0 -1.01961,3.59145 2.32683,5.75919 1.91819,1.24256 3.48762,2.70506 3.48762,3.25 0,0.59555 -4.28849,0.9742 -10.75,0.94918 l -10.75,-0.0416 3.75,-3.31435 z m 23.73386,0.91479 c 1.28286,-1.36555 3.1613,-2.74587 4.17431,-3.06739 2.75585,-0.87467 2.22384,-3.2009 -1.12852,-4.93447 -1.6337,-0.84482 -3.44953,-2.43137 -4.03519,-3.52568 -1.03317,-1.93051 -0.73575,-1.98965 10.00554,-1.98965 10.7413,0 11.03872,0.0591 10.00554,1.98965 -0.58565,1.09431 -2.40149,2.68086 -4.03518,3.52568 -3.35236,1.73357 -3.88438,4.0598 -1.12852,4.93447 1.013,0.32152 2.89144,1.70184 4.17431,3.06739 l 2.33248,2.48281 -11.34863,0 -11.34863,0 2.33249,-2.48281 z m -24.98386,-19.01719 c 1.29175,-1.375 2.94519,-2.5 3.67431,-2.5 1.02361,0 1.32569,-2.60508 1.32569,-11.43261 0,-10.28532 -0.18747,-11.49212 -1.86812,-12.02553 -1.02746,-0.32611 -2.6722,-1.48143 -3.65498,-2.56739 -1.7687,-1.95439 -1.67694,-1.97447 9.0231,-1.97447 10.70004,0 10.7918,0.0201 9.0231,1.97447 -0.98277,1.08596 -2.62752,2.24128 -3.65498,2.56739 -1.67331,0.53108 -1.86812,1.72711 -1.86812,11.46899 l 0,10.87608 2.96864,1.75362 c 6.01323,3.5521 4.77718,4.35945 -6.67434,4.35945 l -10.64293,0 2.34863,-2.5 z m 24,1.46627 c 0,-0.56854 1.575,-1.96299 3.5,-3.09877 l 3.5,-2.06505 0,-10.83384 c 0,-9.70063 -0.1954,-10.89585 -1.86811,-11.42675 -1.02747,-0.32611 -2.67221,-1.48143 -3.65499,-2.56739 -1.76867,-1.95436 -1.67708,-1.97447 8.99056,-1.97447 9.66825,0 10.64368,0.16116 9.47782,1.56594 -0.71479,0.86126 -2.56989,2.22282 -4.12244,3.02568 -2.82194,1.45928 -2.82284,1.46302 -2.82284,11.83528 l 0,10.37555 3.5,2.06505 c 5.65931,3.33907 4.41133,4.1325 -6.5,4.1325 -6.2175,0 -10,-0.39101 -10,-1.03373 z m 26.4769,-0.94074 c 0.98278,-1.08596 2.62752,-2.24128 3.65499,-2.56739 2.99233,-0.94973 2.18669,-4.07262 -1.63189,-6.32564 -5.71104,-3.3696 -4.41877,-4.1325 7,-4.1325 11.41877,0 12.71105,0.7629 7,4.1325 -4.27887,2.5246 -4.41671,4.21291 -0.53136,6.50805 6.01099,3.55078 4.7765,4.35945 -6.65501,4.35945 -10.51447,0 -10.60525,-0.0203 -8.83673,-1.97447 z m -1.4769,-17.01634 c 0,-0.54494 1.56943,-2.00744 3.48762,-3.25 3.82221,-2.47592 4.5664,-5.28988 1.64427,-6.21733 -1.02747,-0.32611 -2.67221,-1.48143 -3.65499,-2.56739 -1.7687,-1.95439 -1.67694,-1.97447 9.0231,-1.97447 10.70005,0 10.79181,0.0201 9.02311,1.97447 -0.98278,1.08596 -2.62753,2.24128 -3.65499,2.56739 -2.8163,0.89386 -2.17776,3.71193 1.35003,5.95814 5.92607,3.77323 4.85453,4.5 -6.63482,4.5 -6.32342,0 -10.58333,-0.39881 -10.58333,-0.99081 z m -48.97941,-20.5311 c 4.21816,-4.49003 10.67265,-4.87478 16.60211,-0.98965 4.31096,2.82465 2.68794,3.51156 -8.29701,3.51156 l -10.67432,0 2.36922,-2.52191 z m 24.19098,1.27191 c 0.20803,-0.6875 2.3847,-2.25683 4.83705,-3.4874 3.71748,-1.8654 5.05246,-2.07348 8.02935,-1.25152 1.9638,0.54223 4.62807,2.11156 5.9206,3.4874 l 2.35006,2.50152 -10.75765,0 c -8.14117,0 -10.66565,-0.30402 -10.37941,-1.25 z m 26.78986,-1.25152 c 1.29253,-1.37584 3.9568,-2.94517 5.9206,-3.4874 2.9769,-0.82196 4.31187,-0.61388 8.02936,1.25152 7.61234,3.81981 6.53884,4.7374 -5.54237,4.7374 l -10.75765,0 2.35006,-2.50152 z"
       id="path7336"
       inkscape:connector-curvature="0" />
    <text
       xml:space="preserve"
       style="font-size:11px;font-style:normal;font-variant:normal;font-weight:normal;font-stretch:normal;text-align:center;line-height:125%;letter-spacing:0px;word-spacing:0px;writing-mode:lr-tb;text-anchor:middle;fill:#01665e;fill-opacity:1;stroke:none;font-family:Times New Roman;-inkscape-font-specification:Times New Roman"
       x="402.66177"
       y="595.69885"
       id="text7479"
       sodipodi:linespacing="125%"><tspan
         sodipodi:role="line"
         id="tspan7481"
         x="402.66177"
         y="595.69885"
         style="font-size:48px;font-style:normal;font-variant:normal;font-weight:normal;font-stretch:normal;fill:#01665e;font-family:Stencil;-inkscape-font-specification:Stencil">= abaqus related posts =</tspan></text>
  </g>
</svg>
