<?xml version="1.0" encoding="UTF-8" standalone="no"?>
<!-- Created with Inkscape (http://www.inkscape.org/) -->

<svg
   xmlns:dc="http://purl.org/dc/elements/1.1/"
   xmlns:cc="http://creativecommons.org/ns#"
   xmlns:rdf="http://www.w3.org/1999/02/22-rdf-syntax-ns#"
   xmlns:svg="http://www.w3.org/2000/svg"
   xmlns="http://www.w3.org/2000/svg"
   xmlns:sodipodi="http://sodipodi.sourceforge.net/DTD/sodipodi-0.dtd"
   xmlns:inkscape="http://www.inkscape.org/namespaces/inkscape"
   width="300"
   height="300.56601"
   id="svg7536"
   version="1.1"
   inkscape:version="0.48.4 r9939"
   sodipodi:docname="New document 4">
  <defs
     id="defs7538">
    <clipPath
       clipPathUnits="userSpaceOnUse"
       id="clipPath7377">
      <path
         inkscape:connector-curvature="0"
         d="m 0,0 1590.156,0 0,1593.156 L 0,1593.156 0,0 z"
         id="path7379" />
    </clipPath>
    <clipPath
       clipPathUnits="userSpaceOnUse"
       id="clipPath7387">
      <path
         inkscape:connector-curvature="0"
         d="m 0,0 1590.16,0 0,1593.16 L 0,1593.16 0,0 z"
         id="path7389" />
    </clipPath>
    <clipPath
       clipPathUnits="userSpaceOnUse"
       id="clipPath7395">
      <path
         inkscape:connector-curvature="0"
         d="m 0.059998,1593.16 1590.100002,0 0,-1593.1 -1590.100002,0 0,1593.1 z"
         id="path7397" />
    </clipPath>
  </defs>
  <sodipodi:namedview
     id="base"
     pagecolor="#ffffff"
     bordercolor="#666666"
     borderopacity="1.0"
     inkscape:pageopacity="0.0"
     inkscape:pageshadow="2"
     inkscape:zoom="1.4"
     inkscape:cx="223.56601"
     inkscape:cy="183.73644"
     inkscape:document-units="px"
     inkscape:current-layer="layer1"
     showgrid="false"
     fit-margin-top="0"
     fit-margin-left="0"
     fit-margin-right="0"
     fit-margin-bottom="0"
     inkscape:window-width="1920"
     inkscape:window-height="1138"
     inkscape:window-x="-8"
     inkscape:window-y="-8"
     inkscape:window-maximized="1" />
  <metadata
     id="metadata7541">
    <rdf:RDF>
      <cc:Work
         rdf:about="">
        <dc:format>image/svg+xml</dc:format>
        <dc:type
           rdf:resource="http://purl.org/dc/dcmitype/StillImage" />
        <dc:title></dc:title>
      </cc:Work>
    </rdf:RDF>
  </metadata>
  <g
     inkscape:label="Layer 1"
     inkscape:groupmode="layer"
     id="layer1"
     transform="translate(-162.50042,-385.85167)">
    <g
       id="g7367"
       transform="matrix(2.7777953,0,0,-2.7777953,162.4891,686.429)">
      <g
         id="g7369"
         transform="scale(0.06792,0.06792)">
        <g
           id="g7371">
          <g
             id="g7373">
            <g
               id="g7375"
               clip-path="url(#clipPath7377)">
              <g
                 id="g7381">
                <g
                   id="g7383">
                  <g
                     id="g7385"
                     clip-path="url(#clipPath7387)">
                    <g
                       id="g7391">
                      <g
                         id="g7393"
                         clip-path="url(#clipPath7395)">
                        <path
                           d="m 0.059998,0.059998 1590.100002,0 0,1593.100002 -1590.100002,0 0,-1593.100002 z"
                           style="fill:#ffffff;fill-opacity:1;fill-rule:nonzero;stroke:none"
                           id="path7399"
                           inkscape:connector-curvature="0" />
                      </g>
                    </g>
                    <g
                       id="g7401"
                       transform="translate(1225.49,628.599)">
                      <path
                         d="m 0,0 c 0,0 -52.27,-197.169 -476.15,-197.169 -423.873,0 -429.589,162.119 -429.083,175.549 5.21,138.074 227.746,86.119 227.746,86.119 0,0 -86.897,-4.328 -86.897,-82.26 0,-64.938 101.805,-115.538 307.315,-121.208 C -38.84,-150.519 0,0 0,0"
                         style="fill:#231f20;fill-opacity:1;fill-rule:nonzero;stroke:none"
                         id="path7403"
                         inkscape:connector-curvature="0" />
                    </g>
                    <g
                       id="g7405"
                       transform="translate(899.849,1562.523)">
                      <path
                         d="m 0,0 c 0,0 151.551,-14.993 129.811,-179.203 0,0 96.17,-62.461 89.14,-149.051 -7.04,-86.584 -71.97,-188.938 -278.994,-223.264 0,0 120.264,32.923 124.654,99.879 4.7,71.438 -118.681,101.742 -118.681,168.844 0,67.105 152.861,76.596 140.58,189.48 C 78.38,-18.708 0,0 0,0"
                         style="fill:#231f20;fill-opacity:1;fill-rule:nonzero;stroke:none"
                         id="path7407"
                         inkscape:connector-curvature="0" />
                    </g>
                    <g
                       id="g7409"
                       transform="translate(778.652,1221.167)">
                      <path
                         d="M 0,0 C 9.644,4.981 -8.186,17.92 -7.162,40.724 -5.992,66.5 4.707,82.365 -10.41,81.965 -22.245,81.652 -39.76,59.419 -36.882,36.783 -34.005,14.149 -12.352,-6.381 0,0"
                         style="fill:#0f97c5;fill-opacity:1;fill-rule:nonzero;stroke:none"
                         id="path7411"
                         inkscape:connector-curvature="0" />
                    </g>
                    <g
                       id="g7413"
                       transform="translate(762.626,1151.164)">
                      <path
                         d="m 0,0 c -12.104,-7.963 18.999,-16.162 26.467,-40.051 8.438,-27.002 -0.923,-46.539 20.967,-41.717 17.139,3.766 33.941,31.865 20.837,54.442 C 55.174,-4.747 15.512,10.191 0,0"
                         style="fill:#0f97c5;fill-opacity:1;fill-rule:nonzero;stroke:none"
                         id="path7415"
                         inkscape:connector-curvature="0" />
                    </g>
                    <g
                       id="g7417"
                       transform="translate(712.117,1201.678)">
                      <path
                         d="M 0,0 C 8.395,6.942 -11.71,15.757 -15.406,38.268 -19.588,63.716 -12.403,81.536 -27.101,77.89 -38.595,75.026 -51.13,49.53 -43.647,28.021 -36.167,6.516 -10.763,-8.892 0,0"
                         style="fill:#0f97c5;fill-opacity:1;fill-rule:nonzero;stroke:none"
                         id="path7419"
                         inkscape:connector-curvature="0" />
                    </g>
                    <g
                       id="g7421"
                       transform="translate(1195.69,762.164)">
                      <path
                         d="m 0,0 c -60.62,104.836 -244.97,133.872 -377.112,138.026 -114.944,3.611 -261.143,11.542 -261.143,52.808 0,56.148 163.405,23.711 161.3,92.965 -1.887,62.034 -154.467,64.028 -133.241,217.435 9.846,71.165 97.593,109.797 174.573,126.823 76.982,17.023 174.883,50.401 176.743,92.618 1.87,42.219 -43.344,56.646 -43.344,56.646 0,0 26.625,-15.877 16.136,-46.897 -10.491,-31.028 -46.527,-33.19 -152.84,-35.533 -90.071,-1.989 -220.768,-12.814 -306.788,-103.718 -90.131,-95.259 -75.76,-251.112 124.402,-313.541 0,0 -216.017,-37.114 -211.958,-157.293 4.024,-119.415 143.126,-148.108 359.372,-152.602 219.35,-4.556 302.45,-26.378 302.45,-78.082 0,-41.92 -66.49,-65.509 -167.514,-69.109 -106.139,-3.8 -180.855,11.538 -181.559,41.128 -0.947,39.73 101.024,20.2 101.024,20.2 0,0 -37.798,16.594 -87.249,14.426 -35.291,-1.541 -59.682,-19.386 -60.404,-42.205 -1.055,-33.549 28.996,-61.849 110.916,-75.409 126.46,-20.92 290.356,-19.48 396.576,45.46 C 19.58,-127.416 28.73,-49.687 0,0"
                         style="fill:#231f20;fill-opacity:1;fill-rule:nonzero;stroke:none"
                         id="path7423"
                         inkscape:connector-curvature="0" />
                    </g>
                    <g
                       id="g7425"
                       transform="translate(335.269,205.17)">
                      <path
                         d="m 0,0 c 0,-21.03 3.816,-26.49 21.747,-26.49 l 0,-6.55 -70.205,0 0,6.55 c 18.237,0 22.414,4.29 22.414,22.21 l 0,68.17 c 0,18.31 -10.632,30 -26.97,30 -15.198,0 -26.212,-7.4 -39.125,-26.1 l 0,-75.58 c 0,-14.41 5.697,-18.7 22.408,-18.7 l 0,-6.55 -72.478,0 0,6.55 c 20.209,0.39 24.021,4.29 24.021,26.49 l 0,179.89 c 0,17.97 -4.957,20.71 -24.021,20.71 l 0,6.55 43.56,4.69 6.51,0 0,-130.81 c 17.09,20.31 29.63,27.75 47.1,27.75 C -22.593,108.78 0,93.49 0,60.77 L 0,0"
                         style="fill:#0f97c5;fill-opacity:1;fill-rule:nonzero;stroke:none"
                         id="path7427"
                         inkscape:connector-curvature="0" />
                    </g>
                    <g
                       id="g7429"
                       transform="translate(509.299,240.76)">
                      <path
                         d="m 0,0 c 0,41.99 -31.756,73.19 -73.987,73.19 -42.237,0 -73.993,-31.2 -73.993,-73.19 0,-41.6 31.756,-72.8 73.993,-72.8 C -31.756,-72.8 0,-41.6 0,0 m -28.333,0 c 0,-33.44 -13.699,-64.93 -45.654,-64.93 -31.204,0 -45.659,29.55 -45.659,64.93 0,39.66 17.121,65.32 45.659,65.32 31.196,0 45.654,-30.72 45.654,-65.32"
                         style="fill:#0f97c5;fill-opacity:1;fill-rule:nonzero;stroke:none"
                         id="path7431"
                         inkscape:connector-curvature="0" />
                    </g>
                    <g
                       id="g7433"
                       transform="translate(601.692,271.74)">
                      <path
                         d="m 0,0 c -2.659,22.94 -17.471,34.6 -33.446,34.6 -13.36,0 -22.524,-7.39 -22.524,-18.66 0,-34.99 71.011,-25.66 71.011,-76.99 0,-22.93 -19.471,-42.47 -42.682,-42.47 -14.843,0 -27.78,10.2 -34.249,10.2 -4.948,0 -8.368,-4.29 -8.751,-9.42 l -6.417,0 0,47.14 6.417,0 c 5.707,-28.78 26.637,-40.05 43.302,-40.05 13.364,0 23.675,10.11 23.675,23.72 0,38.49 -71.56,27.99 -71.56,74.65 0,21.38 18.495,39.76 41.042,39.76 14.054,0 18.23,-6.7 27.344,-6.7 3.42,0 6.078,1.97 7.995,6.7 l 6.553,0 L 7.71,0 0,0"
                         style="fill:#0f97c5;fill-opacity:1;fill-rule:nonzero;stroke:none"
                         id="path7435"
                         inkscape:connector-curvature="0" />
                    </g>
                    <g
                       id="g7437"
                       transform="translate(831.443,271.48)">
                      <path
                         d="m 0,0 c -2.664,22.94 -17.478,34.6 -33.446,34.6 -13.365,0 -22.528,-7.39 -22.528,-18.66 0,-35 71.01,-25.66 71.01,-76.98 0,-22.95 -19.474,-42.48 -42.681,-42.48 -14.843,0 -27.781,10.21 -34.25,10.21 -4.938,0 -8.367,-4.31 -8.752,-9.43 l -6.415,0 0,47.13 6.415,0 c 5.708,-28.76 26.641,-40.04 43.302,-40.04 13.366,0 23.673,10.11 23.673,23.72 0,38.49 -71.557,27.99 -71.557,74.65 0,21.38 18.495,39.75 41.042,39.75 14.051,0 18.23,-6.69 27.344,-6.69 3.419,0 6.078,1.97 7.993,6.69 l 6.553,0 L 7.703,0 0,0"
                         style="fill:#231f20;fill-opacity:1;fill-rule:nonzero;stroke:none"
                         id="path7439"
                         inkscape:connector-curvature="0" />
                    </g>
                    <g
                       id="g7441"
                       transform="translate(987.529,264.43)">
                      <path
                         d="m 0,0 -6.42,0 c -5.739,24.9 -22.989,40.86 -45.609,40.86 -26.827,0 -45.611,-23.35 -45.611,-57.2 0,-37.75 23.38,-69.27 50.97,-69.27 16.491,0 36.42,8.95 50.491,28.8 l 0,-10.12 c -14.45,-20.24 -35.15,-30.37 -59.685,-30.37 -40.245,0 -67.909,28.42 -67.909,69.67 0,42.42 31.109,76.36 69.824,76.36 20.319,0 31.44,-7.87 38.34,-7.87 3.45,0 6.89,2.76 9.189,7.87 L 0,48.73 0,0"
                         style="fill:#231f20;fill-opacity:1;fill-rule:nonzero;stroke:none"
                         id="path7443"
                         inkscape:connector-curvature="0" />
                    </g>
                    <g
                       id="g7445"
                       transform="translate(1061.99,198.2)">
                      <path
                         d="m 0,0 c 0,-15.23 4.58,-19.52 22.5,-19.52 l 0,-6.55 -71.43,0 0,6.55 c 20.6,0 22.89,5.46 22.89,26.55 l 0,75.35 c 0,20.3 -4.96,22.65 -27.84,22.65 l 0,6.55 47.37,4.22 6.51,0 0,-29.91 c 25.17,22.21 37,29.91 46.15,29.91 7.63,0 17.93,-4.62 24.8,-10.77 L 60.65,80.43 C 49.58,86.68 37.76,92.53 28.6,92.53 19.83,92.53 12.21,87.85 0,75.74 L 0,0"
                         style="fill:#231f20;fill-opacity:1;fill-rule:nonzero;stroke:none"
                         id="path7447"
                         inkscape:connector-curvature="0" />
                    </g>
                    <g
                       id="g7449"
                       transform="translate(1204.91,368.51)">
                      <path
                         d="m 0,0 c 0,-9.31 -7.21,-17.06 -16.32,-17.06 -9.1,0 -16.69,7.75 -16.69,17.06 0,9.29 7.59,16.66 16.69,16.66 C -7.21,16.66 0,9.29 0,0 m -3.71,-170.7 c 0,-13.67 3.43,-19.13 22.5,-19.13 l 0,-6.55 -74.11,0 0,6.55 c 20.6,0 25.56,2.74 25.56,19.13 l 0,84.72 c 0,19.13 -5.72,20.7 -25.56,20.7 l 0,6.55 45.1,4.22 6.51,0 0,-116.19"
                         style="fill:#231f20;fill-opacity:1;fill-rule:nonzero;stroke:none"
                         id="path7451"
                         inkscape:connector-curvature="0" />
                    </g>
                    <g
                       id="g7453"
                       transform="translate(1248.42,89.61)">
                      <path
                         d="m 0,0 c 0,-15.19 -5.34,-19.09 -23.65,-19.09 l 0,-6.55 72.11,0 0,6.55 c -19,0 -22.42,6.24 -22.42,22.99 l 0,90.72 C 41.24,82.56 52.26,78.3 66.69,78.3 c 38.36,0 67.08,31.54 67.08,74.1 0,41.38 -26.04,71.99 -61.01,71.99 -17.09,0 -29.62,-6.13 -46.72,-23.19 l 0,23.19 -6.51,0 -43.18,-4.22 0,-6.55 C -3.43,213.62 0,210.88 0,192.16 L 0,0 m 26.04,191.05 c 12.54,14.84 22.8,20.69 36.47,20.69 25.07,0 42.93,-26.94 42.93,-64.03 0,-34.35 -18.24,-60.51 -42.17,-60.51 -12.91,0 -27.35,6.64 -37.23,17.18 l 0,86.67"
                         style="fill:#231f20;fill-opacity:1;fill-rule:nonzero;stroke:none"
                         id="path7455"
                         inkscape:connector-curvature="0" />
                    </g>
                    <g
                       id="g7457"
                       transform="translate(1438.51,312.65)">
                      <path
                         d="m 0,0 46.91,0 0,-10.22 -46.91,0 0,-88.79 c 0,-19.08 9.53,-28.81 24.41,-28.81 9.92,0 17.16,3.88 25.17,13.23 l 4.2,-5.06 c -11.82,-15.23 -25.55,-23.07 -40.81,-23.07 -22.92,0 -39.01,16.45 -39.01,40.2 l 0,92.3 -25.56,0 0,6.68 c 18.31,9.38 33.6,26.13 45.09,49.9 L 0,46.36 0,0"
                         style="fill:#231f20;fill-opacity:1;fill-rule:nonzero;stroke:none"
                         id="path7459"
                         inkscape:connector-curvature="0" />
                    </g>
                    <g
                       id="g7461"
                       transform="translate(680.52,310.68)">
                      <path
                         d="m 0,0 46.913,0 0,-10.22 -46.913,0 0,-88.79 c 0,-19.09 9.537,-28.82 24.411,-28.82 9.914,0 17.168,3.9 25.173,13.24 l 4.196,-5.06 c -11.821,-15.24 -25.554,-23.07 -40.814,-23.07 -22.917,0 -39.008,16.45 -39.008,40.2 l 0,92.3 -25.557,0 0,6.68 C -33.289,5.84 -18,22.6 -6.511,46.35 L 0,46.35 0,0"
                         style="fill:#0f97c5;fill-opacity:1;fill-rule:nonzero;stroke:none"
                         id="path7463"
                         inkscape:connector-curvature="0" />
                    </g>
                    <g
                       id="g7465"
                       transform="translate(100.648,114.99)">
                      <path
                         d="m 0,0 c 72.788,-12.57 89.06,-21.65 89.06,-40.7 0,-20.35 -23.555,-34.2 -56.955,-34.2 -43.233,0 -76.204,16.45 -76.204,38.53 0,15.59 15.844,28.57 44.099,36.37 m -20.328,138.17 c 0,31.56 15.059,53.04 37.867,53.04 22.37,0 37.43,-21.48 37.43,-53.04 0,-35.94 -15.489,-56.1 -37.866,-56.1 -22.372,0 -37.431,22.35 -37.431,56.1 M -15.771,5.73 c 0.718,-0.19 1.436,-0.36 2.171,-0.54 l 0,-0.87 c -38.697,-16.89 -49.488,-32.03 -49.488,-48.92 0,-28.14 30.552,-47.06 74.644,-47.06 52.237,0 93.387,28.45 93.387,64.38 0,10.82 -3.436,18.18 -12.454,27.28 C 71.195,21.96 -8.44,21.96 -20.443,36.47 c -2.14,2.64 -2.996,3.52 -2.996,8.79 0,9.68 25.706,27.71 49.271,29.03 31.697,1.75 55.305,30.8 56.469,61.56 0.447,11.78 -1.211,24.74 -10.868,40.15 l 18.139,39.22 -5.951,2.7 c 0,0 -17.204,-17.41 -26.463,-18.2 -9.366,-0.79 -13.144,-0.76 -20.434,-0.31 -7.292,0.21 -14.588,0.65 -20.165,0.65 -36.887,0 -64.22,-27.7 -64.22,-64.96 0,-28.93 17.084,-50.4 47.498,-58.73 l 0,-0.87 C -29.878,65.15 -46.612,51.59 -46.612,33.65 c 0,-12.67 11.574,-22.89 30.841,-27.92"
                         style="fill:#0f97c5;fill-opacity:1;fill-rule:nonzero;stroke:none"
                         id="path7467"
                         inkscape:connector-curvature="0" />
                    </g>
                    <g
                       id="g7469"
                       transform="translate(1532.97,332.45)">
                      <path
                         d="m 0,0 0,10.22 6.66,0 c 3.41,0 7.04,-0.76 7.04,-4.85 C 13.7,0.3 10,0 5.85,0 L 0,0 m 0,-4.24 5.63,0 8.52,-14.29 5.48,0 -9.19,14.52 c 4.74,0.6 8.38,3.18 8.38,9.08 0,6.51 -3.79,9.38 -11.42,9.38 l -12.29,0 0,-32.98 4.89,0 0,14.29 z m 5.93,-26.4 c 15.25,0 28.29,12.11 28.29,28.67 0,16.42 -13.04,28.53 -28.29,28.53 -15.41,0 -28.45,-12.11 -28.45,-28.53 0,-16.56 13.04,-28.67 28.45,-28.67 m -22.82,28.67 c 0,13.55 10,23.76 22.82,23.76 12.66,0 22.66,-10.21 22.66,-23.76 0,-13.77 -10,-23.91 -22.66,-23.91 -12.82,0 -22.82,10.14 -22.82,23.91"
                         style="fill:#231f20;fill-opacity:1;fill-rule:nonzero;stroke:none"
                         id="path7471"
                         inkscape:connector-curvature="0" />
                    </g>
                  </g>
                </g>
              </g>
            </g>
          </g>
        </g>
      </g>
    </g>
  </g>
</svg>
