<?xml version="1.0" encoding="UTF-8" standalone="no"?>
<!-- Created with Inkscape (http://www.inkscape.org/) -->

<svg
   xmlns:dc="http://purl.org/dc/elements/1.1/"
   xmlns:cc="http://creativecommons.org/ns#"
   xmlns:rdf="http://www.w3.org/1999/02/22-rdf-syntax-ns#"
   xmlns:svg="http://www.w3.org/2000/svg"
   xmlns="http://www.w3.org/2000/svg"
   xmlns:sodipodi="http://sodipodi.sourceforge.net/DTD/sodipodi-0.dtd"
   xmlns:inkscape="http://www.inkscape.org/namespaces/inkscape"
   width="744.09448819"
   height="1052.3622047"
   id="svg2"
   version="1.1"
   inkscape:version="0.48.4 r9939"
   sodipodi:docname="list.svg">
  <sodipodi:namedview
     id="base"
     pagecolor="#ffffff"
     bordercolor="#666666"
     borderopacity="1.0"
     inkscape:pageopacity="0.0"
     inkscape:pageshadow="2"
     inkscape:zoom="1.4"
     inkscape:cx="256.52479"
     inkscape:cy="590.40435"
     inkscape:document-units="px"
     inkscape:current-layer="layer1"
     showgrid="false"
     inkscape:window-width="1920"
     inkscape:window-height="1138"
     inkscape:window-x="-8"
     inkscape:window-y="-8"
     inkscape:window-maximized="1"
     showguides="true"
     inkscape:guide-bbox="true" />
  <defs
     id="defs4">
    <filter
       color-interpolation-filters="sRGB"
       inkscape:menu-tooltip="Darken the edges with an inner blur"
       inkscape:menu="Shadows and Glows"
       inkscape:label="Darken edges"
       id="filter7331">
      <feGaussianBlur
         stdDeviation="1.5"
         result="result6"
         id="feGaussianBlur7333" />
      <feComposite
         result="result8"
         in="SourceGraphic"
         operator="atop"
         in2="result6"
         id="feComposite7335" />
      <feComposite
         result="result9"
         operator="atop"
         in="result8"
         in2="SourceAlpha"
         id="feComposite7337" />
    </filter>
    <filter
       color-interpolation-filters="sRGB"
       inkscape:menu-tooltip="Darken the edges with an inner blur"
       inkscape:menu="Shadows and Glows"
       inkscape:label="Darken edges"
       id="filter7331-1">
      <feGaussianBlur
         stdDeviation="1.5"
         result="result6"
         id="feGaussianBlur7333-7" />
      <feComposite
         result="result8"
         in="SourceGraphic"
         operator="atop"
         in2="result6"
         id="feComposite7335-4" />
      <feComposite
         result="result9"
         operator="atop"
         in="result8"
         in2="SourceAlpha"
         id="feComposite7337-0" />
    </filter>
    <filter
       id="filter8128"
       style="color-interpolation-filters:sRGB;"
       inkscape:label="Drop Shadow">
      <feFlood
         id="feFlood8130"
         flood-opacity="0.5"
         flood-color="rgb(0,0,0)"
         result="flood" />
      <feComposite
         id="feComposite8132"
         in2="SourceGraphic"
         in="flood"
         operator="in"
         result="composite1" />
      <feGaussianBlur
         id="feGaussianBlur8134"
         in="composite"
         stdDeviation="1"
         result="blur" />
      <feOffset
         id="feOffset8136"
         dx="1"
         dy="1"
         result="offset" />
      <feComposite
         id="feComposite8138"
         in2="offset"
         in="SourceGraphic"
         operator="over"
         result="composite2" />
    </filter>
    <filter
       id="filter8154"
       inkscape:label="Glow"
       inkscape:menu="Shadows and Glows"
       inkscape:menu-tooltip="Glow of object's own color at the edges"
       color-interpolation-filters="sRGB">
      <feGaussianBlur
         id="feGaussianBlur8156"
         stdDeviation="5"
         result="result91" />
      <feComposite
         id="feComposite8158"
         in2="result91"
         in="SourceGraphic"
         operator="over" />
    </filter>
  </defs>
  <metadata
     id="metadata7">
    <rdf:RDF>
      <cc:Work
         rdf:about="">
        <dc:format>image/svg+xml</dc:format>
        <dc:type
           rdf:resource="http://purl.org/dc/dcmitype/StillImage" />
        <dc:title></dc:title>
      </cc:Work>
    </rdf:RDF>
  </metadata>
  <g
     id="layer1"
     inkscape:groupmode="layer"
     inkscape:label="Layer 1">
    <path
       d="m 348.30394,358.69651 c -1.28923,0.92947 -2.67813,1.66641 -4.16668,2.2108 -1.48859,0.54441 -3.05027,0.81662 -4.68503,0.81662 -1.1829,0 -2.24617,-0.13616 -3.18981,-0.40832 -0.94366,-0.27218 -1.74446,-0.6672 -2.40233,-1.18505 -0.6579,-0.51785 -1.16297,-1.14192 -1.51517,-1.87223 -0.35221,-0.73029 -0.52831,-1.54026 -0.52831,-2.4299 0,-0.82322 0.13287,-1.63651 0.39873,-2.43986 0.26581,-0.8033 0.68447,-1.58339 1.25598,-2.34025 0.57151,-0.75686 1.30584,-1.49048 2.20297,-2.20085 0.89711,-0.71037 1.97701,-1.38424 3.23964,-2.02161 -0.37213,-0.67716 -0.67784,-1.30455 -0.91707,-1.88218 -0.23924,-0.57757 -0.42198,-1.10538 -0.54825,-1.58342 -0.12627,-0.47799 -0.21597,-0.9062 -0.26913,-1.28464 -0.053,-0.37842 -0.0798,-0.70704 -0.0798,-0.98591 -2e-5,-0.43816 0.0565,-0.90953 0.16944,-1.41413 0.11294,-0.50453 0.29572,-1.00578 0.54825,-1.50373 0.25252,-0.49792 0.58481,-0.9726 0.99683,-1.42408 0.412,-0.45143 0.9237,-0.85309 1.53508,-1.20501 0.61138,-0.35182 1.33242,-0.63068 2.16311,-0.83652 0.83066,-0.20577 1.78429,-0.30867 2.86086,-0.30872 1.24931,5e-5 2.29265,0.12957 3.13,0.38841 0.8373,0.25894 1.51182,0.60086 2.02353,1.02573 0.51167,0.42492 0.87719,0.90293 1.09649,1.43404 0.21929,0.53115 0.32894,1.06227 0.32895,1.59337 -10e-6,0.78344 -0.13286,1.53364 -0.39872,2.25064 -0.26583,0.71704 -0.72436,1.42742 -1.3756,2.13115 -0.65128,0.70375 -1.52847,1.42077 -2.6316,2.15105 -1.10317,0.73031 -2.49205,1.48716 -4.16669,2.27056 0.42529,0.70375 0.84063,1.35106 1.24602,1.94193 0.40537,0.59087 0.8207,1.15853 1.24603,1.7029 0.42529,0.54443 0.86055,1.0822 1.30581,1.6133 0.44523,0.53115 0.92039,1.07554 1.42545,1.63322 0.73098,-0.83651 1.33904,-1.70955 1.82419,-2.61913 0.48509,-0.90953 0.82069,-1.72281 1.00679,-2.43983 0.18603,-0.71702 0.29568,-1.19503 0.32895,-1.43405 0.0331,-0.23898 0.0798,-0.40829 0.13945,-0.50788 0.0598,-0.0996 0.15617,-0.17924 0.28908,-0.23902 0.13286,-0.0596 0.30233,-0.10276 0.50836,-0.12957 0.20599,-0.0265 0.47513,-0.0397 0.80742,-0.0397 0.58478,0 0.98352,0.0366 1.19619,0.10964 0.21262,0.0731 0.31896,0.19587 0.31897,0.36848 -10e-6,0.17263 -0.0599,0.54108 -0.17943,1.10541 -0.11953,0.56432 -0.28577,1.17511 -0.49841,1.83237 -0.21267,0.65728 -0.49177,1.33446 -0.83732,2.03155 -0.34557,0.6971 -0.75095,1.38426 -1.21611,2.06142 -0.4652,0.6772 -0.98355,1.31455 -1.55504,1.91205 0.85061,0.80999 1.5517,1.39753 2.10329,1.76269 0.55154,0.36515 1.03335,0.54771 1.44539,0.54771 0.27908,0 0.46515,0.0399 0.5582,0.11954 0.093,0.0797 0.13286,0.21909 0.11968,0.41827 -4e-5,0.093 -0.0135,0.23235 -0.0398,0.41825 -0.0265,0.18589 -0.0665,0.38175 -0.11953,0.58756 -0.0533,0.20581 -0.11294,0.39835 -0.17944,0.5776 -0.0665,0.17924 -0.14634,0.31535 -0.23924,0.4083 -0.093,0.093 -0.25256,0.16929 -0.47847,0.22905 -0.22597,0.0596 -0.46521,0.0896 -0.71771,0.0896 -0.25254,0 -0.53499,-0.053 -0.84729,-0.15926 -0.31237,-0.1062 -0.66457,-0.27552 -1.05663,-0.50789 -0.39212,-0.23237 -0.83402,-0.54108 -1.32576,-0.92614 -0.49177,-0.38506 -1.04336,-0.85643 -1.65472,-1.41413 z m -6.35968,-13.28477 c 1.35566,-0.63734 2.45216,-1.22819 3.28951,-1.77263 0.83729,-0.54439 1.48855,-1.06224 1.95374,-1.55353 0.46517,-0.49128 0.78083,-0.96265 0.94698,-1.41413 0.16604,-0.45143 0.24918,-0.90289 0.2492,-1.35436 -2e-5,-0.21243 -0.0466,-0.44812 -0.13945,-0.70707 -0.093,-0.2589 -0.2592,-0.50123 -0.49841,-0.72697 -0.23926,-0.2257 -0.56156,-0.41161 -0.96692,-0.55768 -0.40538,-0.14605 -0.9337,-0.21907 -1.58493,-0.2191 -0.91708,3e-5 -1.66803,0.12957 -2.2528,0.38839 -0.58482,0.25895 -1.05333,0.58425 -1.40551,0.97595 -0.35223,0.39172 -0.60142,0.80998 -0.74763,1.25478 -0.14619,0.44484 -0.2193,0.85313 -0.21929,1.22489 -1e-5,0.25231 0.0199,0.52452 0.0598,0.81662 0.0398,0.29213 0.10949,0.62077 0.20933,0.9859 0.0998,0.36517 0.23591,0.76351 0.40871,1.19502 0.17275,0.43156 0.40534,0.91954 0.69776,1.46392 z m -1.61484,3.76435 c -0.78418,0.41164 -1.48195,0.84318 -2.09333,1.29463 -0.61138,0.45146 -1.12308,0.93279 -1.53508,1.44397 -0.41202,0.51123 -0.72769,1.05564 -0.94698,1.63322 -0.2193,0.57762 -0.32895,1.19836 -0.32895,1.86227 0,0.43817 0.0731,0.86973 0.21931,1.2946 0.14619,0.42492 0.39872,0.80334 0.75757,1.13528 0.35885,0.33198 0.83068,0.59754 1.41549,0.7967 0.58479,0.19917 1.31577,0.29877 2.19298,0.29875 0.53164,2e-5 1.07325,-0.0565 1.62482,-0.16927 0.55155,-0.11294 1.09315,-0.26555 1.62481,-0.4581 0.53162,-0.19253 1.03668,-0.42488 1.51515,-0.69709 0.47848,-0.27221 0.9237,-0.56764 1.33574,-0.88633 -0.55822,-0.61078 -1.08654,-1.21161 -1.58493,-1.8025 -0.49844,-0.59088 -0.98355,-1.1917 -1.45536,-1.80251 -0.47184,-0.61078 -0.93368,-1.24149 -1.38556,-1.89213 -0.4519,-0.65062 -0.9038,-1.33443 -1.35568,-2.05146 z"
       style="font-size:24px;font-style:normal;font-variant:normal;font-weight:normal;font-stretch:normal;text-align:center;line-height:125%;letter-spacing:0px;word-spacing:0px;writing-mode:lr-tb;text-anchor:middle;fill:#8fc2b4;fill-opacity:1;stroke:none;font-family:Calibri;-inkscape-font-specification:Calibri Oblique"
       id="path7385"
       inkscape:connector-curvature="0"
       inkscape:export-filename="D:\NTU\Gits\GitHub\wanglongqi.github.io\public\images\path7391.png"
       inkscape:export-xdpi="90"
       inkscape:export-ydpi="90" />
    <text
       sodipodi:linespacing="125%"
       id="text7323"
       y="375.50467"
       x="180.19305"
       style="font-size:11px;font-style:normal;font-variant:normal;font-weight:normal;font-stretch:normal;text-align:center;line-height:125%;letter-spacing:0px;word-spacing:0px;writing-mode:lr-tb;text-anchor:middle;fill:#fc9d9a;fill-opacity:1;stroke:none;filter:url(#filter7331);font-family:Times New Roman;-inkscape-font-specification:Times New Roman"
       xml:space="preserve"><tspan
         style="font-style:oblique;font-variant:normal;font-weight:normal;font-stretch:normal;font-family:Calibri;-inkscape-font-specification:Calibri Oblique"
         dx="0 0 0 0.50507629"
         dy="0 0 0 -1.2626907"
         y="375.50467"
         x="180.19305"
         id="tspan7325"
         sodipodi:role="line">Why <tspan
   dx="-8.8388338"
   dy="11.364212"
   id="tspan7329"
   style="font-size:24px;font-style:oblique;font-variant:normal;font-weight:normal;font-stretch:normal;fill:#fc9d9a;font-family:Calibri;-inkscape-font-specification:Calibri Oblique">&amp;</tspan></tspan><tspan
         style="font-style:oblique;font-variant:normal;font-weight:normal;font-stretch:normal;font-family:Calibri;-inkscape-font-specification:Calibri Oblique"
         dy="-4.7982249 -4.0406103 -7.984049e-009"
         dx="44.699203 -1.2626905 -0.50507629"
         id="tspan7327"
         y="395.52066"
         x="180.19305"
         sodipodi:role="line"> How</tspan></text>
    <path
       d="m 317.67721,346.24161 c -0.0365,0.10141 -0.0837,0.18322 -0.14155,0.24494 -0.0578,0.0617 -0.13256,0.10874 -0.22387,0.14155 -0.0914,0.0326 -0.20104,0.0545 -0.32895,0.0653 -0.12792,0.0105 -0.28023,0.0169 -0.45688,0.0169 -0.18885,0 -0.34722,-0.007 -0.47514,-0.0169 -0.12792,-0.0105 -0.23148,-0.0327 -0.31068,-0.0653 -0.0791,-0.0327 -0.13705,-0.078 -0.17362,-0.13601 -0.0365,-0.058 -0.0578,-0.13421 -0.064,-0.22861 l -0.70358,-10.66804 -0.0183,0 -4.03878,10.64629 c -0.0304,0.10141 -0.0747,0.18322 -0.13256,0.24494 -0.0578,0.0617 -0.12642,0.10874 -0.2056,0.14155 -0.0791,0.0326 -0.18427,0.0545 -0.31523,0.0653 -0.13107,0.0105 -0.29088,0.0169 -0.47972,0.0169 -0.20712,0 -0.37769,-0.007 -0.5117,-0.0169 -0.13406,-0.0105 -0.24215,-0.0327 -0.32439,-0.0653 -0.0822,-0.0327 -0.14155,-0.0816 -0.17817,-0.1468 -0.0366,-0.0653 -0.0578,-0.14874 -0.064,-0.25037 l -0.94117,-13.052 c -0.012,-0.14514 -0.0135,-0.26488 -0.004,-0.35925 0.009,-0.0942 0.0397,-0.1652 0.0914,-0.21226 0.0517,-0.0472 0.13092,-0.078 0.23757,-0.0926 0.10665,-0.0153 0.25736,-0.0216 0.45231,-0.0216 0.15226,10e-6 0.29088,0.009 0.41574,0.0216 0.12493,0.0153 0.21474,0.0397 0.26956,0.0764 0.0548,0.0362 0.0914,0.0872 0.1098,0.15245 0.0183,0.0653 0.0274,0.14889 0.0274,0.25037 l 0.6579,11.69129 0.0183,0 4.51391,-11.77837 c 0.0304,-0.0798 0.0655,-0.1468 0.10516,-0.20147 0.0397,-0.0544 0.0929,-0.0962 0.15991,-0.12522 0.067,-0.0289 0.15686,-0.0509 0.26956,-0.0653 0.11264,-0.0153 0.26346,-0.0216 0.45232,-0.0216 0.16449,3e-5 0.29542,0.007 0.39289,0.0169 0.0975,0.0105 0.17361,0.0326 0.22845,0.0653 0.0548,0.0327 0.0899,0.0764 0.10515,0.13091 0.0153,0.0545 0.0259,0.12163 0.0319,0.20147 l 0.74927,11.77837 0.0183,0 4.58702,-11.82192 c 0.0243,-0.0726 0.0548,-0.13241 0.0914,-0.17955 0.0366,-0.0473 0.0899,-0.0854 0.15992,-0.11444 0.0701,-0.0289 0.16144,-0.049 0.27414,-0.0596 0.11264,-0.0105 0.2543,-0.0169 0.42488,-0.0169 0.17664,2e-5 0.31675,0.009 0.42032,0.0273 0.10365,0.0181 0.17664,0.0527 0.2193,0.10351 0.0427,0.0508 0.0548,0.12522 0.0366,0.22315 -0.0183,0.0981 -0.0548,0.22678 -0.10949,0.38644 z"
       style="font-size:11px;font-style:oblique;font-variant:normal;font-weight:normal;font-stretch:normal;text-align:center;line-height:125%;letter-spacing:0px;word-spacing:0px;writing-mode:lr-tb;text-anchor:middle;fill:#684848;fill-opacity:1;stroke:none;font-family:Calibri;-inkscape-font-specification:Calibri Oblique"
       id="path7379"
       inkscape:connector-curvature="0"
       inkscape:export-filename="D:\NTU\Gits\GitHub\wanglongqi.github.io\public\images\path7391.png"
       inkscape:export-xdpi="90"
       inkscape:export-ydpi="90" />
    <path
       d="m 329.70214,346.37226 c -0.012,0.0583 -0.0335,0.1071 -0.064,0.14679 -0.0304,0.0399 -0.0777,0.0743 -0.1417,0.10336 -0.064,0.0289 -0.14455,0.0509 -0.24215,0.0653 -0.0975,0.0153 -0.22235,0.0219 -0.37462,0.0219 -0.14619,0 -0.26654,-0.009 -0.36093,-0.0219 -0.0944,-0.0153 -0.16757,-0.0362 -0.21931,-0.0653 -0.0517,-0.0289 -0.0852,-0.0634 -0.10051,-0.10336 -0.0153,-0.04 -0.0198,-0.0888 -0.0135,-0.14679 l 1.01425,-6.05251 c 0.0304,-0.18869 0.0563,-0.40093 0.0777,-0.63678 0.0213,-0.23585 0.0319,-0.44088 0.0319,-0.61507 -2e-5,-0.21043 -0.0184,-0.40276 -0.0548,-0.57694 -0.0365,-0.1741 -0.096,-0.32474 -0.17818,-0.45174 -0.0822,-0.12702 -0.18884,-0.22678 -0.3198,-0.29936 -0.13092,-0.0726 -0.29089,-0.10874 -0.47973,-0.10874 -0.32286,10e-6 -0.65333,0.11234 -0.99141,0.33746 -0.33808,0.22495 -0.65182,0.53522 -0.94116,0.93072 -0.28937,0.39552 -0.54826,0.8618 -0.7767,1.39883 -0.22845,0.53703 -0.39443,1.11398 -0.49798,1.73084 l -0.73101,4.34339 c -0.012,0.0583 -0.0335,0.1071 -0.064,0.1468 -0.0304,0.04 -0.0762,0.0743 -0.13706,0.10335 -0.061,0.0289 -0.1417,0.0509 -0.24216,0.0653 -0.10051,0.0153 -0.22386,0.0219 -0.37007,0.0219 -0.15226,0 -0.27562,-0.009 -0.37006,-0.0219 -0.0944,-0.0153 -0.16757,-0.0362 -0.21929,-0.0653 -0.0517,-0.0289 -0.0852,-0.0634 -0.10051,-0.10335 -0.0153,-0.0397 -0.0171,-0.0888 -0.005,-0.1468 l 2.43058,-14.54335 c 0.012,-0.058 0.0319,-0.10875 0.0593,-0.15246 0.0274,-0.0434 0.0731,-0.0798 0.13705,-0.10874 0.064,-0.0289 0.1462,-0.0509 0.2467,-0.0653 0.10051,-0.0153 0.22692,-0.0216 0.37921,-0.0216 0.14619,0 0.26652,0.009 0.36094,0.0216 0.0944,0.0153 0.16757,0.0362 0.2193,0.0653 0.0517,0.0289 0.0837,0.0653 0.096,0.10874 0.012,0.0434 0.0153,0.0945 0.009,0.15246 l -0.73099,4.43051 c -0.0304,0.18867 -0.0671,0.381 -0.10979,0.57691 -0.0427,0.196 -0.0867,0.39009 -0.13256,0.58241 -0.0458,0.19234 -0.0914,0.37558 -0.13706,0.54974 -0.0455,0.1741 -0.0867,0.3266 -0.12343,0.45718 0.0975,-0.25398 0.24976,-0.51707 0.45689,-0.78921 0.20711,-0.27212 0.45077,-0.5225 0.731,-0.75111 0.28021,-0.22858 0.58936,-0.41911 0.92744,-0.57152 0.33809,-0.15245 0.68684,-0.22858 1.04625,-0.22858 0.38987,0 0.72186,0.067 0.99599,0.20145 0.27411,0.13406 0.49798,0.31934 0.6716,0.55518 0.17361,0.23587 0.3,0.51709 0.37921,0.84366 0.0791,0.32656 0.11878,0.67854 0.11878,1.05592 0,0.26126 -0.012,0.51525 -0.0365,0.76199 -0.0243,0.24674 -0.0578,0.49713 -0.10051,0.75111 z"
       style="font-size:11px;font-style:oblique;font-variant:normal;font-weight:normal;font-stretch:normal;text-align:center;line-height:125%;letter-spacing:0px;word-spacing:0px;writing-mode:lr-tb;text-anchor:middle;fill:#515463;fill-opacity:1;stroke:none;font-family:Calibri;-inkscape-font-specification:Calibri Oblique"
       id="path7381"
       inkscape:connector-curvature="0"
       inkscape:export-filename="D:\NTU\Gits\GitHub\wanglongqi.github.io\public\images\path7391.png"
       inkscape:export-xdpi="90"
       inkscape:export-ydpi="90" />
    <path
       d="m 340.35644,336.49886 c -1e-5,0.0798 -0.007,0.16146 -0.0181,0.24495 -0.012,0.0834 -0.0336,0.16146 -0.064,0.23403 -0.20105,0.66042 -0.42036,1.34803 -0.65791,2.06286 -0.23758,0.71484 -0.51476,1.46231 -0.83152,2.24247 -0.31676,0.78015 -0.68682,1.59476 -1.1102,2.44384 -0.42336,0.84909 -0.92746,1.74172 -1.51224,2.6779 l -2.36661,3.84267 c -0.0366,0.0583 -0.0822,0.10874 -0.13706,0.15245 -0.0548,0.0434 -0.12178,0.0816 -0.20103,0.11444 -0.0791,0.0326 -0.17512,0.0563 -0.28783,0.0707 -0.11265,0.0153 -0.24518,0.0216 -0.39747,0.0216 -0.16451,0 -0.30003,-0.009 -0.40662,-0.0273 -0.10664,-0.0181 -0.18732,-0.049 -0.24216,-0.0926 -0.0548,-0.0434 -0.0791,-0.10141 -0.0731,-0.1741 0.007,-0.0727 0.0427,-0.15977 0.10965,-0.26126 l 2.22954,-3.40725 -1.36148,-9.56855 c -0.012,-0.0872 -0.0213,-0.16708 -0.0274,-0.23952 -0.007,-0.0726 -0.009,-0.13406 -0.009,-0.18503 0,-0.0798 0.0105,-0.14679 0.0319,-0.20145 0.0213,-0.0544 0.0625,-0.098 0.12328,-0.13062 0.061,-0.0326 0.14155,-0.0545 0.24213,-0.0653 0.10051,-0.0105 0.22388,-0.0169 0.37008,-0.0169 0.1645,3e-5 0.29392,0.007 0.38833,0.0169 0.0944,0.0105 0.16758,0.0289 0.21931,0.0545 0.0517,0.0253 0.0882,0.0634 0.10949,0.11444 0.0213,0.0508 0.035,0.11234 0.0412,0.18503 l 1.06909,7.99015 0.0183,0 c 0.37767,-0.63139 0.71881,-1.27364 1.02339,-1.92679 0.3046,-0.65313 0.58481,-1.31534 0.84064,-1.98665 0.25586,-0.67129 0.49191,-1.34984 0.70816,-2.03564 0.21627,-0.68578 0.41879,-1.38065 0.60765,-2.08461 0.012,-0.058 0.0351,-0.1071 0.0686,-0.1468 0.0335,-0.04 0.0822,-0.0743 0.14619,-0.1035 0.064,-0.0289 0.15072,-0.049 0.26043,-0.0596 0.10949,-0.0105 0.24668,-0.0171 0.41118,-0.0171 0.2741,1e-5 0.45687,0.0217 0.54824,0.0653 0.0914,0.0434 0.13706,0.10874 0.13706,0.19598 z"
       style="font-size:11px;font-style:oblique;font-variant:normal;font-weight:normal;font-stretch:normal;text-align:center;line-height:125%;letter-spacing:0px;word-spacing:0px;writing-mode:lr-tb;text-anchor:middle;fill:#040406;fill-opacity:1;stroke:none;font-family:Calibri;-inkscape-font-specification:Calibri Oblique"
       id="path7383"
       inkscape:connector-curvature="0"
       inkscape:export-filename="D:\NTU\Gits\GitHub\wanglongqi.github.io\public\images\path7391.png"
       inkscape:export-xdpi="90"
       inkscape:export-ydpi="90" />
    <path
       d="m 363.2977,362.81719 c -0.012,0.0584 -0.0351,0.1125 -0.0686,0.16248 -0.0335,0.05 -0.0821,0.0896 -0.14619,0.11863 -0.064,0.0291 -0.1462,0.0542 -0.2467,0.0747 -0.10051,0.021 -0.22999,0.0312 -0.38836,0.0312 -0.14619,0 -0.26803,-0.009 -0.3655,-0.0312 -0.0975,-0.0211 -0.17515,-0.0457 -0.233,-0.0747 -0.0578,-0.0291 -0.096,-0.0686 -0.11413,-0.11863 -0.0184,-0.05 -0.0184,-0.1041 0,-0.16248 l 1.04166,-7.18548 -5.38197,0 -1.04169,7.18548 c -0.012,0.0584 -0.0335,0.1125 -0.064,0.16248 -0.0304,0.05 -0.0791,0.0896 -0.14619,0.11863 -0.067,0.0291 -0.15226,0.0542 -0.25586,0.0747 -0.10365,0.021 -0.22844,0.0312 -0.37463,0.0312 -0.15839,0 -0.28631,-0.009 -0.38378,-0.0312 -0.0975,-0.0211 -0.1736,-0.0457 -0.22844,-0.0747 -0.0548,-0.0291 -0.0914,-0.0686 -0.1095,-0.11863 -0.0181,-0.05 -0.0213,-0.1041 -0.009,-0.16248 l 2.26609,-15.54565 c 0.007,-0.0584 0.0274,-0.11234 0.064,-0.16247 0.0365,-0.05 0.0882,-0.0896 0.15531,-0.11863 0.067,-0.0291 0.15074,-0.0542 0.25129,-0.0747 0.10051,-0.0211 0.22691,-0.0311 0.3792,-0.0311 0.1462,3e-5 0.26955,0.009 0.37007,0.0311 0.10051,0.021 0.17818,0.0457 0.23301,0.0747 0.0548,0.0291 0.0899,0.0686 0.10516,0.11863 0.0153,0.0499 0.0198,0.1041 0.0135,0.16247 l -0.94117,6.48567 5.37284,0 0.95031,-6.48567 c 0.007,-0.0584 0.0259,-0.11234 0.0593,-0.16247 0.0336,-0.05 0.0837,-0.0896 0.15074,-0.11863 0.0669,-0.0291 0.15073,-0.0542 0.25127,-0.0747 0.1005,-0.0211 0.22995,-0.0311 0.38834,-0.0311 0.14619,3e-5 0.26803,0.009 0.36551,0.0311 0.0975,0.021 0.17512,0.0457 0.233,0.0747 0.0578,0.0291 0.0944,0.0686 0.10979,0.11863 0.0153,0.0499 0.0169,0.1041 0.005,0.16247 z"
       style="font-size:11px;font-style:oblique;font-variant:normal;font-weight:normal;font-stretch:normal;text-align:center;line-height:125%;letter-spacing:0px;word-spacing:0px;writing-mode:lr-tb;text-anchor:middle;fill:#9f8d93;fill-opacity:1;stroke:none;font-family:Calibri;-inkscape-font-specification:Calibri Oblique"
       id="path7387"
       inkscape:connector-curvature="0"
       inkscape:export-filename="D:\NTU\Gits\GitHub\wanglongqi.github.io\public\images\path7391.png"
       inkscape:export-xdpi="90"
       inkscape:export-ydpi="90" />
    <path
       d="m 373.7415,355.2943 c -2e-5,0.6165 -0.0427,1.24549 -0.12792,1.88695 -0.0852,0.6415 -0.21475,1.26006 -0.38834,1.85574 -0.17364,0.59567 -0.39446,1.15592 -0.66249,1.68077 -0.26803,0.52486 -0.58326,0.98308 -0.9457,1.37461 -0.36248,0.39156 -0.77366,0.70189 -1.23357,0.93101 -0.45993,0.22916 -0.97316,0.34363 -1.53967,0.34363 -0.5848,0 -1.08584,-0.0959 -1.50312,-0.2874 -0.41729,-0.19173 -0.75993,-0.4707 -1.02796,-0.83727 -0.26805,-0.36657 -0.46602,-0.81643 -0.59393,-1.34961 -0.12792,-0.53319 -0.1919,-1.1372 -0.1919,-1.81198 0,-0.6165 0.0412,-1.24551 0.12327,-1.88701 0.0822,-0.64146 0.2117,-1.25796 0.38834,-1.84947 0.17666,-0.59149 0.3975,-1.15176 0.66249,-1.68076 0.26497,-0.52903 0.57871,-0.98931 0.94115,-1.38089 0.36244,-0.3915 0.77364,-0.70185 1.23357,-0.93097 0.45991,-0.22917 0.97313,-0.34364 1.53966,-0.34366 0.58478,2e-5 1.08584,0.098 1.50312,0.29366 0.41726,0.1959 0.76145,0.47698 1.03253,0.84351 0.27106,0.36659 0.47057,0.81647 0.5985,1.34964 0.12792,0.53319 0.19188,1.133 0.19189,1.7995 z m -1.58992,0.12492 c -1e-5,-0.41653 -0.0319,-0.79145 -0.096,-1.12468 -0.064,-0.33324 -0.17058,-0.61439 -0.31982,-0.84352 -0.14919,-0.22918 -0.34416,-0.40613 -0.58479,-0.5311 -0.24062,-0.12492 -0.53149,-0.18753 -0.87263,-0.18753 -0.3655,10e-6 -0.69751,0.0896 -0.99598,0.26868 -0.2985,0.17916 -0.565,0.42072 -0.79954,0.72482 -0.23452,0.30409 -0.43858,0.66021 -0.6122,1.06843 -0.17361,0.40822 -0.31677,0.84352 -0.42946,1.30589 -0.11264,0.46238 -0.19646,0.93724 -0.25129,1.42459 -0.0548,0.48737 -0.0822,0.96433 -0.0822,1.43086 0,0.41656 0.0336,0.79145 0.10051,1.1247 0.0669,0.33322 0.17513,0.61646 0.32438,0.84974 0.14919,0.23328 0.34264,0.4124 0.58022,0.53736 0.23758,0.12493 0.52693,0.18751 0.86807,0.18751 0.37158,0 0.7051,-0.0896 1.00054,-0.26868 0.29545,-0.17913 0.56042,-0.42277 0.79498,-0.73104 0.23452,-0.30825 0.43858,-0.66648 0.6122,-1.0747 0.17362,-0.40822 0.31676,-0.84559 0.42946,-1.31214 0.11264,-0.46651 0.19645,-0.94139 0.2513,-1.42459 0.0548,-0.4832 0.0821,-0.95806 0.0821,-1.4246 z"
       style="font-size:11px;font-style:oblique;font-variant:normal;font-weight:normal;font-stretch:normal;text-align:center;line-height:125%;letter-spacing:0px;word-spacing:0px;writing-mode:lr-tb;text-anchor:middle;fill:#400b77;fill-opacity:1;stroke:none;font-family:Calibri;-inkscape-font-specification:Calibri Oblique"
       id="path7389"
       inkscape:connector-curvature="0"
       inkscape:export-filename="D:\NTU\Gits\GitHub\wanglongqi.github.io\public\images\path7391.png"
       inkscape:export-xdpi="90"
       inkscape:export-ydpi="90" />
    <path
       d="m 387.89545,351.47036 c -2e-5,0.0918 -0.007,0.18542 -0.0228,0.28115 -0.0153,0.0959 -0.0321,0.17705 -0.0502,0.24369 -0.23148,0.90808 -0.48582,1.82659 -0.76298,2.7555 -0.27718,0.9289 -0.58176,1.85364 -0.91374,2.77421 -0.332,0.92057 -0.68989,1.82448 -1.07367,2.71177 -0.38377,0.88721 -0.79496,1.74324 -1.23355,2.56802 -0.0427,0.0917 -0.096,0.16231 -0.15992,0.2124 -0.064,0.05 -0.13705,0.0896 -0.2193,0.11864 -0.0822,0.029 -0.17515,0.0479 -0.27868,0.0563 -0.10366,0.009 -0.21932,0.012 -0.34724,0.012 -0.15839,0 -0.29088,-0.009 -0.39748,-0.025 -0.10665,-0.0169 -0.1919,-0.0416 -0.25584,-0.0747 -0.064,-0.0333 -0.1098,-0.0791 -0.13706,-0.13751 -0.0274,-0.0584 -0.0412,-0.12911 -0.0412,-0.21241 l -0.6122,-8.24769 -2.76867,8.21021 c -0.0304,0.0917 -0.0701,0.1686 -0.11878,0.23125 -0.0487,0.0626 -0.11264,0.11234 -0.19191,0.15007 -0.0792,0.0374 -0.17819,0.0646 -0.29695,0.0812 -0.11879,0.0169 -0.26348,0.025 -0.43403,0.025 -0.17058,0 -0.31677,-0.009 -0.43861,-0.025 -0.12178,-0.0169 -0.22082,-0.0416 -0.29697,-0.0747 -0.0763,-0.0333 -0.13257,-0.0792 -0.1691,-0.13751 -0.0365,-0.0584 -0.0548,-0.12911 -0.0548,-0.21241 l -0.86806,-10.68449 c -0.007,-0.0747 -0.0105,-0.14799 -0.0135,-0.2187 -0.003,-0.0707 -0.004,-0.13122 -0.004,-0.18125 0,-0.10006 0.012,-0.18124 0.0365,-0.2437 0.0244,-0.0623 0.0654,-0.11234 0.12342,-0.14991 0.0578,-0.0375 0.13706,-0.0626 0.23758,-0.0748 0.10051,-0.012 0.22996,-0.0186 0.38833,-0.0186 0.15839,0 0.28479,0.007 0.3792,0.0186 0.0944,0.012 0.16759,0.0333 0.21929,0.0626 0.0517,0.029 0.0867,0.0707 0.10516,0.12492 0.0183,0.0542 0.0304,0.11863 0.0365,0.19359 l 0.63961,9.29741 0,0.11234 0.0365,-0.11234 3.11587,-9.29741 c 0.0243,-0.0665 0.0517,-0.12702 0.0822,-0.18125 0.0304,-0.0542 0.0731,-0.098 0.12792,-0.13121 0.0548,-0.0333 0.12792,-0.0563 0.21929,-0.0686 0.0914,-0.012 0.2071,-0.0186 0.34721,-0.0186 0.14021,0 0.25737,0.007 0.35181,0.0186 0.0944,0.012 0.1691,0.0333 0.22386,0.0626 0.0548,0.0291 0.0944,0.0689 0.11878,0.11863 0.0243,0.05 0.0397,0.1083 0.0455,0.17497 l 0.67618,9.2599 0,0.10006 0.0458,-0.10006 c 0.28021,-0.59981 0.56042,-1.26422 0.84066,-1.99319 0.28021,-0.72896 0.55128,-1.49542 0.81323,-2.29935 0.26192,-0.80394 0.51017,-1.62661 0.74471,-2.46807 0.23451,-0.84142 0.44924,-1.66618 0.64418,-2.47429 0.012,-0.0747 0.0365,-0.13976 0.0731,-0.19361 0.0366,-0.0542 0.0867,-0.0959 0.15074,-0.12492 0.064,-0.0291 0.14769,-0.05 0.25128,-0.0625 0.10366,-0.012 0.23451,-0.0186 0.39291,-0.0186 0.1462,0 0.26651,0.007 0.36092,0.0186 0.0944,0.012 0.16604,0.0291 0.21475,0.05 0.0487,0.0211 0.0806,0.05 0.096,0.0875 0.0153,0.0374 0.0228,0.0812 0.0228,0.13122 z"
       style="font-size:11px;font-style:oblique;font-variant:normal;font-weight:normal;font-stretch:normal;text-align:center;line-height:125%;letter-spacing:0px;word-spacing:0px;writing-mode:lr-tb;text-anchor:middle;fill:#23253d;fill-opacity:1;stroke:none;font-family:Calibri;-inkscape-font-specification:Calibri Oblique"
       id="path7391"
       inkscape:connector-curvature="0"
       inkscape:export-xdpi="90"
       inkscape:export-ydpi="90" />
    <path
       style="fill:#79bd9a;stroke:#3b8686;stroke-width:0.88089395px;stroke-linecap:butt;stroke-linejoin:miter;stroke-opacity:1;filter:url(#filter8128)"
       d="m 341.75411,361.46802 c 1.90462,0.68684 3.61118,2.54051 4.61342,3.62356 -1.87603,1.45911 -4.18812,2.98518 -6.46713,3.31592 1.58956,-2.56559 -0.0177,-3.33215 -1.29701,-3.71708 3.43097,-0.61518 2.94469,-2.2659 3.15072,-3.2224 z"
       id="path8126"
       inkscape:connector-curvature="0"
       sodipodi:nodetypes="ccccc"
       inkscape:export-filename="D:\NTU\Gits\GitHub\wanglongqi.github.io\public\images\text8164.png"
       inkscape:export-xdpi="90"
       inkscape:export-ydpi="90"
       transform="matrix(1.9214965,0,0,1.9196528,-289.96121,-311.17111)" />
    <path
       sodipodi:nodetypes="ccccc"
       inkscape:connector-curvature="0"
       id="path8140"
       d="m 341.75411,377.63046 c 1.90462,0.68684 3.61118,2.54051 4.61342,3.62356 -1.87603,1.45911 -4.18812,2.98518 -6.46713,3.31592 1.58956,-2.56559 -0.0177,-3.33215 -1.29701,-3.71708 3.43097,-0.61518 2.94469,-2.2659 3.15072,-3.2224 z"
       style="fill:#fc9d9a;stroke:#fe4365;stroke-width:0.88089395px;stroke-linecap:butt;stroke-linejoin:miter;stroke-opacity:1;filter:url(#filter8128)"
       transform="matrix(1.9214965,0,0,1.9196528,-289.96121,-311.17111)"
       inkscape:export-filename="D:\NTU\Gits\GitHub\wanglongqi.github.io\public\images\text8150.png"
       inkscape:export-xdpi="90"
       inkscape:export-ydpi="90" />
    <path
       style="fill:#d95b43;stroke:#c02942;stroke-width:0.88089395px;stroke-linecap:butt;stroke-linejoin:miter;stroke-opacity:1;filter:url(#filter8128)"
       d="m 341.75411,396.55903 c 1.90462,0.68684 3.61118,2.54051 4.61342,3.62356 -1.87603,1.45911 -4.18812,2.98518 -6.46713,3.31592 1.58956,-2.56559 -0.0177,-3.33215 -1.29701,-3.71708 3.43097,-0.61518 2.94469,-2.2659 3.15072,-3.2224 z"
       id="path8142"
       inkscape:connector-curvature="0"
       sodipodi:nodetypes="ccccc"
       transform="matrix(1.9214965,0,0,1.9196528,-289.96121,-311.17111)"
       inkscape:export-filename="D:\NTU\Gits\GitHub\wanglongqi.github.io\public\images\text8168.png"
       inkscape:export-xdpi="90"
       inkscape:export-ydpi="90" />
    <path
       sodipodi:nodetypes="ccccc"
       inkscape:connector-curvature="0"
       id="path8144"
       d="m 341.75411,412.63046 c 1.90462,0.68684 3.61118,2.54051 4.61342,3.62356 -1.87603,1.45911 -4.18812,2.98518 -6.46713,3.31592 1.58956,-2.56559 -0.0177,-3.33215 -1.29701,-3.71708 3.43097,-0.61518 2.94469,-2.2659 3.15072,-3.2224 z"
       style="fill:#c2d154;stroke:#aab55b;stroke-width:0.88089395px;stroke-linecap:butt;stroke-linejoin:miter;stroke-opacity:1;filter:url(#filter8128)"
       transform="matrix(1.9214965,0,0,1.9196528,-289.96121,-311.17111)"
       inkscape:export-filename="D:\NTU\Gits\GitHub\wanglongqi.github.io\public\images\text8172.png"
       inkscape:export-xdpi="90"
       inkscape:export-ydpi="90" />
    <path
       style="fill:#94c7b6;stroke:#403b33;stroke-width:0.88089395px;stroke-linecap:butt;stroke-linejoin:miter;stroke-opacity:1;filter:url(#filter8128)"
       d="m 341.75411,431.91617 c 1.90462,0.68684 3.61118,2.54051 4.61342,3.62356 -1.87603,1.45911 -4.18812,2.98518 -6.46713,3.31592 1.58956,-2.56559 -0.0177,-3.33215 -1.29701,-3.71708 3.43097,-0.61518 2.94469,-2.2659 3.15072,-3.2224 z"
       id="path8146"
       inkscape:connector-curvature="0"
       sodipodi:nodetypes="ccccc"
       transform="matrix(1.9214965,0,0,1.9196528,-289.96121,-311.17111)"
       inkscape:export-filename="D:\NTU\Gits\GitHub\wanglongqi.github.io\public\images\text8176.png"
       inkscape:export-xdpi="90"
       inkscape:export-ydpi="90" />
    <path
       sodipodi:nodetypes="ccccc"
       inkscape:connector-curvature="0"
       id="path8148"
       d="m 341.75411,451.61414 c 1.90462,0.68684 3.61118,2.54051 4.61342,3.62356 -1.87603,1.45911 -4.18812,2.98518 -6.46713,3.31592 1.58956,-2.56559 -0.0177,-3.33215 -1.29701,-3.71708 3.43097,-0.61518 2.94469,-2.2659 3.15072,-3.2224 z"
       style="fill:#ecd078;stroke:#c78933;stroke-width:0.88089395px;stroke-linecap:butt;stroke-linejoin:miter;stroke-opacity:1;filter:url(#filter8128)"
       transform="matrix(1.9214965,0,0,1.9196528,-289.96121,-311.17111)"
       inkscape:export-filename="D:\NTU\Gits\GitHub\wanglongqi.github.io\public\images\text8180.png"
       inkscape:export-xdpi="90"
       inkscape:export-ydpi="90" />
    <text
       xml:space="preserve"
       style="font-size:7.38384008px;font-style:normal;font-variant:normal;font-weight:normal;font-stretch:normal;text-align:center;line-height:125%;letter-spacing:0px;word-spacing:0px;writing-mode:lr-tb;text-anchor:middle;fill:#fe4365;fill-opacity:1;stroke:none;filter:url(#filter8154);font-family:Times New Roman;-inkscape-font-specification:Times New Roman"
       x="359.73984"
       y="384.26175"
       id="text8150"
       sodipodi:linespacing="125%"
       transform="matrix(1.9214965,0,0,1.9196528,-289.96121,-311.17111)"
       inkscape:export-xdpi="90"
       inkscape:export-ydpi="90"><tspan
         sodipodi:role="line"
         id="tspan8152"
         x="359.73984"
         y="384.26175"
         style="font-style:normal;font-variant:normal;font-weight:bold;font-stretch:normal;fill:#fe4365;fill-opacity:1;font-family:Bitter;-inkscape-font-specification:Bitter Bold">POST</tspan></text>
    <text
       sodipodi:linespacing="125%"
       id="text8164"
       y="368.01175"
       x="359.73984"
       style="font-size:7.38384008px;font-style:normal;font-variant:normal;font-weight:normal;font-stretch:normal;text-align:center;line-height:125%;letter-spacing:0px;word-spacing:0px;writing-mode:lr-tb;text-anchor:middle;fill:#3b8686;fill-opacity:1;stroke:none;filter:url(#filter8154);font-family:Times New Roman;-inkscape-font-specification:Times New Roman"
       xml:space="preserve"
       inkscape:export-xdpi="90"
       inkscape:export-ydpi="90"
       transform="matrix(1.9214965,0,0,1.9196528,-289.96121,-311.17111)"><tspan
         style="font-style:normal;font-variant:normal;font-weight:bold;font-stretch:normal;fill:#3b8686;fill-opacity:1;font-family:Bitter;-inkscape-font-specification:Bitter Bold"
         y="368.01175"
         x="359.73984"
         id="tspan8166"
         sodipodi:role="line">POST</tspan></text>
    <text
       xml:space="preserve"
       style="font-size:7.38384008px;font-style:normal;font-variant:normal;font-weight:normal;font-stretch:normal;text-align:center;line-height:125%;letter-spacing:0px;word-spacing:0px;writing-mode:lr-tb;text-anchor:middle;fill:#c02942;fill-opacity:1;stroke:none;filter:url(#filter8154);font-family:Times New Roman;-inkscape-font-specification:Times New Roman"
       x="359.73984"
       y="402.92245"
       id="text8168"
       sodipodi:linespacing="125%"
       transform="matrix(1.9214965,0,0,1.9196528,-289.96121,-311.17111)"
       inkscape:export-xdpi="90"
       inkscape:export-ydpi="90"><tspan
         sodipodi:role="line"
         id="tspan8170"
         x="359.73984"
         y="402.92245"
         style="font-style:normal;font-variant:normal;font-weight:bold;font-stretch:normal;fill:#c02942;fill-opacity:1;font-family:Bitter;-inkscape-font-specification:Bitter Bold">POST</tspan></text>
    <text
       sodipodi:linespacing="125%"
       id="text8172"
       y="418.54745"
       x="359.73984"
       style="font-size:7.38384008px;font-style:normal;font-variant:normal;font-weight:normal;font-stretch:normal;text-align:center;line-height:125%;letter-spacing:0px;word-spacing:0px;writing-mode:lr-tb;text-anchor:middle;fill:#aab55b;fill-opacity:1;stroke:none;filter:url(#filter8154);font-family:Times New Roman;-inkscape-font-specification:Times New Roman"
       xml:space="preserve"
       transform="matrix(1.9214965,0,0,1.9196528,-289.96121,-311.17111)"
       inkscape:export-xdpi="90"
       inkscape:export-ydpi="90"><tspan
         style="font-style:normal;font-variant:normal;font-weight:bold;font-stretch:normal;fill:#aab55b;fill-opacity:1;font-family:Bitter;-inkscape-font-specification:Bitter Bold"
         y="418.54745"
         x="359.73984"
         id="tspan8174"
         sodipodi:role="line">POST</tspan></text>
    <text
       xml:space="preserve"
       style="font-size:7.38384008px;font-style:normal;font-variant:normal;font-weight:normal;font-stretch:normal;text-align:center;line-height:125%;letter-spacing:0px;word-spacing:0px;writing-mode:lr-tb;text-anchor:middle;fill:#403b33;fill-opacity:1;stroke:none;filter:url(#filter8154);font-family:Times New Roman;-inkscape-font-specification:Times New Roman"
       x="359.73984"
       y="438.01175"
       id="text8176"
       sodipodi:linespacing="125%"
       transform="matrix(1.9214965,0,0,1.9196528,-289.96121,-311.17111)"
       inkscape:export-xdpi="90"
       inkscape:export-ydpi="90"><tspan
         sodipodi:role="line"
         id="tspan8178"
         x="359.73984"
         y="438.01175"
         style="font-style:normal;font-variant:normal;font-weight:bold;font-stretch:normal;fill:#403b33;fill-opacity:1;font-family:Bitter;-inkscape-font-specification:Bitter Bold">POST</tspan></text>
    <text
       sodipodi:linespacing="125%"
       id="text8180"
       y="458.01175"
       x="359.73984"
       style="font-size:7.38384008px;font-style:normal;font-variant:normal;font-weight:normal;font-stretch:normal;text-align:center;line-height:125%;letter-spacing:0px;word-spacing:0px;writing-mode:lr-tb;text-anchor:middle;fill:#c78933;fill-opacity:1;stroke:none;filter:url(#filter8154);font-family:Times New Roman;-inkscape-font-specification:Times New Roman"
       xml:space="preserve"
       transform="matrix(1.9214965,0,0,1.9196528,-289.96121,-311.17111)"
       inkscape:export-xdpi="90"
       inkscape:export-ydpi="90"><tspan
         style="font-style:normal;font-variant:normal;font-weight:bold;font-stretch:normal;fill:#c78933;fill-opacity:1;font-family:Bitter;-inkscape-font-specification:Bitter Bold"
         y="458.01175"
         x="359.73984"
         id="tspan8182"
         sodipodi:role="line">POST</tspan></text>
  </g>
</svg>
