<?xml version="1.0" encoding="UTF-8" standalone="no"?>
<!-- Created with Inkscape (http://www.inkscape.org/) -->

<svg
   xmlns:dc="http://purl.org/dc/elements/1.1/"
   xmlns:cc="http://creativecommons.org/ns#"
   xmlns:rdf="http://www.w3.org/1999/02/22-rdf-syntax-ns#"
   xmlns:svg="http://www.w3.org/2000/svg"
   xmlns="http://www.w3.org/2000/svg"
   xmlns:xlink="http://www.w3.org/1999/xlink"
   xmlns:sodipodi="http://sodipodi.sourceforge.net/DTD/sodipodi-0.dtd"
   xmlns:inkscape="http://www.inkscape.org/namespaces/inkscape"
   height="251.66576"
   id="svg3895"
   inkscape:output_extension="org.inkscape.output.svg.inkscape"
   inkscape:version="0.48.4 r9939"
   sodipodi:docname="mac.svg"
   sodipodi:version="0.32"
   version="1.0"
   width="619.34552">
  <metadata
     id="metadata3609">
    <rdf:RDF>
      <cc:Work
         rdf:about="">
        <dc:title></dc:title>
        <dc:description />
        <dc:subject>
          <rdf:Bag>
            <rdf:li>unsorted</rdf:li>
          </rdf:Bag>
        </dc:subject>
        <dc:publisher>
          <cc:Agent
             rdf:about="http://www.openclipart.org/">
            <dc:title>Open Clip Art Library, Source: Open Icon Library</dc:title>
          </cc:Agent>
        </dc:publisher>
        <dc:creator>
          <cc:Agent>
            <dc:title />
          </cc:Agent>
        </dc:creator>
        <dc:rights>
          <cc:Agent>
            <dc:title />
          </cc:Agent>
        </dc:rights>
        <dc:date />
        <dc:format>image/svg+xml</dc:format>
        <dc:type
           rdf:resource="http://purl.org/dc/dcmitype/StillImage" />
        <cc:license
           rdf:resource="http://web.resource.org/cc/PublicDomain" />
        <dc:language>en</dc:language>
      </cc:Work>
      <cc:License
         rdf:about="http://web.resource.org/cc/PublicDomain">
        <cc:permits
           rdf:resource="http://web.resource.org/cc/Reproduction" />
        <cc:permits
           rdf:resource="http://web.resource.org/cc/Distribution" />
        <cc:permits
           rdf:resource="http://web.resource.org/cc/DerivativeWorks" />
      </cc:License>
    </rdf:RDF>
  </metadata>
  <defs
     id="defs3897">
    <linearGradient
       id="linearGradient4568">
      <stop
         id="stop4570"
         offset="0"
         style="stop-color:#e1e0df;stop-opacity:0.49803922;" />
      <stop
         id="stop4572"
         offset="0"
         style="stop-color:#e1e0df;stop-opacity:0.74901961;" />
      <stop
         id="stop4574"
         offset="0"
         style="stop-color:#e1e0df;stop-opacity:1;" />
      <stop
         id="stop4576"
         offset="1"
         style="stop-color:#e1e0df;stop-opacity:0;" />
    </linearGradient>
    <linearGradient
       id="linearGradient4510">
      <stop
         id="stop4514"
         offset="0"
         style="stop-color:#e1e0df;stop-opacity:0.49803922;" />
      <stop
         id="stop4536"
         offset="0"
         style="stop-color:#697c8b;stop-opacity:1;" />
      <stop
         id="stop4602"
         offset="0"
         style="stop-color:#a5aeb5;stop-opacity:1;" />
      <stop
         id="stop4534"
         offset="0"
         style="stop-color:#e1e0df;stop-opacity:1;" />
      <stop
         id="stop4516"
         offset="1"
         style="stop-color:#e1e0df;stop-opacity:0;" />
    </linearGradient>
    <linearGradient
       id="linearGradient4502">
      <stop
         id="stop4504"
         offset="0"
         style="stop-color:#dde0df;stop-opacity:0.94845361;" />
      <stop
         id="stop4508"
         offset="0.5"
         style="stop-color:#e1e0df;stop-opacity:0.49803922;" />
      <stop
         id="stop4506"
         offset="1"
         style="stop-color:#e1e0df;stop-opacity:0;" />
    </linearGradient>
    <inkscape:perspective
       id="perspective3903"
       inkscape:persp3d-origin="372.04724 : 350.78739 : 1"
       inkscape:vp_x="0 : 526.18109 : 1"
       inkscape:vp_y="0 : 1000 : 0"
       inkscape:vp_z="744.09448 : 526.18109 : 1"
       sodipodi:type="inkscape:persp3d" />
    <inkscape:perspective
       id="perspective3969"
       inkscape:persp3d-origin="372.04724 : 350.78739 : 1"
       inkscape:vp_x="0 : 526.18109 : 1"
       inkscape:vp_y="0 : 1000 : 0"
       inkscape:vp_z="744.09448 : 526.18109 : 1"
       sodipodi:type="inkscape:persp3d" />
    <linearGradient
       gradientUnits="userSpaceOnUse"
       id="linearGradient4500"
       inkscape:collect="always"
       spreadMethod="pad"
       x1="31.982189"
       x2="233.75533"
       xlink:href="#linearGradient4510"
       y1="127.3456"
       y2="127.3456" />
    <linearGradient
       gradientUnits="userSpaceOnUse"
       id="linearGradient4532"
       inkscape:collect="always"
       spreadMethod="pad"
       x1="218.19295"
       x2="190.91884"
       xlink:href="#linearGradient4568"
       y1="219.63451"
       y2="201.45177" />
    <linearGradient
       gradientUnits="userSpaceOnUse"
       id="linearGradient4566"
       inkscape:collect="always"
       spreadMethod="pad"
       x1="160.61426"
       x2="150.51273"
       xlink:href="#linearGradient4510"
       y1="49.928883"
       y2="30.566313" />
    <linearGradient
       gradientUnits="userSpaceOnUse"
       id="linearGradient4584"
       inkscape:collect="always"
       spreadMethod="pad"
       x1="165.66502"
       x2="152.53304"
       xlink:href="#linearGradient4568"
       y1="246.90863"
       y2="213.57359" />
    <linearGradient
       gradientUnits="userSpaceOnUse"
       id="linearGradient4586"
       inkscape:collect="always"
       spreadMethod="pad"
       x1="220.21326"
       x2="51.51778"
       xlink:href="#linearGradient4510"
       y1="213.57359"
       y2="85.284218" />
    <linearGradient
       gradientUnits="userSpaceOnUse"
       id="linearGradient4588"
       inkscape:collect="always"
       spreadMethod="pad"
       x1="220.21326"
       x2="51.51778"
       xlink:href="#linearGradient4510"
       y1="213.57359"
       y2="85.284218" />
    <linearGradient
       gradientUnits="userSpaceOnUse"
       id="linearGradient4590"
       inkscape:collect="always"
       spreadMethod="pad"
       x1="220.21326"
       x2="51.51778"
       xlink:href="#linearGradient4510"
       y1="213.57359"
       y2="85.284218" />
    <linearGradient
       gradientTransform="translate(-6.0609153,1.0101525)"
       gradientUnits="userSpaceOnUse"
       id="linearGradient4596"
       inkscape:collect="always"
       spreadMethod="pad"
       x1="188.89853"
       x2="140.41121"
       xlink:href="#linearGradient4510"
       y1="247.91878"
       y2="173.1675" />
    <linearGradient
       gradientTransform="translate(-6.0609153,1.0101525)"
       gradientUnits="userSpaceOnUse"
       id="linearGradient4600"
       inkscape:collect="always"
       spreadMethod="pad"
       x1="147.48227"
       x2="139.40105"
       xlink:href="#linearGradient4510"
       y1="55.989796"
       y2="43.867966" />
    <linearGradient
       inkscape:collect="always"
       xlink:href="#linearGradient4502"
       id="linearGradient8217"
       x1="653.44623"
       y1="161.2356"
       x2="363.70477"
       y2="73.352325"
       gradientUnits="userSpaceOnUse"
       gradientTransform="translate(-27.274119,16.162441)" />
    <linearGradient
       inkscape:collect="always"
       xlink:href="#linearGradient4510"
       id="linearGradient8229"
       gradientUnits="userSpaceOnUse"
       gradientTransform="translate(-6.0609153,1.0101525)"
       spreadMethod="pad"
       x1="147.48227"
       y1="55.989796"
       x2="139.40105"
       y2="43.867966" />
    <linearGradient
       inkscape:collect="always"
       xlink:href="#linearGradient4502"
       id="linearGradient8250"
       gradientUnits="userSpaceOnUse"
       gradientTransform="matrix(1.4136011,0,0,1.4136011,-340.44849,-23.186715)"
       x1="653.44623"
       y1="161.2356"
       x2="363.70477"
       y2="73.352325" />
  </defs>
  <sodipodi:namedview
     bordercolor="#666666"
     borderopacity="1.0"
     gridtolerance="10000"
     guidetolerance="10"
     id="base"
     inkscape:current-layer="layer1"
     inkscape:cx="154.81355"
     inkscape:cy="157.11242"
     inkscape:document-units="px"
     inkscape:guide-bbox="true"
     inkscape:pageopacity="0.0"
     inkscape:pageshadow="2"
     inkscape:window-height="1138"
     inkscape:window-width="1920"
     inkscape:window-x="-8"
     inkscape:window-y="-8"
     inkscape:zoom="0.98994949"
     objecttolerance="10"
     pagecolor="#ffffff"
     showgrid="false"
     showguides="true"
     inkscape:window-maximized="1"
     fit-margin-top="0"
     fit-margin-left="0"
     fit-margin-right="0"
     fit-margin-bottom="0" />
  <g
     id="layer1"
     inkscape:groupmode="layer"
     inkscape:label="Layer 1"
     transform="translate(-25.931666,-2.5256063)">
    <g
       id="g3645">
      <path
         style="fill:#f3f3f3;fill-opacity:1;fill-rule:nonzero;stroke:#939494;stroke-width:1px;stroke-linecap:butt;stroke-linejoin:miter;stroke-opacity:1"
         sodipodi:nodetypes="cccccccccccccccccccccccccccccccccccccccccc"
         id="path3975"
         d="m 226.79135,189.08626 c 1.01223,-3.91699 -0.003,-5.29964 -1.7017,-5.82807 -8.94292,-5.51773 -14.90555,-11.71504 -21.22366,-20.88006 -5.08758,-10.64448 -7.80817,-13.96232 -7.44213,-28.96493 -0.34184,-7.23027 0.55447,-14.46053 3.61518,-21.6908 3.60508,-7.41859 6.90192,-13.662416 13.69382,-17.987951 l 6.50732,-5.784214 c 1.57219,-1.185842 1.57034,-3.54214 0.76689,-5.148905 -5.67233,-5.862803 -10.25672,-11.881022 -20.45677,-17.097014 -4.13233,-2.392532 -10.36931,-4.243995 -18.58715,-4.59379 -5.80155,0.0026 -11.43006,-0.167749 -18.54329,1.146565 -5.69908,0.927917 -11.65378,2.861867 -17.35286,5.784215 l -8.20902,3.914622 c -5.20654,1.274946 -9.93311,0.630018 -14.46071,-0.810746 L 108.21352,64.72566 c -5.28437,-1.945968 -11.470155,-2.990514 -18.798921,-2.892108 -7.23471,-0.02177 -14.404399,0.28156 -20.968031,3.615135 -5.203259,2.50909 -9.936789,5.487901 -14.460712,8.676321 -5.361743,5.001705 -10.450797,10.276098 -14.460711,16.629617 -3.0887,3.989503 -5.27651,10.426015 -7.69776,16.417845 -2.210856,5.99728 -3.222851,10.43641 -4.126441,15.86273 -1.582843,10.49205 -1.393916,16.86307 -1.022527,24.83854 0.780816,13.65361 2.734479,18.62094 4.170301,26.75199 1.728642,6.90614 4.112215,12.50244 6.50732,18.07567 2.433431,6.73659 6.381652,12.7158 10.122498,18.79869 3.291688,6.31908 8.435737,13.2556 13.737676,20.24475 4.581928,5.06255 6.705904,8.89612 15.439378,15.13972 5.857043,3.65864 6.722243,4.37054 9.866867,5.82807 2.894698,0.72047 5.888162,1.34216 10.122498,0.72302 2.75253,-0.58342 5.334895,-0.99667 9.399455,-2.89211 2.89214,-1.20505 5.78429,-2.41008 8.67643,-3.61513 3.2336,-1.44606 6.40298,-2.89211 12.2916,-4.33816 3.8562,-0.50608 7.71238,-0.89189 11.56858,-0.72303 2.42413,-0.0398 6.45926,0.887 12.29159,2.8921 3.62614,1.21235 5.61345,1.33216 13.01465,5.06119 3.14023,1.02016 5.14262,2.79889 10.1225,2.59263 4.78522,-0.65822 9.30541,-2.34835 12.759,-4.33816 3.81487,-2.79226 8.3119,-4.90236 10.8894,-8.93195 3.11283,-2.90263 4.94183,-5.16334 6.71909,-7.39819 l 8.67642,-13.01447 c 2.78102,-3.31151 5.29814,-7.1508 7.39827,-11.82406 2.53419,-5.51897 4.47756,-11.62876 6.33941,-17.82005 z"
         inkscape:connector-curvature="0" />
      <path
         style="fill:#f9f9f9;fill-opacity:1;fill-rule:nonzero;stroke:#939494;stroke-width:1px;stroke-linecap:butt;stroke-linejoin:miter;stroke-opacity:1"
         sodipodi:nodetypes="cccccccccccccccccccc"
         id="path4486"
         d="m 126.62899,57.623206 c 0.0762,2.889762 1.8952,2.026788 2.91407,2.402779 3.8332,0.434649 5.71331,-0.595501 8.31492,-1.08454 5.03227,-1.442431 6.97283,-2.498404 9.39946,-3.615135 2.77164,-1.648935 5.54327,-2.837865 8.31491,-5.4227 2.61425,-1.900196 4.27306,-3.522401 6.50732,-6.145727 2.95627,-3.037531 3.94612,-4.472477 6.1458,-7.591782 2.44667,-3.566995 3.61518,-5.940873 5.42277,-9.760861 1.21213,-3.069324 2.6743,-6.013639 3.25366,-9.39935 0.63991,-3.054169 1.45078,-6.022868 1.44607,-9.3993468 0.20329,-1.649347 -0.26124,-2.6308683 -0.72304,-3.615134 -1.82628,-1.0776516 -2.76716,-1.0422414 -4.89333,-0.8909374 -2.48906,0.010645 -5.67548,0.3934648 -9.20586,1.9754776 -3.88816,1.7862591 -7.60756,3.685013 -10.48402,6.1457276 -3.07298,1.928072 -5.15629,3.856143 -7.23035,5.784213 -2.51863,2.301578 -4.67999,4.960431 -6.86884,7.591782 -2.49088,2.972549 -4.43468,5.552703 -5.57251,8.186995 -1.53575,2.934711 -2.6025,5.869422 -3.82696,8.804135 -1.29997,3.131921 -2.29561,6.416006 -2.91407,9.888675 -0.35654,2.16742 -0.26403,3.673904 0,6.145729 z"
         inkscape:connector-curvature="0" />
      <path
         style="fill:url(#linearGradient8229);fill-opacity:1;fill-rule:nonzero;stroke:#939494;stroke-width:1px;stroke-linecap:butt;stroke-linejoin:miter;stroke-opacity:1"
         sodipodi:nodetypes="cccccccccccccccccccc"
         id="path4598"
         d="m 126.62899,57.623206 c 0.0762,2.889762 1.8952,2.026788 2.91407,2.402779 3.8332,0.434649 5.71331,-0.595501 8.31492,-1.08454 5.03227,-1.442431 6.97283,-2.498404 9.39946,-3.615135 2.77164,-1.648935 5.54327,-2.837865 8.31491,-5.4227 2.61425,-1.900196 4.27306,-3.522401 6.50732,-6.145727 2.95627,-3.037531 3.94612,-4.472477 6.1458,-7.591782 2.44667,-3.566995 3.61518,-5.940873 5.42277,-9.760861 1.21213,-3.069324 2.6743,-6.013639 3.25366,-9.39935 0.63991,-3.054169 1.45078,-6.022868 1.44607,-9.3993468 0.20329,-1.649347 -0.26124,-2.6308683 -0.72304,-3.615134 -1.82628,-1.0776516 -2.76716,-1.0422414 -4.89333,-0.8909374 -2.48906,0.010645 -5.67548,0.3934648 -9.20586,1.9754776 -3.88816,1.7862591 -7.60756,3.685013 -10.48402,6.1457276 -3.07298,1.928072 -5.15629,3.856143 -7.23035,5.784213 -2.51863,2.301578 -4.67999,4.960431 -6.86884,7.591782 -2.49088,2.972549 -4.43468,5.552703 -5.57251,8.186995 -1.53575,2.934711 -2.6025,5.869422 -3.82696,8.804135 -1.29997,3.131921 -2.29561,6.416006 -2.91407,9.888675 -0.35654,2.16742 -0.26403,3.673904 0,6.145729 z"
         inkscape:connector-curvature="0" />
      <path
         style="fill:url(#linearGradient4596);fill-opacity:1;fill-rule:nonzero;stroke:#939494;stroke-width:1px;stroke-linecap:butt;stroke-linejoin:miter;stroke-opacity:1"
         sodipodi:nodetypes="cccccccccccccccccccccccccccccccccccccccccc"
         id="path2408"
         d="m 226.79135,189.08626 c 1.01223,-3.91699 -0.003,-5.29964 -1.7017,-5.82807 -8.94292,-5.51773 -14.90555,-11.71504 -21.22366,-20.88006 -5.08758,-10.64448 -7.80817,-13.96232 -7.44213,-28.96493 -0.34184,-7.23027 0.55447,-14.46053 3.61518,-21.6908 3.60508,-7.41859 6.90192,-13.662416 13.69382,-17.987951 l 6.50732,-5.784214 c 1.57219,-1.185842 1.57034,-3.54214 0.76689,-5.148905 -5.67233,-5.862803 -10.25672,-11.881022 -20.45677,-17.097014 -4.13233,-2.392532 -10.36931,-4.243995 -18.58715,-4.59379 -5.80155,0.0026 -11.43006,-0.167749 -18.54329,1.146565 -5.69908,0.927917 -11.65378,2.861867 -17.35286,5.784215 l -8.20902,3.914622 c -5.20654,1.274946 -9.93311,0.630018 -14.46071,-0.810746 L 108.21352,64.72566 c -5.28437,-1.945968 -11.470155,-2.990514 -18.798921,-2.892108 -7.23471,-0.02177 -14.404399,0.28156 -20.968031,3.615135 -5.203259,2.50909 -9.936789,5.487901 -14.460712,8.676321 -5.361743,5.001705 -10.450797,10.276098 -14.460711,16.629617 -3.0887,3.989503 -5.27651,10.426015 -7.69776,16.417845 -2.210856,5.99728 -3.222851,10.43641 -4.126441,15.86273 -1.582843,10.49205 -1.393916,16.86307 -1.022527,24.83854 0.780816,13.65361 2.734479,18.62094 4.170301,26.75199 1.728642,6.90614 4.112215,12.50244 6.50732,18.07567 2.433431,6.73659 6.381652,12.7158 10.122498,18.79869 3.291688,6.31908 8.435737,13.2556 13.737676,20.24475 4.581928,5.06255 6.705904,8.89612 15.439378,15.13972 5.857043,3.65864 6.722243,4.37054 9.866867,5.82807 2.894698,0.72047 5.888162,1.34216 10.122498,0.72302 2.75253,-0.58342 5.334895,-0.99667 9.399455,-2.89211 2.89214,-1.20505 5.78429,-2.41008 8.67643,-3.61513 3.2336,-1.44606 6.40298,-2.89211 12.2916,-4.33816 3.8562,-0.50608 7.71238,-0.89189 11.56858,-0.72303 2.42413,-0.0398 6.45926,0.887 12.29159,2.8921 3.62614,1.21235 5.61345,1.33216 13.01465,5.06119 3.14023,1.02016 5.14262,2.79889 10.1225,2.59263 4.78522,-0.65822 9.30541,-2.34835 12.759,-4.33816 3.81487,-2.79226 8.3119,-4.90236 10.8894,-8.93195 3.11283,-2.90263 4.94183,-5.16334 6.71909,-7.39819 l 8.67642,-13.01447 c 2.78102,-3.31151 5.29814,-7.1508 7.39827,-11.82406 2.53419,-5.51897 4.47756,-11.62876 6.33941,-17.82005 z"
         inkscape:connector-curvature="0" />
      <path
         style="fill:url(#linearGradient4600);fill-opacity:1;fill-rule:nonzero;stroke:#939494;stroke-width:1px;stroke-linecap:butt;stroke-linejoin:miter;stroke-opacity:1"
         sodipodi:nodetypes="cccccccccccccccccccc"
         id="path3180"
         d="m 126.62899,57.623206 c 0.0762,2.889762 1.8952,2.026788 2.91407,2.402779 3.8332,0.434649 5.71331,-0.595501 8.31492,-1.08454 5.03227,-1.442431 6.97283,-2.498404 9.39946,-3.615135 2.77164,-1.648935 5.54327,-2.837865 8.31491,-5.4227 2.61425,-1.900196 4.27306,-3.522401 6.50732,-6.145727 2.95627,-3.037531 3.94612,-4.472477 6.1458,-7.591782 2.44667,-3.566995 3.61518,-5.940873 5.42277,-9.760861 1.21213,-3.069324 2.6743,-6.013639 3.25366,-9.39935 0.63991,-3.054169 1.45078,-6.022868 1.44607,-9.3993468 0.20329,-1.649347 -0.26124,-2.6308683 -0.72304,-3.615134 -1.82628,-1.0776516 -2.76716,-1.0422414 -4.89333,-0.8909374 -2.48906,0.010645 -5.67548,0.3934648 -9.20586,1.9754776 -3.88816,1.7862591 -7.60756,3.685013 -10.48402,6.1457276 -3.07298,1.928072 -5.15629,3.856143 -7.23035,5.784213 -2.51863,2.301578 -4.67999,4.960431 -6.86884,7.591782 -2.49088,2.972549 -4.43468,5.552703 -5.57251,8.186995 -1.53575,2.934711 -2.6025,5.869422 -3.82696,8.804135 -1.29997,3.131921 -2.29561,6.416006 -2.91407,9.888675 -0.35654,2.16742 -0.26403,3.673904 0,6.145729 z"
         inkscape:connector-curvature="0" />
    </g>
    <g
       transform="scale(0.99990101,1.000099)"
       style="font-size:15.54961109px;font-style:normal;font-variant:normal;font-weight:normal;font-stretch:normal;text-align:center;line-height:125%;letter-spacing:0px;word-spacing:0px;writing-mode:lr-tb;text-anchor:middle;fill:url(#linearGradient8250);fill-opacity:1;stroke:#737373;stroke-width:0.99999994;stroke-opacity:1;font-family:Times New Roman;-inkscape-font-specification:Times New Roman"
       id="text7479">
      <path
         d="m 281.56705,60.628734 20.00376,0 1.21645,0 c 2.25261,6.1e-5 3.37894,0.780988 3.37901,2.342783 -7e-5,1.231521 -0.60078,2.042484 -1.80214,2.43289 -0.99124,0.330449 -1.56943,0.53319 -1.73456,0.608223 -0.16526,0.07514 -0.33797,0.24785 -0.51812,0.518115 -0.36049,0.480627 -0.5407,1.246536 -0.54064,2.29773 l 0,45.098575 c -6e-5,1.05126 0.18015,1.81717 0.54064,2.29773 0.18015,0.27033 0.35286,0.44303 0.51812,0.51812 0.16513,0.0751 0.74332,0.27783 1.73456,0.60822 1.20136,0.39047 1.80207,1.20143 1.80214,2.43289 -7e-5,1.56186 -1.1264,2.34278 -3.37901,2.34278 l -1.21645,0 -20.04882,0 -1.48676,0 c -1.32161,0 -2.3203,-0.20274 -2.99606,-0.60822 -0.67584,-0.40548 -1.01374,-1.0137 -1.01371,-1.82467 -3e-5,-1.32156 0.72082,-2.14754 2.16257,-2.47794 1.17135,-0.30035 1.86217,-0.48808 2.07247,-0.56317 0.2102,-0.0751 0.42045,-0.24779 0.63074,-0.51812 0.4505,-0.54063 0.67576,-1.39665 0.67581,-2.56805 z m -16.5797,0 8.87554,25.275026 3.91966,-13.651217 0,14.95777 -10.40736,34.916477 -2.38784,0 -17.48077,-51.856602 c -0.60072,-1.742016 -1.23147,-2.913406 -1.89224,-3.514175 -0.39048,-0.390408 -1.06628,-0.675747 -2.02741,-0.856017 -1.95233,-0.420443 -2.92848,-1.351548 -2.92848,-2.793318 0,-0.780868 0.27783,-1.38909 0.83349,-1.824668 0.55565,-0.435456 1.35911,-0.653215 2.41036,-0.653276 z m -17.48077,20.724621 4.77568,13.606164 0,13.561111 c -2e-5,1.38165 0.0525,2.37283 0.15768,2.97353 0.10511,0.60073 0.33789,1.26151 0.69833,1.98236 0.63074,1.32157 1.50177,2.31275 2.61311,2.97353 l 1.66698,1.08128 c 1.14133,0.69083 1.71201,1.45674 1.71203,2.29773 -2e-5,1.53182 -1.12636,2.29773 -3.37901,2.29773 l -11.30844,0 c -2.25268,0 -3.37901,-0.75089 -3.37901,-2.25267 0,-0.48057 0.0976,-0.84851 0.29285,-1.10381 0.19523,-0.2553 0.57818,-0.54815 1.14886,-0.87855 3.33396,-1.80213 5.00093,-4.92584 5.00094,-9.37113 z"
         style="font-size:92.26961517px;stroke:#737373;font-family:Stencil;-inkscape-font-specification:Stencil"
         id="path8288" />
      <path
         d="m 331.62151,60.628734 18.15657,0 12.52488,52.937886 c 0.24023,0.93112 0.51055,1.7571 0.81096,2.47795 0.27027,0.57068 0.87098,1.03623 1.80214,1.39666 0.78087,0.33039 1.32151,0.66079 1.62193,0.99117 0.3003,0.3304 0.45048,0.78093 0.45053,1.35161 -5e-5,1.56186 -1.17145,2.34278 -3.51417,2.34278 l -22.48171,0 c -0.9011,0 -1.62196,-0.21776 -2.16257,-0.65327 -0.54067,-0.43552 -0.81099,-1.01371 -0.81096,-1.73456 -3e-5,-0.60071 0.12011,-1.05125 0.36043,-1.35161 0.24025,-0.30035 0.78089,-0.6758 1.62192,-1.12634 0.60068,-0.30035 1.02118,-0.63074 1.2615,-0.99118 0.24025,-0.36042 0.3604,-0.81095 0.36043,-1.3516 -3e-5,-0.5106 -0.0451,-0.96113 -0.13516,-1.35161 l -1.44171,-6.53276 -12.56994,0 1.21645,-5.36137 10.09199,0 -8.28985,-36.628511 z m -3.1087,11.443595 2.29773,9.326079 -7.97447,29.104572 c -0.2403,0.84101 -0.36044,1.62194 -0.36043,2.34279 -10e-6,1.89225 0.88604,3.24386 2.65816,4.05481 l 1.57687,0.72086 c 0.99116,0.45054 1.48675,1.20143 1.48677,2.25268 -2e-5,1.50178 -1.09632,2.25267 -3.28891,2.25267 l -11.44359,0 c -1.11133,0 -1.98987,-0.23277 -2.63563,-0.69833 -0.64577,-0.46555 -0.96865,-1.10381 -0.96865,-1.91477 0,-0.87103 0.66078,-1.59189 1.98235,-2.16257 1.23146,-0.54064 2.14004,-1.02872 2.72574,-1.46424 0.58569,-0.43551 1.14886,-1.02871 1.68951,-1.77961 0.84099,-1.23146 1.53181,-2.8684 2.07246,-4.91084 z"
         style="font-size:92.26961517px;stroke:#737373;font-family:Stencil;-inkscape-font-specification:Stencil"
         id="path8290" />
      <path
         d="m 395.46235,59.412289 0,5.451476 c -1.77213,0.270378 -3.0937,1.051305 -3.96471,2.342783 -0.87106,1.291588 -1.30658,3.138781 -1.30655,5.541584 l 0,37.214208 0,1.9373 c -3e-5,0.69083 0.14264,1.4192 0.42801,2.1851 0.28531,0.76592 0.65325,1.41919 1.10381,1.95983 0.48054,0.60072 0.99115,1.02872 1.53182,1.28402 0.54061,0.25531 1.27649,0.42802 2.20762,0.51812 l 0,5.49653 c -5.82694,0 -10.88795,-1.5168 -15.18304,-4.55041 -3.7845,-2.67317 -6.63789,-6.26994 -8.56017,-10.79032 -1.92228,-4.52035 -2.88342,-9.874203 -2.88342,-16.061578 0,-4.535353 0.62324,-8.762871 1.86972,-12.682566 1.24648,-3.91961 3.05612,-7.321148 5.42895,-10.204623 2.40284,-2.913405 5.27876,-5.256186 8.62775,-7.02835 3.34896,-1.772043 6.57028,-2.658095 9.66398,-2.658158 z m 3.55923,5.49653 0,-5.451477 c 1.47171,0.240348 2.66563,0.495651 3.58175,0.76591 0.91606,0.270383 2.57553,0.84106 4.97842,1.712034 1.53178,0.540702 2.55299,0.811023 3.06364,0.810964 0.87099,5.9e-5 1.53177,-0.390405 1.98235,-1.171392 l 0.5857,-1.081285 c 0.36038,-0.720794 1.03618,-1.081221 2.02741,-1.081284 0.81091,6.3e-5 1.43415,0.240348 1.86972,0.720856 0.43546,0.480633 0.65322,1.18647 0.65327,2.117516 l 0,18.742265 c -5e-5,1.201468 -0.27037,2.072501 -0.81096,2.613105 -0.54069,0.54068 -1.15642,0.811001 -1.84719,0.810963 -0.72091,3.8e-5 -1.29909,-0.232738 -1.73456,-0.698329 -0.43557,-0.465515 -0.78849,-1.223915 -1.05876,-2.275203 -0.6308,-2.372776 -1.24653,-4.234987 -1.8472,-5.586637 -1.29157,-2.853341 -2.76332,-5.166086 -4.41524,-6.938243 -1.11136,-1.201373 -2.22268,-2.124969 -3.33396,-2.770791 -1.11136,-0.645711 -2.34282,-1.058701 -3.69439,-1.238972 z m 0.13516,58.434421 0,-5.49653 c 2.34275,-0.18021 4.80567,-1.06626 7.38878,-2.65816 1.3816,-0.87103 2.61306,-2.03491 3.69439,-3.49165 1.08124,-1.45672 1.8922,-3.05611 2.43289,-4.7982 0.30031,-0.96112 0.65323,-1.64443 1.05875,-2.04993 0.40544,-0.40547 0.93857,-0.60821 1.5994,-0.60823 0.72081,2e-5 1.32152,0.27034 1.80214,0.81097 0.48053,0.54066 0.72081,1.21646 0.72086,2.02741 -5e-5,1.35162 -0.51816,2.98856 -1.55435,4.91083 -1.03627,1.92229 -2.36535,3.6944 -3.98723,5.31632 -1.9824,1.98235 -4.01732,3.4541 -6.10475,4.41524 -2.08752,0.96114 -4.43781,1.50178 -7.05088,1.62193 z"
         style="font-size:92.26961517px;stroke:#737373;font-family:Stencil;-inkscape-font-specification:Stencil"
         id="path8292" />
      <path
         d="m 471.33248,64.278069 c -1.53184,0.5407 -2.61313,1.276573 -3.24385,2.207623 -0.63077,0.931161 -0.94615,2.297783 -0.94613,4.099871 l 0,40.277847 c -2e-5,2.64315 0.36041,4.50536 1.08129,5.58664 0.57065,0.90107 1.60688,1.54684 3.10869,1.9373 l 0,4.95589 c -6.66794,-0.54064 -12.25457,-3.04862 -16.75991,-7.52394 -5.85696,-5.82691 -8.78544,-13.95155 -8.78544,-24.373956 0,-5.226173 0.77342,-9.949279 2.32026,-14.169333 1.54683,-4.219965 3.83705,-7.801716 6.87066,-10.745266 2.31274,-2.252618 4.8057,-3.96465 7.47889,-5.136101 2.67315,-1.17133 5.63166,-1.832114 8.87554,-1.982355 z m 3.69439,0 0,-4.86578 c 3.24382,0.150241 6.20984,0.811025 8.89807,1.982355 2.68815,1.171451 5.18862,2.883483 7.50141,5.136101 6.12723,5.977151 9.19086,14.282009 9.19092,24.914599 -6e-5,10.422406 -2.92853,18.547046 -8.78544,24.373956 -4.50539,4.50535 -10.10704,7.01333 -16.80496,7.52394 l 0,-4.95589 c 0.7809,-0.18021 1.38912,-0.41299 1.82467,-0.69833 0.43548,-0.28533 0.83345,-0.69832 1.19392,-1.23897 0.81093,-1.23146 1.21641,-3.09367 1.21644,-5.58664 l 0,-40.277847 c -3e-5,-1.591838 -0.27035,-2.853336 -0.81096,-3.784496 -0.36046,-0.630694 -0.78847,-1.126282 -1.28403,-1.486767 -0.49562,-0.360371 -1.20897,-0.705781 -2.14004,-1.036231 z"
         style="font-size:92.26961517px;stroke:#737373;font-family:Stencil;-inkscape-font-specification:Stencil"
         id="path8294" />
      <path
         d="m 526.97358,59.412289 0,5.181155 c -1.86223,0.510664 -3.28142,1.299099 -4.25756,2.36531 -0.97617,1.066321 -1.46425,2.380381 -1.46423,3.942183 -2e-5,1.501834 0.40546,2.815894 1.21644,3.942183 0.81094,1.126385 2.13251,2.200159 3.96471,3.221327 1.26147,0.690864 4.11486,2.012433 8.56017,3.96471 2.70318,1.171431 4.79816,2.230188 6.28497,3.176274 1.48672,0.94616 2.89089,2.125059 4.2125,3.536701 3.54416,3.724455 5.31627,8.154713 5.31632,13.290788 -5e-5,3.87462 -0.96119,7.41883 -2.88343,10.63263 -1.92233,3.21383 -4.56546,5.73682 -7.92942,7.56899 -1.80218,0.96115 -3.77702,1.71955 -5.92454,2.27521 -2.14758,0.55566 -4.15246,0.83349 -6.01464,0.83349 l 0,-5.1361 c 2.61307,-0.63075 4.49781,-1.50929 5.65421,-2.63563 1.15635,-1.12634 1.73453,-2.65064 1.73457,-4.57294 -4e-5,-2.01237 -0.90111,-3.78448 -2.70322,-5.31631 -1.20145,-0.99116 -3.48416,-2.22262 -6.84813,-3.69439 -3.69441,-1.62191 -6.22491,-2.77828 -7.59152,-3.469123 -1.36664,-0.690797 -2.6807,-1.501759 -3.94218,-2.43289 -5.64672,-4.024752 -8.47007,-9.386116 -8.47007,-16.084108 0,-3.424022 0.70584,-6.585275 2.11752,-9.483767 1.41167,-2.898389 3.379,-5.23366 5.90201,-7.005823 3.51416,-2.462864 7.86933,-3.829487 13.06552,-4.09987 z m 3.55923,5.181155 0,-4.955888 c 1.80211,0.120206 3.36397,0.352982 4.68557,0.69833 1.32153,0.345472 3.19876,1.028783 5.63169,2.049935 0.60067,0.240345 1.09626,0.360488 1.48676,0.360429 0.57064,5.9e-5 0.99114,-0.195173 1.2615,-0.585696 l 0.99118,-1.306552 c 0.48053,-0.660723 1.06622,-0.991116 1.75709,-0.991178 0.81092,6.2e-5 1.40412,0.29291 1.77961,0.878544 0.3754,0.585756 0.56312,1.509353 0.56317,2.770791 l 0,14.867663 c -5e-5,0.871078 -0.24784,1.584424 -0.74338,2.140042 -0.49564,0.555702 -1.13389,0.833531 -1.91478,0.833491 -0.60075,4e-5 -1.15641,-0.195191 -1.66698,-0.585696 -0.27036,-0.240244 -0.48812,-0.533092 -0.65327,-0.878544 -0.16524,-0.345368 -0.32293,-0.923554 -0.47307,-1.734561 -0.33043,-1.471703 -0.90111,-2.988503 -1.71203,-4.550405 -0.811,-1.561806 -1.75712,-2.958464 -2.83837,-4.189978 -2.1626,-2.432835 -4.88083,-4.039743 -8.15469,-4.820727 z m -5.90201,53.613696 0,5.1361 c -2.46295,0 -5.18117,-0.70584 -8.15469,-2.11752 -1.11133,-0.5106 -1.87724,-0.84099 -2.29773,-0.99118 -0.42051,-0.15017 -0.82599,-0.22526 -1.21644,-0.22526 -0.60073,0 -1.05126,0.0976 -1.35161,0.29285 -0.30036,0.19523 -0.78093,0.68331 -1.44171,1.46423 -0.54065,0.66079 -1.12635,0.99118 -1.75709,0.99118 -1.682,0 -2.523,-1.29153 -2.523,-3.8746 l 0,-16.39948 c 0,-0.84098 0.24029,-1.55433 0.72086,-2.14005 0.48057,-0.585669 1.08128,-0.893534 1.80214,-0.923593 0.66078,-0.03001 1.17889,0.15771 1.55435,0.563169 0.37544,0.405504 0.69832,1.118854 0.96865,2.140044 0.69081,2.58308 1.6895,5.00095 2.99606,7.25362 1.30654,2.25268 2.83085,4.15995 4.57293,5.72179 1.77209,1.62194 3.81451,2.65817 6.12728,3.1087 z"
         style="font-size:92.26961517px;stroke:#737373;font-family:Stencil;-inkscape-font-specification:Stencil"
         id="path8296" />
      <path
         d="m 582.47954,68.5131 22.66193,46.08975 c 0.54059,1.05126 1.27646,1.81717 2.20762,2.29773 0.81091,0.42051 1.35906,0.81097 1.64445,1.1714 0.28529,0.36043 0.42796,0.85602 0.42801,1.48676 -5e-5,0.81097 -0.30041,1.45673 -0.90107,1.9373 -0.51066,0.4205 -1.59194,0.63075 -3.24385,0.63075 l -21.1301,0 c -1.62196,0 -2.67321,-0.10512 -3.15375,-0.31537 -1.05128,-0.45054 -1.5769,-1.21645 -1.57687,-2.29773 -3e-5,-0.39046 0.10509,-0.72836 0.31537,-1.01371 0.21022,-0.28533 0.60069,-0.63825 1.17139,-1.05875 1.02119,-0.75089 1.51678,-1.44171 1.48677,-2.07247 -0.0301,-0.51059 -0.30039,-1.2765 -0.81097,-2.29773 L 559.45719,68.5131 c -0.36043,-0.750837 -0.75089,-1.344041 -1.17139,-1.779614 -0.4205,-0.435461 -0.97616,-0.833434 -1.66698,-1.193918 -0.60071,-0.3003 -1.0137,-0.630692 -1.23897,-0.991178 -0.22527,-0.36037 -0.3379,-0.855958 -0.3379,-1.486766 0,-0.90101 0.32288,-1.531759 0.96865,-1.892248 0.64576,-0.360367 1.79463,-0.540581 3.44659,-0.540642 l 20.99495,0 c 1.53179,6.1e-5 2.6356,0.195293 3.31143,0.585696 0.67577,0.390524 1.01367,1.021273 1.0137,1.892248 -3e-5,0.871093 -0.49561,1.637002 -1.48676,2.297729 -0.45057,0.330449 -0.75843,0.608279 -0.9236,0.833491 -0.16522,0.225323 -0.24782,0.533188 -0.24779,0.923597 -3e-5,0.420554 0.12011,0.871089 0.36042,1.351605 z m 10.13705,12.479826 -2.523,-5.000941 2.523,-4.280084 c 0.57064,-0.991126 0.85598,-1.847143 0.85601,-2.568051 -3e-5,-0.660732 -0.20278,-1.306498 -0.60822,-1.937302 -0.40552,-0.630693 -0.93865,-1.096246 -1.5994,-1.396659 l -1.57687,-0.720856 c -0.30039,-0.150121 -0.56321,-0.43546 -0.78844,-0.856017 -0.2253,-0.420441 -0.33793,-0.840941 -0.3379,-1.261499 -3e-5,-0.720796 0.25527,-1.291474 0.76591,-1.712034 0.51057,-0.420438 1.18637,-0.630688 2.02741,-0.630749 l 13.02047,0 c 0.84095,6.1e-5 1.53927,0.187784 2.09499,0.563169 0.5556,0.375507 0.83343,0.863586 0.83349,1.46424 -6e-5,0.720915 -0.27038,1.351663 -0.81097,1.892247 -0.2103,0.180272 -0.84105,0.555718 -1.89225,1.126339 -2.13258,1.171446 -3.90468,2.868461 -5.31631,5.091048 z m -21.26527,19.147744 2.47795,5.13611 -2.79332,4.5504 c -1.02123,1.68201 -1.53184,3.0186 -1.53182,4.00976 -2e-5,1.44172 0.81095,2.49297 2.43289,3.15375 0.90105,0.36043 1.51678,0.72086 1.84719,1.08129 0.33038,0.36043 0.49557,0.85602 0.49559,1.48676 -2e-5,0.841 -0.36044,1.53182 -1.08128,2.07246 -0.27034,0.21025 -0.5707,0.34541 -0.90107,0.40549 -0.33041,0.0601 -0.96116,0.0901 -1.89225,0.0901 l -11.62381,0 c -0.96114,0 -1.71954,-0.20274 -2.2752,-0.60822 -0.55566,-0.40548 -0.83349,-0.96865 -0.83349,-1.68951 0,-0.57067 0.1727,-1.04373 0.51811,-1.41918 0.34541,-0.37544 0.95363,-0.72836 1.82467,-1.05876 2.25267,-0.87103 3.99474,-2.29772 5.22621,-4.28009 z"
         style="font-size:92.26961517px;stroke:#737373;font-family:Stencil;-inkscape-font-specification:Stencil"
         id="path8298" />
      <path
         d="m 160.11615,171.91219 0,38.92925 c -2e-5,0.86142 0.16563,1.47987 0.49697,1.85535 0.17668,0.22088 0.34233,0.35893 0.49697,0.41415 0.15459,0.0552 0.6626,0.19327 1.52404,0.41414 1.06017,0.24296 1.59027,0.85037 1.5903,1.82222 -3e-5,0.57427 -0.28717,1.03811 -0.86142,1.39151 -0.41968,0.26505 -1.11544,0.39758 -2.08727,0.39758 l -1.12646,0 -14.77655,0 -0.86141,0 c -0.79516,0 -1.40809,-0.14909 -1.83879,-0.44728 -0.43071,-0.29818 -0.64606,-0.72336 -0.64606,-1.27555 0,-0.90559 0.44175,-1.50195 1.32525,-1.78909 0.72888,-0.24296 1.15407,-0.39205 1.27556,-0.44727 0.12147,-0.0552 0.24847,-0.18222 0.381,-0.38101 0.26505,-0.3534 0.39757,-0.91663 0.39758,-1.6897 l 0,-33.16441 c -1e-5,-0.77302 -0.13253,-1.33625 -0.39758,-1.68969 -0.13253,-0.19875 -0.25953,-0.32575 -0.381,-0.38101 -0.12149,-0.0552 -0.54668,-0.20427 -1.27556,-0.44727 -0.8835,-0.2871 -1.32525,-0.88346 -1.32525,-1.78909 0,-0.55215 0.21535,-0.97733 0.64606,-1.27556 0.4307,-0.29813 1.04363,-0.44722 1.83879,-0.44727 l 0.86141,0 z m 10.1713,23.05937 c 2.03202,0.30925 3.59471,0.6516 4.68808,1.02707 1.09329,0.37551 2.08171,0.88352 2.96525,1.52404 0.92763,0.68473 1.63995,1.50197 2.13696,2.45171 0.49693,0.94978 0.74542,1.95476 0.74546,3.01495 l 0,6.85817 c -4e-5,0.70681 0.23187,1.06021 0.69575,1.06021 0.17666,0 0.32575,-0.0497 0.44728,-0.1491 0.12144,-0.0994 0.29261,-0.29265 0.51353,-0.57979 0.55215,-0.75097 1.11538,-1.12646 1.6897,-1.12647 0.37544,1e-5 0.75093,0.1988 1.12646,0.59637 0.37544,0.39758 0.56319,0.79515 0.56323,1.19272 -4e-5,0.68472 -0.32584,1.51852 -0.97737,2.50141 -0.65163,0.9829 -1.46334,1.86088 -2.43515,2.63394 -0.90563,0.72889 -1.88852,1.25347 -2.94868,1.57374 -1.06024,0.32027 -2.30819,0.4804 -3.74384,0.4804 -2.91558,0 -5.1906,-0.8338 -6.82504,-2.50141 -1.63451,-1.66761 -2.45174,-3.99231 -2.45172,-6.97414 l 0,-5.56605 c -2e-5,-1.23689 -0.0111,-1.95473 -0.0331,-2.15353 -0.11046,-0.88349 -0.41969,-1.64551 -0.92767,-2.28606 -0.64057,-0.77305 -1.5572,-1.22584 -2.7499,-1.35838 l 0,-3.54505 c 1.1927,-0.17668 2.04307,-0.4859 2.55111,-0.92768 0.44172,-0.39755 0.74543,-0.85034 0.91111,-1.35838 0.16563,-0.50799 0.24846,-1.25896 0.24848,-2.25293 l 0,-8.77979 c -2e-5,-1.39147 -0.2706,-2.42958 -0.81171,-3.11434 -0.54117,-0.68467 -1.51854,-1.22581 -2.93212,-1.62343 l 0,-3.67757 0.86141,0 c 2.45169,5e-5 4.53896,0.0884 6.26181,0.26505 2.56212,0.24301 4.84818,1.08233 6.85818,2.51798 2.89342,2.05418 4.34015,4.98077 4.3402,8.77979 -5e-5,3.11437 -0.9719,5.66547 -2.91556,7.65332 -0.81727,0.83935 -1.77256,1.52407 -2.86585,2.05414 -1.09337,0.53013 -2.75545,1.12649 -4.98626,1.78909 z"
         style="font-size:67.8528595px;stroke:#737373;font-family:Stencil;-inkscape-font-specification:Stencil"
         id="path8300" />
      <path
         d="m 207.56014,171.91219 0,45.2242 -14.74342,0 -0.86141,0 c -0.79516,0 -1.40808,-0.14909 -1.83879,-0.44728 -0.43071,-0.29818 -0.64606,-0.72336 -0.64606,-1.27555 0,-0.90559 0.44175,-1.50195 1.32525,-1.78909 0.72889,-0.24296 1.15407,-0.39205 1.27556,-0.44727 0.12147,-0.0552 0.24848,-0.18222 0.38101,-0.38101 0.26504,-0.3534 0.39757,-0.91663 0.39757,-1.6897 l 0,-33.16441 c 0,-0.77302 -0.13253,-1.33625 -0.39757,-1.68969 -0.13253,-0.19875 -0.25954,-0.32575 -0.38101,-0.38101 -0.12149,-0.0552 -0.54667,-0.20427 -1.27556,-0.44727 -0.8835,-0.2871 -1.32525,-0.88346 -1.32525,-1.78909 0,-0.55215 0.21535,-0.97733 0.64606,-1.27556 0.43071,-0.29813 1.04363,-0.44722 1.83879,-0.44727 l 0.86141,0 z m 2.94868,0 13.35191,0 0,11.72847 c -4e-5,0.68475 -0.13256,1.18172 -0.39758,1.49091 -0.26508,0.30926 -0.68474,0.46387 -1.25898,0.46384 -0.48596,3e-5 -0.83936,-0.0994 -1.0602,-0.29818 -0.22091,-0.19876 -0.43075,-0.60738 -0.6295,-1.22586 -0.83936,-2.56212 -2.07074,-4.51686 -3.69414,-5.86424 -1.62346,-1.3473 -3.72729,-2.15349 -6.31151,-2.41858 z m -0.16565,24.11957 0,-3.84323 c 1.28105,-0.61842 2.23081,-1.29209 2.84929,-2.02101 0.61842,-0.72886 1.07122,-1.70071 1.35838,-2.91555 0.17667,-0.83929 0.40859,-1.41909 0.69576,-1.73939 0.28711,-0.32024 0.69573,-0.48037 1.22585,-0.4804 0.70678,3e-5 1.1927,0.27612 1.45778,0.82828 0.15458,0.28717 0.23189,0.93875 0.23192,1.95474 l 0,12.62302 c -3e-5,1.03813 -0.11599,1.75597 -0.34788,2.15353 -0.23195,0.39759 -0.65713,0.59638 -1.27555,0.59637 -0.50804,1e-5 -0.90562,-0.1546 -1.19273,-0.46384 -0.28716,-0.30921 -0.51908,-0.82827 -0.69576,-1.55717 -0.37551,-1.52402 -0.91113,-2.69466 -1.60686,-3.51192 -0.69578,-0.81721 -1.59585,-1.35836 -2.7002,-1.62343 z m 0.19879,21.10463 0,-3.57818 c 1.43566,-0.22087 2.62286,-0.5301 3.56161,-0.92768 0.93869,-0.39757 1.88293,-1.00497 2.83272,-1.82222 0.94973,-0.81723 1.70623,-1.66208 2.2695,-2.53454 0.56319,-0.87245 1.09882,-2.02652 1.60686,-3.46222 0.24293,-0.70679 0.49694,-1.18719 0.76202,-1.44121 0.26502,-0.25399 0.62946,-0.381 1.09333,-0.38101 0.61842,1e-5 1.04912,0.18224 1.29212,0.54667 0.24293,0.36445 0.36441,0.99947 0.36445,1.90504 l 0,11.69535 z"
         style="font-size:67.8528595px;stroke:#737373;font-family:Stencil;-inkscape-font-specification:Stencil"
         id="path8302" />
      <path
         d="m 247.4502,217.13639 -14.74342,0 -0.86141,0 c -0.79516,0 -1.40808,-0.14909 -1.83879,-0.44728 -0.43071,-0.29818 -0.64606,-0.72336 -0.64606,-1.27555 0,-0.90559 0.44175,-1.50195 1.32525,-1.78909 0.72889,-0.24296 1.15407,-0.39205 1.27556,-0.44727 0.12147,-0.0552 0.24848,-0.18222 0.38101,-0.38101 0.26504,-0.3534 0.39757,-0.91663 0.39757,-1.6897 l 0,-33.16441 c 0,-0.77302 -0.13253,-1.33625 -0.39757,-1.68969 -0.13253,-0.19875 -0.25954,-0.32575 -0.38101,-0.38101 -0.12149,-0.0552 -0.54667,-0.20427 -1.27556,-0.44727 -0.8835,-0.2871 -1.32525,-0.88346 -1.32525,-1.78909 0,-0.55215 0.21535,-0.97733 0.64606,-1.27556 0.43071,-0.29813 1.04363,-0.44722 1.83879,-0.44727 l 0.86141,0 14.77655,0 1.12647,0 c 0.97182,5e-5 1.66758,0.13257 2.08727,0.39758 0.57425,0.35344 0.86138,0.81728 0.86141,1.39151 -3e-5,0.97189 -0.53013,1.5793 -1.5903,1.82222 -0.86144,0.19883 -1.36945,0.33135 -1.52404,0.39757 -0.15463,0.0663 -0.32029,0.19883 -0.49697,0.39758 -0.33133,0.39762 -0.49699,1.01607 -0.49697,1.85535 z m 2.68363,0 0,-3.71071 c 1.08227,-0.19878 1.93816,-0.41966 2.56768,-0.66262 0.62947,-0.24296 1.23135,-0.59636 1.80565,-1.0602 0.92765,-0.72889 1.77802,-1.73387 2.55111,-3.01495 0.77303,-1.28107 1.40253,-2.70571 1.88849,-4.27394 0.35336,-1.21479 0.67915,-2.01547 0.97737,-2.40201 0.29815,-0.38652 0.73437,-0.57978 1.30868,-0.5798 0.61842,2e-5 1.07121,0.25402 1.35839,0.76202 0.13248,0.24298 0.19875,0.7289 0.19878,1.45778 l 0,13.48443 z"
         style="font-size:67.8528595px;stroke:#737373;font-family:Stencil;-inkscape-font-specification:Stencil"
         id="path8304" />
      <path
         d="m 278.82553,171.91219 13.3519,0 9.2105,38.92925 c 0.17666,0.68472 0.37545,1.29213 0.59636,1.82222 0.19875,0.41967 0.6405,0.76203 1.32525,1.02707 0.57423,0.24297 0.97181,0.48593 1.19273,0.72889 0.22083,0.24297 0.33127,0.57428 0.33131,0.99394 -4e-5,1.14855 -0.86146,1.72283 -2.58424,1.72283 l -16.53251,0 c -0.66265,0 -1.19275,-0.16014 -1.5903,-0.48041 -0.3976,-0.32027 -0.59638,-0.74545 -0.59636,-1.27555 -2e-5,-0.44175 0.0883,-0.77306 0.26505,-0.99394 0.17668,-0.22087 0.57425,-0.49697 1.19272,-0.82828 0.44173,-0.22087 0.75096,-0.46384 0.92768,-0.72889 0.17668,-0.26505 0.26503,-0.59636 0.26505,-0.99394 -2e-5,-0.37548 -0.0332,-0.70679 -0.0994,-0.99394 l -1.06021,-4.80403 -9.24362,0 0.89454,-3.94262 7.42141,0 -6.09616,-26.93573 z m -2.28606,8.41534 1.68969,6.85818 -5.86423,21.40281 c -0.17671,0.61845 -0.26506,1.19273 -0.26505,1.72282 -10e-6,1.39152 0.65157,2.38546 1.95474,2.98182 l 1.1596,0.5301 c 0.72887,0.33131 1.09331,0.8835 1.09333,1.65656 -2e-5,1.10438 -0.80621,1.65657 -2.41859,1.65657 l -8.41534,0 c -0.81724,0 -1.4633,-0.17118 -1.93818,-0.51354 -0.47488,-0.34235 -0.71232,-0.81171 -0.71232,-1.40808 0,-0.64053 0.48592,-1.17063 1.45777,-1.5903 0.90559,-0.39757 1.57374,-0.75649 2.00445,-1.07677 0.4307,-0.32026 0.84484,-0.75649 1.24242,-1.30868 0.61844,-0.90558 1.12646,-2.10935 1.52404,-3.61131 z"
         style="font-size:67.8528595px;stroke:#737373;font-family:Stencil;-inkscape-font-specification:Stencil"
         id="path8306" />
      <path
         d="m 332.2994,171.91219 0,38.92925 c -3e-5,0.86142 0.16563,1.47987 0.49697,1.85535 0.17667,0.22088 0.34233,0.35893 0.49697,0.41415 0.15458,0.0552 0.66259,0.19327 1.52404,0.41414 1.06017,0.24296 1.59027,0.85037 1.5903,1.82222 -3e-5,0.57427 -0.28717,1.03811 -0.86141,1.39151 -0.4197,0.26505 -1.1265,0.39758 -2.12041,0.39758 l -1.09333,0 -14.77655,0 -1.09333,0 c -0.97186,0 -1.70627,-0.14909 -2.20323,-0.44728 -0.49698,-0.29818 -0.74546,-0.74545 -0.74546,-1.34181 0,-0.97185 0.5301,-1.57926 1.59031,-1.82222 0.8614,-0.22087 1.36941,-0.35892 1.52404,-0.41414 0.1546,-0.0552 0.30921,-0.19327 0.46383,-0.41415 0.3313,-0.37548 0.49696,-0.99393 0.49697,-1.85535 l 0,-38.92925 z m 11.46342,0 0,13.55069 c -4e-5,0.64057 -0.18226,1.15963 -0.54666,1.55717 -0.36449,0.39761 -0.83384,0.5964 -1.40808,0.59637 -0.55223,3e-5 -1.01054,-0.1822 -1.37495,-0.54667 -0.36448,-0.36441 -0.60192,-0.8669 -0.71232,-1.50747 l -0.33132,-2.02101 c -0.33134,-2.0541 -0.97188,-3.83215 -1.92161,-5.33414 -0.5964,-0.92763 -1.40259,-1.68965 -2.41858,-2.28606 l 0,-4.00888 z m -37.57087,0 8.71353,0 0,4.00888 c -1.03812,0.59641 -1.84432,1.35843 -2.41858,2.28606 -0.94977,1.50199 -1.59031,3.28004 -1.92162,5.33414 l -0.33131,2.02101 c -0.11044,0.64057 -0.34789,1.14306 -0.71232,1.50747 -0.36445,0.36447 -0.82277,0.5467 -1.37495,0.54667 -0.57428,3e-5 -1.04364,-0.19876 -1.40808,-0.59637 -0.36445,-0.39754 -0.54667,-0.9166 -0.54667,-1.55717 z"
         style="font-size:67.8528595px;stroke:#737373;font-family:Stencil;-inkscape-font-specification:Stencil"
         id="path8308" />
      <path
         d="m 365.92766,171.91219 0,45.2242 -14.74342,0 -0.86142,0 c -0.79515,0 -1.40808,-0.14909 -1.83878,-0.44728 -0.43071,-0.29818 -0.64606,-0.72336 -0.64606,-1.27555 0,-0.90559 0.44175,-1.50195 1.32525,-1.78909 0.72888,-0.24296 1.15407,-0.39205 1.27555,-0.44727 0.12148,-0.0552 0.24848,-0.18222 0.38101,-0.38101 0.26505,-0.3534 0.39757,-0.91663 0.39758,-1.6897 l 0,-33.16441 c -1e-5,-0.77302 -0.13253,-1.33625 -0.39758,-1.68969 -0.13253,-0.19875 -0.25953,-0.32575 -0.38101,-0.38101 -0.12148,-0.0552 -0.54667,-0.20427 -1.27555,-0.44727 -0.8835,-0.2871 -1.32525,-0.88346 -1.32525,-1.78909 0,-0.55215 0.21535,-0.97733 0.64606,-1.27556 0.4307,-0.29813 1.04363,-0.44722 1.83878,-0.44727 l 0.86142,0 z m 2.94868,0 13.35191,0 0,11.72847 c -4e-5,0.68475 -0.13257,1.18172 -0.39758,1.49091 -0.26509,0.30926 -0.68475,0.46387 -1.25899,0.46384 -0.48596,3e-5 -0.83936,-0.0994 -1.0602,-0.29818 -0.22091,-0.19876 -0.43074,-0.60738 -0.62949,-1.22586 -0.83936,-2.56212 -2.07074,-4.51686 -3.69414,-5.86424 -1.62346,-1.3473 -3.7273,-2.15349 -6.31151,-2.41858 z m -0.16566,24.11957 0,-3.84323 c 1.28106,-0.61842 2.23082,-1.29209 2.84929,-2.02101 0.61843,-0.72886 1.07122,-1.70071 1.35839,-2.91555 0.17667,-0.83929 0.40859,-1.41909 0.69575,-1.73939 0.28711,-0.32024 0.69573,-0.48037 1.22586,-0.4804 0.70677,3e-5 1.1927,0.27612 1.45778,0.82828 0.15458,0.28717 0.23188,0.93875 0.23192,1.95474 l 0,12.62302 c -4e-5,1.03813 -0.116,1.75597 -0.34788,2.15353 -0.23195,0.39759 -0.65714,0.59638 -1.27556,0.59637 -0.50804,1e-5 -0.90561,-0.1546 -1.19272,-0.46384 -0.28717,-0.30921 -0.51909,-0.82827 -0.69576,-1.55717 -0.37552,-1.52402 -0.91114,-2.69466 -1.60687,-3.51192 -0.69578,-0.81721 -1.59584,-1.35836 -2.7002,-1.62343 z m 0.19879,21.10463 0,-3.57818 c 1.43567,-0.22087 2.62287,-0.5301 3.56161,-0.92768 0.9387,-0.39757 1.88294,-1.00497 2.83273,-1.82222 0.94973,-0.81723 1.70623,-1.66208 2.26949,-2.53454 0.5632,-0.87245 1.09882,-2.02652 1.60687,-3.46222 0.24293,-0.70679 0.49693,-1.18719 0.76202,-1.44121 0.26501,-0.25399 0.62946,-0.381 1.09333,-0.38101 0.61841,1e-5 1.04912,0.18224 1.29212,0.54667 0.24292,0.36445 0.36441,0.99947 0.36444,1.90504 l 0,11.69535 z"
         style="font-size:67.8528595px;stroke:#737373;font-family:Stencil;-inkscape-font-specification:Stencil"
         id="path8310" />
      <path
         d="m 405.81772,171.91219 0,45.2242 -14.74342,0 -0.86142,0 c -0.79515,0 -1.40808,-0.14909 -1.83878,-0.44728 -0.43071,-0.29818 -0.64606,-0.72336 -0.64606,-1.27555 0,-0.90559 0.44175,-1.50195 1.32525,-1.78909 0.72888,-0.24296 1.15407,-0.39205 1.27555,-0.44727 0.12148,-0.0552 0.24848,-0.18222 0.38101,-0.38101 0.26505,-0.3534 0.39757,-0.91663 0.39758,-1.6897 l 0,-33.16441 c -1e-5,-0.77302 -0.13253,-1.33625 -0.39758,-1.68969 -0.13253,-0.19875 -0.25953,-0.32575 -0.38101,-0.38101 -0.12148,-0.0552 -0.54667,-0.20427 -1.27555,-0.44727 -0.8835,-0.2871 -1.32525,-0.88346 -1.32525,-1.78909 0,-0.55215 0.21535,-0.97733 0.64606,-1.27556 0.4307,-0.29813 1.04363,-0.44722 1.83878,-0.44727 l 0.86142,0 z m 6.69252,35.74865 0,-26.14058 c -3e-5,-1.61235 -0.23195,-2.89343 -0.69576,-3.84323 -0.28717,-0.61841 -0.64057,-1.0712 -1.0602,-1.35838 -0.41969,-0.2871 -1.08232,-0.53006 -1.98788,-0.72889 l 0,-3.67757 c 1.17061,5e-5 2.16455,0.0442 2.98182,0.13253 2.80508,0.30927 5.52184,1.50199 8.15029,3.57817 2.60629,2.01001 4.53895,4.62738 5.79797,7.85212 1.30313,3.26898 1.95471,6.89133 1.95475,10.86706 -4e-5,4.50587 -0.82832,8.50923 -2.48485,12.01008 -1.6566,3.50088 -4.031,6.2563 -7.12322,8.26626 -1.50198,0.97185 -2.89902,1.63448 -4.19111,1.98788 -1.29215,0.3534 -2.98736,0.5301 -5.08565,0.5301 l 0,-3.57818 c 0.92765,-0.24296 1.57371,-0.46384 1.93818,-0.66263 0.36442,-0.19878 0.67917,-0.50801 0.94424,-0.92767 0.33129,-0.48592 0.55768,-1.03259 0.67919,-1.64 0.12146,-0.6074 0.1822,-1.49642 0.18223,-2.66707 z"
         style="font-size:67.8528595px;stroke:#737373;font-family:Stencil;-inkscape-font-specification:Stencil"
         id="path8312" />
      <path
         d="m 466.77926,171.91219 0,38.92925 c -2e-5,0.86142 0.16564,1.47987 0.49697,1.85535 0.17668,0.22088 0.34234,0.35893 0.49697,0.41415 0.15459,0.0552 0.66261,0.19327 1.52404,0.41414 1.06018,0.24296 1.59028,0.85037 1.5903,1.82222 -2e-5,0.57427 -0.28716,1.03811 -0.86141,1.39151 -0.41969,0.26505 -1.11544,0.39758 -2.08727,0.39758 l -1.12646,0 -14.77655,0 -0.86142,0 c -0.79515,0 -1.40808,-0.14909 -1.83878,-0.44728 -0.43071,-0.29818 -0.64607,-0.72336 -0.64606,-1.27555 -1e-5,-0.90559 0.44174,-1.50195 1.32525,-1.78909 0.72888,-0.24296 1.15407,-0.39205 1.27555,-0.44727 0.12148,-0.0552 0.24848,-0.18222 0.38101,-0.38101 0.26505,-0.3534 0.39757,-0.91663 0.39758,-1.6897 l 0,-33.16441 c -1e-5,-0.77302 -0.13253,-1.33625 -0.39758,-1.68969 -0.13253,-0.19875 -0.25953,-0.32575 -0.38101,-0.38101 -0.12148,-0.0552 -0.54667,-0.20427 -1.27555,-0.44727 -0.88351,-0.2871 -1.32526,-0.88346 -1.32525,-1.78909 -1e-5,-0.55215 0.21535,-0.97733 0.64606,-1.27556 0.4307,-0.29813 1.04363,-0.44722 1.83878,-0.44727 l 0.86142,0 z m 2.81616,27.89654 0,-3.54505 c 0.94974,-0.22085 1.61789,-0.45277 2.00445,-0.69576 0.3865,-0.24294 0.72334,-0.61843 1.0105,-1.12646 0.46381,-0.86139 0.69573,-2.02098 0.69576,-3.47878 l 0,-10.60201 c -3e-5,-1.03808 -0.0773,-1.81114 -0.23192,-2.31919 -0.15464,-0.50798 -0.46387,-0.97181 -0.92768,-1.39152 -0.64056,-0.61841 -1.50197,-1.00494 -2.58424,-1.15959 l 0,-3.57818 c 4.55,5e-5 7.9073,0.43075 10.07191,1.29212 2.49585,0.99398 4.47269,2.51802 5.9305,4.57212 1.47982,2.09835 2.21975,4.67154 2.2198,7.71958 -5e-5,3.40151 -0.75102,6.18454 -2.25293,8.34909 -1.50199,2.14251 -3.6003,3.72176 -6.29494,4.73777 -2.23087,0.81726 -5.44461,1.22587 -9.64121,1.22586 z"
         style="font-size:67.8528595px;stroke:#737373;font-family:Stencil;-inkscape-font-specification:Stencil"
         id="path8314" />
      <path
         d="m 509.31983,174.59582 c -1.12649,0.39762 -1.92164,0.93876 -2.38546,1.62344 -0.46385,0.68475 -0.69577,1.68973 -0.69575,3.01494 l 0,29.61937 c -2e-5,1.9437 0.26503,3.31313 0.79515,4.10827 0.41964,0.66263 1.18166,1.13752 2.28606,1.42465 l 0,3.64444 c -4.90345,-0.39758 -9.01172,-2.24188 -12.32484,-5.53292 -4.30707,-4.28497 -6.4606,-10.25964 -6.4606,-17.92403 0,-3.8432 0.56875,-7.31646 1.70626,-10.41978 1.1375,-3.10326 2.82168,-5.7372 5.05252,-7.90181 1.70073,-1.65652 3.53399,-2.91551 5.49979,-3.77697 1.96578,-0.86137 4.1414,-1.34729 6.52687,-1.45777 z m 2.71676,0 0,-3.57817 c 2.38543,0.11048 4.56657,0.5964 6.54343,1.45777 1.9768,0.86146 3.81558,2.12045 5.51636,3.77697 4.50581,4.39545 6.75873,10.50264 6.75878,18.32159 -5e-5,7.66439 -2.15358,13.63906 -6.4606,17.92403 -3.31316,3.31313 -7.43248,5.15743 -12.35797,5.53292 l 0,-3.64444 c 0.57425,-0.13252 1.02152,-0.3037 1.34182,-0.51354 0.32024,-0.20982 0.6129,-0.51353 0.87798,-0.91111 0.59633,-0.90558 0.89451,-2.275 0.89454,-4.10827 l 0,-29.61937 c -3e-5,-1.1706 -0.19881,-2.09827 -0.59636,-2.78302 -0.26508,-0.4638 -0.57982,-0.82825 -0.94424,-1.09334 -0.36447,-0.26501 -0.88905,-0.51901 -1.57374,-0.76202 z"
         style="font-size:67.8528595px;stroke:#737373;font-family:Stencil;-inkscape-font-specification:Stencil"
         id="path8316" />
      <path
         d="m 550.23697,171.01765 0,3.81009 c -1.36944,0.37553 -2.41308,0.95533 -3.13091,1.73939 -0.71785,0.78415 -1.07678,1.75048 -1.07676,2.89899 -2e-5,1.10441 0.29817,2.07074 0.89454,2.89899 0.59635,0.82831 1.5682,1.61794 2.91556,2.36888 0.92765,0.50805 3.02596,1.4799 6.29494,2.91556 1.98785,0.86144 3.52845,1.64002 4.62181,2.33575 1.0933,0.69579 2.12589,1.56272 3.09778,2.60081 2.60629,2.73887 3.90945,5.99678 3.90949,9.77373 -4e-5,2.8493 -0.70684,5.45562 -2.1204,7.81898 -1.41364,2.36337 -3.35734,4.21872 -5.83111,5.56605 -1.32528,0.7068 -2.77753,1.26451 -4.35676,1.67313 -1.57928,0.40862 -3.05362,0.61293 -4.42303,0.61293 l 0,-3.77697 c 1.92159,-0.46383 3.30759,-1.10989 4.15798,-1.93818 0.85034,-0.82827 1.27553,-1.94921 1.27555,-3.36282 -2e-5,-1.47985 -0.66265,-2.78302 -1.98788,-3.90949 -0.88352,-0.72888 -2.56217,-1.63446 -5.03595,-2.71677 -2.71678,-1.19271 -4.57765,-2.04307 -5.58262,-2.5511 -1.00499,-0.508 -1.97132,-1.10436 -2.89899,-1.78909 -4.15246,-2.95971 -6.22868,-6.90233 -6.22868,-11.82787 0,-2.51794 0.51906,-4.84265 1.55717,-6.97413 1.03811,-2.13141 2.48484,-3.84871 4.3402,-5.15192 2.58423,-1.81113 5.78692,-2.81611 9.60807,-3.01494 z m 2.61737,3.81009 0,-3.64444 c 1.32523,0.0884 2.47378,0.25958 3.44565,0.51354 0.97183,0.25405 2.3523,0.75654 4.14141,1.50747 0.44173,0.17674 0.80617,0.26509 1.09334,0.26505 0.41963,4e-5 0.72885,-0.14352 0.92767,-0.43071 l 0.72889,-0.9608 c 0.35337,-0.48588 0.78408,-0.72885 1.29212,-0.72889 0.59633,4e-5 1.03256,0.2154 1.30869,0.64606 0.27606,0.43075 0.4141,1.10994 0.41414,2.03757 l 0,10.93332 c -4e-5,0.64057 -0.18226,1.16515 -0.54667,1.57374 -0.36448,0.40865 -0.83384,0.61296 -1.40808,0.61293 -0.44178,3e-5 -0.8504,-0.14354 -1.22586,-0.43071 -0.19881,-0.17667 -0.35895,-0.39202 -0.4804,-0.64606 -0.12151,-0.25397 -0.23747,-0.67916 -0.34788,-1.27555 -0.24299,-1.08226 -0.66265,-2.19768 -1.25899,-3.34626 -0.59639,-1.14852 -1.29214,-2.17558 -2.08727,-3.08121 -1.59032,-1.78905 -3.58924,-2.97073 -5.99676,-3.54505 z m -4.3402,39.42622 0,3.77697 c -1.81119,0 -3.81011,-0.51906 -5.99676,-1.55717 -0.81725,-0.37549 -1.38048,-0.61845 -1.68969,-0.72889 -0.30924,-0.11043 -0.60742,-0.16565 -0.89455,-0.16565 -0.44175,0 -0.77307,0.0718 -0.99394,0.21535 -0.22088,0.14357 -0.57428,0.50249 -1.0602,1.07677 -0.39758,0.48592 -0.82828,0.72888 -1.29212,0.72888 -1.2369,0 -1.85535,-0.94976 -1.85535,-2.84929 l 0,-12.05978 c 0,-0.61844 0.1767,-1.14302 0.5301,-1.57374 0.3534,-0.43069 0.79515,-0.65708 1.32525,-0.67919 0.48592,-0.0221 0.86693,0.11598 1.14303,0.41414 0.27609,0.2982 0.51353,0.82278 0.71233,1.57374 0.508,1.89954 1.24241,3.67758 2.20323,5.33413 0.96079,1.65658 2.08173,3.05913 3.36282,4.20768 1.30315,1.19273 2.8051,1.95475 4.50585,2.28605 z"
         style="font-size:67.8528595px;stroke:#737373;font-family:Stencil;-inkscape-font-specification:Stencil"
         id="path8318" />
      <path
         d="m 597.74721,171.91219 0,38.92925 c -2e-5,0.86142 0.16563,1.47987 0.49697,1.85535 0.17668,0.22088 0.34233,0.35893 0.49697,0.41415 0.15459,0.0552 0.6626,0.19327 1.52404,0.41414 1.06017,0.24296 1.59027,0.85037 1.5903,1.82222 -3e-5,0.57427 -0.28717,1.03811 -0.86141,1.39151 -0.41969,0.26505 -1.12649,0.39758 -2.1204,0.39758 l -1.09333,0 -14.77655,0 -1.09334,0 c -0.97186,0 -1.70627,-0.14909 -2.20323,-0.44728 -0.49697,-0.29818 -0.74546,-0.74545 -0.74545,-1.34181 -10e-6,-0.97185 0.53009,-1.57926 1.5903,-1.82222 0.8614,-0.22087 1.36942,-0.35892 1.52404,-0.41414 0.1546,-0.0552 0.30921,-0.19327 0.46384,-0.41415 0.3313,-0.37548 0.49695,-0.99393 0.49697,-1.85535 l 0,-38.92925 z m 11.46343,0 0,13.55069 c -4e-5,0.64057 -0.18226,1.15963 -0.54667,1.55717 -0.36448,0.39761 -0.83384,0.5964 -1.40808,0.59637 -0.55222,3e-5 -1.01054,-0.1822 -1.37495,-0.54667 -0.36448,-0.36441 -0.60192,-0.8669 -0.71232,-1.50747 l -0.33131,-2.02101 c -0.33135,-2.0541 -0.97189,-3.83215 -1.92162,-5.33414 -0.59639,-0.92763 -1.40258,-1.68965 -2.41858,-2.28606 l 0,-4.00888 z m -37.57087,0 8.71352,0 0,4.00888 c -1.03812,0.59641 -1.84431,1.35843 -2.41858,2.28606 -0.94977,1.50199 -1.59031,3.28004 -1.92161,5.33414 l -0.33132,2.02101 c -0.11044,0.64057 -0.34788,1.14306 -0.71232,1.50747 -0.36445,0.36447 -0.82276,0.5467 -1.37495,0.54667 -0.57428,3e-5 -1.04364,-0.19876 -1.40808,-0.59637 -0.36444,-0.39754 -0.54666,-0.9166 -0.54666,-1.55717 z"
         style="font-size:67.8528595px;stroke:#737373;font-family:Stencil;-inkscape-font-specification:Stencil"
         id="path8320" />
    </g>
  </g>
</svg>
