<?xml version="1.0" encoding="UTF-8" standalone="no"?>
<!-- Created with Inkscape (http://www.inkscape.org/) -->

<svg
   xmlns:dc="http://purl.org/dc/elements/1.1/"
   xmlns:cc="http://creativecommons.org/ns#"
   xmlns:rdf="http://www.w3.org/1999/02/22-rdf-syntax-ns#"
   xmlns:svg="http://www.w3.org/2000/svg"
   xmlns="http://www.w3.org/2000/svg"
   xmlns:sodipodi="http://sodipodi.sourceforge.net/DTD/sodipodi-0.dtd"
   xmlns:inkscape="http://www.inkscape.org/namespaces/inkscape"
   width="825.92993"
   height="543.11237"
   id="svg2"
   version="1.1"
   inkscape:version="0.48.4 r9939"
   sodipodi:docname="nov5.svg">
  <sodipodi:namedview
     id="base"
     pagecolor="#ffffff"
     bordercolor="#666666"
     borderopacity="1.0"
     inkscape:pageopacity="0.0"
     inkscape:pageshadow="2"
     inkscape:zoom="0.7748038"
     inkscape:cx="408.17307"
     inkscape:cy="69.148934"
     inkscape:document-units="px"
     inkscape:current-layer="layer1"
     showgrid="false"
     fit-margin-top="0"
     fit-margin-left="0"
     fit-margin-right="0"
     fit-margin-bottom="0"
     inkscape:window-width="1920"
     inkscape:window-height="1138"
     inkscape:window-x="-8"
     inkscape:window-y="-8"
     inkscape:window-maximized="1" />
  <defs
     id="defs4" />
  <metadata
     id="metadata7">
    <rdf:RDF>
      <cc:Work
         rdf:about="">
        <dc:format>image/svg+xml</dc:format>
        <dc:type
           rdf:resource="http://purl.org/dc/dcmitype/StillImage" />
        <dc:title />
      </cc:Work>
    </rdf:RDF>
  </metadata>
  <g
     transform="translate(239.51137,206.40843)"
     id="layer1"
     inkscape:groupmode="layer"
     inkscape:label="Layer 1">
    <path
       inkscape:connector-curvature="0"
       d="m 281.24097,21.651239 c 0,-3.48311 0.79615,-4.179732 2.88601,-4.179732 2.18938,0 3.28407,0.597105 3.28407,4.279249 l 0,28.262951 c 1.09469,0 2.48794,1.492762 2.78648,2.68697 0.69663,-0.497586 1.89084,-0.597104 2.68698,-0.597104 0.39807,0 0.89566,0 1.39324,0.09952 0.4976,0.09952 0.99518,0.298552 1.19421,0.497586 0.39807,-0.79614 2.08987,-1.791314 2.98552,-1.791314 l -0.99516,-8.259946 -0.79615,0 0,2.886005 c 0,0.597105 -0.19903,0.79614 -0.49758,0.79614 -0.39808,0 -0.59711,-0.497587 -0.59711,-1.393244 l 0,-22.192388 c 0,-4.776836 -2.58746,-6.866702 -4.87635,-8.160429 2.98552,-1.592278 4.87635,-3.582627 4.87635,-9.2551212 l 0,-18.6097618 c 0,-7.4638 -6.17008,-10.349813 -10.44933,-10.349813 -2.2889,0 -3.58263,0.39807 -4.67732,0.597105 -1.1942,0.199035 -2.38841,0.398069 -3.78166,0.398069 -0.59711,0 -1.39324,-0.09952 -1.99035,-0.298552 -0.5971,-0.199034 -1.09469,-0.497586 -1.29373,-0.696622 -0.39807,0.895658 -2.08986,1.59228 -3.28407,1.393244 l 0.99518,9.155604 0.79613,0 0,-2.786487 c 0,-1.393242 0.19903,-1.59228 0.59711,-1.59228 0.29855,0 0.49758,0.09952 0.49758,1.492762 l 0,16.71893068 c 0,6.36911522 -0.0995,9.95174332 -2.08986,11.54402232 0.99517,0.696622 1.39325,1.393244 1.39325,2.089866 0,0.298552 -0.0995,0.597104 -0.29857,0.895656 -0.19903,0.298552 -0.49758,0.597105 -0.89564,0.895657 1.19421,1.592279 1.89082,4.577802 1.89082,9.454156 l 0,18.60976 c 0,1.492761 -0.19903,1.691796 -0.5971,1.691796 -0.59711,0 -0.69663,-0.696622 -0.69663,-1.393244 l 0,-2.686971 -0.79613,0 -1.19421,8.956569 c 0.89565,0 2.88601,1.194209 3.28407,1.890831 0.69663,-0.597104 2.58746,-0.995174 3.88118,-0.995174 0.69662,0 1.49277,0.09952 2.2889,0.298552 0.79614,0.199036 1.49277,0.497588 1.89084,0.696622 0.5971,-0.79614 2.28889,-1.691796 3.4831,-1.691796 l -0.99516,-8.458982 -0.79615,0 0,2.686971 c 0,0.895657 -0.0995,0.995174 -0.39807,0.995174 -0.79614,0 -1.09469,-1.194209 -1.09469,-5.473458 l 0,-19.107348 m 0,-36.224346 c 0,-2.487934 1.09469,-3.781663 2.88601,-3.781663 1.59227,0 3.28407,0.796143 3.28407,3.88118 l 0,22.0928726 c 0,3.9806964 -0.99517,4.7768364 -3.18456,4.7768364 -2.08986,0 -2.98552,-0.79614 -2.98552,-3.5826278 l 0,-23.3865982"
       style="font-size:40px;font-style:normal;font-variant:normal;font-weight:500;font-stretch:normal;text-align:center;line-height:125%;letter-spacing:0px;word-spacing:0px;text-anchor:middle;fill:#96d14a;fill-opacity:1;stroke:none;font-family:Mesquite Std;-inkscape-font-specification:Mesquite Std Medium"
       id="path3002" />
    <path
       inkscape:connector-curvature="0"
       d="m 310.49599,24.338209 c 0,-5.572975 0,-6.866702 1.59227,-6.866702 0.5971,0 1.39325,0.597105 1.39325,1.492761 0,0.79614 -0.0995,1.293726 -0.39807,1.890832 -0.29856,0.696622 -0.59711,1.592278 -0.59711,2.587453 0,1.791314 1.29373,2.786488 2.48794,2.587454 -0.39807,-0.497588 -0.5971,-1.094692 -0.5971,-1.691798 0,-0.696621 0.5971,-1.293726 1.89083,-2.487935 0.69661,-0.79614 1.19421,-1.59228 1.19421,-2.786488 0,-1.393244 -0.69663,-2.388418 -1.6918,-3.184558 l 2.2889,-1.691797 -2.18938,-1.89083 c 1.09468,-0.696622 1.59228,-1.691797 1.59228,-2.7864885 0,-0.9951743 -0.69663,-2.1893828 -1.19421,-2.6869705 -0.99518,-0.9951743 -1.39325,-1.5922786 -1.39325,-2.189384 0,-0.5971043 0.0995,-1.0946908 0.39807,-1.5922786 -0.89565,-0.099517 -2.58746,1.094692 -2.58746,2.6869706 0,0.7961398 0.19905,1.5922797 0.39808,2.1893839 0.19903,0.4975866 0.39807,0.7961387 0.39807,1.5922786 0,0.5971045 -0.49759,1.4927615 -1.19421,1.4927615 -1.0947,0 -1.79131,-0.39807 -1.79131,-4.7768363 l 0,-19.8039717 c 0,-3.980692 0.99517,-5.075389 2.68697,-5.075389 1.89083,0 2.68697,1.492764 2.68697,4.975872 l 0,6.0705626 c 0,3.2840737 -0.29856,4.5778024 -0.99518,5.4734588 2.78649,1.1942098 3.48311,2.68697291 3.48311,8.1604317 l 0.79614,0 c 0,-5.67249316 0.49758,-6.9662219 3.28407,-8.1604317 -0.5971,-1.094692 -0.69661,-2.7864906 -0.69661,-5.373941 l 0,-9.5536734 c 0,-2.886003 0.29855,-4.279249 0.89565,-4.776837 -0.99517,-0.09952 -2.2889,-0.995174 -2.58745,-1.791314 -0.69663,0.497588 -1.6918,0.995174 -2.38842,0.995174 -1.19421,0 -1.99034,-0.398068 -2.78649,-0.597104 -0.79614,-0.199034 -1.59228,-0.39807 -2.78649,-0.39807 -0.69661,0 -1.39324,0.09952 -2.2889,0.39807 -0.89565,0.298552 -1.99035,0.597104 -3.58262,0.597104 -0.79615,0 -1.6918,-0.09952 -2.38842,-0.298552 -0.69662,-0.199034 -1.19422,-0.398068 -1.59228,-0.696622 -0.69662,0.995174 -1.79131,1.691796 -3.08504,1.791314 l 0.89565,8.558499 0.79614,0 0,-3.284074 c 0.0995,-0.79614 0.29855,-1.094692 0.79615,-1.094692 0.39806,0 0.49758,0.298552 0.49758,1.094692 l 0,20.6001097 c 0,4.5778023 -0.89566,7.0657373 -1.79131,7.9613953 0.69662,0.597104 1.19421,1.393244 1.19421,1.990348 0,0.696622 -0.49759,1.592279 -1.19421,1.990348 0.69662,0.995175 1.79131,3.383593 1.79131,9.852226 l 0,19.107347 c 0,1.094692 -0.19903,1.492761 -0.69663,1.492761 -0.49758,0 -0.5971,-0.398069 -0.5971,-1.592279 l 0,-3.184557 -0.89566,0 -0.89565,8.956568 c 0.99517,0.199036 2.58746,1.19421 2.98552,2.089866 0.69662,-0.696622 1.59228,-0.995174 2.48794,-0.995174 1.1942,0 2.38841,0.199034 3.38359,0.39807 0.99518,0.199034 1.99035,0.597104 3.18456,0.597104 1.49276,0 2.2889,-0.298552 3.08503,-0.497586 0.69663,-0.199036 1.49278,-0.497588 2.78649,-0.497588 0.59711,0 1.0947,0.09952 1.59229,0.199034 0.49758,0.09952 0.89565,0.298554 1.39325,0.497588 0.29855,-0.597104 1.89082,-1.492762 2.68696,-1.691796 -0.69662,-0.79614 -0.89565,-1.393244 -0.89565,-6.269598 l 0,-8.857052 c 0,-2.487935 0.39806,-4.378767 1.09469,-5.274423 -2.78649,-1.293727 -3.48312,-1.791314 -3.48312,-8.359464 l -0.69661,0 c 0,6.17008 -0.79615,7.065737 -3.48312,8.160429 0.59711,1.194209 0.69663,3.184558 0.69663,5.473458 l 0,7.165255 c 0,4.378767 -0.59711,5.075389 -2.48794,5.075389 -2.08987,0 -2.886,-0.696622 -2.886,-3.08504 l 0,-20.401074"
       style="font-size:40px;font-style:normal;font-variant:normal;font-weight:500;font-stretch:normal;text-align:center;line-height:125%;letter-spacing:0px;word-spacing:0px;text-anchor:middle;fill:#c2ccc2;fill-opacity:1;stroke:none;font-family:Mesquite Std;-inkscape-font-specification:Mesquite Std Medium"
       id="path3004" />
    <path
       inkscape:connector-curvature="0"
       d="m 349.81005,44.739283 c 0,1.492761 -0.29855,2.089866 -0.79614,2.089866 -0.39807,0 -0.69662,-0.298552 -0.69662,-1.293727 l 0,-3.08504 -0.69663,0 -0.89565,8.259947 c 1.09469,0 2.98552,1.094692 3.28407,1.990348 0.89565,-0.696622 2.68698,-0.995174 4.27925,-0.995174 0.89566,0 1.6918,0.09952 2.48794,0.199034 0.69662,0.199036 1.39325,0.39807 1.79131,0.79614 0.19903,-1.194208 1.6918,-1.89083 2.78649,-1.89083 l -1.09469,-8.458982 -0.69662,0 0,3.582627 c 0,0.497587 -0.29856,0.79614 -0.79615,0.79614 -0.49758,0 -0.69661,-0.199035 -0.69661,-0.895657 l 0,-20.699626 c 0,-6.767185 1.09468,-8.558499 1.89083,-9.056086 -0.79615,-0.497587 -1.19422,-1.393244 -1.19422,-1.990348 0,-0.696622 0.29855,-1.59228 0.89567,-1.99035 C 359.06516,11.699496 358.07,10.0077 358.07,4.5342414 l 0,-20.2020414 c 0,-1.094692 0.19903,-1.791314 0.5971,-1.791314 0.49758,0 0.5971,0.39807 0.5971,1.293726 l 0,2.786489 0.69663,0 0.79614,-8.5585 c -1.09469,0 -2.58745,-0.895656 -2.88602,-1.691796 -0.79613,0.597106 -2.98552,0.995174 -4.27925,0.995174 -0.49758,0 -1.39324,-0.09952 -2.18937,-0.298552 -0.79615,-0.199034 -1.49276,-0.497586 -1.89083,-0.696622 -0.49759,0.597106 -2.38842,1.393244 -3.68215,1.393244 l -3.08504,29.1586107 -0.59711,0 -2.98552,-29.1586107 c -1.39324,0 -3.18455,-0.696622 -3.68214,-1.393244 -0.69663,0.39807 -2.58745,0.995174 -4.17973,0.995174 -0.69663,0 -1.59229,-0.09952 -2.2889,-0.298552 -0.79615,-0.199034 -1.39325,-0.497586 -1.79132,-0.696622 -0.39807,0.597106 -2.18938,1.691796 -3.3836,1.691796 l 0.69663,8.359465 0.89565,0 0,-2.68697 c 0,-0.995174 0.29856,-1.492762 0.79615,-1.492762 0.39806,0 0.5971,0.298554 0.5971,2.2889 l 0,20.102524 c 0,5.473459 -0.99517,6.866703 -1.6918,7.463807 0.89566,0.597106 1.0947,1.094692 1.0947,1.99035 0,0.895656 -0.29855,1.393244 -0.99518,1.990348 0.69663,0.696622 1.59228,1.990349 1.59228,7.76236 l 0,21.694799 c 0,1.094692 -0.0995,1.19421 -0.5971,1.19421 -0.39807,0 -0.5971,-0.199035 -0.5971,-0.995175 l 0,-3.582627 -0.79615,0 -0.89566,8.757533 c 0.99518,0 2.78649,0.995174 3.28408,1.791314 0.49759,-0.497586 1.6918,-0.995174 2.78649,-0.995174 0.69662,0 1.29373,0.09952 1.89083,0.298552 0.5971,0.09952 0.99518,0.39807 1.19421,0.696622 0.39807,-1.094692 1.79131,-1.89083 2.88601,-1.89083 l -1.39325,-8.359465 -0.79614,0 0,3.284075 c 0,0.995175 -0.19904,1.094692 -0.69662,1.094692 -0.49759,0 -0.79614,-0.199035 -0.79614,-1.293727 l 0,-19.306381 c 0,-4.478285 0.69662,-9.056086 1.49276,-10.150778 -0.69662,-0.597104 -0.89565,-1.094692 -0.89565,-1.990348 0,-0.79614 0.29855,-1.492762 0.79613,-1.99035 -0.39807,-0.497586 -1.39324,-2.3884182 -1.39324,-7.1652537 l 0,-10.5488512 0.59711,0 1.19421,12.1411297 c 0.39807,3.8811792 0.39807,4.8763542 0.0995,5.4734592 0.5971,0.597104 1.09469,1.293726 1.09469,2.089866 0,0.796138 -0.29855,1.492761 -0.89565,1.990348 0.39806,0.597105 0.79613,1.691797 1.49276,7.861877 l 2.98552,26.869707 c 0.5971,0 1.79131,0.895656 2.2889,1.89083 0.39807,-0.995174 1.39325,-1.89083 2.08986,-1.89083 l 3.08504,-27.864881 c 0.4976,-4.080214 0.89566,-6.170081 1.49276,-6.866703 -0.69661,-0.298552 -1.09468,-1.393244 -1.09468,-2.189384 0,-0.696622 0.49758,-1.49276 1.1942,-1.89083 -0.19903,-0.597105 -0.29855,-3.1845586 0,-5.572977 l 1.39324,-12.0416119 0.4976,0 0,10.3498156 c 0,4.1797325 -0.89566,6.7671853 -1.39325,7.3642893 0.79614,0.497588 0.89565,1.393244 0.89565,1.99035 0,0.895656 -0.49758,1.592278 -0.89565,1.990348 0.5971,0.597105 1.49277,2.886005 1.39325,8.558499 l 0,20.102521"
       style="font-size:40px;font-style:normal;font-variant:normal;font-weight:500;font-stretch:normal;text-align:center;line-height:125%;letter-spacing:0px;word-spacing:0px;text-anchor:middle;fill:#103ece;fill-opacity:1;stroke:none;font-family:Mesquite Std;-inkscape-font-specification:Mesquite Std Medium"
       id="path3006" />
    <path
       inkscape:connector-curvature="0"
       d="m 373.66625,24.338209 c 0,-5.572975 0,-6.866702 1.59227,-6.866702 0.5971,0 1.39325,0.597105 1.39325,1.492761 0,0.79614 -0.0995,1.293726 -0.39808,1.890832 -0.29855,0.696622 -0.5971,1.592278 -0.5971,2.587453 0,1.791314 1.29373,2.786488 2.48794,2.587454 -0.39808,-0.497588 -0.59711,-1.094692 -0.59711,-1.691798 0,-0.696621 0.59711,-1.293726 1.89084,-2.487935 0.69661,-0.79614 1.1942,-1.59228 1.1942,-2.786488 0,-1.393244 -0.69662,-2.388418 -1.6918,-3.184558 l 2.28891,-1.691797 -2.18939,-1.89083 c 1.09469,-0.696622 1.59228,-1.691797 1.59228,-2.7864885 0,-0.9951743 -0.69662,-2.1893828 -1.1942,-2.6869705 -0.99518,-0.9951743 -1.39325,-1.5922786 -1.39325,-2.189384 0,-0.5971043 0.0995,-1.0946908 0.39807,-1.5922786 -0.89566,-0.099517 -2.58746,1.094692 -2.58746,2.6869706 0,0.7961398 0.19904,1.5922797 0.39807,2.1893839 0.19905,0.4975866 0.39808,0.7961387 0.39808,1.5922786 0,0.5971045 -0.4976,1.4927615 -1.19421,1.4927615 -1.0947,0 -1.79131,-0.39807 -1.79131,-4.7768363 l 0,-19.8039717 c 0,-3.980692 0.99516,-5.075389 2.68696,-5.075389 1.89084,0 2.68697,1.492764 2.68697,4.975872 l 0,6.0705626 c 0,3.2840737 -0.29855,4.5778024 -0.99517,5.4734588 2.78649,1.1942098 3.48311,2.68697291 3.48311,8.1604317 l 0.79614,0 c 0,-5.67249316 0.49758,-6.9662219 3.28407,-8.1604317 -0.5971,-1.094692 -0.69661,-2.7864906 -0.69661,-5.373941 l 0,-9.5536734 c 0,-2.886003 0.29855,-4.279249 0.89565,-4.776837 -0.99518,-0.09952 -2.2889,-0.995174 -2.58746,-1.791314 -0.69662,0.497588 -1.69179,0.995174 -2.38841,0.995174 -1.19421,0 -1.99035,-0.398068 -2.78649,-0.597104 -0.79614,-0.199034 -1.59227,-0.39807 -2.78649,-0.39807 -0.69662,0 -1.39324,0.09952 -2.2889,0.39807 -0.89566,0.298552 -1.99034,0.597104 -3.58263,0.597104 -0.79614,0 -1.6918,-0.09952 -2.38841,-0.298552 -0.69663,-0.199034 -1.19421,-0.398068 -1.59228,-0.696622 -0.69663,0.995174 -1.79132,1.691796 -3.08505,1.791314 l 0.89566,8.558499 0.79614,0 0,-3.284074 c 0.0995,-0.79614 0.29855,-1.094692 0.79614,-1.094692 0.39808,0 0.49759,0.298552 0.49759,1.094692 l 0,20.6001097 c 0,4.5778023 -0.89566,7.0657373 -1.79132,7.9613953 0.69663,0.597104 1.19421,1.393244 1.19421,1.990348 0,0.696622 -0.49758,1.592279 -1.19421,1.990348 0.69663,0.995175 1.79132,3.383593 1.79132,9.852226 l 0,19.107347 c 0,1.094692 -0.19904,1.492761 -0.69663,1.492761 -0.49758,0 -0.5971,-0.398069 -0.5971,-1.592279 l 0,-3.184557 -0.89566,0 -0.89566,8.956568 c 0.99518,0.199036 2.58746,1.19421 2.98554,2.089866 0.69661,-0.696622 1.59227,-0.995174 2.48792,-0.995174 1.19421,0 2.38842,0.199034 3.3836,0.39807 0.99517,0.199034 1.99035,0.597104 3.18456,0.597104 1.49276,0 2.2889,-0.298552 3.08503,-0.497586 0.69663,-0.199036 1.49277,-0.497588 2.78649,-0.497588 0.59711,0 1.0947,0.09952 1.59228,0.199034 0.4976,0.09952 0.89566,0.298554 1.39324,0.497588 0.29855,-0.597104 1.89084,-1.492762 2.68698,-1.691796 -0.69662,-0.79614 -0.89565,-1.393244 -0.89565,-6.269598 l 0,-8.857052 c 0,-2.487935 0.39806,-4.378767 1.09468,-5.274423 -2.78649,-1.293727 -3.48311,-1.791314 -3.48311,-8.359464 l -0.69662,0 c 0,6.17008 -0.79614,7.065737 -3.48311,8.160429 0.5971,1.194209 0.69662,3.184558 0.69662,5.473458 l 0,7.165255 c 0,4.378767 -0.5971,5.075389 -2.48793,5.075389 -2.08987,0 -2.886,-0.696622 -2.886,-3.08504 l 0,-20.401074"
       style="font-size:40px;font-style:normal;font-variant:normal;font-weight:500;font-stretch:normal;text-align:center;line-height:125%;letter-spacing:0px;word-spacing:0px;text-anchor:middle;fill:#0b6170;fill-opacity:1;stroke:none;font-family:Mesquite Std;-inkscape-font-specification:Mesquite Std Medium"
       id="path3008" />
    <path
       inkscape:connector-curvature="0"
       d="m 412.98028,44.739283 c 0,1.492761 -0.29855,2.089866 -0.79614,2.089866 -0.39808,0 -0.69663,-0.298552 -0.69663,-1.293727 l 0,-3.08504 -0.69661,0 -0.89566,8.259947 c 1.09469,0 2.98552,1.094692 3.28407,1.990348 0.89566,-0.696622 2.68697,-0.995174 4.27925,-0.995174 0.89566,0 1.6918,0.09952 2.48794,0.199034 0.69662,0.199036 1.39324,0.39807 1.79132,0.79614 0.19903,-1.194208 1.69179,-1.89083 2.78647,-1.89083 l -1.09468,-8.458982 -0.69663,0 0,3.582627 c 0,0.497587 -0.29855,0.79614 -0.79613,0.79614 -0.49759,0 -0.69663,-0.199035 -0.69663,-0.895657 l 0,-20.699626 c 0,-6.767185 1.0947,-8.558499 1.89083,-9.056086 -0.79613,-0.497587 -1.1942,-1.393244 -1.1942,-1.990348 0,-0.696622 0.29855,-1.59228 0.89565,-1.99035 -0.5971,-0.398069 -1.59228,-2.089865 -1.59228,-7.5633236 l 0,-20.2020414 c 0,-1.094692 0.19904,-1.791314 0.59712,-1.791314 0.49758,0 0.59709,0.39807 0.59709,1.293726 l 0,2.786489 0.69662,0 0.79615,-8.5585 c -1.0947,0 -2.58746,-0.895656 -2.88601,-1.691796 -0.79614,0.597106 -2.98552,0.995174 -4.27925,0.995174 -0.49758,0 -1.39324,-0.09952 -2.18939,-0.298552 -0.79613,-0.199034 -1.49276,-0.497586 -1.89082,-0.696622 -0.49759,0.597106 -2.38843,1.393244 -3.68215,1.393244 l -3.08504,29.1586107 -0.5971,0 -2.98552,-29.1586107 c -1.39325,0 -3.18457,-0.696622 -3.68215,-1.393244 -0.69662,0.39807 -2.58746,0.995174 -4.17973,0.995174 -0.69662,0 -1.59228,-0.09952 -2.28891,-0.298552 -0.79613,-0.199034 -1.39323,-0.497586 -1.79131,-0.696622 -0.39807,0.597106 -2.18938,1.691796 -3.38359,1.691796 l 0.69662,8.359465 0.89566,0 0,-2.68697 c 0,-0.995174 0.29855,-1.492762 0.79614,-1.492762 0.39807,0 0.5971,0.298554 0.5971,2.2889 l 0,20.102524 c 0,5.473459 -0.99517,6.866703 -1.69179,7.463807 0.89565,0.597106 1.09469,1.094692 1.09469,1.99035 0,0.895656 -0.29856,1.393244 -0.99517,1.990348 0.69661,0.696622 1.59227,1.990349 1.59227,7.76236 l 0,21.694799 c 0,1.094692 -0.0995,1.19421 -0.5971,1.19421 -0.39807,0 -0.59711,-0.199035 -0.59711,-0.995175 l 0,-3.582627 -0.79613,0 -0.89566,8.757533 c 0.99518,0 2.78649,0.995174 3.28407,1.791314 0.49759,-0.497586 1.69179,-0.995174 2.78649,-0.995174 0.69663,0 1.29373,0.09952 1.89084,0.298552 0.5971,0.09952 0.99516,0.39807 1.1942,0.696622 0.39807,-1.094692 1.79132,-1.89083 2.886,-1.89083 l -1.39324,-8.359465 -0.79614,0 0,3.284075 c 0,0.995175 -0.19903,1.094692 -0.69662,1.094692 -0.49759,0 -0.79614,-0.199035 -0.79614,-1.293727 l 0,-19.306381 c 0,-4.478285 0.69662,-9.056086 1.49276,-10.150778 -0.69662,-0.597104 -0.89566,-1.094692 -0.89566,-1.990348 0,-0.79614 0.29855,-1.492762 0.79615,-1.99035 -0.39807,-0.497586 -1.39325,-2.3884182 -1.39325,-7.1652537 l 0,-10.5488512 0.5971,0 1.19421,12.1411297 c 0.39807,3.8811792 0.39807,4.8763542 0.0995,5.4734592 0.59711,0.597104 1.09469,1.293726 1.09469,2.089866 0,0.796138 -0.29855,1.492761 -0.89566,1.990348 0.39808,0.597105 0.79615,1.691797 1.49276,7.861877 l 2.98554,26.869707 c 0.5971,0 1.79131,0.895656 2.28889,1.89083 0.39807,-0.995174 1.39324,-1.89083 2.08987,-1.89083 l 3.08504,-27.864881 c 0.49758,-4.080214 0.89565,-6.170081 1.49276,-6.866703 -0.69663,-0.298552 -1.09469,-1.393244 -1.09469,-2.189384 0,-0.696622 0.49758,-1.49276 1.19421,-1.89083 -0.19904,-0.597105 -0.29855,-3.1845586 0,-5.572977 l 1.39324,-12.0416119 0.49758,0 0,10.3498156 c 0,4.1797325 -0.89565,6.7671853 -1.39324,7.3642893 0.79614,0.497588 0.89566,1.393244 0.89566,1.99035 0,0.895656 -0.49758,1.592278 -0.89566,1.990348 0.59711,0.597105 1.49276,2.886005 1.39324,8.558499 l 0,20.102521"
       style="font-size:40px;font-style:normal;font-variant:normal;font-weight:500;font-stretch:normal;text-align:center;line-height:125%;letter-spacing:0px;word-spacing:0px;text-anchor:middle;fill:#240523;fill-opacity:1;stroke:none;font-family:Mesquite Std;-inkscape-font-specification:Mesquite Std Medium"
       id="path3010" />
    <path
       inkscape:connector-curvature="0"
       d="m 426.48666,-13.378899 0.79614,0 0,-3.085041 c 0,-0.895656 0.19903,-1.293726 0.59711,-1.293726 0.39806,0 0.5971,0.39807 0.5971,1.393244 l 0,19.7044536 c 0,6.5681508 -0.29855,8.1604294 -1.79131,9.0560874 0.89566,0.696622 1.19421,1.393244 1.19421,2.089865 0,0.696622 -0.29855,1.293727 -1.19421,1.890831 0.99517,1.194209 1.79131,3.085041 1.79131,8.359464 l 0,19.803969 c 0,1.094692 -0.0995,1.791314 -0.69662,1.791314 -0.49759,0 -0.79614,-0.39807 -0.79614,-1.691796 l 0,-2.786488 -0.79614,0 -0.79614,8.857051 c 1.09469,-0.09952 3.08504,0.79614 3.38359,1.791314 0.39808,-0.497588 1.19421,-0.79614 2.58745,-0.79614 1.99036,0 3.08504,0.298552 4.37877,0.597104 1.29373,0.298553 2.78649,0.39807 5.17491,0.39807 3.4831,0 9.55367,-1.691796 9.55367,-10.150778 l 0,-20.301555 c 0,-3.88118 -2.58745,-6.369116 -4.67732,-7.563325 2.88601,-1.094692 4.67732,-4.577802 4.67732,-6.7671851 l 0,-20.0030069 c 0,-5.672488 -3.18455,-11.544022 -10.94692,-11.544022 -1.59227,0 -2.68697,0.298554 -3.78166,0.497588 -1.19421,0.199034 -2.2889,0.497586 -4.08022,0.497586 -1.39324,0 -2.38841,-0.398068 -2.98552,-1.293726 -0.39807,1.19421 -1.99034,1.890832 -3.18455,1.890832 l 0.99517,8.658016 m 10.05126,34.433033 c 0,-1.592278 0.29855,-3.48311 2.88601,-3.48311 2.38842,0 2.886,1.791314 2.886,3.48311 l 0,23.486114 c 0,2.089866 -0.5971,3.582628 -2.886,3.582628 -2.28891,0 -2.88601,-1.492762 -2.88601,-3.582628 l 0,-23.486114 m 0,-35.826277 c 0,-2.189381 0.39807,-3.682145 2.88601,-3.682145 2.18937,0 2.886,1.592282 2.886,3.682145 l 0,23.9837033 c 0,2.6869707 -1.49276,3.3835927 -2.886,3.3835927 -1.79131,0 -2.88601,-0.995174 -2.88601,-3.3835927 l 0,-23.9837033"
       style="font-size:40px;font-style:normal;font-variant:normal;font-weight:500;font-stretch:normal;text-align:center;line-height:125%;letter-spacing:0px;word-spacing:0px;text-anchor:middle;fill:#0d140e;fill-opacity:1;stroke:none;font-family:Mesquite Std;-inkscape-font-specification:Mesquite Std Medium"
       id="path3012" />
    <path
       inkscape:connector-curvature="0"
       d="m 464.24265,24.338209 c 0,-5.572975 0,-6.866702 1.59229,-6.866702 0.5971,0 1.39324,0.597105 1.39324,1.492761 0,0.79614 -0.0995,1.293726 -0.39808,1.890832 -0.29855,0.696622 -0.5971,1.592278 -0.5971,2.587453 0,1.791314 1.29373,2.786488 2.48794,2.587454 -0.39808,-0.497588 -0.59711,-1.094692 -0.59711,-1.691798 0,-0.696621 0.59711,-1.293726 1.89084,-2.487935 0.69662,-0.79614 1.1942,-1.59228 1.1942,-2.786488 0,-1.393244 -0.69662,-2.388418 -1.6918,-3.184558 l 2.28891,-1.691797 -2.18939,-1.89083 c 1.0947,-0.696622 1.59228,-1.691797 1.59228,-2.7864885 0,-0.9951743 -0.69662,-2.1893828 -1.1942,-2.6869705 -0.99518,-0.9951743 -1.39325,-1.5922786 -1.39325,-2.189384 0,-0.5971043 0.0995,-1.0946908 0.39807,-1.5922786 -0.89566,-0.099517 -2.58745,1.094692 -2.58745,2.6869706 0,0.7961398 0.19903,1.5922797 0.39806,2.1893839 0.19904,0.4975866 0.39808,0.7961387 0.39808,1.5922786 0,0.5971045 -0.49759,1.4927615 -1.19421,1.4927615 -1.09469,0 -1.79132,-0.39807 -1.79132,-4.7768363 l 0,-19.8039717 c 0,-3.980692 0.99518,-5.075389 2.68697,-5.075389 1.89084,0 2.68697,1.492764 2.68697,4.975872 l 0,6.0705626 c 0,3.2840737 -0.29855,4.5778024 -0.99517,5.4734588 2.78649,1.1942098 3.48311,2.68697291 3.48311,8.1604317 l 0.79614,0 c 0,-5.67249316 0.49759,-6.9662219 3.28408,-8.1604317 -0.5971,-1.094692 -0.69663,-2.7864906 -0.69663,-5.373941 l 0,-9.5536734 c 0,-2.886003 0.29856,-4.279249 0.89566,-4.776837 -0.99518,-0.09952 -2.28891,-0.995174 -2.58746,-1.791314 -0.69661,0.497588 -1.69179,0.995174 -2.38841,0.995174 -1.19421,0 -1.99035,-0.398068 -2.78649,-0.597104 -0.79614,-0.199034 -1.59228,-0.39807 -2.78648,-0.39807 -0.69663,0 -1.39325,0.09952 -2.28891,0.39807 -0.89566,0.298552 -1.99034,0.597104 -3.58263,0.597104 -0.79613,0 -1.6918,-0.09952 -2.38841,-0.298552 -0.69663,-0.199034 -1.19421,-0.398068 -1.59228,-0.696622 -0.69663,0.995174 -1.79132,1.691796 -3.08505,1.791314 l 0.89566,8.558499 0.79615,0 0,-3.284074 c 0.0995,-0.79614 0.29855,-1.094692 0.79613,-1.094692 0.39807,0 0.49758,0.298552 0.49758,1.094692 l 0,20.6001097 c 0,4.5778023 -0.89565,7.0657373 -1.79131,7.9613953 0.69663,0.597104 1.19421,1.393244 1.19421,1.990348 0,0.696622 -0.49758,1.592279 -1.19421,1.990348 0.69663,0.995175 1.79131,3.383593 1.79131,9.852226 l 0,19.107347 c 0,1.094692 -0.19903,1.492761 -0.69661,1.492761 -0.49759,0 -0.5971,-0.398069 -0.5971,-1.592279 l 0,-3.184557 -0.89566,0 -0.89567,8.956568 c 0.99518,0.199036 2.58746,1.19421 2.98553,2.089866 0.69662,-0.696622 1.59229,-0.995174 2.48793,-0.995174 1.19422,0 2.38843,0.199034 3.3836,0.39807 0.99517,0.199034 1.99035,0.597104 3.18456,0.597104 1.49276,0 2.28889,-0.298552 3.08504,-0.497586 0.69662,-0.199036 1.49276,-0.497588 2.78649,-0.497588 0.59709,0 1.09469,0.09952 1.59227,0.199034 0.4976,0.09952 0.89566,0.298554 1.39325,0.497588 0.29855,-0.597104 1.89084,-1.492762 2.68697,-1.691796 -0.69662,-0.79614 -0.89566,-1.393244 -0.89566,-6.269598 l 0,-8.857052 c 0,-2.487935 0.39808,-4.378767 1.09469,-5.274423 -2.78649,-1.293727 -3.4831,-1.791314 -3.4831,-8.359464 l -0.69663,0 c 0,6.17008 -0.79613,7.065737 -3.48311,8.160429 0.5971,1.194209 0.69662,3.184558 0.69662,5.473458 l 0,7.165255 c 0,4.378767 -0.5971,5.075389 -2.48794,5.075389 -2.08986,0 -2.886,-0.696622 -2.886,-3.08504 l 0,-20.401074"
       style="font-size:40px;font-style:normal;font-variant:normal;font-weight:500;font-stretch:normal;text-align:center;line-height:125%;letter-spacing:0px;word-spacing:0px;text-anchor:middle;fill:#a8b1a4;fill-opacity:1;stroke:none;font-family:Mesquite Std;-inkscape-font-specification:Mesquite Std Medium"
       id="path3014" />
    <path
       inkscape:connector-curvature="0"
       d="m 488.82811,21.651239 c 0,-3.48311 0.79614,-4.179732 2.88601,-4.179732 2.18938,0 3.28407,0.597105 3.28407,4.279249 l 0,28.262951 c 1.09469,0 2.48794,1.492762 2.78649,2.68697 0.69663,-0.497586 1.89083,-0.597104 2.68697,-0.597104 0.39807,0 0.89566,0 1.39324,0.09952 0.49759,0.09952 0.99518,0.298552 1.19421,0.497586 0.39807,-0.79614 2.08987,-1.791314 2.98553,-1.791314 l -0.99518,-8.259946 -0.79613,0 0,2.886005 c 0,0.597105 -0.19904,0.79614 -0.4976,0.79614 -0.39807,0 -0.5971,-0.497587 -0.5971,-1.393244 l 0,-22.192388 c 0,-4.776836 -2.58745,-6.866702 -4.87636,-8.160429 2.98553,-1.592278 4.87636,-3.582627 4.87636,-9.2551212 l 0,-18.6097618 c 0,-7.4638 -6.17007,-10.349813 -10.44934,-10.349813 -2.28889,0 -3.58262,0.39807 -4.67731,0.597105 -1.19421,0.199035 -2.38842,0.398069 -3.78167,0.398069 -0.5971,0 -1.39324,-0.09952 -1.99034,-0.298552 -0.5971,-0.199034 -1.09469,-0.497586 -1.29373,-0.696622 -0.39806,0.895658 -2.08986,1.59228 -3.28407,1.393244 l 0.99518,9.155604 0.79613,0 0,-2.786487 c 0,-1.393242 0.19903,-1.59228 0.59711,-1.59228 0.29855,0 0.49759,0.09952 0.49759,1.492762 l 0,16.71893068 c 0,6.36911522 -0.0995,9.95174332 -2.08988,11.54402232 0.99518,0.696622 1.39325,1.393244 1.39325,2.089866 0,0.298552 -0.0995,0.597104 -0.29855,0.895656 -0.19904,0.298552 -0.49759,0.597105 -0.89565,0.895657 1.1942,1.592279 1.89083,4.577802 1.89083,9.454156 l 0,18.60976 c 0,1.492761 -0.19904,1.691796 -0.59712,1.691796 -0.5971,0 -0.69661,-0.696622 -0.69661,-1.393244 l 0,-2.686971 -0.79615,0 -1.1942,8.956569 c 0.89565,0 2.88601,1.194209 3.28408,1.890831 0.69661,-0.597104 2.58745,-0.995174 3.88118,-0.995174 0.69661,0 1.49276,0.09952 2.28889,0.298552 0.79615,0.199036 1.49276,0.497588 1.89084,0.696622 0.5971,-0.79614 2.28889,-1.691796 3.4831,-1.691796 l -0.99517,-8.458982 -0.79614,0 0,2.686971 c 0,0.895657 -0.0995,0.995174 -0.39806,0.995174 -0.79615,0 -1.0947,-1.194209 -1.0947,-5.473458 l 0,-19.107348 m 0,-36.224346 c 0,-2.487934 1.0947,-3.781663 2.88601,-3.781663 1.59228,0 3.28407,0.796143 3.28407,3.88118 l 0,22.0928726 c 0,3.9806964 -0.99518,4.7768364 -3.18455,4.7768364 -2.08988,0 -2.98553,-0.79614 -2.98553,-3.5826278 l 0,-23.3865982"
       style="font-size:40px;font-style:normal;font-variant:normal;font-weight:500;font-stretch:normal;text-align:center;line-height:125%;letter-spacing:0px;word-spacing:0px;text-anchor:middle;fill:#8caccb;fill-opacity:1;stroke:none;font-family:Mesquite Std;-inkscape-font-specification:Mesquite Std Medium"
       id="path3016" />
    <path
       inkscape:connector-curvature="0"
       d="m 517.18747,42.052312 c -0.89566,-0.298552 -1.49276,-0.895657 -1.79131,-1.890831 -0.4976,0.597105 -1.39325,0.995174 -2.58746,0.995174 -1.19421,0 -2.18939,-0.398069 -2.68697,-0.995174 -0.0995,0.895657 -1.09469,1.791314 -1.79131,1.791314 l 0,8.757534 c 0.79613,0.298552 1.49276,0.995174 1.79131,1.990348 0.39807,-0.597104 0.99518,-0.995174 1.79131,-0.995174 0.89566,0 1.49276,0.696622 1.49276,1.990349 0,2.985522 -1.89082,5.473458 -2.98552,5.971046 0.29855,0.298552 0.29855,1.293726 0.0995,1.691796 0.99517,-0.199035 2.2889,-0.09952 2.886,0.497587 0.39808,-1.492761 3.78167,-4.677319 3.78167,-11.643539 l 0,-8.16043"
       style="font-size:40px;font-style:normal;font-variant:normal;font-weight:500;font-stretch:normal;text-align:center;line-height:125%;letter-spacing:0px;word-spacing:0px;text-anchor:middle;fill:#539429;fill-opacity:1;stroke:none;font-family:Mesquite Std;-inkscape-font-specification:Mesquite Std Medium"
       id="path3018" />
    <path
       inkscape:connector-curvature="0"
       d="m 281.24097,146.04803 c 0,-3.48311 0.79615,-4.17973 2.88601,-4.17973 2.18938,0 3.28407,0.5971 3.28407,4.27924 l 0,28.26296 c 1.09469,0 2.48794,1.49276 2.78648,2.68697 0.69663,-0.49759 1.89084,-0.59711 2.68698,-0.59711 0.39807,0 0.89566,0 1.39324,0.0995 0.4976,0.0995 0.99518,0.29855 1.19421,0.4976 0.39807,-0.79615 2.08987,-1.79132 2.98552,-1.79132 l -0.99516,-8.25995 -0.79615,0 0,2.886 c 0,0.59711 -0.19903,0.79615 -0.49758,0.79615 -0.39808,0 -0.59711,-0.49758 -0.59711,-1.39325 l 0,-22.19238 c 0,-4.77684 -2.58746,-6.86671 -4.87635,-8.16043 2.98552,-1.59228 4.87635,-3.58263 4.87635,-9.25512 l 0,-18.60976 c 0,-7.46381 -6.17008,-10.34982 -10.44933,-10.34982 -2.2889,0 -3.58263,0.39807 -4.67732,0.59711 -1.1942,0.19903 -2.38841,0.39807 -3.78166,0.39807 -0.59711,0 -1.39324,-0.0995 -1.99035,-0.29855 -0.5971,-0.19904 -1.09469,-0.49759 -1.29373,-0.69663 -0.39807,0.89566 -2.08986,1.59228 -3.28407,1.39325 l 0.99518,9.1556 0.79613,0 0,-2.78649 c 0,-1.39324 0.19903,-1.59227 0.59711,-1.59227 0.29855,0 0.49758,0.0995 0.49758,1.49276 l 0,16.71892 c 0,6.36912 -0.0995,9.95175 -2.08986,11.54403 0.99517,0.69662 1.39325,1.39324 1.39325,2.08986 0,0.29856 -0.0995,0.59711 -0.29857,0.89566 -0.19903,0.29855 -0.49758,0.5971 -0.89564,0.89566 1.19421,1.59228 1.89082,4.5778 1.89082,9.45415 l 0,18.60977 c 0,1.49276 -0.19903,1.69179 -0.5971,1.69179 -0.59711,0 -0.69663,-0.69663 -0.69663,-1.39324 l 0,-2.68697 -0.79613,0 -1.19421,8.95656 c 0.89565,0 2.88601,1.19421 3.28407,1.89084 0.69663,-0.59711 2.58746,-0.99518 3.88118,-0.99518 0.69662,0 1.49277,0.0995 2.2889,0.29855 0.79614,0.19903 1.49277,0.49758 1.89084,0.69663 0.5971,-0.79615 2.28889,-1.69181 3.4831,-1.69181 l -0.99516,-8.45898 -0.79615,0 0,2.68697 c 0,0.89566 -0.0995,0.99518 -0.39807,0.99518 -0.79614,0 -1.09469,-1.19421 -1.09469,-5.47346 l 0,-19.10734 m 0,-36.22435 c 0,-2.48794 1.09469,-3.78166 2.88601,-3.78166 1.59227,0 3.28407,0.79614 3.28407,3.88118 l 0,22.09287 c 0,3.98069 -0.99517,4.77683 -3.18456,4.77683 -2.08986,0 -2.98552,-0.79614 -2.98552,-3.58262 l 0,-23.3866"
       style="font-size:40px;font-style:normal;font-variant:normal;font-weight:500;font-stretch:normal;text-align:center;line-height:125%;letter-spacing:0px;word-spacing:0px;text-anchor:middle;fill:#7a3329;fill-opacity:1;stroke:none;font-family:Mesquite Std;-inkscape-font-specification:Mesquite Std Medium"
       id="path3020" />
    <path
       inkscape:connector-curvature="0"
       d="m 310.49599,148.735 c 0,-5.57298 0,-6.8667 1.59227,-6.8667 0.5971,0 1.39325,0.5971 1.39325,1.49276 0,0.79614 -0.0995,1.29372 -0.39807,1.89083 -0.29856,0.69662 -0.59711,1.59228 -0.59711,2.58745 0,1.79131 1.29373,2.78649 2.48794,2.58745 -0.39807,-0.49758 -0.5971,-1.09469 -0.5971,-1.69179 0,-0.69662 0.5971,-1.29373 1.89083,-2.48794 0.69661,-0.79614 1.19421,-1.59228 1.19421,-2.78649 0,-1.39324 -0.69663,-2.38841 -1.6918,-3.18455 l 2.2889,-1.6918 -2.18938,-1.89083 c 1.09468,-0.69662 1.59228,-1.6918 1.59228,-2.78649 0,-0.99517 -0.69663,-2.18938 -1.19421,-2.68697 -0.99518,-0.99517 -1.39325,-1.59228 -1.39325,-2.18938 0,-0.59711 0.0995,-1.09469 0.39807,-1.59228 -0.89565,-0.0995 -2.58746,1.09469 -2.58746,2.68697 0,0.79614 0.19905,1.59228 0.39808,2.18938 0.19903,0.49759 0.39807,0.79614 0.39807,1.59228 0,0.59711 -0.49759,1.49276 -1.19421,1.49276 -1.0947,0 -1.79131,-0.39807 -1.79131,-4.77683 l 0,-19.80397 c 0,-3.9807 0.99517,-5.07539 2.68697,-5.07539 1.89083,0 2.68697,1.49276 2.68697,4.97587 l 0,6.07056 c 0,3.28408 -0.29856,4.5778 -0.99518,5.47346 2.78649,1.19421 3.48311,2.68697 3.48311,8.16043 l 0.79614,0 c 0,-5.67249 0.49758,-6.96622 3.28407,-8.16043 -0.5971,-1.09469 -0.69661,-2.78649 -0.69661,-5.37394 l 0,-9.55367 c 0,-2.88601 0.29855,-4.27925 0.89565,-4.77684 -0.99517,-0.0995 -2.2889,-0.99517 -2.58745,-1.79131 -0.69663,0.49758 -1.6918,0.99517 -2.38842,0.99517 -1.19421,0 -1.99034,-0.39807 -2.78649,-0.5971 -0.79614,-0.19904 -1.59228,-0.39807 -2.78649,-0.39807 -0.69661,0 -1.39324,0.0995 -2.2889,0.39807 -0.89565,0.29855 -1.99035,0.5971 -3.58262,0.5971 -0.79615,0 -1.6918,-0.0995 -2.38842,-0.29855 -0.69662,-0.19904 -1.19422,-0.39807 -1.59228,-0.69662 -0.69662,0.99517 -1.79131,1.69179 -3.08504,1.79131 l 0.89565,8.5585 0.79614,0 0,-3.28408 c 0.0995,-0.79614 0.29855,-1.09469 0.79615,-1.09469 0.39806,0 0.49758,0.29855 0.49758,1.09469 l 0,20.60011 c 0,4.5778 -0.89566,7.06574 -1.79131,7.9614 0.69662,0.5971 1.19421,1.39324 1.19421,1.99034 0,0.69663 -0.49759,1.59228 -1.19421,1.99035 0.69662,0.99518 1.79131,3.3836 1.79131,9.85223 l 0,19.10735 c 0,1.09469 -0.19903,1.49276 -0.69663,1.49276 -0.49758,0 -0.5971,-0.39807 -0.5971,-1.59228 l 0,-3.18456 -0.89566,0 -0.89565,8.95657 c 0.99517,0.19903 2.58746,1.19421 2.98552,2.08987 0.69662,-0.69663 1.59228,-0.99518 2.48794,-0.99518 1.1942,0 2.38841,0.19904 3.38359,0.39807 0.99518,0.19903 1.99035,0.59711 3.18456,0.59711 1.49276,0 2.2889,-0.29856 3.08503,-0.49759 0.69663,-0.19904 1.49278,-0.49759 2.78649,-0.49759 0.59711,0 1.0947,0.0995 1.59229,0.19904 0.49758,0.0995 0.89565,0.29855 1.39325,0.49758 0.29855,-0.5971 1.89082,-1.49276 2.68696,-1.69179 -0.69662,-0.79614 -0.89565,-1.39325 -0.89565,-6.2696 l 0,-8.85706 c 0,-2.48792 0.39806,-4.37876 1.09469,-5.27442 -2.78649,-1.29372 -3.48312,-1.79131 -3.48312,-8.35946 l -0.69661,0 c 0,6.17008 -0.79615,7.06574 -3.48312,8.16043 0.59711,1.19421 0.69663,3.18456 0.69663,5.47345 l 0,7.16526 c 0,4.37877 -0.59711,5.07539 -2.48794,5.07539 -2.08987,0 -2.886,-0.69662 -2.886,-3.08504 l 0,-20.40107"
       style="font-size:40px;font-style:normal;font-variant:normal;font-weight:500;font-stretch:normal;text-align:center;line-height:125%;letter-spacing:0px;word-spacing:0px;text-anchor:middle;fill:#373b38;fill-opacity:1;stroke:none;font-family:Mesquite Std;-inkscape-font-specification:Mesquite Std Medium"
       id="path3022" />
    <path
       inkscape:connector-curvature="0"
       d="m 349.81005,169.13607 c 0,1.49276 -0.29855,2.08986 -0.79614,2.08986 -0.39807,0 -0.69662,-0.29855 -0.69662,-1.29372 l 0,-3.08504 -0.69663,0 -0.89565,8.25995 c 1.09469,0 2.98552,1.09469 3.28407,1.99035 0.89565,-0.69663 2.68698,-0.99518 4.27925,-0.99518 0.89566,0 1.6918,0.0995 2.48794,0.19904 0.69662,0.19903 1.39325,0.39806 1.79131,0.79614 0.19903,-1.19421 1.6918,-1.89084 2.78649,-1.89084 l -1.09469,-8.45898 -0.69662,0 0,3.58263 c 0,0.49759 -0.29856,0.79614 -0.79615,0.79614 -0.49758,0 -0.69661,-0.19904 -0.69661,-0.89565 l 0,-20.69963 c 0,-6.76719 1.09468,-8.5585 1.89083,-9.05609 -0.79615,-0.49759 -1.19422,-1.39324 -1.19422,-1.99035 0,-0.69662 0.29855,-1.59228 0.89567,-1.99035 -0.59712,-0.39807 -1.59228,-2.08986 -1.59228,-7.56332 l 0,-20.20204 c 0,-1.09469 0.19903,-1.79131 0.5971,-1.79131 0.49758,0 0.5971,0.39807 0.5971,1.29372 l 0,2.78649 0.69663,0 0.79614,-8.5585 c -1.09469,0 -2.58745,-0.89565 -2.88602,-1.69179 -0.79613,0.5971 -2.98552,0.99517 -4.27925,0.99517 -0.49758,0 -1.39324,-0.0995 -2.18937,-0.29855 -0.79615,-0.19904 -1.49276,-0.49759 -1.89083,-0.69662 -0.49759,0.5971 -2.38842,1.39324 -3.68215,1.39324 l -3.08504,29.15861 -0.59711,0 -2.98552,-29.15861 c -1.39324,0 -3.18455,-0.69662 -3.68214,-1.39324 -0.69663,0.39807 -2.58745,0.99517 -4.17973,0.99517 -0.69663,0 -1.59229,-0.0995 -2.2889,-0.29855 -0.79615,-0.19904 -1.39325,-0.49759 -1.79132,-0.69662 -0.39807,0.5971 -2.18938,1.69179 -3.3836,1.69179 l 0.69663,8.35947 0.89565,0 0,-2.68697 c 0,-0.99518 0.29856,-1.49276 0.79615,-1.49276 0.39806,0 0.5971,0.29855 0.5971,2.2889 l 0,20.10252 c 0,5.47346 -0.99517,6.8667 -1.6918,7.4638 0.89566,0.59711 1.0947,1.0947 1.0947,1.99035 0,0.89566 -0.29855,1.39325 -0.99518,1.99035 0.69663,0.69662 1.59228,1.99035 1.59228,7.76236 l 0,21.6948 c 0,1.09469 -0.0995,1.19421 -0.5971,1.19421 -0.39807,0 -0.5971,-0.19904 -0.5971,-0.99517 l 0,-3.58263 -0.79615,0 -0.89566,8.75753 c 0.99518,0 2.78649,0.99518 3.28408,1.79132 0.49759,-0.49759 1.6918,-0.99518 2.78649,-0.99518 0.69662,0 1.29373,0.0995 1.89083,0.29855 0.5971,0.0995 0.99518,0.39807 1.19421,0.69663 0.39807,-1.09469 1.79131,-1.89084 2.88601,-1.89084 l -1.39325,-8.35946 -0.79614,0 0,3.28408 c 0,0.99517 -0.19904,1.09468 -0.69662,1.09468 -0.49759,0 -0.79614,-0.19903 -0.79614,-1.29372 l 0,-19.30638 c 0,-4.47829 0.69662,-9.05609 1.49276,-10.15078 -0.69662,-0.5971 -0.89565,-1.09469 -0.89565,-1.99035 0,-0.79614 0.29855,-1.49276 0.79613,-1.99035 -0.39807,-0.49758 -1.39324,-2.38841 -1.39324,-7.16525 l 0,-10.54885 0.59711,0 1.19421,12.14113 c 0.39807,3.88118 0.39807,4.87635 0.0995,5.47346 0.5971,0.5971 1.09469,1.29372 1.09469,2.08986 0,0.79614 -0.29855,1.49276 -0.89565,1.99035 0.39806,0.59711 0.79613,1.6918 1.49276,7.86188 l 2.98552,26.8697 c 0.5971,0 1.79131,0.89566 2.2889,1.89084 0.39807,-0.99518 1.39325,-1.89084 2.08986,-1.89084 l 3.08504,-27.86488 c 0.4976,-4.08021 0.89566,-6.17008 1.49276,-6.8667 -0.69661,-0.29855 -1.09468,-1.39324 -1.09468,-2.18938 0,-0.69662 0.49758,-1.49276 1.1942,-1.89083 -0.19903,-0.59711 -0.29855,-3.18456 0,-5.57298 l 1.39324,-12.04161 0.4976,0 0,10.34981 c 0,4.17974 -0.89566,6.76719 -1.39325,7.36429 0.79614,0.49759 0.89565,1.39325 0.89565,1.99035 0,0.89566 -0.49758,1.59228 -0.89565,1.99035 0.5971,0.59711 1.49277,2.88601 1.39325,8.5585 l 0,20.10252"
       style="font-size:40px;font-style:normal;font-variant:normal;font-weight:500;font-stretch:normal;text-align:center;line-height:125%;letter-spacing:0px;word-spacing:0px;text-anchor:middle;fill:#181a18;fill-opacity:1;stroke:none;font-family:Mesquite Std;-inkscape-font-specification:Mesquite Std Medium"
       id="path3024" />
    <path
       inkscape:connector-curvature="0"
       d="m 373.66625,148.735 c 0,-5.57298 0,-6.8667 1.59227,-6.8667 0.5971,0 1.39325,0.5971 1.39325,1.49276 0,0.79614 -0.0995,1.29372 -0.39808,1.89083 -0.29855,0.69662 -0.5971,1.59228 -0.5971,2.58745 0,1.79131 1.29373,2.78649 2.48794,2.58745 -0.39808,-0.49758 -0.59711,-1.09469 -0.59711,-1.69179 0,-0.69662 0.59711,-1.29373 1.89084,-2.48794 0.69661,-0.79614 1.1942,-1.59228 1.1942,-2.78649 0,-1.39324 -0.69662,-2.38841 -1.6918,-3.18455 l 2.28891,-1.6918 -2.18939,-1.89083 c 1.09469,-0.69662 1.59228,-1.6918 1.59228,-2.78649 0,-0.99517 -0.69662,-2.18938 -1.1942,-2.68697 -0.99518,-0.99517 -1.39325,-1.59228 -1.39325,-2.18938 0,-0.59711 0.0995,-1.09469 0.39807,-1.59228 -0.89566,-0.0995 -2.58746,1.09469 -2.58746,2.68697 0,0.79614 0.19904,1.59228 0.39807,2.18938 0.19905,0.49759 0.39808,0.79614 0.39808,1.59228 0,0.59711 -0.4976,1.49276 -1.19421,1.49276 -1.0947,0 -1.79131,-0.39807 -1.79131,-4.77683 l 0,-19.80397 c 0,-3.9807 0.99516,-5.07539 2.68696,-5.07539 1.89084,0 2.68697,1.49276 2.68697,4.97587 l 0,6.07056 c 0,3.28408 -0.29855,4.5778 -0.99517,5.47346 2.78649,1.19421 3.48311,2.68697 3.48311,8.16043 l 0.79614,0 c 0,-5.67249 0.49758,-6.96622 3.28407,-8.16043 -0.5971,-1.09469 -0.69661,-2.78649 -0.69661,-5.37394 l 0,-9.55367 c 0,-2.88601 0.29855,-4.27925 0.89565,-4.77684 -0.99518,-0.0995 -2.2889,-0.99517 -2.58746,-1.79131 -0.69662,0.49758 -1.69179,0.99517 -2.38841,0.99517 -1.19421,0 -1.99035,-0.39807 -2.78649,-0.5971 -0.79614,-0.19904 -1.59227,-0.39807 -2.78649,-0.39807 -0.69662,0 -1.39324,0.0995 -2.2889,0.39807 -0.89566,0.29855 -1.99034,0.5971 -3.58263,0.5971 -0.79614,0 -1.6918,-0.0995 -2.38841,-0.29855 -0.69663,-0.19904 -1.19421,-0.39807 -1.59228,-0.69662 -0.69663,0.99517 -1.79132,1.69179 -3.08505,1.79131 l 0.89566,8.5585 0.79614,0 0,-3.28408 c 0.0995,-0.79614 0.29855,-1.09469 0.79614,-1.09469 0.39808,0 0.49759,0.29855 0.49759,1.09469 l 0,20.60011 c 0,4.5778 -0.89566,7.06574 -1.79132,7.9614 0.69663,0.5971 1.19421,1.39324 1.19421,1.99034 0,0.69663 -0.49758,1.59228 -1.19421,1.99035 0.69663,0.99518 1.79132,3.3836 1.79132,9.85223 l 0,19.10735 c 0,1.09469 -0.19904,1.49276 -0.69663,1.49276 -0.49758,0 -0.5971,-0.39807 -0.5971,-1.59228 l 0,-3.18456 -0.89566,0 -0.89566,8.95657 c 0.99518,0.19903 2.58746,1.19421 2.98554,2.08987 0.69661,-0.69663 1.59227,-0.99518 2.48792,-0.99518 1.19421,0 2.38842,0.19904 3.3836,0.39807 0.99517,0.19903 1.99035,0.59711 3.18456,0.59711 1.49276,0 2.2889,-0.29856 3.08503,-0.49759 0.69663,-0.19904 1.49277,-0.49759 2.78649,-0.49759 0.59711,0 1.0947,0.0995 1.59228,0.19904 0.4976,0.0995 0.89566,0.29855 1.39324,0.49758 0.29855,-0.5971 1.89084,-1.49276 2.68698,-1.69179 -0.69662,-0.79614 -0.89565,-1.39325 -0.89565,-6.2696 l 0,-8.85706 c 0,-2.48792 0.39806,-4.37876 1.09468,-5.27442 -2.78649,-1.29372 -3.48311,-1.79131 -3.48311,-8.35946 l -0.69662,0 c 0,6.17008 -0.79614,7.06574 -3.48311,8.16043 0.5971,1.19421 0.69662,3.18456 0.69662,5.47345 l 0,7.16526 c 0,4.37877 -0.5971,5.07539 -2.48793,5.07539 -2.08987,0 -2.886,-0.69662 -2.886,-3.08504 l 0,-20.40107"
       style="font-size:40px;font-style:normal;font-variant:normal;font-weight:500;font-stretch:normal;text-align:center;line-height:125%;letter-spacing:0px;word-spacing:0px;text-anchor:middle;fill:#46354b;fill-opacity:1;stroke:none;font-family:Mesquite Std;-inkscape-font-specification:Mesquite Std Medium"
       id="path3026" />
    <path
       inkscape:connector-curvature="0"
       d="m 412.98028,169.13607 c 0,1.49276 -0.29855,2.08986 -0.79614,2.08986 -0.39808,0 -0.69663,-0.29855 -0.69663,-1.29372 l 0,-3.08504 -0.69661,0 -0.89566,8.25995 c 1.09469,0 2.98552,1.09469 3.28407,1.99035 0.89566,-0.69663 2.68697,-0.99518 4.27925,-0.99518 0.89566,0 1.6918,0.0995 2.48794,0.19904 0.69662,0.19903 1.39324,0.39806 1.79132,0.79614 0.19903,-1.19421 1.69179,-1.89084 2.78647,-1.89084 l -1.09468,-8.45898 -0.69663,0 0,3.58263 c 0,0.49759 -0.29855,0.79614 -0.79613,0.79614 -0.49759,0 -0.69663,-0.19904 -0.69663,-0.89565 l 0,-20.69963 c 0,-6.76719 1.0947,-8.5585 1.89083,-9.05609 -0.79613,-0.49759 -1.1942,-1.39324 -1.1942,-1.99035 0,-0.69662 0.29855,-1.59228 0.89565,-1.99035 -0.5971,-0.39807 -1.59228,-2.08986 -1.59228,-7.56332 l 0,-20.20204 c 0,-1.09469 0.19904,-1.79131 0.59712,-1.79131 0.49758,0 0.59709,0.39807 0.59709,1.29372 l 0,2.78649 0.69662,0 0.79615,-8.5585 c -1.0947,0 -2.58746,-0.89565 -2.88601,-1.69179 -0.79614,0.5971 -2.98552,0.99517 -4.27925,0.99517 -0.49758,0 -1.39324,-0.0995 -2.18939,-0.29855 -0.79613,-0.19904 -1.49276,-0.49759 -1.89082,-0.69662 -0.49759,0.5971 -2.38843,1.39324 -3.68215,1.39324 l -3.08504,29.15861 -0.5971,0 -2.98552,-29.15861 c -1.39325,0 -3.18457,-0.69662 -3.68215,-1.39324 -0.69662,0.39807 -2.58746,0.99517 -4.17973,0.99517 -0.69662,0 -1.59228,-0.0995 -2.28891,-0.29855 -0.79613,-0.19904 -1.39323,-0.49759 -1.79131,-0.69662 -0.39807,0.5971 -2.18938,1.69179 -3.38359,1.69179 l 0.69662,8.35947 0.89566,0 0,-2.68697 c 0,-0.99518 0.29855,-1.49276 0.79614,-1.49276 0.39807,0 0.5971,0.29855 0.5971,2.2889 l 0,20.10252 c 0,5.47346 -0.99517,6.8667 -1.69179,7.4638 0.89565,0.59711 1.09469,1.0947 1.09469,1.99035 0,0.89566 -0.29856,1.39325 -0.99517,1.99035 0.69661,0.69662 1.59227,1.99035 1.59227,7.76236 l 0,21.6948 c 0,1.09469 -0.0995,1.19421 -0.5971,1.19421 -0.39807,0 -0.59711,-0.19904 -0.59711,-0.99517 l 0,-3.58263 -0.79613,0 -0.89566,8.75753 c 0.99518,0 2.78649,0.99518 3.28407,1.79132 0.49759,-0.49759 1.69179,-0.99518 2.78649,-0.99518 0.69663,0 1.29373,0.0995 1.89084,0.29855 0.5971,0.0995 0.99516,0.39807 1.1942,0.69663 0.39807,-1.09469 1.79132,-1.89084 2.886,-1.89084 l -1.39324,-8.35946 -0.79614,0 0,3.28408 c 0,0.99517 -0.19903,1.09468 -0.69662,1.09468 -0.49759,0 -0.79614,-0.19903 -0.79614,-1.29372 l 0,-19.30638 c 0,-4.47829 0.69662,-9.05609 1.49276,-10.15078 -0.69662,-0.5971 -0.89566,-1.09469 -0.89566,-1.99035 0,-0.79614 0.29855,-1.49276 0.79615,-1.99035 -0.39807,-0.49758 -1.39325,-2.38841 -1.39325,-7.16525 l 0,-10.54885 0.5971,0 1.19421,12.14113 c 0.39807,3.88118 0.39807,4.87635 0.0995,5.47346 0.59711,0.5971 1.09469,1.29372 1.09469,2.08986 0,0.79614 -0.29855,1.49276 -0.89566,1.99035 0.39808,0.59711 0.79615,1.6918 1.49276,7.86188 l 2.98554,26.8697 c 0.5971,0 1.79131,0.89566 2.28889,1.89084 0.39807,-0.99518 1.39324,-1.89084 2.08987,-1.89084 l 3.08504,-27.86488 c 0.49758,-4.08021 0.89565,-6.17008 1.49276,-6.8667 -0.69663,-0.29855 -1.09469,-1.39324 -1.09469,-2.18938 0,-0.69662 0.49758,-1.49276 1.19421,-1.89083 -0.19904,-0.59711 -0.29855,-3.18456 0,-5.57298 l 1.39324,-12.04161 0.49758,0 0,10.34981 c 0,4.17974 -0.89565,6.76719 -1.39324,7.36429 0.79614,0.49759 0.89566,1.39325 0.89566,1.99035 0,0.89566 -0.49758,1.59228 -0.89566,1.99035 0.59711,0.59711 1.49276,2.88601 1.39324,8.5585 l 0,20.10252"
       style="font-size:40px;font-style:normal;font-variant:normal;font-weight:500;font-stretch:normal;text-align:center;line-height:125%;letter-spacing:0px;word-spacing:0px;text-anchor:middle;fill:#7b8191;fill-opacity:1;stroke:none;font-family:Mesquite Std;-inkscape-font-specification:Mesquite Std Medium"
       id="path3028" />
    <path
       inkscape:connector-curvature="0"
       d="m 426.48666,111.01789 0.79614,0 0,-3.08504 c 0,-0.89566 0.19903,-1.29372 0.59711,-1.29372 0.39806,0 0.5971,0.39806 0.5971,1.39324 l 0,19.70445 c 0,6.56815 -0.29855,8.16043 -1.79131,9.05609 0.89566,0.69662 1.19421,1.39324 1.19421,2.08986 0,0.69662 -0.29855,1.29373 -1.19421,1.89083 0.99517,1.19421 1.79131,3.08504 1.79131,8.35947 l 0,19.80397 c 0,1.09469 -0.0995,1.79131 -0.69662,1.79131 -0.49759,0 -0.79614,-0.39807 -0.79614,-1.69179 l 0,-2.78649 -0.79614,0 -0.79614,8.85705 c 1.09469,-0.0995 3.08504,0.79614 3.38359,1.79131 0.39808,-0.49759 1.19421,-0.79614 2.58745,-0.79614 1.99036,0 3.08504,0.29855 4.37877,0.5971 1.29373,0.29855 2.78649,0.39808 5.17491,0.39808 3.4831,0 9.55367,-1.6918 9.55367,-10.15079 l 0,-20.30155 c 0,-3.88118 -2.58745,-6.36911 -4.67732,-7.56332 2.88601,-1.09469 4.67732,-4.5778 4.67732,-6.76719 l 0,-20.003 c 0,-5.67249 -3.18455,-11.54402 -10.94692,-11.54402 -1.59227,0 -2.68697,0.29855 -3.78166,0.49758 -1.19421,0.19904 -2.2889,0.49759 -4.08022,0.49759 -1.39324,0 -2.38841,-0.39807 -2.98552,-1.29373 -0.39807,1.19421 -1.99034,1.89084 -3.18455,1.89084 l 0.99517,8.65801 m 10.05126,34.43303 c 0,-1.59228 0.29855,-3.48311 2.88601,-3.48311 2.38842,0 2.886,1.79132 2.886,3.48311 l 0,23.48612 c 0,2.08986 -0.5971,3.58262 -2.886,3.58262 -2.28891,0 -2.88601,-1.49276 -2.88601,-3.58262 l 0,-23.48612 m 0,-35.82627 c 0,-2.18939 0.39807,-3.68215 2.88601,-3.68215 2.18937,0 2.886,1.59228 2.886,3.68215 l 0,23.9837 c 0,2.68697 -1.49276,3.38359 -2.886,3.38359 -1.79131,0 -2.88601,-0.99517 -2.88601,-3.38359 l 0,-23.9837"
       style="font-size:40px;font-style:normal;font-variant:normal;font-weight:500;font-stretch:normal;text-align:center;line-height:125%;letter-spacing:0px;word-spacing:0px;text-anchor:middle;fill:#e0dda6;fill-opacity:1;stroke:none;font-family:Mesquite Std;-inkscape-font-specification:Mesquite Std Medium"
       id="path3030" />
    <path
       inkscape:connector-curvature="0"
       d="m 464.24265,148.735 c 0,-5.57298 0,-6.8667 1.59229,-6.8667 0.5971,0 1.39324,0.5971 1.39324,1.49276 0,0.79614 -0.0995,1.29372 -0.39808,1.89083 -0.29855,0.69662 -0.5971,1.59228 -0.5971,2.58745 0,1.79131 1.29373,2.78649 2.48794,2.58745 -0.39808,-0.49758 -0.59711,-1.09469 -0.59711,-1.69179 0,-0.69662 0.59711,-1.29373 1.89084,-2.48794 0.69662,-0.79614 1.1942,-1.59228 1.1942,-2.78649 0,-1.39324 -0.69662,-2.38841 -1.6918,-3.18455 l 2.28891,-1.6918 -2.18939,-1.89083 c 1.0947,-0.69662 1.59228,-1.6918 1.59228,-2.78649 0,-0.99517 -0.69662,-2.18938 -1.1942,-2.68697 -0.99518,-0.99517 -1.39325,-1.59228 -1.39325,-2.18938 0,-0.59711 0.0995,-1.09469 0.39807,-1.59228 -0.89566,-0.0995 -2.58745,1.09469 -2.58745,2.68697 0,0.79614 0.19903,1.59228 0.39806,2.18938 0.19904,0.49759 0.39808,0.79614 0.39808,1.59228 0,0.59711 -0.49759,1.49276 -1.19421,1.49276 -1.09469,0 -1.79132,-0.39807 -1.79132,-4.77683 l 0,-19.80397 c 0,-3.9807 0.99518,-5.07539 2.68697,-5.07539 1.89084,0 2.68697,1.49276 2.68697,4.97587 l 0,6.07056 c 0,3.28408 -0.29855,4.5778 -0.99517,5.47346 2.78649,1.19421 3.48311,2.68697 3.48311,8.16043 l 0.79614,0 c 0,-5.67249 0.49759,-6.96622 3.28408,-8.16043 -0.5971,-1.09469 -0.69663,-2.78649 -0.69663,-5.37394 l 0,-9.55367 c 0,-2.88601 0.29856,-4.27925 0.89566,-4.77684 -0.99518,-0.0995 -2.28891,-0.99517 -2.58746,-1.79131 -0.69661,0.49758 -1.69179,0.99517 -2.38841,0.99517 -1.19421,0 -1.99035,-0.39807 -2.78649,-0.5971 -0.79614,-0.19904 -1.59228,-0.39807 -2.78648,-0.39807 -0.69663,0 -1.39325,0.0995 -2.28891,0.39807 -0.89566,0.29855 -1.99034,0.5971 -3.58263,0.5971 -0.79613,0 -1.6918,-0.0995 -2.38841,-0.29855 -0.69663,-0.19904 -1.19421,-0.39807 -1.59228,-0.69662 -0.69663,0.99517 -1.79132,1.69179 -3.08505,1.79131 l 0.89566,8.5585 0.79615,0 0,-3.28408 c 0.0995,-0.79614 0.29855,-1.09469 0.79613,-1.09469 0.39807,0 0.49758,0.29855 0.49758,1.09469 l 0,20.60011 c 0,4.5778 -0.89565,7.06574 -1.79131,7.9614 0.69663,0.5971 1.19421,1.39324 1.19421,1.99034 0,0.69663 -0.49758,1.59228 -1.19421,1.99035 0.69663,0.99518 1.79131,3.3836 1.79131,9.85223 l 0,19.10735 c 0,1.09469 -0.19903,1.49276 -0.69661,1.49276 -0.49759,0 -0.5971,-0.39807 -0.5971,-1.59228 l 0,-3.18456 -0.89566,0 -0.89567,8.95657 c 0.99518,0.19903 2.58746,1.19421 2.98553,2.08987 0.69662,-0.69663 1.59229,-0.99518 2.48793,-0.99518 1.19422,0 2.38843,0.19904 3.3836,0.39807 0.99517,0.19903 1.99035,0.59711 3.18456,0.59711 1.49276,0 2.28889,-0.29856 3.08504,-0.49759 0.69662,-0.19904 1.49276,-0.49759 2.78649,-0.49759 0.59709,0 1.09469,0.0995 1.59227,0.19904 0.4976,0.0995 0.89566,0.29855 1.39325,0.49758 0.29855,-0.5971 1.89084,-1.49276 2.68697,-1.69179 -0.69662,-0.79614 -0.89566,-1.39325 -0.89566,-6.2696 l 0,-8.85706 c 0,-2.48792 0.39808,-4.37876 1.09469,-5.27442 -2.78649,-1.29372 -3.4831,-1.79131 -3.4831,-8.35946 l -0.69663,0 c 0,6.17008 -0.79613,7.06574 -3.48311,8.16043 0.5971,1.19421 0.69662,3.18456 0.69662,5.47345 l 0,7.16526 c 0,4.37877 -0.5971,5.07539 -2.48794,5.07539 -2.08986,0 -2.886,-0.69662 -2.886,-3.08504 l 0,-20.40107"
       style="font-size:40px;font-style:normal;font-variant:normal;font-weight:500;font-stretch:normal;text-align:center;line-height:125%;letter-spacing:0px;word-spacing:0px;text-anchor:middle;fill:#afac81;fill-opacity:1;stroke:none;font-family:Mesquite Std;-inkscape-font-specification:Mesquite Std Medium"
       id="path3032" />
    <path
       inkscape:connector-curvature="0"
       d="m 488.82811,146.04803 c 0,-3.48311 0.79614,-4.17973 2.88601,-4.17973 2.18938,0 3.28407,0.5971 3.28407,4.27924 l 0,28.26296 c 1.09469,0 2.48794,1.49276 2.78649,2.68697 0.69663,-0.49759 1.89083,-0.59711 2.68697,-0.59711 0.39807,0 0.89566,0 1.39324,0.0995 0.49759,0.0995 0.99518,0.29855 1.19421,0.4976 0.39807,-0.79615 2.08987,-1.79132 2.98553,-1.79132 l -0.99518,-8.25995 -0.79613,0 0,2.886 c 0,0.59711 -0.19904,0.79615 -0.4976,0.79615 -0.39807,0 -0.5971,-0.49758 -0.5971,-1.39325 l 0,-22.19238 c 0,-4.77684 -2.58745,-6.86671 -4.87636,-8.16043 2.98553,-1.59228 4.87636,-3.58263 4.87636,-9.25512 l 0,-18.60976 c 0,-7.46381 -6.17007,-10.34982 -10.44934,-10.34982 -2.28889,0 -3.58262,0.39807 -4.67731,0.59711 -1.19421,0.19903 -2.38842,0.39807 -3.78167,0.39807 -0.5971,0 -1.39324,-0.0995 -1.99034,-0.29855 -0.5971,-0.19904 -1.09469,-0.49759 -1.29373,-0.69663 -0.39806,0.89566 -2.08986,1.59228 -3.28407,1.39325 l 0.99518,9.1556 0.79613,0 0,-2.78649 c 0,-1.39324 0.19903,-1.59227 0.59711,-1.59227 0.29855,0 0.49759,0.0995 0.49759,1.49276 l 0,16.71892 c 0,6.36912 -0.0995,9.95175 -2.08988,11.54403 0.99518,0.69662 1.39325,1.39324 1.39325,2.08986 0,0.29856 -0.0995,0.59711 -0.29855,0.89566 -0.19904,0.29855 -0.49759,0.5971 -0.89565,0.89566 1.1942,1.59228 1.89083,4.5778 1.89083,9.45415 l 0,18.60977 c 0,1.49276 -0.19904,1.69179 -0.59712,1.69179 -0.5971,0 -0.69661,-0.69663 -0.69661,-1.39324 l 0,-2.68697 -0.79615,0 -1.1942,8.95656 c 0.89565,0 2.88601,1.19421 3.28408,1.89084 0.69661,-0.59711 2.58745,-0.99518 3.88118,-0.99518 0.69661,0 1.49276,0.0995 2.28889,0.29855 0.79615,0.19903 1.49276,0.49758 1.89084,0.69663 0.5971,-0.79615 2.28889,-1.69181 3.4831,-1.69181 l -0.99517,-8.45898 -0.79614,0 0,2.68697 c 0,0.89566 -0.0995,0.99518 -0.39806,0.99518 -0.79615,0 -1.0947,-1.19421 -1.0947,-5.47346 l 0,-19.10734 m 0,-36.22435 c 0,-2.48794 1.0947,-3.78166 2.88601,-3.78166 1.59228,0 3.28407,0.79614 3.28407,3.88118 l 0,22.09287 c 0,3.98069 -0.99518,4.77683 -3.18455,4.77683 -2.08988,0 -2.98553,-0.79614 -2.98553,-3.58262 l 0,-23.3866"
       style="font-size:40px;font-style:normal;font-variant:normal;font-weight:500;font-stretch:normal;text-align:center;line-height:125%;letter-spacing:0px;word-spacing:0px;text-anchor:middle;fill:#8712d2;fill-opacity:1;stroke:none;font-family:Mesquite Std;-inkscape-font-specification:Mesquite Std Medium"
       id="path3034" />
    <path
       inkscape:connector-curvature="0"
       d="m 517.18747,166.4491 c -0.89566,-0.29855 -1.49276,-0.89566 -1.79131,-1.89083 -0.4976,0.5971 -1.39325,0.99517 -2.58746,0.99517 -1.19421,0 -2.18939,-0.39807 -2.68697,-0.99517 -0.0995,0.89565 -1.09469,1.79131 -1.79131,1.79131 l 0,8.75754 c 0.79613,0.29855 1.49276,0.99517 1.79131,1.99035 0.39807,-0.59711 0.99518,-0.99518 1.79131,-0.99518 0.89566,0 1.49276,0.69662 1.49276,1.99035 0,2.98552 -1.89082,5.47346 -2.98552,5.97104 0.29855,0.29856 0.29855,1.29373 0.0995,1.69181 0.99517,-0.19904 2.2889,-0.0995 2.886,0.49758 0.39808,-1.49276 3.78167,-4.67732 3.78167,-11.64354 l 0,-8.16043"
       style="font-size:40px;font-style:normal;font-variant:normal;font-weight:500;font-stretch:normal;text-align:center;line-height:125%;letter-spacing:0px;word-spacing:0px;text-anchor:middle;fill:#46b9b0;fill-opacity:1;stroke:none;font-family:Mesquite Std;-inkscape-font-specification:Mesquite Std Medium"
       id="path3036" />
    <path
       inkscape:connector-curvature="0"
       d="m 232.87162,272.53468 c 0,-4.47829 0.5971,-6.46863 1.49276,-7.06574 -0.69663,-0.29855 -1.09469,-1.09468 -1.09469,-1.89083 0,-0.69661 0.49758,-1.59227 1.09469,-1.89082 -0.59711,-0.59712 -1.49276,-2.58746 -1.49276,-7.06574 l 0,-22.09287 c 0,-1.79132 0.49758,-2.28891 1.39325,-2.28891 0.99516,0 1.59227,0.49759 1.59227,2.28891 l 0,9.15559 c 0,3.78167 -0.29855,4.37878 -0.89566,5.37395 2.78649,1.09469 3.48312,2.38842 3.48312,8.35946 l 0.69661,0 c 0,-5.27443 0.59712,-7.16525 3.3836,-8.35946 -0.49759,-0.49759 -1.19421,-1.99035 -1.19421,-5.37395 l 0,-14.72857 c -0.99518,0 -2.38842,-0.89566 -2.886,-1.79131 -0.4976,0.5971 -1.69181,0.99516 -2.68697,0.99516 -0.4976,0 -0.99518,-0.0995 -1.49276,-0.29855 -0.39808,-0.19903 -0.79615,-0.49758 -1.0947,-0.69661 -0.69663,0.5971 -2.38842,0.99516 -4.67731,0.99516 -0.89567,0 -1.79133,-0.0995 -2.48794,-0.29855 -0.69663,-0.19903 -1.29373,-0.39806 -1.6918,-0.69661 -0.49759,0.49758 -1.59227,0.99516 -2.58745,0.99516 -0.4976,0 -0.99518,-0.0995 -1.49276,-0.29855 -0.4976,-0.19903 -0.89566,-0.39806 -1.19421,-0.69661 -0.49759,0.89565 -1.89083,1.79131 -2.88601,1.79131 l 0,14.72857 c 0,3.3836 -0.69663,4.87636 -1.19421,5.37395 2.78649,1.19421 3.38359,3.08503 3.38359,8.35946 l 0.69663,0 c 0,-5.97104 0.69661,-7.26477 3.4831,-8.35946 -0.5971,-0.99517 -0.89565,-1.59228 -0.89565,-5.37395 l 0,-9.15559 c 0,-1.79132 0.5971,-2.28891 1.59228,-2.28891 0.89566,0 1.39324,0.49759 1.39324,2.28891 l 0,22.09287 c 0,4.47828 -0.79614,6.26959 -1.69179,7.16525 0.69661,0.49759 1.09468,1.29373 1.09468,1.99035 0,0.69662 -0.39807,1.49276 -0.99516,1.89083 0.89564,0.79614 1.59227,3.08504 1.59227,6.8667 l 0,21.89384 c 0,0.49758 0,1.09469 -0.39806,1.09469 -0.39808,0 -0.69663,-0.29855 -0.69663,-1.09469 l 0,-2.58746 -0.79613,0 -1.19422,7.86188 c 0.99517,0 2.98553,0.89565 3.38359,1.79131 0.79615,-0.69662 2.58746,-0.99517 3.88119,-0.99517 0.69661,0 1.59227,0.0995 2.28889,0.19903 0.79614,0.19904 1.59229,0.39808 1.99035,0.79614 0.49759,-0.89566 1.89083,-1.89082 2.88601,-1.89082 l -0.69663,-7.9614 -0.89565,0 0,2.68697 c 0,0.5971 -0.0995,1.09469 -0.59711,1.09469 -0.49758,0 -0.89565,-0.29856 -0.89565,-1.19421 l 0,-21.6948"
       style="font-size:40px;font-style:normal;font-variant:normal;font-weight:500;font-stretch:normal;text-align:center;line-height:125%;letter-spacing:0px;word-spacing:0px;text-anchor:middle;fill:#313005;fill-opacity:1;stroke:none;font-family:Mesquite Std;-inkscape-font-specification:Mesquite Std Medium"
       id="path3038" />
    <path
       inkscape:connector-curvature="0"
       d="m 253.63809,270.9424 c 0,-4.77683 1.39324,-5.77201 3.58263,-5.77201 1.89083,0 3.78167,0.79614 3.78167,5.77201 l 0,23.08805 c 0,1.39324 -0.29856,1.49276 -0.69663,1.49276 -0.29855,0 -0.5971,-0.0995 -0.5971,-1.49276 l 0,-3.18457 -0.69663,0 -1.29373,8.75755 c 1.0947,0 3.08505,1.09468 3.3836,1.89082 0.5971,-0.5971 2.08986,-0.99517 3.78166,-0.99517 0.89566,0 1.6918,0.0995 2.38842,0.29855 0.79615,0.0995 1.39324,0.39807 1.79131,0.69662 0.39808,-0.99517 2.18939,-1.89082 3.08505,-1.89082 l -0.89566,-8.5585 -0.79614,0 0,2.98552 c 0,1.29373 -0.19904,1.59228 -0.5971,1.59228 -0.39807,0 -0.69663,-0.19904 -0.69663,-1.59228 l 0,-20.60011 c 0,-5.67249 0.99518,-7.36429 2.08987,-8.06092 -0.69663,-0.29855 -1.09469,-1.19421 -1.09469,-2.08986 0,-0.79614 0.29855,-1.59227 1.09469,-2.18939 -1.39324,-0.79613 -2.08987,-2.18937 -2.08987,-9.35463 l 0,-19.80396 c 0,-0.89567 0.19904,-1.0947 0.49759,-1.0947 0.29855,0 0.49759,0.19903 0.49759,1.0947 l 0,3.28407 0.89566,0 0.79613,-8.25995 c -0.89565,0 -2.28889,-0.99518 -2.68697,-1.79131 -0.69662,0.5971 -1.99035,0.99516 -4.08021,0.99516 -0.99517,0 -1.89084,-0.19903 -2.48793,-0.39806 -0.59712,-0.19904 -0.99518,-0.39807 -1.29373,-0.5971 -0.29855,0.49758 -1.79131,1.39324 -2.88601,1.39324 l 0.5971,8.95657 0.79615,0 0.0995,-3.58262 c 0,-1.0947 0.19903,-1.19422 0.49758,-1.19422 0.4976,0 0.59712,0.19904 0.59712,1.09469 l 0,23.28708 c 0,3.78167 -1.0947,5.77201 -3.78167,5.77201 -2.48791,0 -3.58263,-1.39324 -3.58263,-5.77201 l 0,-21.99336 c 0,-1.89082 0.19904,-2.48792 0.89566,-2.48792 0.49758,0 0.69663,0.29855 0.69663,1.1942 l 0,3.28408 0.69661,0 1.39325,-8.45898 c -0.99518,0 -2.88601,-0.89566 -3.28407,-1.49276 -0.79615,0.49758 -2.58746,0.99516 -4.27925,0.99516 -0.89566,0 -1.69181,-0.0995 -2.48794,-0.29855 -0.69663,-0.19903 -1.29373,-0.49758 -1.79131,-0.69661 -0.29856,0.49758 -1.79133,1.29373 -2.68697,1.29373 l 0.69661,8.55849 0.89566,0 0,-2.78648 c 0,-0.89567 0.0995,-1.39325 0.5971,-1.39325 0.39808,0 0.4976,0.19903 0.4976,1.59228 l 0,19.30638 c 0,6.46863 -0.79615,8.25994 -1.59229,9.05608 0.69663,0.5971 1.19421,1.49277 1.19421,2.38843 0,0.79613 -0.39807,1.39324 -1.19421,1.99034 0.99518,0.99518 1.59229,3.18455 1.59229,8.25995 l 0,20.20203 c 0,1.0947 -0.0995,1.59229 -0.59711,1.59229 -0.49759,0 -0.69662,-0.39808 -0.69662,-1.49277 l 0,-3.28407 -0.79614,0 -0.89565,8.95656 c 1.09468,0 3.18455,1.29373 3.4831,2.08987 0.5971,-0.5971 1.89083,-0.99517 3.88118,-0.99517 0.99517,0 1.89083,0.0995 2.58746,0.29855 0.79613,0.19904 1.39324,0.49759 1.79131,0.69662 0.0995,-0.69662 1.69179,-1.89082 2.58745,-1.89082 l -0.99517,-8.85706 -0.69663,0 0,3.08505 c 0,0.89565 -0.29855,1.29371 -0.69662,1.29371 -0.39806,0 -0.79614,-0.29855 -0.79614,-1.49276 l 0,-22.68997"
       style="font-size:40px;font-style:normal;font-variant:normal;font-weight:500;font-stretch:normal;text-align:center;line-height:125%;letter-spacing:0px;word-spacing:0px;text-anchor:middle;fill:#434246;fill-opacity:1;stroke:none;font-family:Mesquite Std;-inkscape-font-specification:Mesquite Std Medium"
       id="path3040" />
    <path
       inkscape:connector-curvature="0"
       d="m 284.74197,273.13179 c 0,-5.57298 0,-6.86671 1.59228,-6.86671 0.59711,0 1.39324,0.5971 1.39324,1.49277 0,0.79614 -0.0995,1.29372 -0.39807,1.89082 -0.29855,0.69663 -0.59711,1.59228 -0.59711,2.58746 0,1.79131 1.29373,2.78649 2.48794,2.58745 -0.39807,-0.49758 -0.5971,-1.09469 -0.5971,-1.69179 0,-0.69663 0.5971,-1.29373 1.89083,-2.48794 0.69663,-0.79614 1.19421,-1.59228 1.19421,-2.78649 0,-1.39324 -0.69663,-2.38842 -1.69179,-3.18455 l 2.28889,-1.6918 -2.18938,-1.89084 c 1.0947,-0.69661 1.59228,-1.69179 1.59228,-2.78648 0,-0.99517 -0.69663,-2.18938 -1.19421,-2.68698 -0.99518,-0.99516 -1.39325,-1.59227 -1.39325,-2.18937 0,-0.59711 0.0995,-1.0947 0.39807,-1.59228 -0.89565,-0.0995 -2.58744,1.09468 -2.58744,2.68697 0,0.79613 0.19903,1.59228 0.39806,2.18938 0.19904,0.49758 0.39807,0.79614 0.39807,1.59228 0,0.59711 -0.49758,1.49276 -1.19421,1.49276 -1.09469,0 -1.79131,-0.39807 -1.79131,-4.77684 l 0,-19.80396 c 0,-3.9807 0.99518,-5.0754 2.68697,-5.0754 1.89083,0 2.68697,1.49276 2.68697,4.97588 l 0,6.07056 c 0,3.28407 -0.29855,4.5778 -0.99518,5.47346 2.78649,1.19421 3.48312,2.68697 3.48312,8.16043 l 0.79613,0 c 0,-5.67249 0.49759,-6.96622 3.28407,-8.16043 -0.59709,-1.09469 -0.69661,-2.78649 -0.69661,-5.37394 l 0,-9.55368 c 0,-2.886 0.29855,-4.27925 0.89566,-4.77683 -0.99518,-0.0995 -2.28891,-0.99518 -2.58746,-1.79131 -0.69662,0.49758 -1.69179,0.99516 -2.38842,0.99516 -1.19421,0 -1.99034,-0.39806 -2.78649,-0.5971 -0.79614,-0.19903 -1.59227,-0.39806 -2.78648,-0.39806 -0.69662,0 -1.39325,0.0995 -2.28891,0.39806 -0.89565,0.29855 -1.99034,0.5971 -3.58262,0.5971 -0.79614,0 -1.69179,-0.0995 -2.38842,-0.29855 -0.69662,-0.19903 -1.19421,-0.39806 -1.59228,-0.69661 -0.69662,0.99516 -1.79131,1.69179 -3.08504,1.79131 l 0.89566,8.5585 0.79614,0 0,-3.28407 c 0.0995,-0.79615 0.29855,-1.0947 0.79614,-1.0947 0.39807,0 0.49758,0.29855 0.49758,1.0947 l 0,20.6001 c 0,4.57781 -0.89566,7.06573 -1.79131,7.96139 0.69662,0.5971 1.19421,1.39325 1.19421,1.99035 0,0.69663 -0.49759,1.59229 -1.19421,1.99035 0.69662,0.99518 1.79131,3.38359 1.79131,9.85223 l 0,19.10734 c 0,1.09469 -0.19903,1.49277 -0.69661,1.49277 -0.4976,0 -0.59711,-0.39808 -0.59711,-1.59229 l 0,-3.18455 -0.89566,0 -0.89565,8.95656 c 0.99517,0.19905 2.58745,1.19421 2.98552,2.08987 0.69661,-0.69662 1.59227,-0.99517 2.48794,-0.99517 1.19421,0 2.38841,0.19903 3.38358,0.39807 0.99518,0.19904 1.99036,0.5971 3.18456,0.5971 1.49276,0 2.2889,-0.29855 3.08505,-0.49758 0.69661,-0.19904 1.49276,-0.49759 2.78649,-0.49759 0.5971,0 1.09468,0.0995 1.59227,0.19903 0.49759,0.0995 0.89565,0.29856 1.39325,0.49759 0.29855,-0.59711 1.89083,-1.49276 2.68697,-1.69179 -0.69663,-0.79614 -0.89566,-1.39324 -0.89566,-6.2696 l 0,-8.85705 c 0,-2.48794 0.39807,-4.37877 1.09469,-5.27443 -2.78649,-1.29373 -3.48311,-1.79131 -3.48311,-8.35946 l -0.69662,0 c 0,6.17007 -0.79614,7.06573 -3.48312,8.16043 0.59712,1.19421 0.69663,3.18455 0.69663,5.47346 l 0,7.16525 c 0,4.37877 -0.59711,5.0754 -2.48794,5.0754 -2.08986,0 -2.886,-0.69663 -2.886,-3.08505 l 0,-20.40107"
       style="font-size:40px;font-style:normal;font-variant:normal;font-weight:500;font-stretch:normal;text-align:center;line-height:125%;letter-spacing:0px;word-spacing:0px;text-anchor:middle;fill:#0a0b0f;fill-opacity:1;stroke:none;font-family:Mesquite Std;-inkscape-font-specification:Mesquite Std Medium"
       id="path3042" />
    <path
       inkscape:connector-curvature="0"
       d="m 322.55392,291.54251 c 0,3.48311 -0.49759,4.67732 -2.08988,4.67732 -1.99034,0 -2.48792,-0.89565 -2.48792,-4.67732 l 0,-6.56815 c 0,-2.58746 0.0995,-4.08022 0.79613,-4.87635 -2.88598,-0.99518 -3.68214,-2.58746 -3.68214,-8.16043 l -0.69663,0 c 0,6.07056 -1.09469,6.8667 -3.58262,8.16043 0.49759,0.89565 0.69662,1.79131 0.69662,4.27925 l 0,6.56814 c 0,7.66285 2.68699,9.65319 6.76719,10.54885 0.49758,-0.49758 1.49276,-0.99517 2.78648,-0.99517 0.69662,0 1.29373,0.0995 1.79132,0.19903 0.49758,0.19904 0.89566,0.39808 1.09469,0.79614 4.87635,-0.99517 6.46864,-5.27442 6.46864,-11.34498 l 0,-22.59046 c 0,-9.25512 -3.3836,-11.4445 -7.66285,-11.4445 -2.28891,0 -3.48311,0.69662 -5.07539,1.69179 l 0,-19.20687 c 0,-4.08021 0.19904,-5.07538 3.08505,-5.07538 3.18455,0 3.38358,0.99517 3.38358,5.07538 l 0,3.18457 c 0,3.28407 -0.39806,4.47828 -1.09469,5.37393 2.68697,0.99518 3.3836,2.28891 3.3836,7.56333 l 0.69661,0 c 0,-5.27442 0.79617,-6.56815 3.48312,-7.56333 -0.59711,-1.09468 -0.69663,-2.78649 -0.69663,-5.37393 l 0,-10.05127 c 0,-2.78649 0.29855,-4.17973 0.89566,-4.77683 -0.99517,0 -2.2889,-0.89566 -2.58745,-1.79131 -0.5971,0.49758 -1.39325,0.99516 -2.48794,0.99516 -0.99518,0 -1.59228,-0.29855 -2.28889,-0.5971 -0.69663,-0.29855 -1.39325,-0.39806 -2.58746,-0.39806 -1.29373,0 -2.08987,0.0995 -2.78649,0.39806 -0.79614,0.29855 -1.39324,0.5971 -2.2889,0.5971 -0.79613,0 -1.59228,-0.0995 -2.28891,-0.19903 -0.69661,-0.19903 -1.1942,-0.49758 -1.59227,-0.79613 l -0.5971,0.49758 c 0.5971,0.99518 0.69661,2.48794 0.69661,9.55368 l 0,30.05426 c 0.89566,0 2.08987,0.69662 2.48794,1.69179 0.79615,-1.99034 2.98552,-3.88117 4.97588,-3.88117 2.78649,0 3.08504,1.29373 3.08504,7.26477 l 0,21.19721"
       style="font-size:40px;font-style:normal;font-variant:normal;font-weight:500;font-stretch:normal;text-align:center;line-height:125%;letter-spacing:0px;word-spacing:0px;text-anchor:middle;fill:#a9b9c1;fill-opacity:1;stroke:none;font-family:Mesquite Std;-inkscape-font-specification:Mesquite Std Medium"
       id="path3044" />
    <path
       inkscape:connector-curvature="0"
       d="m 349.29923,272.53468 c 0,-4.47829 0.5971,-6.46863 1.49276,-7.06574 -0.69663,-0.29855 -1.0947,-1.09468 -1.0947,-1.89083 0,-0.69661 0.49759,-1.59227 1.0947,-1.89082 -0.59711,-0.59712 -1.49276,-2.58746 -1.49276,-7.06574 l 0,-22.09287 c 0,-1.79132 0.49758,-2.28891 1.39324,-2.28891 0.99517,0 1.59228,0.49759 1.59228,2.28891 l 0,9.15559 c 0,3.78167 -0.29855,4.37878 -0.89566,5.37395 2.78649,1.09469 3.48311,2.38842 3.48311,8.35946 l 0.69662,0 c 0,-5.27443 0.59714,-7.16525 3.3836,-8.35946 -0.49759,-0.49759 -1.19421,-1.99035 -1.19421,-5.37395 l 0,-14.72857 c -0.99518,0 -2.38842,-0.89566 -2.88601,-1.79131 -0.49759,0.5971 -1.6918,0.99516 -2.68697,0.99516 -0.49759,0 -0.99517,-0.0995 -1.49276,-0.29855 -0.39808,-0.19903 -0.79614,-0.49758 -1.09469,-0.69661 -0.69663,0.5971 -2.38842,0.99516 -4.67732,0.99516 -0.89566,0 -1.79132,-0.0995 -2.48794,-0.29855 -0.69662,-0.19903 -1.29372,-0.39806 -1.69179,-0.69661 -0.49759,0.49758 -1.59229,0.99516 -2.58746,0.99516 -0.49759,0 -0.99517,-0.0995 -1.49276,-0.29855 -0.49759,-0.19903 -0.89566,-0.39806 -1.19421,-0.69661 -0.49759,0.89565 -1.89082,1.79131 -2.886,1.79131 l 0,14.72857 c 0,3.3836 -0.69663,4.87636 -1.19421,5.37395 2.78649,1.19421 3.38359,3.08503 3.38359,8.35946 l 0.69662,0 c 0,-5.97104 0.69664,-7.26477 3.48311,-8.35946 -0.5971,-0.99517 -0.89565,-1.59228 -0.89565,-5.37395 l 0,-9.15559 c 0,-1.79132 0.5971,-2.28891 1.59228,-2.28891 0.89564,0 1.39324,0.49759 1.39324,2.28891 l 0,22.09287 c 0,4.47828 -0.79614,6.26959 -1.69179,7.16525 0.69661,0.49759 1.09468,1.29373 1.09468,1.99035 0,0.69662 -0.39807,1.49276 -0.99517,1.89083 0.89565,0.79614 1.59228,3.08504 1.59228,6.8667 l 0,21.89384 c 0,0.49758 0,1.09469 -0.39807,1.09469 -0.39807,0 -0.69662,-0.29855 -0.69662,-1.09469 l 0,-2.58746 -0.79615,0 -1.1942,7.86188 c 0.99517,0 2.98552,0.89565 3.38359,1.79131 0.79614,-0.69662 2.58745,-0.99517 3.88118,-0.99517 0.69662,0 1.59228,0.0995 2.2889,0.19903 0.79614,0.19904 1.59228,0.39808 1.99035,0.79614 0.49758,-0.89566 1.89083,-1.89082 2.88601,-1.89082 l -0.69663,-7.9614 -0.89565,0 0,2.68697 c 0,0.5971 -0.0995,1.09469 -0.59711,1.09469 -0.49759,0 -0.89565,-0.29856 -0.89565,-1.19421 l 0,-21.6948"
       style="font-size:40px;font-style:normal;font-variant:normal;font-weight:500;font-stretch:normal;text-align:center;line-height:125%;letter-spacing:0px;word-spacing:0px;text-anchor:middle;fill:#7ab347;fill-opacity:1;stroke:none;font-family:Mesquite Std;-inkscape-font-specification:Mesquite Std Medium"
       id="path3046" />
    <path
       inkscape:connector-curvature="0"
       d="m 370.06572,270.9424 c 0,-4.77683 1.39324,-5.77201 3.58263,-5.77201 1.89083,0 3.78167,0.79614 3.78167,5.77201 l 0,23.08805 c 0,1.39324 -0.29855,1.49276 -0.69663,1.49276 -0.29855,0 -0.5971,-0.0995 -0.5971,-1.49276 l 0,-3.18457 -0.69663,0 -1.29372,8.75755 c 1.09469,0 3.08505,1.09468 3.3836,1.89082 0.59709,-0.5971 2.08986,-0.99517 3.78165,-0.99517 0.89566,0 1.69181,0.0995 2.38842,0.29855 0.79615,0.0995 1.39325,0.39807 1.79131,0.69662 0.39808,-0.99517 2.18939,-1.89082 3.08505,-1.89082 l -0.89566,-8.5585 -0.79614,0 0,2.98552 c 0,1.29373 -0.19904,1.59228 -0.5971,1.59228 -0.39807,0 -0.69662,-0.19904 -0.69662,-1.59228 l 0,-20.60011 c 0,-5.67249 0.99517,-7.36429 2.08986,-8.06092 -0.69662,-0.29855 -1.09469,-1.19421 -1.09469,-2.08986 0,-0.79614 0.29855,-1.59227 1.09469,-2.18939 -1.39324,-0.79613 -2.08986,-2.18937 -2.08986,-9.35463 l 0,-19.80396 c 0,-0.89567 0.19903,-1.0947 0.49758,-1.0947 0.29855,0 0.49759,0.19903 0.49759,1.0947 l 0,3.28407 0.89566,0 0.79613,-8.25995 c -0.89565,0 -2.28889,-0.99518 -2.68696,-1.79131 -0.69663,0.5971 -1.99036,0.99516 -4.08022,0.99516 -0.99517,0 -1.89083,-0.19903 -2.48793,-0.39806 -0.59712,-0.19904 -0.99518,-0.39807 -1.29373,-0.5971 -0.29855,0.49758 -1.79131,1.39324 -2.88601,1.39324 l 0.5971,8.95657 0.79615,0 0.0995,-3.58262 c 0,-1.0947 0.19904,-1.19422 0.49759,-1.19422 0.49759,0 0.59711,0.19904 0.59711,1.09469 l 0,23.28708 c 0,3.78167 -1.0947,5.77201 -3.78167,5.77201 -2.48794,0 -3.58263,-1.39324 -3.58263,-5.77201 l 0,-21.99336 c 0,-1.89082 0.19904,-2.48792 0.89566,-2.48792 0.49758,0 0.69663,0.29855 0.69663,1.1942 l 0,3.28408 0.69661,0 1.39325,-8.45898 c -0.99518,0 -2.88601,-0.89566 -3.28407,-1.49276 -0.79615,0.49758 -2.58746,0.99516 -4.27925,0.99516 -0.89566,0 -1.6918,-0.0995 -2.48794,-0.29855 -0.69663,-0.19903 -1.29373,-0.49758 -1.79131,-0.69661 -0.29856,0.49758 -1.79132,1.29373 -2.68697,1.29373 l 0.69661,8.55849 0.89566,0 0,-2.78648 c 0,-0.89567 0.0995,-1.39325 0.5971,-1.39325 0.39808,0 0.4976,0.19903 0.4976,1.59228 l 0,19.30638 c 0,6.46863 -0.79615,8.25994 -1.59228,9.05608 0.69662,0.5971 1.1942,1.49277 1.1942,2.38843 0,0.79613 -0.39807,1.39324 -1.1942,1.99034 0.99517,0.99518 1.59228,3.18455 1.59228,8.25995 l 0,20.20203 c 0,1.0947 -0.0995,1.59229 -0.59711,1.59229 -0.49759,0 -0.69662,-0.39808 -0.69662,-1.49277 l 0,-3.28407 -0.79614,0 -0.89565,8.95656 c 1.09468,0 3.18455,1.29373 3.4831,2.08987 0.5971,-0.5971 1.89083,-0.99517 3.88118,-0.99517 0.99517,0 1.89083,0.0995 2.58746,0.29855 0.79613,0.19904 1.39324,0.49759 1.79131,0.69662 0.0995,-0.69662 1.69179,-1.89082 2.58745,-1.89082 l -0.99517,-8.85706 -0.69662,0 0,3.08505 c 0,0.89565 -0.29856,1.29371 -0.69663,1.29371 -0.39806,0 -0.79614,-0.29855 -0.79614,-1.49276 l 0,-22.68997"
       style="font-size:40px;font-style:normal;font-variant:normal;font-weight:500;font-stretch:normal;text-align:center;line-height:125%;letter-spacing:0px;word-spacing:0px;text-anchor:middle;fill:#232105;fill-opacity:1;stroke:none;font-family:Mesquite Std;-inkscape-font-specification:Mesquite Std Medium"
       id="path3048" />
    <path
       inkscape:connector-curvature="0"
       d="m 405.04143,253.72589 c 0,5.47346 -0.79615,6.56815 -1.79131,7.56332 0.79613,0.39808 1.29372,1.19421 1.29372,1.89084 0,0.69661 -0.49759,1.39324 -1.29372,1.89082 0.79613,0.99518 1.79131,2.58746 1.79131,6.66767 l 0,20.99818 c 0,5.87153 5.77203,8.85705 8.35946,8.75753 0.49758,-0.89566 1.59228,-0.99517 2.98552,-0.99517 0.69662,0 1.29373,0 1.89083,0.19903 0.49759,0.0995 0.89566,0.39808 1.19421,0.79614 2.58746,0.0995 8.25995,-3.18455 8.25995,-12.34016 l 0,-15.72375 c 0,-5.67249 0.79614,-7.86188 1.79131,-8.75753 -0.99517,-0.59711 -1.29373,-1.29373 -1.29373,-1.99036 0,-0.69661 0.4976,-1.69179 1.29373,-2.18938 -1.09468,-1.09469 -1.79131,-1.79131 -1.79131,-8.45898 l 0,-18.11217 c 0,-7.06574 -5.67249,-8.75753 -7.9614,-8.75753 -0.39807,0.5971 -1.69179,0.99516 -3.18455,0.99516 -0.69662,0 -1.49277,-0.0995 -2.08986,-0.29855 -0.4976,-0.19903 -0.99518,-0.39806 -1.19422,-0.69661 -4.27922,0 -8.25994,4.47828 -8.25994,9.95174 l 0,18.60976 m 8.55849,-20.30155 c 0,-2.48794 0.79615,-3.48312 2.88601,-3.48312 2.08987,0 2.68697,1.09469 2.68697,3.3836 l 0,19.70445 c 0,3.78166 -0.29855,6.66766 -1.69179,7.86187 0.79613,0.49758 1.29372,1.39325 1.29372,2.08987 0,0.69662 -0.59711,1.49276 -1.29372,1.99035 0.89565,0.89566 1.69179,2.2889 1.69179,8.85704 l 0,18.90832 c 0,2.98552 -0.99518,3.78166 -2.78649,3.78166 -1.89082,0 -2.78649,-0.99517 -2.78649,-3.78166 l 0,-18.41072 c 0,-4.87636 0.39807,-7.9614 1.59228,-9.05609 -0.89565,-0.69662 -1.29373,-1.49276 -1.29373,-2.2889 0,-0.79614 0.39808,-1.6918 1.29373,-2.18939 -0.79613,-0.79614 -1.59228,-2.08986 -1.59228,-7.86188 l 0,-19.5054"
       style="font-size:40px;font-style:normal;font-variant:normal;font-weight:500;font-stretch:normal;text-align:center;line-height:125%;letter-spacing:0px;word-spacing:0px;text-anchor:middle;fill:#c3ac8e;fill-opacity:1;stroke:none;font-family:Mesquite Std;-inkscape-font-specification:Mesquite Std Medium"
       id="path3050" />
    <path
       inkscape:connector-curvature="0"
       d="m 434.21092,254.62155 c 0,3.4831 -0.99516,5.47346 -1.69179,6.26959 0.59711,0.39807 1.19421,1.29373 1.19421,2.08987 0,0.79614 -0.5971,1.59228 -1.19421,1.99035 0.59711,0.5971 1.69179,2.48794 1.69179,6.8667 l 0,22.29191 c 0,0.99516 -0.0995,1.29372 -0.49758,1.29372 -0.39806,0 -0.69661,-0.29856 -0.69661,-1.19421 l 0,-3.18455 -0.79615,0 -0.89566,8.5585 c 0.99518,0 2.886,1.1942 3.28408,1.89082 0.99517,-0.69662 2.78649,-0.99517 4.08022,-0.99517 0.5971,0 1.49276,0.0995 2.28889,0.29855 0.79615,0.0995 1.59228,0.39807 2.08987,0.69662 0.19904,-0.79614 1.89083,-1.89082 2.68698,-1.89082 l -0.89567,-8.25995 -0.69662,0 0,3.08504 c 0,0.79614 -0.19904,1.09469 -0.69662,1.09469 -0.49758,0 -0.89566,-0.39808 -0.89566,-1.19421 l 0,-24.68033 c 0,-2.48792 0.49759,-3.4831 1.69181,-3.4831 0.99516,0 1.49276,0.69661 1.49276,1.29373 0,0.69661 -0.19905,1.49276 -0.69663,2.18937 -0.49758,0.69663 -0.5971,1.59228 -0.5971,2.18939 0,1.99034 1.49276,2.78649 2.68697,2.88601 -0.29856,-0.49759 -0.69663,-0.99518 -0.69663,-1.79131 0,-0.69663 0.19904,-1.19422 1.19421,-2.08988 0.69662,-0.69661 1.79131,-1.99034 1.79131,-3.08503 0,-1.19422 -0.69661,-1.89083 -1.69179,-2.48794 l 2.48794,-1.99035 -2.48794,-1.79131 c 0.89566,-0.89566 1.69179,-2.18939 1.69179,-3.08505 0,-0.89565 -0.99516,-2.18937 -1.69179,-2.98552 -0.89566,-0.89565 -1.19421,-1.49276 -1.19421,-1.89083 0,-0.49758 0.0995,-0.99517 0.49759,-1.39324 -1.49277,0 -2.18939,1.19421 -2.18939,2.28891 0,1.09468 0.19904,2.18937 0.49759,2.78647 0.19903,0.59711 0.39808,1.0947 0.39808,1.59229 0,0.69662 -0.59712,1.1942 -1.49276,1.1942 -1.0947,0 -1.69181,-0.79613 -1.69181,-4.27925 l 0,-20.79913 c 0,-3.68215 0.69663,-4.27925 2.68697,-4.27925 1.99036,0 2.78649,0.5971 2.78649,4.27925 l 0,8.45898 c 0,1.99034 -0.29855,2.886 -1.09469,3.68214 2.68697,0.89566 3.58263,2.2889 3.58263,7.56333 l 0.79614,0 c 0,-5.27443 0.69662,-6.66767 3.48311,-7.66285 -0.89566,-0.79613 -0.99518,-1.69179 -0.99518,-3.58262 l 0,-7.66285 c 0,-4.5778 0.39808,-7.16525 1.19421,-8.16043 -1.09469,-0.0995 -1.99034,-0.89565 -2.18938,-1.79131 -0.49759,0.39806 -1.89084,0.79614 -2.886,0.79614 -1.19421,0 -1.99036,-0.29856 -2.78649,-0.59711 -0.79614,-0.29855 -1.69181,-0.79613 -2.78649,-0.79613 -1.09469,0 -2.08987,0.39806 -2.78649,0.69661 -0.79614,0.19904 -1.49276,0.29855 -2.98552,0.29855 -0.99518,0 -1.79132,0 -2.38842,-0.19903 -0.59711,-0.0995 -1.09469,-0.39807 -1.49276,-0.79613 -0.19903,1.19421 -2.08987,2.08986 -3.18457,1.99034 l 0.59711,8.45898 0.89567,0 0,-2.78649 c 0,-0.99517 0.19903,-1.39324 0.69661,-1.39324 0.39807,0 0.49758,0.19903 0.49758,1.29373 l 0,21.89384"
       style="font-size:40px;font-style:normal;font-variant:normal;font-weight:500;font-stretch:normal;text-align:center;line-height:125%;letter-spacing:0px;word-spacing:0px;text-anchor:middle;fill:#862471;fill-opacity:1;stroke:none;font-family:Mesquite Std;-inkscape-font-specification:Mesquite Std Medium"
       id="path3052" />
    <path
       inkscape:connector-curvature="0"
       d="m 483.77526,293.83142 c 0,1.59227 -0.19904,2.08986 -0.69662,2.08986 -0.39807,0 -0.79614,-0.19904 -0.79614,-0.99518 l 0,-3.58262 -0.69662,0 -0.89566,8.35946 c 1.09469,0 2.48794,0.79614 2.98552,1.79131 0.4976,-0.69662 1.49276,-0.99517 2.48794,-0.99517 0.49758,0 1.09469,0.0995 1.59228,0.29855 0.49759,0.0995 0.89566,0.39807 1.09469,0.69662 0.5971,-0.99517 2.28891,-1.69179 3.58263,-1.69179 l -0.79614,-8.45898 -0.69662,0 0,3.08504 c 0,1.19421 -0.39808,1.49276 -0.69663,1.49276 -0.39806,0 -0.79614,-0.19904 -0.79614,-1.49276 l 0,-20.89867 c 0,-4.77683 0.39808,-7.06573 1.09469,-8.06091 -0.69661,-0.49758 -1.09469,-1.39324 -1.09469,-2.08986 0,-0.79615 0.39808,-1.59228 1.09469,-2.18939 -0.59709,-0.5971 -1.09469,-2.58745 -1.09469,-5.37394 l 0,-9.25512 0.4976,0 1.29372,9.25512 c 0.29855,1.79132 0.39807,4.27926 -0.0995,5.27442 0.99516,0.89567 1.09468,1.49276 1.09468,2.28891 0.0995,0.69662 -0.19903,1.59228 -0.69662,2.08986 0.89567,0.79614 1.89083,2.98552 2.58746,7.06574 l 4.37877,27.46681 c 1.19421,0 2.78648,0.39807 3.58262,1.49276 0.69662,-1.09469 2.58745,-1.69179 3.68215,-1.69179 l 0.29855,-23.88418 c 0.0995,-5.57298 1.09469,-9.75271 1.99035,-10.44934 -0.89566,-0.49758 -1.39324,-1.39324 -1.39324,-2.08986 0,-0.69663 0.0995,-1.39324 1.19421,-2.18939 -0.69663,-0.69662 -1.79132,-2.78649 -1.79132,-7.86187 l 0,-20.20205 c 0,-1.59227 0.19903,-1.89082 0.69662,-1.89082 0.49759,0 0.79614,0.29855 0.79614,1.29373 l 0,2.68697 0.69662,0 0.79614,-8.5585 c -1.09469,0 -2.38841,-0.79615 -2.58745,-1.49276 -0.59711,0.39806 -1.79132,0.99516 -2.98553,0.99516 -0.49758,0 -1.09468,-0.19903 -1.59228,-0.39806 -0.49758,-0.19904 -0.89565,-0.49759 -1.19421,-0.5971 -0.39806,0.5971 -1.99034,1.49276 -3.28407,1.49276 l 0.89566,8.75753 0.79613,0 0,-2.58746 c 0,-1.29372 0.4976,-1.69179 0.79615,-1.69179 0.39807,0 0.79613,0.0995 0.79613,1.19421 l 0,28.86005 -0.49758,0 -6.66767,-34.53254 c -1.1942,0.19903 -2.78649,-0.69663 -3.28407,-1.49276 -0.79615,0.39806 -1.79131,0.99516 -3.08504,0.99516 -0.59711,0 -1.19421,-0.19903 -1.6918,-0.39806 -0.49759,-0.19904 -0.89566,-0.39807 -1.39324,-0.5971 -0.69663,0.79613 -2.08987,1.39324 -3.48312,1.39324 l 0.99518,8.75753 0.69662,0 0,-2.98552 c 0,-0.99518 0.29856,-1.39324 0.79614,-1.39324 0.5971,0 0.69662,0.19903 0.69662,1.69179 l 0,20.60011 c 0,5.77201 -0.5971,6.96622 -1.69179,7.96139 0.69662,0.69663 1.09469,1.59228 1.09469,2.28891 0,0.69661 -0.39807,1.49276 -1.09469,1.99034 0.89566,0.89566 1.69179,2.48794 1.69179,7.66285 l 0,20.69963"
       style="font-size:40px;font-style:normal;font-variant:normal;font-weight:500;font-stretch:normal;text-align:center;line-height:125%;letter-spacing:0px;word-spacing:0px;text-anchor:middle;fill:#658971;fill-opacity:1;stroke:none;font-family:Mesquite Std;-inkscape-font-specification:Mesquite Std Medium"
       id="path3054" />
    <path
       inkscape:connector-curvature="0"
       d="m 512.33366,253.72589 c 0,5.47346 -0.79615,6.56815 -1.79131,7.56332 0.79613,0.39808 1.29371,1.19421 1.29371,1.89084 0,0.69661 -0.49758,1.39324 -1.29371,1.89082 0.79613,0.99518 1.79131,2.58746 1.79131,6.66767 l 0,20.99818 c 0,5.87153 5.77203,8.85705 8.35946,8.75753 0.49758,-0.89566 1.59228,-0.99517 2.98552,-0.99517 0.69662,0 1.29373,0 1.89083,0.19903 0.4976,0.0995 0.89566,0.39808 1.19421,0.79614 2.58746,0.0995 8.25995,-3.18455 8.25995,-12.34016 l 0,-15.72375 c 0,-5.67249 0.79614,-7.86188 1.79131,-8.75753 -0.99517,-0.59711 -1.29373,-1.29373 -1.29373,-1.99036 0,-0.69661 0.4976,-1.69179 1.29373,-2.18938 -1.09469,-1.09469 -1.79131,-1.79131 -1.79131,-8.45898 l 0,-18.11217 c 0,-7.06574 -5.67249,-8.75753 -7.9614,-8.75753 -0.39807,0.5971 -1.69179,0.99516 -3.18455,0.99516 -0.69662,0 -1.49276,-0.0995 -2.08986,-0.29855 -0.4976,-0.19903 -0.99518,-0.39806 -1.19421,-0.69661 -4.27923,0 -8.25995,4.47828 -8.25995,9.95174 l 0,18.60976 m 8.5585,-20.30155 c 0,-2.48794 0.79613,-3.48312 2.886,-3.48312 2.08986,0 2.68697,1.09469 2.68697,3.3836 l 0,19.70445 c 0,3.78166 -0.29855,6.66766 -1.69179,7.86187 0.79613,0.49758 1.29373,1.39325 1.29373,2.08987 0,0.69662 -0.59712,1.49276 -1.29373,1.99035 0.89565,0.89566 1.69179,2.2889 1.69179,8.85704 l 0,18.90832 c 0,2.98552 -0.99518,3.78166 -2.78649,3.78166 -1.89082,0 -2.78648,-0.99517 -2.78648,-3.78166 l 0,-18.41072 c 0,-4.87636 0.39806,-7.9614 1.59227,-9.05609 -0.89566,-0.69662 -1.29373,-1.49276 -1.29373,-2.2889 0,-0.79614 0.39807,-1.6918 1.29373,-2.18939 -0.79614,-0.79614 -1.59227,-2.08986 -1.59227,-7.86188 l 0,-19.5054"
       style="font-size:40px;font-style:normal;font-variant:normal;font-weight:500;font-stretch:normal;text-align:center;line-height:125%;letter-spacing:0px;word-spacing:0px;text-anchor:middle;fill:#a65c17;fill-opacity:1;stroke:none;font-family:Mesquite Std;-inkscape-font-specification:Mesquite Std Medium"
       id="path3056" />
    <path
       inkscape:connector-curvature="0"
       d="m 544.03775,299.50391 c 0.69661,0 1.89082,1.09468 2.18937,1.99034 0.59712,-0.69662 1.49277,-0.99517 2.98553,-0.99517 0.79614,0 1.49276,0.0995 1.99035,0.19903 0.5971,0.19904 0.99517,0.39808 1.29373,0.79614 0.29855,-0.99517 1.49276,-2.08987 2.28889,-2.08987 l 2.68697,-27.66584 c 0.39808,-4.27924 1.39325,-5.77201 2.28891,-6.36912 -0.89566,-0.49758 -1.49276,-1.39324 -1.49276,-2.18937 0,-0.79615 0.5971,-1.49276 1.29373,-1.99036 -0.69663,-0.79613 -0.99518,-2.68697 -0.59712,-7.06574 l 1.79133,-21.59527 c 0.0995,-0.69663 0.19903,-0.99518 0.49758,-0.99518 0.29855,0 0.49758,0.29855 0.49758,0.99518 l 0,3.08503 0.89566,0 1.0947,-8.65801 c -0.79615,0 -2.28891,-0.69663 -2.78649,-1.79131 -0.59711,0.69661 -1.89084,0.99516 -3.08504,0.99516 -0.59711,0 -1.19421,-0.0995 -1.79132,-0.29855 -0.5971,-0.19903 -1.09469,-0.39806 -1.39324,-0.69661 -0.39807,0.99516 -1.79131,1.69179 -2.68698,1.69179 l 0,8.95657 0.99518,0 0.39807,-3.18456 c 0.0995,-0.89566 0.39808,-1.19421 0.69663,-1.19421 0.5971,0 0.5971,0.59711 0.49758,1.79131 l -1.79131,22.09287 c -0.19903,2.28891 -0.69663,4.47829 -1.49276,5.6725 0.49758,0.69663 0.89565,1.49276 0.89565,2.2889 0,0.79614 -0.29855,1.39325 -0.99517,2.08986 0.29855,0.4976 0.5971,1.39325 0.49758,3.78167 l -0.39806,9.95174 -0.69663,0 -0.39807,-9.75271 c -0.0995,-1.99034 0.19904,-3.38359 0.69663,-3.9807 -0.59711,-0.49758 -1.09469,-1.39324 -1.09469,-2.08986 0,-0.69663 0.49758,-1.69179 1.19421,-2.2889 -0.99518,-0.99518 -1.89084,-3.08504 -2.08987,-8.06092 l -0.99518,-20.003 c 0,-0.89565 0.0995,-1.29373 0.29856,-1.29373 0.29855,0 0.49758,0.29857 0.5971,1.29373 l 0.29855,2.88601 0.79614,0 0,-8.95657 c -1.49276,0 -2.48793,-0.69663 -2.886,-1.69179 -0.59711,0.69661 -2.48794,0.99516 -4.17973,0.99516 -0.89566,0 -1.6918,-0.0995 -2.48794,-0.29855 -0.69662,-0.19903 -1.19421,-0.39806 -1.59228,-0.69661 -0.29855,0.89565 -1.59228,1.99034 -2.886,1.99034 l 1.49276,8.75753 0.79614,0 0,-3.68213 c 0,-0.4976 0.29855,-0.79615 0.5971,-0.79615 0.39807,0 0.69662,0.19903 0.79613,1.69179 l 1.39325,23.78467 c 0.19904,2.88601 -0.49759,3.9807 -1.29372,4.87636 0.79613,0.49759 1.1942,0.99517 1.1942,1.6918 0,0.69661 -0.39807,1.49276 -0.99516,1.89082 0.99516,0.99518 2.08986,2.08988 2.68697,11.04644 l 1.49276,23.08805"
       style="font-size:40px;font-style:normal;font-variant:normal;font-weight:500;font-stretch:normal;text-align:center;line-height:125%;letter-spacing:0px;word-spacing:0px;text-anchor:middle;fill:#4d0b05;fill-opacity:1;stroke:none;font-family:Mesquite Std;-inkscape-font-specification:Mesquite Std Medium"
       id="path3058" />
    <path
       inkscape:connector-curvature="0"
       d="m 562.07371,299.70294 c 0.79614,0.19904 1.59228,0.99517 1.79131,1.79131 0.39807,-0.5971 1.39325,-0.99517 2.58746,-0.99517 0.5971,0 1.19421,0.0995 1.59228,0.29855 0.49758,0.0995 0.79614,0.39807 0.99517,0.69662 0.49759,-0.79614 1.09469,-1.59227 1.89083,-1.79131 l 0,-8.85706 c -0.79614,-0.19903 -1.59228,-0.99516 -1.89083,-1.79131 -0.39807,0.39807 -1.39324,0.79615 -2.58745,0.79615 -1.19421,0 -2.18939,-0.39808 -2.58746,-0.79615 -0.19903,0.59712 -0.99517,1.59228 -1.79131,1.79131 l 0,8.85706"
       style="font-size:40px;font-style:normal;font-variant:normal;font-weight:500;font-stretch:normal;text-align:center;line-height:125%;letter-spacing:0px;word-spacing:0px;text-anchor:middle;fill:#cbc8c9;fill-opacity:1;stroke:none;font-family:Mesquite Std;-inkscape-font-specification:Mesquite Std Medium"
       id="path3060" />
    <path
       inkscape:connector-curvature="0"
       id="path9217"
       d="m -32.536895,335.53665 c -5.735784,-5.86986 -19.427174,-57.24279 -19.427174,-72.89484 0,-7.01199 2.101675,-16.78094 5.457503,-25.36666 3.536805,-9.04903 3.445552,-11.68284 -0.684547,-19.75768 -4.334253,-8.47388 -9.49562,-13.35932 -16.981404,-16.07358 -2.906339,-1.05381 -5.28425,-2.14344 -5.28425,-2.42141 0,-1.09593 15.585629,-1.48604 44.460611,-1.11288 16.6362861,0.215 30.8116413,0.5921 31.5008539,0.83797 0.9456261,0.33737 0.1973756,0.93567 -3.0495607,2.43833 -9.0200384,4.17445 -17.3759362,15.60235 -18.0477282,24.68294 -0.302624,4.09082 0.02915,5.64305 3.070113,14.37397 6.8206959,19.58086 6.0231751,32.81861 -4.005681,66.4902 -7.321934,24.58325 -12.524118,33.39304 -17.008736,28.80364 z m 7.143872,-130.34667 c 0.599927,-0.89905 -2.272519,-1.59152 -6.601818,-1.59152 -3.953057,0 -5.688697,0.55217 -4.996425,1.58957 0.546064,0.81833 11.052253,0.8201 11.598243,0.002 z m -65.000105,89.97773 c -12.860122,-12.26322 -68.605132,-76.06863 -87.794622,-100.48925 -35.00807,-44.55152 -47.15099,-70.44786 -51.59319,-110.029472 -1.34744,-12.006451 -4.3911,-54.394312 -6.17995,-86.0659979 -4.71872,-83.5461751 -4.7355,-155.6622501 -0.0409,-174.3679401 0.54161,-2.15794 1.50933,-4.66502 2.15051,-5.57129 1.91786,-2.71084 7.76122,-5.61865 16.07061,-7.99715 6.64723,-1.90273 31.06602,-6.82398 48.46936,-9.7683 2.2048,-0.37301 11.71647,-2.02676 21.13701,-3.675 9.42055,-1.64824 18.35822,-3.19773 19.86157,-3.44333 2.3315,-0.38088 3.01408,-0.18648 4.6433,1.32242 1.77355,1.64254 1.87514,2.05478 1.42129,5.76981 -0.56138,4.59545 -2.23543,10.78744 -6.28214,23.23619 -7.03731,21.64874 -8.03543,35.17445 -3.61093,48.93381 1.10743,3.44387 2.34015,5.49193 4.88068,8.10887 2.94184,3.03041 5.08564,4.25713 15.94081,9.12165 13.546415,6.07055 21.616817,10.489532 30.200773,16.536545 6.190452,4.360919 11.661805,9.578944 11.661805,11.12192 0,0.929823 -0.281777,0.928434 -2.733237,-0.01354 -1.50328,-0.577579 -6.5403,-3.161792 -11.193428,-5.742681 -23.715373,-13.154024 -53.130433,-20.913344 -79.210603,-20.894804 -8.19948,0.006 -9.69357,0.19017 -12.95989,1.5988 -4.18105,1.8031 -9.06312,5.50476 -9.06312,6.8718 0,1.33996 2.2871,1.514806 29.51893,2.256627 27.9424,0.761187 29.71076,1.023569 43.83489,6.503963 19.851223,7.702615 32.767541,15.988436 36.550703,23.447169 1.428136,2.815724 1.609328,4.138784 1.440306,10.516717 l -0.193292,7.295784 2.636798,3.658862 c 1.450293,2.012377 4.486225,5.481438 6.746647,7.709028 14.363548,14.155143 17.498895,25.416518 17.478123,62.777551 -0.01386,25.346632 -1.112025,34.474697 -6.779807,56.364791 -2.674779,10.330719 -2.096572,12.681847 4.977184,20.237908 7.637313,8.15809 11.288768,10.33968 17.188983,10.26989 4.777184,-0.0565 8.208523,-1.24064 19.096344,-6.58996 14.9730217,-7.356453 20.2270274,-8.391026 27.931906,-5.500128 7.587896,2.847038 5.050798,5.072778 -6.8739026,6.030238 -17.5704692,1.41078 -21.5625944,2.61089 -20.3962694,6.13157 1.7403771,5.25373 14.8346112,17.56823 25.731907,24.19952 6.294165,3.83019 10.613551,5.1884 18.830598,5.92115 10.035282,0.89492 16.180686,-0.65406 27.779878,-7.00196 12.484413,-6.83232 27.519244,-18.32823 36.013626,-27.5366 l 3.410708,-3.69741 -8.169233,-1.83089 C 87.644584,99.887618 81.836571,98.284616 79.230887,97.332387 65.979657,92.489803 50.80525,80.956168 50.80525,75.72686 c 0,-2.670362 1.058599,-2.186913 15.306112,6.989915 12.178929,7.844467 25.666164,12.085914 40.816298,12.835836 10.25932,0.507824 17.96712,-0.396019 29.079,-3.409887 12.4228,-3.369467 14.44779,-2.013243 4.12616,2.763568 -2.82916,1.309345 -5.75342,2.878473 -6.49825,3.486963 -2.33455,1.907125 -4.7145,7.100665 -7.3645,16.071015 -6.64679,22.49984 -13.29562,36.65102 -25.01259,53.23617 -7.79096,11.02804 -11.952474,16.16708 -28.952171,35.75337 -16.957424,19.53761 -29.033073,34.3121 -39.723737,48.60198 -9.395034,12.55803 -13.889856,18.07287 -14.368718,17.62943 -0.964286,-0.89312 15.779651,-26.48717 30.301872,-46.3181 9.810999,-13.39741 18.114565,-24.64996 24.906033,-33.75137 26.760841,-35.8629 41.491591,-62.31609 45.266081,-81.28797 2.19038,-11.009493 -3.38178,-6.51547 -22.638836,18.25862 -13.555677,17.43931 -23.128556,25.23451 -35.40311,28.82885 -9.581263,2.80567 -35.127161,5.02151 -49.198217,4.26745 -18.7241137,-1.00342 -25.595173,-4.97983 -38.083649,-22.03952 l -6.919238,-9.45195 -3.903422,5.56749 c -6.9059,9.84992 -18.494886,21.79044 -23.615509,24.33191 -8.088991,4.01467 -55.842539,1.19845 -71.170439,-4.19721 -10.0653,-3.54316 -17.82069,-9.95374 -28.28081,-23.37691 -9.09525,-11.67159 -14.56348,-17.85388 -15.79176,-17.85388 -4.6126,0 7.03724,29.67398 18.74475,47.74563 6.21821,9.59843 20.07593,29.79109 31.62571,46.08318 13.50793,19.05412 13.70683,19.34285 23.72331,34.4264 8.506405,12.80947 19.647787,30.90755 19.647787,31.91575 0,1.4081 -2.16931,-1.31676 -13.949042,-17.52156 -14.678565,-20.19263 -25.720825,-34.35743 -41.732555,-53.53367 -22.72791,-27.21974 -33.82825,-45.04123 -41.84239,-67.17734 -0.80649,-2.22759 -2.84745,-9.06225 -4.53557,-15.18812 -3.3204,-12.04956 -4.56355,-14.88542 -7.74978,-17.67912 -4.39453,-3.853168 -20.15603,-9.139948 -21.45333,-7.195952 -2.52937,3.790333 18.36756,48.130112 33.99276,72.126992 9.15115,14.05414 25.14736,35.79969 43.20034,58.72738 27.45173,34.86419 46.830076,60.48379 52.124238,68.91211 2.235638,3.55913 2.537251,6.01594 0.738626,6.01594 -0.663689,0 -3.638263,-2.31864 -6.610129,-5.15254 z m -2.859181,-155.54395 c 3.666986,-1.13576 9.127183,-3.47929 12.133745,-5.20782 5.691456,-3.27218 18.950419,-14.53608 18.950419,-16.09905 0,-1.25259 -32.442534,-21.110577 -40.577095,-24.837153 -3.67674,-1.684375 -8.10459,-3.365701 -9.83964,-3.736283 -8.32325,-1.7777 -16.58446,0.0093 -27.03147,5.8471 -11.31785,6.324466 -16.99619,11.722356 -16.00902,15.218356 0.63914,2.26363 12.07068,12.86193 19.04889,17.66039 7.63242,5.2484 14.68395,8.88604 21.93023,11.31305 7.5836,2.54002 12.80611,2.5013 21.393941,-0.15859 z M -162.35474,93.839378 c 8.93176,-1.854692 18.37585,-4.898081 23.30581,-7.510369 9.32215,-4.939648 15.8989,-12.784277 18.91224,-22.558288 1.6357,-5.305392 6.46886,-14.09192 12.09386,-21.985974 9.319174,-13.078543 12.329073,-22.14435 12.326235,-37.1265106 -7.24e-4,-4.64081334 -0.26909,-8.8283316 -0.596066,-9.3055897 -0.744303,-1.086449 -5.736789,1.2535932 -15.098379,7.0768194 -11.75044,7.3091355 -14.16071,7.7542019 -7.7906,1.4385366 4.35379,-4.31658469 10.5046,-8.2149824 15.92478,-10.0931446 5.491968,-1.9030241 7.581045,-4.0027521 7.581045,-7.6196831 0,-3.22759 -1.898035,-6.86623 -5.904445,-11.319251 -3.23922,-3.600259 -3.57106,-4.783298 -1.20196,-4.284575 0.90195,0.189878 3.279867,0.66084 5.284246,1.046583 2.004378,0.385745 6.707057,1.637077 10.4505,2.780741 8.363336,2.555095 8.846065,2.309149 7.075296,-3.604598 -4.648402,-15.52428 -19.595483,-29.313256 -44.129282,-40.710248 -21.64037,-10.052834 -38.5881,-14.548131 -54.56301,-14.472505 -8.91005,0.04227 -13.27718,1.220607 -15.69714,4.235719 -1.32888,1.655677 -1.52063,2.77856 -1.44134,8.437841 0.14607,10.416833 3.81495,22.007715 12.26895,38.760577 l 3.32121,6.581516 19.96034,0 c 20.86893,0 37.45121,1.138961 44.89734,3.083796 4.67901,1.222117 16.675654,5.688356 17.137234,6.380056 0.511512,0.766554 -12.736584,6.579391 -17.501654,7.6791863 -13.75773,3.1752679 -37.99766,3.2112119 -56.48686,0.08376 -19.78213,-3.3461383 -23.64167,-3.8264613 -27.33234,-3.4014563 -8.66239,0.997529 -12.64401,4.787646 -16.38147,15.5934914 -2.80065,8.0973036 -3.4793,12.2239696 -4.50546,27.3963646 -1.3656,20.190849 0.9336,47.40574 4.56369,54.01895 0.75248,1.370738 2.50948,3.298502 3.90444,4.283926 2.92937,2.06933 13.44461,5.367143 20.18061,6.329091 6.92339,0.988713 21.78337,0.375593 29.44218,-1.214766 z m 98.000009,76.168522 c -8.492272,-0.68094 -31.364915,-3.82005 -33.724471,-4.62845 -3.837818,-1.31485 77.023422,-1.86696 108.35999,-0.73989 22.543423,0.81084 23.738976,1.16751 9.91253,2.95738 -4.610056,0.59677 -12.4817703,1.40712 -17.4926996,1.80077 -12.2582283,0.96297 -57.5192044,1.37485 -67.0553494,0.61019 z M 144.11342,3.4769396 c -3.81836,-6.2579846 -10.65371,-12.7406967 -16.06901,-15.2399116 -5.10787,-2.357364 -8.89846,-2.324458 -19.17797,0.166494 -25.962961,6.2914318 -46.623152,7.0321601 -67.785164,2.430302 -5.461585,-1.187664 -14.308442,-4.11303 -15.34678,-5.074674 -2.0629,-1.910482 6.260269,-7.526536 13.431621,-9.063046 12.579146,-2.695156 45.078979,-3.967487 61.048573,-2.389975 5.43396,0.536781 8.13083,1.185065 11.61268,2.791521 5.51275,2.543491 8.28126,2.388902 15.40779,-0.860356 3.59139,-1.63742 6.65305,-3.903691 11.94051,-8.838478 3.91101,-3.650034 7.11086,-6.533786 7.11086,-6.408338 0,0.125453 -0.8218,2.770812 -1.82617,5.878577 -1.00437,3.107765 -1.56158,5.89554 -1.23812,6.195058 0.3234,0.299515 1.96509,-0.393373 3.64825,-1.539759 1.68317,-1.146385 3.06035,-1.917996 3.06035,-1.714692 0,0.203299 -1.48389,2.05685 -3.29745,4.118998 -6.66799,7.581813 -7.46588,9.827198 -4.06982,11.453643 2.63637,1.262611 5.84949,5.0007101 8.44562,9.8255501 l 1.99774,3.7126504 -2.44912,-2.0646516 c -7.47741,-6.3035134 -11.04613,-9.0991339 -11.30699,-8.8575409 -0.16108,0.149181 1.65896,3.8827574 4.0446,8.2968294 4.22915,7.8251875 5.94847,12.4132609 4.65175,12.4132609 -0.35299,0 -2.0782,-2.3541581 -3.83375,-5.2314617 z M -3.0149017,-31.027777 c -2.1092565,-6.520015 -0.6161811,-9.600421 8.7462034,-18.044568 8.5928513,-7.750131 18.9182823,-14.888738 28.6748333,-19.824742 5.261221,-2.661756 4.964574,-2.354967 -4.373175,4.5231 -13.678778,10.075536 -23.4092387,20.651585 -28.477895,30.952503 -1.35408109,2.751857 -2.7463527,5.003377 -3.0938759,5.003377 -0.3475208,0 -1.0118063,-1.174352 -1.4760908,-2.60967 z m -1.7744897,-27.935316 c -1.7574337,-1.226716 -3.4429273,-5.442624 -3.4429273,-8.611816 0,-8.151754 9.6173411,-15.535161 35.1365667,-26.974926 18.627025,-8.350105 22.048378,-9.125935 43.21615,-9.799655 18.685556,-0.59471 41.058062,0.49182 46.451942,2.25597 7.23651,2.366827 19.97294,10.853048 27.37505,18.239884 2.97296,2.96676 8.17003,9.645979 8.17003,10.499968 0,0.219998 -2.4693,-1.417332 -5.48738,-3.638509 -6.63498,-4.883168 -16.85728,-9.664179 -24.7604,-11.580595 -7.40401,-1.795371 -22.339349,-2.420506 -31.336647,-1.311622 -17.534098,2.160998 -36.577891,8.344919 -60.864465,19.76395 -24.5838728,11.558796 -30.9360556,13.615616 -34.4579194,11.157351 z m -1.2563408,-40.729699 c 0,-1.380598 4.1139192,-5.788998 8.22463,-8.813418 12.9935792,-9.55977 27.9636102,-17.30047 41.5920992,-21.50636 19.776955,-6.10334 46.370962,-8.0937 60.299013,-4.5129 10.11741,2.60111 24.43227,12.15622 32.93176,21.98177 l 2.26239,2.61545 -3.95962,-2.1292 c -9.97645,-5.36452 -19.50925,-9.84868 -24.27258,-11.41767 -4.72376,-1.55595 -6.50357,-1.73886 -19.532276,-2.00717 -32.528113,-0.66987 -56.48371,5.12933 -84.4258903,20.43794 -8.6380413,4.73249 -13.1195259,6.560528 -13.1195259,5.351558 z"
       style="fill:#11253c" />
  </g>
</svg>
