<?xml version="1.0" encoding="UTF-8" standalone="no"?>
<!-- Created with Inkscape (http://www.inkscape.org/) -->

<svg
   xmlns:dc="http://purl.org/dc/elements/1.1/"
   xmlns:cc="http://creativecommons.org/ns#"
   xmlns:rdf="http://www.w3.org/1999/02/22-rdf-syntax-ns#"
   xmlns:svg="http://www.w3.org/2000/svg"
   xmlns="http://www.w3.org/2000/svg"
   xmlns:sodipodi="http://sodipodi.sourceforge.net/DTD/sodipodi-0.dtd"
   xmlns:inkscape="http://www.inkscape.org/namespaces/inkscape"
   width="373.96564"
   height="128.96001"
   id="svg2"
   version="1.1"
   inkscape:version="0.48.4 r9943 custom"
   sodipodi:docname="New document 1">
  <sodipodi:namedview
     id="base"
     pagecolor="#ffffff"
     bordercolor="#666666"
     borderopacity="1.0"
     inkscape:pageopacity="0.0"
     inkscape:pageshadow="2"
     inkscape:zoom="3.0992152"
     inkscape:cx="228.02393"
     inkscape:cy="61.89871"
     inkscape:document-units="px"
     inkscape:current-layer="layer1"
     showgrid="false"
     fit-margin-top="0"
     fit-margin-left="0"
     fit-margin-right="0"
     fit-margin-bottom="0"
     inkscape:window-width="1280"
     inkscape:window-height="695"
     inkscape:window-x="0"
     inkscape:window-y="22"
     inkscape:window-maximized="0" />
  <defs
     id="defs4" />
  <metadata
     id="metadata7">
    <rdf:RDF>
      <cc:Work
         rdf:about="">
        <dc:format>image/svg+xml</dc:format>
        <dc:type
           rdf:resource="http://purl.org/dc/dcmitype/StillImage" />
        <dc:title></dc:title>
      </cc:Work>
    </rdf:RDF>
  </metadata>
  <g
     transform="translate(-183.3977,-92.533609)"
     id="layer1"
     inkscape:groupmode="layer"
     inkscape:label="Layer 1">
    <text
       sodipodi:linespacing="125%"
       id="text2985"
       y="120.93361"
       x="374.2327"
       style="font-size:40px;font-style:normal;font-weight:normal;text-align:center;line-height:125%;letter-spacing:0px;word-spacing:0px;text-anchor:middle;fill:#000000;fill-opacity:1;stroke:none;font-family:Sans"
       xml:space="preserve"><tspan
         style="font-style:normal;font-variant:normal;font-weight:500;font-stretch:normal;font-family:Mesquite Std;-inkscape-font-specification:Mesquite Std Medium;fill:#3465a4"
         y="120.93361"
         x="386.22488"
         id="tspan2987"
         sodipodi:role="line">Remember, </tspan><tspan
         style="font-style:normal;font-variant:normal;font-weight:500;font-stretch:normal;font-family:Mesquite Std;-inkscape-font-specification:Mesquite Std Medium;fill:#3465a4"
         id="tspan2989"
         y="170.93361"
         x="386.22488"
         sodipodi:role="line">Remember, </tspan><tspan
         style="font-style:normal;font-variant:normal;font-weight:500;font-stretch:normal;font-family:Mesquite Std;-inkscape-font-specification:Mesquite Std Medium;fill:#3465a4"
         id="tspan2991"
         y="220.93361"
         x="374.2327"
         sodipodi:role="line">The 5th of  Nov.</tspan></text>
    <g
       id="text2993"
       style="font-size:40px;font-family:Sans;fill:#000000;fill-opacity:1;letter-spacing:0px;text-anchor:middle;font-style:normal;word-spacing:0px;stroke:none;font-weight:normal;line-height:125%;text-align:center">
      <path
         id="path3002"
         style="font-variant:normal;font-weight:500;font-stretch:normal;font-family:Mesquite Std;-inkscape-font-specification:Mesquite Std Medium"
         d="m 328.75832,108.85361 c 0,-1.4 0.32,-1.68 1.16,-1.68 0.88,0 1.32,0.24 1.32,1.72 l 0,11.36 c 0.44,0 1,0.6 1.12,1.08 0.28,-0.2 0.76,-0.24 1.08,-0.24 0.16,0 0.36,0 0.56,0.04 0.2,0.04 0.4,0.12 0.48,0.2 0.16,-0.32 0.84,-0.72 1.2,-0.72 l -0.4,-3.32 -0.32,0 0,1.16 c 0,0.24 -0.08,0.32 -0.2,0.32 -0.16,0 -0.24,-0.2 -0.24,-0.56 l 0,-8.92 c 0,-1.92 -1.04,-2.76 -1.96,-3.28 1.2,-0.64 1.96,-1.44 1.96,-3.72 l 0,-7.480001 c 0,-2.999997 -2.48,-4.16 -4.2,-4.16 -0.92,0 -1.44,0.16 -1.88,0.24 -0.48,0.08 -0.96,0.16 -1.52,0.16 -0.24,0 -0.56,-0.04 -0.8,-0.12 -0.24,-0.08 -0.44,-0.2 -0.52,-0.28 -0.16,0.36 -0.84,0.64 -1.32,0.56 l 0.4,3.68 0.32,0 0,-1.12 c 0,-0.559999 0.08,-0.64 0.24,-0.64 0.12,0 0.2,0.04 0.2,0.6 l 0,6.720001 c 0,2.56 -0.04,4 -0.84,4.64 0.4,0.28 0.56,0.56 0.56,0.84 0,0.12 -0.04,0.24 -0.12,0.36 -0.08,0.12 -0.2,0.24 -0.36,0.36 0.48,0.64 0.76,1.84 0.76,3.8 l 0,7.48 c 0,0.6 -0.08,0.68 -0.24,0.68 -0.24,0 -0.28,-0.28 -0.28,-0.56 l 0,-1.08 -0.32,0 -0.48,3.6 c 0.36,0 1.16,0.48 1.32,0.76 0.28,-0.24 1.04,-0.4 1.56,-0.4 0.28,0 0.6,0.04 0.92,0.12 0.32,0.08 0.6,0.2 0.76,0.28 0.24,-0.32 0.92,-0.68 1.4,-0.68 l -0.4,-3.4 -0.32,0 0,1.08 c 0,0.36 -0.04,0.4 -0.16,0.4 -0.32,0 -0.44,-0.48 -0.44,-2.2 l 0,-7.68 m 0,-14.560001 c 0,-0.999999 0.44,-1.52 1.16,-1.52 0.64,0 1.32,0.320001 1.32,1.56 l 0,8.880001 c 0,1.6 -0.4,1.92 -1.28,1.92 -0.84,0 -1.2,-0.32 -1.2,-1.44 l 0,-9.400001" />
      <path
         id="path3004"
         style="font-variant:normal;font-weight:500;font-stretch:normal;font-family:Mesquite Std;-inkscape-font-specification:Mesquite Std Medium"
         d="m 340.51707,109.93361 c 0,-2.24 0,-2.76 0.64,-2.76 0.24,0 0.56,0.24 0.56,0.6 0,0.32 -0.04,0.52 -0.16,0.76 -0.12,0.28 -0.24,0.64 -0.24,1.04 0,0.72 0.52,1.12 1,1.04 -0.16,-0.2 -0.24,-0.44 -0.24,-0.68 0,-0.28 0.24,-0.52 0.76,-1 0.28,-0.32 0.48,-0.64 0.48,-1.12 0,-0.56 -0.28,-0.96 -0.68,-1.28 l 0.92,-0.68 -0.88,-0.76 c 0.44,-0.28 0.64,-0.68 0.64,-1.12 0,-0.4 -0.28,-0.88 -0.48,-1.08 -0.4,-0.4 -0.56,-0.64 -0.56,-0.88 0,-0.24 0.04,-0.44 0.16,-0.64 -0.36,-0.04 -1.04,0.44 -1.04,1.08 0,0.32 0.08,0.64 0.16,0.88 0.08,0.2 0.16,0.32 0.16,0.64 0,0.24 -0.2,0.6 -0.48,0.6 -0.44,0 -0.72,-0.16 -0.72,-1.92 l 0,-7.960001 c 0,-1.599998 0.4,-2.04 1.08,-2.04 0.76,0 1.08,0.600001 1.08,2 l 0,2.44 c 0,1.319999 -0.12,1.84 -0.4,2.2 1.12,0.48 1.4,1.080001 1.4,3.280001 l 0.32,0 c 0,-2.28 0.2,-2.800001 1.32,-3.280001 -0.24,-0.44 -0.28,-1.120001 -0.28,-2.16 l 0,-3.84 c 0,-1.159999 0.12,-1.72 0.36,-1.92 -0.4,-0.04 -0.92,-0.4 -1.04,-0.72 -0.28,0.2 -0.68,0.4 -0.96,0.4 -0.48,0 -0.8,-0.16 -1.12,-0.24 -0.32,-0.08 -0.64,-0.16 -1.12,-0.16 -0.28,0 -0.56,0.04 -0.92,0.16 -0.36,0.12 -0.8,0.24 -1.44,0.24 -0.32,0 -0.68,-0.04 -0.96,-0.12 -0.28,-0.08 -0.48,-0.16 -0.64,-0.28 -0.28,0.4 -0.72,0.68 -1.24,0.72 l 0.36,3.44 0.32,0 0,-1.32 c 0.04,-0.32 0.12,-0.44 0.32,-0.44 0.16,0 0.2,0.12 0.2,0.44 l 0,8.280001 c 0,1.84 -0.36,2.84 -0.72,3.2 0.28,0.24 0.48,0.56 0.48,0.8 0,0.28 -0.2,0.64 -0.48,0.8 0.28,0.4 0.72,1.36 0.72,3.96 l 0,7.68 c 0,0.44 -0.08,0.6 -0.28,0.6 -0.2,0 -0.24,-0.16 -0.24,-0.64 l 0,-1.28 -0.36,0 -0.36,3.6 c 0.4,0.08 1.04,0.48 1.2,0.84 0.28,-0.28 0.64,-0.4 1,-0.4 0.48,0 0.96,0.08 1.36,0.16 0.4,0.08 0.8,0.24 1.28,0.24 0.6,0 0.92,-0.12 1.24,-0.2 0.28,-0.08 0.6,-0.2 1.12,-0.2 0.24,0 0.44,0.04 0.64,0.08 0.2,0.04 0.36,0.12 0.56,0.2 0.12,-0.24 0.76,-0.6 1.08,-0.68 -0.28,-0.32 -0.36,-0.56 -0.36,-2.52 l 0,-3.56 c 0,-1 0.16,-1.76 0.44,-2.12 -1.12,-0.52 -1.4,-0.72 -1.4,-3.36 l -0.28,0 c 0,2.48 -0.32,2.84 -1.4,3.28 0.24,0.48 0.28,1.28 0.28,2.2 l 0,2.88 c 0,1.76 -0.24,2.04 -1,2.04 -0.84,0 -1.16,-0.28 -1.16,-1.24 l 0,-8.2" />
      <path
         id="path3006"
         style="font-variant:normal;font-weight:500;font-stretch:normal;font-family:Mesquite Std;-inkscape-font-specification:Mesquite Std Medium"
         d="m 356.31895,118.13361 c 0,0.6 -0.12,0.84 -0.32,0.84 -0.16,0 -0.28,-0.12 -0.28,-0.52 l 0,-1.24 -0.28,0 -0.36,3.32 c 0.44,0 1.2,0.44 1.32,0.8 0.36,-0.28 1.08,-0.4 1.72,-0.4 0.36,0 0.68,0.04 1,0.08 0.28,0.08 0.56,0.16 0.72,0.32 0.08,-0.48 0.68,-0.76 1.12,-0.76 l -0.44,-3.4 -0.28,0 0,1.44 c 0,0.2 -0.12,0.32 -0.32,0.32 -0.2,0 -0.28,-0.08 -0.28,-0.36 l 0,-8.32 c 0,-2.72 0.44,-3.44 0.76,-3.64 -0.32,-0.2 -0.48,-0.56 -0.48,-0.8 0,-0.28 0.12,-0.64 0.36,-0.8 -0.24,-0.16 -0.64,-0.84 -0.64,-3.04 l 0,-8.120001 c 0,-0.44 0.08,-0.72 0.24,-0.72 0.2,0 0.24,0.16 0.24,0.52 l 0,1.12 0.28,0 0.32,-3.44 c -0.44,0 -1.04,-0.36 -1.16,-0.68 -0.32,0.24 -1.2,0.4 -1.72,0.4 -0.2,0 -0.56,-0.04 -0.88,-0.12 -0.32,-0.08 -0.6,-0.2 -0.76,-0.28 -0.2,0.24 -0.96,0.56 -1.48,0.56 l -1.24,11.720001 -0.24,0 -1.2,-11.720001 c -0.56,0 -1.28,-0.28 -1.48,-0.56 -0.28,0.16 -1.04,0.4 -1.68,0.4 -0.28,0 -0.64,-0.04 -0.92,-0.12 -0.32,-0.08 -0.56,-0.2 -0.72,-0.28 -0.16,0.24 -0.88,0.68 -1.36,0.68 l 0.28,3.36 0.36,0 0,-1.08 c 0,-0.4 0.12,-0.6 0.32,-0.6 0.16,0 0.24,0.120001 0.24,0.92 l 0,8.080001 c 0,2.2 -0.4,2.76 -0.68,3 0.36,0.24 0.44,0.44 0.44,0.8 0,0.36 -0.12,0.56 -0.4,0.8 0.28,0.28 0.64,0.8 0.64,3.12 l 0,8.72 c 0,0.44 -0.04,0.48 -0.24,0.48 -0.16,0 -0.24,-0.08 -0.24,-0.4 l 0,-1.44 -0.32,0 -0.36,3.52 c 0.4,0 1.12,0.4 1.32,0.72 0.2,-0.2 0.68,-0.4 1.12,-0.4 0.28,0 0.52,0.04 0.76,0.12 0.24,0.04 0.4,0.16 0.48,0.28 0.16,-0.44 0.72,-0.76 1.16,-0.76 l -0.56,-3.36 -0.32,0 0,1.32 c 0,0.4 -0.08,0.44 -0.28,0.44 -0.2,0 -0.32,-0.08 -0.32,-0.52 l 0,-7.76 c 0,-1.8 0.28,-3.64 0.6,-4.08 -0.28,-0.24 -0.36,-0.44 -0.36,-0.8 0,-0.32 0.12,-0.6 0.32,-0.8 -0.16,-0.2 -0.56,-0.96 -0.56,-2.88 l 0,-4.240001 0.24,0 0.48,4.880001 c 0.16,1.56 0.16,1.96 0.04,2.2 0.24,0.24 0.44,0.52 0.44,0.84 0,0.32 -0.12,0.6 -0.36,0.8 0.16,0.24 0.32,0.68 0.6,3.16 l 1.2,10.8 c 0.24,0 0.72,0.36 0.92,0.76 0.16,-0.4 0.56,-0.76 0.84,-0.76 l 1.24,-11.2 c 0.2,-1.64 0.36,-2.48 0.6,-2.76 -0.28,-0.12 -0.44,-0.56 -0.44,-0.88 0,-0.28 0.2,-0.6 0.48,-0.76 -0.08,-0.24 -0.12,-1.28 0,-2.24 l 0.56,-4.840001 0.2,0 0,4.160001 c 0,1.68 -0.36,2.72 -0.56,2.96 0.32,0.2 0.36,0.56 0.36,0.8 0,0.36 -0.2,0.64 -0.36,0.8 0.24,0.24 0.6,1.16 0.56,3.44 l 0,8.08" />
      <path
         id="path3008"
         style="font-variant:normal;font-weight:500;font-stretch:normal;font-family:Mesquite Std;-inkscape-font-specification:Mesquite Std Medium"
         d="m 365.9077,109.93361 c 0,-2.24 0,-2.76 0.64,-2.76 0.24,0 0.56,0.24 0.56,0.6 0,0.32 -0.04,0.52 -0.16,0.76 -0.12,0.28 -0.24,0.64 -0.24,1.04 0,0.72 0.52,1.12 1,1.04 -0.16,-0.2 -0.24,-0.44 -0.24,-0.68 0,-0.28 0.24,-0.52 0.76,-1 0.28,-0.32 0.48,-0.64 0.48,-1.12 0,-0.56 -0.28,-0.96 -0.68,-1.28 l 0.92,-0.68 -0.88,-0.76 c 0.44,-0.28 0.64,-0.68 0.64,-1.12 0,-0.4 -0.28,-0.88 -0.48,-1.08 -0.4,-0.4 -0.56,-0.64 -0.56,-0.88 0,-0.24 0.04,-0.44 0.16,-0.64 -0.36,-0.04 -1.04,0.44 -1.04,1.08 0,0.32 0.08,0.64 0.16,0.88 0.08,0.2 0.16,0.32 0.16,0.64 0,0.24 -0.2,0.6 -0.48,0.6 -0.44,0 -0.72,-0.16 -0.72,-1.92 l 0,-7.960001 c 0,-1.599998 0.4,-2.04 1.08,-2.04 0.76,0 1.08,0.600001 1.08,2 l 0,2.44 c 0,1.319999 -0.12,1.84 -0.4,2.2 1.12,0.48 1.4,1.080001 1.4,3.280001 l 0.32,0 c 0,-2.28 0.2,-2.800001 1.32,-3.280001 -0.24,-0.44 -0.28,-1.120001 -0.28,-2.16 l 0,-3.84 c 0,-1.159999 0.12,-1.72 0.36,-1.92 -0.4,-0.04 -0.92,-0.4 -1.04,-0.72 -0.28,0.2 -0.68,0.4 -0.96,0.4 -0.48,0 -0.8,-0.16 -1.12,-0.24 -0.32,-0.08 -0.64,-0.16 -1.12,-0.16 -0.28,0 -0.56,0.04 -0.92,0.16 -0.36,0.12 -0.8,0.24 -1.44,0.24 -0.32,0 -0.68,-0.04 -0.96,-0.12 -0.28,-0.08 -0.48,-0.16 -0.64,-0.28 -0.28,0.4 -0.72,0.68 -1.24,0.72 l 0.36,3.44 0.32,0 0,-1.32 c 0.04,-0.32 0.12,-0.44 0.32,-0.44 0.16,0 0.2,0.12 0.2,0.44 l 0,8.280001 c 0,1.84 -0.36,2.84 -0.72,3.2 0.28,0.24 0.48,0.56 0.48,0.8 0,0.28 -0.2,0.64 -0.48,0.8 0.28,0.4 0.72,1.36 0.72,3.96 l 0,7.68 c 0,0.44 -0.08,0.6 -0.28,0.6 -0.2,0 -0.24,-0.16 -0.24,-0.64 l 0,-1.28 -0.36,0 -0.36,3.6 c 0.4,0.08 1.04,0.48 1.2,0.84 0.28,-0.28 0.64,-0.4 1,-0.4 0.48,0 0.96,0.08 1.36,0.16 0.4,0.08 0.8,0.24 1.28,0.24 0.6,0 0.92,-0.12 1.24,-0.2 0.28,-0.08 0.6,-0.2 1.12,-0.2 0.24,0 0.44,0.04 0.64,0.08 0.2,0.04 0.36,0.12 0.56,0.2 0.12,-0.24 0.76,-0.6 1.08,-0.68 -0.28,-0.32 -0.36,-0.56 -0.36,-2.52 l 0,-3.56 c 0,-1 0.16,-1.76 0.44,-2.12 -1.12,-0.52 -1.4,-0.72 -1.4,-3.36 l -0.28,0 c 0,2.48 -0.32,2.84 -1.4,3.28 0.24,0.48 0.28,1.28 0.28,2.2 l 0,2.88 c 0,1.76 -0.24,2.04 -1,2.04 -0.84,0 -1.16,-0.28 -1.16,-1.24 l 0,-8.2" />
      <path
         id="path3010"
         style="font-variant:normal;font-weight:500;font-stretch:normal;font-family:Mesquite Std;-inkscape-font-specification:Mesquite Std Medium"
         d="m 381.70957,118.13361 c 0,0.6 -0.12,0.84 -0.32,0.84 -0.16,0 -0.28,-0.12 -0.28,-0.52 l 0,-1.24 -0.28,0 -0.36,3.32 c 0.44,0 1.2,0.44 1.32,0.8 0.36,-0.28 1.08,-0.4 1.72,-0.4 0.36,0 0.68,0.04 1,0.08 0.28,0.08 0.56,0.16 0.72,0.32 0.08,-0.48 0.68,-0.76 1.12,-0.76 l -0.44,-3.4 -0.28,0 0,1.44 c 0,0.2 -0.12,0.32 -0.32,0.32 -0.2,0 -0.28,-0.08 -0.28,-0.36 l 0,-8.32 c 0,-2.72 0.44,-3.44 0.76,-3.64 -0.32,-0.2 -0.48,-0.56 -0.48,-0.8 0,-0.28 0.12,-0.64 0.36,-0.8 -0.24,-0.16 -0.64,-0.84 -0.64,-3.04 l 0,-8.120001 c 0,-0.44 0.08,-0.72 0.24,-0.72 0.2,0 0.24,0.16 0.24,0.52 l 0,1.12 0.28,0 0.32,-3.44 c -0.44,0 -1.04,-0.36 -1.16,-0.68 -0.32,0.24 -1.2,0.4 -1.72,0.4 -0.2,0 -0.56,-0.04 -0.88,-0.12 -0.32,-0.08 -0.6,-0.2 -0.76,-0.28 -0.2,0.24 -0.96,0.56 -1.48,0.56 l -1.24,11.720001 -0.24,0 -1.2,-11.720001 c -0.56,0 -1.28,-0.28 -1.48,-0.56 -0.28,0.16 -1.04,0.4 -1.68,0.4 -0.28,0 -0.64,-0.04 -0.92,-0.12 -0.32,-0.08 -0.56,-0.2 -0.72,-0.28 -0.16,0.24 -0.88,0.68 -1.36,0.68 l 0.28,3.36 0.36,0 0,-1.08 c 0,-0.4 0.12,-0.6 0.32,-0.6 0.16,0 0.24,0.120001 0.24,0.92 l 0,8.080001 c 0,2.2 -0.4,2.76 -0.68,3 0.36,0.24 0.44,0.44 0.44,0.8 0,0.36 -0.12,0.56 -0.4,0.8 0.28,0.28 0.64,0.8 0.64,3.12 l 0,8.72 c 0,0.44 -0.04,0.48 -0.24,0.48 -0.16,0 -0.24,-0.08 -0.24,-0.4 l 0,-1.44 -0.32,0 -0.36,3.52 c 0.4,0 1.12,0.4 1.32,0.72 0.2,-0.2 0.68,-0.4 1.12,-0.4 0.28,0 0.52,0.04 0.76,0.12 0.24,0.04 0.4,0.16 0.48,0.28 0.16,-0.44 0.72,-0.76 1.16,-0.76 l -0.56,-3.36 -0.32,0 0,1.32 c 0,0.4 -0.08,0.44 -0.28,0.44 -0.2,0 -0.32,-0.08 -0.32,-0.52 l 0,-7.76 c 0,-1.8 0.28,-3.64 0.6,-4.08 -0.28,-0.24 -0.36,-0.44 -0.36,-0.8 0,-0.32 0.12,-0.6 0.32,-0.8 -0.16,-0.2 -0.56,-0.96 -0.56,-2.88 l 0,-4.240001 0.24,0 0.48,4.880001 c 0.16,1.56 0.16,1.96 0.04,2.2 0.24,0.24 0.44,0.52 0.44,0.84 0,0.32 -0.12,0.6 -0.36,0.8 0.16,0.24 0.32,0.68 0.6,3.16 l 1.2,10.8 c 0.24,0 0.72,0.36 0.92,0.76 0.16,-0.4 0.56,-0.76 0.84,-0.76 l 1.24,-11.2 c 0.2,-1.64 0.36,-2.48 0.6,-2.76 -0.28,-0.12 -0.44,-0.56 -0.44,-0.88 0,-0.28 0.2,-0.6 0.48,-0.76 -0.08,-0.24 -0.12,-1.28 0,-2.24 l 0.56,-4.840001 0.2,0 0,4.160001 c 0,1.68 -0.36,2.72 -0.56,2.96 0.32,0.2 0.36,0.56 0.36,0.8 0,0.36 -0.2,0.64 -0.36,0.8 0.24,0.24 0.6,1.16 0.56,3.44 l 0,8.08" />
      <path
         id="path3012"
         style="font-variant:normal;font-weight:500;font-stretch:normal;font-family:Mesquite Std;-inkscape-font-specification:Mesquite Std Medium"
         d="m 387.13832,94.773609 0.32,0 0,-1.24 c 0,-0.36 0.08,-0.52 0.24,-0.52 0.16,0 0.24,0.16 0.24,0.56 l 0,7.920001 c 0,2.64 -0.12,3.28 -0.72,3.64 0.36,0.28 0.48,0.56 0.48,0.84 0,0.28 -0.12,0.52 -0.48,0.76 0.4,0.48 0.72,1.24 0.72,3.36 l 0,7.96 c 0,0.44 -0.04,0.72 -0.28,0.72 -0.2,0 -0.32,-0.16 -0.32,-0.68 l 0,-1.12 -0.32,0 -0.32,3.56 c 0.44,-0.04 1.24,0.32 1.36,0.72 0.16,-0.2 0.48,-0.32 1.04,-0.32 0.8,0 1.24,0.12 1.76,0.24 0.52,0.12 1.12,0.16 2.08,0.16 1.4,0 3.84,-0.68 3.84,-4.08 l 0,-8.16 c 0,-1.56 -1.04,-2.56 -1.88,-3.04 1.16,-0.44 1.88,-1.84 1.88,-2.72 l 0,-8.040001 c 0,-2.279998 -1.28,-4.64 -4.4,-4.64 -0.64,0 -1.08,0.12 -1.52,0.2 -0.48,0.08 -0.92,0.2 -1.64,0.2 -0.56,0 -0.96,-0.16 -1.2,-0.52 -0.16,0.48 -0.8,0.76 -1.28,0.76 l 0.4,3.48 m 4.04,13.840001 c 0,-0.64 0.12,-1.4 1.16,-1.4 0.96,0 1.16,0.72 1.16,1.4 l 0,9.44 c 0,0.84 -0.24,1.44 -1.16,1.44 -0.92,0 -1.16,-0.6 -1.16,-1.44 l 0,-9.44 m 0,-14.400001 c 0,-0.879999 0.16,-1.48 1.16,-1.48 0.88,0 1.16,0.640001 1.16,1.48 l 0,9.640001 c 0,1.08 -0.6,1.36 -1.16,1.36 -0.72,0 -1.16,-0.4 -1.16,-1.36 l 0,-9.640001" />
      <path
         id="path3014"
         style="font-variant:normal;font-weight:500;font-stretch:normal;font-family:Mesquite Std;-inkscape-font-specification:Mesquite Std Medium"
         d="m 402.31395,109.93361 c 0,-2.24 0,-2.76 0.64,-2.76 0.24,0 0.56,0.24 0.56,0.6 0,0.32 -0.04,0.52 -0.16,0.76 -0.12,0.28 -0.24,0.64 -0.24,1.04 0,0.72 0.52,1.12 1,1.04 -0.16,-0.2 -0.24,-0.44 -0.24,-0.68 0,-0.28 0.24,-0.52 0.76,-1 0.28,-0.32 0.48,-0.64 0.48,-1.12 0,-0.56 -0.28,-0.96 -0.68,-1.28 l 0.92,-0.68 -0.88,-0.76 c 0.44,-0.28 0.64,-0.68 0.64,-1.12 0,-0.4 -0.28,-0.88 -0.48,-1.08 -0.4,-0.4 -0.56,-0.64 -0.56,-0.88 0,-0.24 0.04,-0.44 0.16,-0.64 -0.36,-0.04 -1.04,0.44 -1.04,1.08 0,0.32 0.08,0.64 0.16,0.88 0.08,0.2 0.16,0.32 0.16,0.64 0,0.24 -0.2,0.6 -0.48,0.6 -0.44,0 -0.72,-0.16 -0.72,-1.92 l 0,-7.960001 c 0,-1.599998 0.4,-2.04 1.08,-2.04 0.76,0 1.08,0.600001 1.08,2 l 0,2.44 c 0,1.319999 -0.12,1.84 -0.4,2.2 1.12,0.48 1.4,1.080001 1.4,3.280001 l 0.32,0 c 0,-2.28 0.2,-2.800001 1.32,-3.280001 -0.24,-0.44 -0.28,-1.120001 -0.28,-2.16 l 0,-3.84 c 0,-1.159999 0.12,-1.72 0.36,-1.92 -0.4,-0.04 -0.92,-0.4 -1.04,-0.72 -0.28,0.2 -0.68,0.4 -0.96,0.4 -0.48,0 -0.8,-0.16 -1.12,-0.24 -0.32,-0.08 -0.64,-0.16 -1.12,-0.16 -0.28,0 -0.56,0.04 -0.92,0.16 -0.36,0.12 -0.8,0.24 -1.44,0.24 -0.32,0 -0.68,-0.04 -0.96,-0.12 -0.28,-0.08 -0.48,-0.16 -0.64,-0.28 -0.28,0.4 -0.72,0.68 -1.24,0.72 l 0.36,3.44 0.32,0 0,-1.32 c 0.04,-0.32 0.12,-0.44 0.32,-0.44 0.16,0 0.2,0.12 0.2,0.44 l 0,8.280001 c 0,1.84 -0.36,2.84 -0.72,3.2 0.28,0.24 0.48,0.56 0.48,0.8 0,0.28 -0.2,0.64 -0.48,0.8 0.28,0.4 0.72,1.36 0.72,3.96 l 0,7.68 c 0,0.44 -0.08,0.6 -0.28,0.6 -0.2,0 -0.24,-0.16 -0.24,-0.64 l 0,-1.28 -0.36,0 -0.36,3.6 c 0.4,0.08 1.04,0.48 1.2,0.84 0.28,-0.28 0.64,-0.4 1,-0.4 0.48,0 0.96,0.08 1.36,0.16 0.4,0.08 0.8,0.24 1.28,0.24 0.6,0 0.92,-0.12 1.24,-0.2 0.28,-0.08 0.6,-0.2 1.12,-0.2 0.24,0 0.44,0.04 0.64,0.08 0.2,0.04 0.36,0.12 0.56,0.2 0.12,-0.24 0.76,-0.6 1.08,-0.68 -0.28,-0.32 -0.36,-0.56 -0.36,-2.52 l 0,-3.56 c 0,-1 0.16,-1.76 0.44,-2.12 -1.12,-0.52 -1.4,-0.72 -1.4,-3.36 l -0.28,0 c 0,2.48 -0.32,2.84 -1.4,3.28 0.24,0.48 0.28,1.28 0.28,2.2 l 0,2.88 c 0,1.76 -0.24,2.04 -1,2.04 -0.84,0 -1.16,-0.28 -1.16,-1.24 l 0,-8.2" />
      <path
         id="path3016"
         style="font-variant:normal;font-weight:500;font-stretch:normal;font-family:Mesquite Std;-inkscape-font-specification:Mesquite Std Medium"
         d="m 412.19582,108.85361 c 0,-1.4 0.32,-1.68 1.16,-1.68 0.88,0 1.32,0.24 1.32,1.72 l 0,11.36 c 0.44,0 1,0.6 1.12,1.08 0.28,-0.2 0.76,-0.24 1.08,-0.24 0.16,0 0.36,0 0.56,0.04 0.2,0.04 0.4,0.12 0.48,0.2 0.16,-0.32 0.84,-0.72 1.2,-0.72 l -0.4,-3.32 -0.32,0 0,1.16 c 0,0.24 -0.08,0.32 -0.2,0.32 -0.16,0 -0.24,-0.2 -0.24,-0.56 l 0,-8.92 c 0,-1.92 -1.04,-2.76 -1.96,-3.28 1.2,-0.64 1.96,-1.44 1.96,-3.72 l 0,-7.480001 c 0,-2.999997 -2.48,-4.16 -4.2,-4.16 -0.92,0 -1.44,0.16 -1.88,0.24 -0.48,0.08 -0.96,0.16 -1.52,0.16 -0.24,0 -0.56,-0.04 -0.8,-0.12 -0.24,-0.08 -0.44,-0.2 -0.52,-0.28 -0.16,0.36 -0.84,0.64 -1.32,0.56 l 0.4,3.68 0.32,0 0,-1.12 c 0,-0.559999 0.08,-0.64 0.24,-0.64 0.12,0 0.2,0.04 0.2,0.6 l 0,6.720001 c 0,2.56 -0.04,4 -0.84,4.64 0.4,0.28 0.56,0.56 0.56,0.84 0,0.12 -0.04,0.24 -0.12,0.36 -0.08,0.12 -0.2,0.24 -0.36,0.36 0.48,0.64 0.76,1.84 0.76,3.8 l 0,7.48 c 0,0.6 -0.08,0.68 -0.24,0.68 -0.24,0 -0.28,-0.28 -0.28,-0.56 l 0,-1.08 -0.32,0 -0.48,3.6 c 0.36,0 1.16,0.48 1.32,0.76 0.28,-0.24 1.04,-0.4 1.56,-0.4 0.28,0 0.6,0.04 0.92,0.12 0.32,0.08 0.6,0.2 0.76,0.28 0.24,-0.32 0.92,-0.68 1.4,-0.68 l -0.4,-3.4 -0.32,0 0,1.08 c 0,0.36 -0.04,0.4 -0.16,0.4 -0.32,0 -0.44,-0.48 -0.44,-2.2 l 0,-7.68 m 0,-14.560001 c 0,-0.999999 0.44,-1.52 1.16,-1.52 0.64,0 1.32,0.320001 1.32,1.56 l 0,8.880001 c 0,1.6 -0.4,1.92 -1.28,1.92 -0.84,0 -1.2,-0.32 -1.2,-1.44 l 0,-9.400001" />
      <path
         id="path3018"
         style="font-variant:normal;font-weight:500;font-stretch:normal;font-family:Mesquite Std;-inkscape-font-specification:Mesquite Std Medium"
         d="m 423.59457,117.05361 c -0.36,-0.12 -0.6,-0.36 -0.72,-0.76 -0.2,0.24 -0.56,0.4 -1.04,0.4 -0.48,0 -0.88,-0.16 -1.08,-0.4 -0.04,0.36 -0.44,0.72 -0.72,0.72 l 0,3.52 c 0.32,0.12 0.6,0.4 0.72,0.8 0.16,-0.24 0.4,-0.4 0.72,-0.4 0.36,0 0.6,0.28 0.6,0.8 0,1.2 -0.76,2.2 -1.2,2.4 0.12,0.12 0.12,0.52 0.04,0.68 0.4,-0.08 0.92,-0.04 1.16,0.2 0.16,-0.6 1.52,-1.88 1.52,-4.68 l 0,-3.28" />
      <path
         id="path3020"
         style="font-variant:normal;font-weight:500;font-stretch:normal;font-family:Mesquite Std;-inkscape-font-specification:Mesquite Std Medium"
         d="m 328.75832,158.85361 c 0,-1.4 0.32,-1.68 1.16,-1.68 0.88,0 1.32,0.24 1.32,1.72 l 0,11.36 c 0.44,0 1,0.6 1.12,1.08 0.28,-0.2 0.76,-0.24 1.08,-0.24 0.16,0 0.36,0 0.56,0.04 0.2,0.04 0.4,0.12 0.48,0.2 0.16,-0.32 0.84,-0.72 1.2,-0.72 l -0.4,-3.32 -0.32,0 0,1.16 c 0,0.24 -0.08,0.32 -0.2,0.32 -0.16,0 -0.24,-0.2 -0.24,-0.56 l 0,-8.92 c 0,-1.92 -1.04,-2.76 -1.96,-3.28 1.2,-0.64 1.96,-1.44 1.96,-3.72 l 0,-7.48 c 0,-3 -2.48,-4.16 -4.2,-4.16 -0.92,0 -1.44,0.16 -1.88,0.24 -0.48,0.08 -0.96,0.16 -1.52,0.16 -0.24,0 -0.56,-0.04 -0.8,-0.12 -0.24,-0.08 -0.44,-0.2 -0.52,-0.28 -0.16,0.36 -0.84,0.64 -1.32,0.56 l 0.4,3.68 0.32,0 0,-1.12 c 0,-0.56 0.08,-0.64 0.24,-0.64 0.12,0 0.2,0.04 0.2,0.6 l 0,6.72 c 0,2.56 -0.04,4 -0.84,4.64 0.4,0.28 0.56,0.56 0.56,0.84 0,0.12 -0.04,0.24 -0.12,0.36 -0.08,0.12 -0.2,0.24 -0.36,0.36 0.48,0.64 0.76,1.84 0.76,3.8 l 0,7.48 c 0,0.6 -0.08,0.68 -0.24,0.68 -0.24,0 -0.28,-0.28 -0.28,-0.56 l 0,-1.08 -0.32,0 -0.48,3.6 c 0.36,0 1.16,0.48 1.32,0.76 0.28,-0.24 1.04,-0.4 1.56,-0.4 0.28,0 0.6,0.04 0.92,0.12 0.32,0.08 0.6,0.2 0.76,0.28 0.24,-0.32 0.92,-0.68 1.4,-0.68 l -0.4,-3.4 -0.32,0 0,1.08 c 0,0.36 -0.04,0.4 -0.16,0.4 -0.32,0 -0.44,-0.48 -0.44,-2.2 l 0,-7.68 m 0,-14.56 c 0,-1 0.44,-1.52 1.16,-1.52 0.64,0 1.32,0.32 1.32,1.56 l 0,8.88 c 0,1.6 -0.4,1.92 -1.28,1.92 -0.84,0 -1.2,-0.32 -1.2,-1.44 l 0,-9.4" />
      <path
         id="path3022"
         style="font-variant:normal;font-weight:500;font-stretch:normal;font-family:Mesquite Std;-inkscape-font-specification:Mesquite Std Medium"
         d="m 340.51707,159.93361 c 0,-2.24 0,-2.76 0.64,-2.76 0.24,0 0.56,0.24 0.56,0.6 0,0.32 -0.04,0.52 -0.16,0.76 -0.12,0.28 -0.24,0.64 -0.24,1.04 0,0.72 0.52,1.12 1,1.04 -0.16,-0.2 -0.24,-0.44 -0.24,-0.68 0,-0.28 0.24,-0.52 0.76,-1 0.28,-0.32 0.48,-0.64 0.48,-1.12 0,-0.56 -0.28,-0.96 -0.68,-1.28 l 0.92,-0.68 -0.88,-0.76 c 0.44,-0.28 0.64,-0.68 0.64,-1.12 0,-0.4 -0.28,-0.88 -0.48,-1.08 -0.4,-0.4 -0.56,-0.64 -0.56,-0.88 0,-0.24 0.04,-0.44 0.16,-0.64 -0.36,-0.04 -1.04,0.44 -1.04,1.08 0,0.32 0.08,0.64 0.16,0.88 0.08,0.2 0.16,0.32 0.16,0.64 0,0.24 -0.2,0.6 -0.48,0.6 -0.44,0 -0.72,-0.16 -0.72,-1.92 l 0,-7.96 c 0,-1.6 0.4,-2.04 1.08,-2.04 0.76,0 1.08,0.6 1.08,2 l 0,2.44 c 0,1.32 -0.12,1.84 -0.4,2.2 1.12,0.48 1.4,1.08 1.4,3.28 l 0.32,0 c 0,-2.28 0.2,-2.8 1.32,-3.28 -0.24,-0.44 -0.28,-1.12 -0.28,-2.16 l 0,-3.84 c 0,-1.16 0.12,-1.72 0.36,-1.92 -0.4,-0.04 -0.92,-0.4 -1.04,-0.72 -0.28,0.2 -0.68,0.4 -0.96,0.4 -0.48,0 -0.8,-0.16 -1.12,-0.24 -0.32,-0.08 -0.64,-0.16 -1.12,-0.16 -0.28,0 -0.56,0.04 -0.92,0.16 -0.36,0.12 -0.8,0.24 -1.44,0.24 -0.32,0 -0.68,-0.04 -0.96,-0.12 -0.28,-0.08 -0.48,-0.16 -0.64,-0.28 -0.28,0.4 -0.72,0.68 -1.24,0.72 l 0.36,3.44 0.32,0 0,-1.32 c 0.04,-0.32 0.12,-0.44 0.32,-0.44 0.16,0 0.2,0.12 0.2,0.44 l 0,8.28 c 0,1.84 -0.36,2.84 -0.72,3.2 0.28,0.24 0.48,0.56 0.48,0.8 0,0.28 -0.2,0.64 -0.48,0.8 0.28,0.4 0.72,1.36 0.72,3.96 l 0,7.68 c 0,0.44 -0.08,0.6 -0.28,0.6 -0.2,0 -0.24,-0.16 -0.24,-0.64 l 0,-1.28 -0.36,0 -0.36,3.6 c 0.4,0.08 1.04,0.48 1.2,0.84 0.28,-0.28 0.64,-0.4 1,-0.4 0.48,0 0.96,0.08 1.36,0.16 0.4,0.08 0.8,0.24 1.28,0.24 0.6,0 0.92,-0.12 1.24,-0.2 0.28,-0.08 0.6,-0.2 1.12,-0.2 0.24,0 0.44,0.04 0.64,0.08 0.2,0.04 0.36,0.12 0.56,0.2 0.12,-0.24 0.76,-0.6 1.08,-0.68 -0.28,-0.32 -0.36,-0.56 -0.36,-2.52 l 0,-3.56 c 0,-1 0.16,-1.76 0.44,-2.12 -1.12,-0.52 -1.4,-0.72 -1.4,-3.36 l -0.28,0 c 0,2.48 -0.32,2.84 -1.4,3.28 0.24,0.48 0.28,1.28 0.28,2.2 l 0,2.88 c 0,1.76 -0.24,2.04 -1,2.04 -0.84,0 -1.16,-0.28 -1.16,-1.24 l 0,-8.2" />
      <path
         id="path3024"
         style="font-variant:normal;font-weight:500;font-stretch:normal;font-family:Mesquite Std;-inkscape-font-specification:Mesquite Std Medium"
         d="m 356.31895,168.13361 c 0,0.6 -0.12,0.84 -0.32,0.84 -0.16,0 -0.28,-0.12 -0.28,-0.52 l 0,-1.24 -0.28,0 -0.36,3.32 c 0.44,0 1.2,0.44 1.32,0.8 0.36,-0.28 1.08,-0.4 1.72,-0.4 0.36,0 0.68,0.04 1,0.08 0.28,0.08 0.56,0.16 0.72,0.32 0.08,-0.48 0.68,-0.76 1.12,-0.76 l -0.44,-3.4 -0.28,0 0,1.44 c 0,0.2 -0.12,0.32 -0.32,0.32 -0.2,0 -0.28,-0.08 -0.28,-0.36 l 0,-8.32 c 0,-2.72 0.44,-3.44 0.76,-3.64 -0.32,-0.2 -0.48,-0.56 -0.48,-0.8 0,-0.28 0.12,-0.64 0.36,-0.8 -0.24,-0.16 -0.64,-0.84 -0.64,-3.04 l 0,-8.12 c 0,-0.44 0.08,-0.72 0.24,-0.72 0.2,0 0.24,0.16 0.24,0.52 l 0,1.12 0.28,0 0.32,-3.44 c -0.44,0 -1.04,-0.36 -1.16,-0.68 -0.32,0.24 -1.2,0.4 -1.72,0.4 -0.2,0 -0.56,-0.04 -0.88,-0.12 -0.32,-0.08 -0.6,-0.2 -0.76,-0.28 -0.2,0.24 -0.96,0.56 -1.48,0.56 l -1.24,11.72 -0.24,0 -1.2,-11.72 c -0.56,0 -1.28,-0.28 -1.48,-0.56 -0.28,0.16 -1.04,0.4 -1.68,0.4 -0.28,0 -0.64,-0.04 -0.92,-0.12 -0.32,-0.08 -0.56,-0.2 -0.72,-0.28 -0.16,0.24 -0.88,0.68 -1.36,0.68 l 0.28,3.36 0.36,0 0,-1.08 c 0,-0.4 0.12,-0.6 0.32,-0.6 0.16,0 0.24,0.12 0.24,0.92 l 0,8.08 c 0,2.2 -0.4,2.76 -0.68,3 0.36,0.24 0.44,0.44 0.44,0.8 0,0.36 -0.12,0.56 -0.4,0.8 0.28,0.28 0.64,0.8 0.64,3.12 l 0,8.72 c 0,0.44 -0.04,0.48 -0.24,0.48 -0.16,0 -0.24,-0.08 -0.24,-0.4 l 0,-1.44 -0.32,0 -0.36,3.52 c 0.4,0 1.12,0.4 1.32,0.72 0.2,-0.2 0.68,-0.4 1.12,-0.4 0.28,0 0.52,0.04 0.76,0.12 0.24,0.04 0.4,0.16 0.48,0.28 0.16,-0.44 0.72,-0.76 1.16,-0.76 l -0.56,-3.36 -0.32,0 0,1.32 c 0,0.4 -0.08,0.44 -0.28,0.44 -0.2,0 -0.32,-0.08 -0.32,-0.52 l 0,-7.76 c 0,-1.8 0.28,-3.64 0.6,-4.08 -0.28,-0.24 -0.36,-0.44 -0.36,-0.8 0,-0.32 0.12,-0.6 0.32,-0.8 -0.16,-0.2 -0.56,-0.96 -0.56,-2.88 l 0,-4.24 0.24,0 0.48,4.88 c 0.16,1.56 0.16,1.96 0.04,2.2 0.24,0.24 0.44,0.52 0.44,0.84 0,0.32 -0.12,0.6 -0.36,0.8 0.16,0.24 0.32,0.68 0.6,3.16 l 1.2,10.8 c 0.24,0 0.72,0.36 0.92,0.76 0.16,-0.4 0.56,-0.76 0.84,-0.76 l 1.24,-11.2 c 0.2,-1.64 0.36,-2.48 0.6,-2.76 -0.28,-0.12 -0.44,-0.56 -0.44,-0.88 0,-0.28 0.2,-0.6 0.48,-0.76 -0.08,-0.24 -0.12,-1.28 0,-2.24 l 0.56,-4.84 0.2,0 0,4.16 c 0,1.68 -0.36,2.72 -0.56,2.96 0.32,0.2 0.36,0.56 0.36,0.8 0,0.36 -0.2,0.64 -0.36,0.8 0.24,0.24 0.6,1.16 0.56,3.44 l 0,8.08" />
      <path
         id="path3026"
         style="font-variant:normal;font-weight:500;font-stretch:normal;font-family:Mesquite Std;-inkscape-font-specification:Mesquite Std Medium"
         d="m 365.9077,159.93361 c 0,-2.24 0,-2.76 0.64,-2.76 0.24,0 0.56,0.24 0.56,0.6 0,0.32 -0.04,0.52 -0.16,0.76 -0.12,0.28 -0.24,0.64 -0.24,1.04 0,0.72 0.52,1.12 1,1.04 -0.16,-0.2 -0.24,-0.44 -0.24,-0.68 0,-0.28 0.24,-0.52 0.76,-1 0.28,-0.32 0.48,-0.64 0.48,-1.12 0,-0.56 -0.28,-0.96 -0.68,-1.28 l 0.92,-0.68 -0.88,-0.76 c 0.44,-0.28 0.64,-0.68 0.64,-1.12 0,-0.4 -0.28,-0.88 -0.48,-1.08 -0.4,-0.4 -0.56,-0.64 -0.56,-0.88 0,-0.24 0.04,-0.44 0.16,-0.64 -0.36,-0.04 -1.04,0.44 -1.04,1.08 0,0.32 0.08,0.64 0.16,0.88 0.08,0.2 0.16,0.32 0.16,0.64 0,0.24 -0.2,0.6 -0.48,0.6 -0.44,0 -0.72,-0.16 -0.72,-1.92 l 0,-7.96 c 0,-1.6 0.4,-2.04 1.08,-2.04 0.76,0 1.08,0.6 1.08,2 l 0,2.44 c 0,1.32 -0.12,1.84 -0.4,2.2 1.12,0.48 1.4,1.08 1.4,3.28 l 0.32,0 c 0,-2.28 0.2,-2.8 1.32,-3.28 -0.24,-0.44 -0.28,-1.12 -0.28,-2.16 l 0,-3.84 c 0,-1.16 0.12,-1.72 0.36,-1.92 -0.4,-0.04 -0.92,-0.4 -1.04,-0.72 -0.28,0.2 -0.68,0.4 -0.96,0.4 -0.48,0 -0.8,-0.16 -1.12,-0.24 -0.32,-0.08 -0.64,-0.16 -1.12,-0.16 -0.28,0 -0.56,0.04 -0.92,0.16 -0.36,0.12 -0.8,0.24 -1.44,0.24 -0.32,0 -0.68,-0.04 -0.96,-0.12 -0.28,-0.08 -0.48,-0.16 -0.64,-0.28 -0.28,0.4 -0.72,0.68 -1.24,0.72 l 0.36,3.44 0.32,0 0,-1.32 c 0.04,-0.32 0.12,-0.44 0.32,-0.44 0.16,0 0.2,0.12 0.2,0.44 l 0,8.28 c 0,1.84 -0.36,2.84 -0.72,3.2 0.28,0.24 0.48,0.56 0.48,0.8 0,0.28 -0.2,0.64 -0.48,0.8 0.28,0.4 0.72,1.36 0.72,3.96 l 0,7.68 c 0,0.44 -0.08,0.6 -0.28,0.6 -0.2,0 -0.24,-0.16 -0.24,-0.64 l 0,-1.28 -0.36,0 -0.36,3.6 c 0.4,0.08 1.04,0.48 1.2,0.84 0.28,-0.28 0.64,-0.4 1,-0.4 0.48,0 0.96,0.08 1.36,0.16 0.4,0.08 0.8,0.24 1.28,0.24 0.6,0 0.92,-0.12 1.24,-0.2 0.28,-0.08 0.6,-0.2 1.12,-0.2 0.24,0 0.44,0.04 0.64,0.08 0.2,0.04 0.36,0.12 0.56,0.2 0.12,-0.24 0.76,-0.6 1.08,-0.68 -0.28,-0.32 -0.36,-0.56 -0.36,-2.52 l 0,-3.56 c 0,-1 0.16,-1.76 0.44,-2.12 -1.12,-0.52 -1.4,-0.72 -1.4,-3.36 l -0.28,0 c 0,2.48 -0.32,2.84 -1.4,3.28 0.24,0.48 0.28,1.28 0.28,2.2 l 0,2.88 c 0,1.76 -0.24,2.04 -1,2.04 -0.84,0 -1.16,-0.28 -1.16,-1.24 l 0,-8.2" />
      <path
         id="path3028"
         style="font-variant:normal;font-weight:500;font-stretch:normal;font-family:Mesquite Std;-inkscape-font-specification:Mesquite Std Medium"
         d="m 381.70957,168.13361 c 0,0.6 -0.12,0.84 -0.32,0.84 -0.16,0 -0.28,-0.12 -0.28,-0.52 l 0,-1.24 -0.28,0 -0.36,3.32 c 0.44,0 1.2,0.44 1.32,0.8 0.36,-0.28 1.08,-0.4 1.72,-0.4 0.36,0 0.68,0.04 1,0.08 0.28,0.08 0.56,0.16 0.72,0.32 0.08,-0.48 0.68,-0.76 1.12,-0.76 l -0.44,-3.4 -0.28,0 0,1.44 c 0,0.2 -0.12,0.32 -0.32,0.32 -0.2,0 -0.28,-0.08 -0.28,-0.36 l 0,-8.32 c 0,-2.72 0.44,-3.44 0.76,-3.64 -0.32,-0.2 -0.48,-0.56 -0.48,-0.8 0,-0.28 0.12,-0.64 0.36,-0.8 -0.24,-0.16 -0.64,-0.84 -0.64,-3.04 l 0,-8.12 c 0,-0.44 0.08,-0.72 0.24,-0.72 0.2,0 0.24,0.16 0.24,0.52 l 0,1.12 0.28,0 0.32,-3.44 c -0.44,0 -1.04,-0.36 -1.16,-0.68 -0.32,0.24 -1.2,0.4 -1.72,0.4 -0.2,0 -0.56,-0.04 -0.88,-0.12 -0.32,-0.08 -0.6,-0.2 -0.76,-0.28 -0.2,0.24 -0.96,0.56 -1.48,0.56 l -1.24,11.72 -0.24,0 -1.2,-11.72 c -0.56,0 -1.28,-0.28 -1.48,-0.56 -0.28,0.16 -1.04,0.4 -1.68,0.4 -0.28,0 -0.64,-0.04 -0.92,-0.12 -0.32,-0.08 -0.56,-0.2 -0.72,-0.28 -0.16,0.24 -0.88,0.68 -1.36,0.68 l 0.28,3.36 0.36,0 0,-1.08 c 0,-0.4 0.12,-0.6 0.32,-0.6 0.16,0 0.24,0.12 0.24,0.92 l 0,8.08 c 0,2.2 -0.4,2.76 -0.68,3 0.36,0.24 0.44,0.44 0.44,0.8 0,0.36 -0.12,0.56 -0.4,0.8 0.28,0.28 0.64,0.8 0.64,3.12 l 0,8.72 c 0,0.44 -0.04,0.48 -0.24,0.48 -0.16,0 -0.24,-0.08 -0.24,-0.4 l 0,-1.44 -0.32,0 -0.36,3.52 c 0.4,0 1.12,0.4 1.32,0.72 0.2,-0.2 0.68,-0.4 1.12,-0.4 0.28,0 0.52,0.04 0.76,0.12 0.24,0.04 0.4,0.16 0.48,0.28 0.16,-0.44 0.72,-0.76 1.16,-0.76 l -0.56,-3.36 -0.32,0 0,1.32 c 0,0.4 -0.08,0.44 -0.28,0.44 -0.2,0 -0.32,-0.08 -0.32,-0.52 l 0,-7.76 c 0,-1.8 0.28,-3.64 0.6,-4.08 -0.28,-0.24 -0.36,-0.44 -0.36,-0.8 0,-0.32 0.12,-0.6 0.32,-0.8 -0.16,-0.2 -0.56,-0.96 -0.56,-2.88 l 0,-4.24 0.24,0 0.48,4.88 c 0.16,1.56 0.16,1.96 0.04,2.2 0.24,0.24 0.44,0.52 0.44,0.84 0,0.32 -0.12,0.6 -0.36,0.8 0.16,0.24 0.32,0.68 0.6,3.16 l 1.2,10.8 c 0.24,0 0.72,0.36 0.92,0.76 0.16,-0.4 0.56,-0.76 0.84,-0.76 l 1.24,-11.2 c 0.2,-1.64 0.36,-2.48 0.6,-2.76 -0.28,-0.12 -0.44,-0.56 -0.44,-0.88 0,-0.28 0.2,-0.6 0.48,-0.76 -0.08,-0.24 -0.12,-1.28 0,-2.24 l 0.56,-4.84 0.2,0 0,4.16 c 0,1.68 -0.36,2.72 -0.56,2.96 0.32,0.2 0.36,0.56 0.36,0.8 0,0.36 -0.2,0.64 -0.36,0.8 0.24,0.24 0.6,1.16 0.56,3.44 l 0,8.08" />
      <path
         id="path3030"
         style="font-variant:normal;font-weight:500;font-stretch:normal;font-family:Mesquite Std;-inkscape-font-specification:Mesquite Std Medium"
         d="m 387.13832,144.77361 0.32,0 0,-1.24 c 0,-0.36 0.08,-0.52 0.24,-0.52 0.16,0 0.24,0.16 0.24,0.56 l 0,7.92 c 0,2.64 -0.12,3.28 -0.72,3.64 0.36,0.28 0.48,0.56 0.48,0.84 0,0.28 -0.12,0.52 -0.48,0.76 0.4,0.48 0.72,1.24 0.72,3.36 l 0,7.96 c 0,0.44 -0.04,0.72 -0.28,0.72 -0.2,0 -0.32,-0.16 -0.32,-0.68 l 0,-1.12 -0.32,0 -0.32,3.56 c 0.44,-0.04 1.24,0.32 1.36,0.72 0.16,-0.2 0.48,-0.32 1.04,-0.32 0.8,0 1.24,0.12 1.76,0.24 0.52,0.12 1.12,0.16 2.08,0.16 1.4,0 3.84,-0.68 3.84,-4.08 l 0,-8.16 c 0,-1.56 -1.04,-2.56 -1.88,-3.04 1.16,-0.44 1.88,-1.84 1.88,-2.72 l 0,-8.04 c 0,-2.28 -1.28,-4.64 -4.4,-4.64 -0.64,0 -1.08,0.12 -1.52,0.2 -0.48,0.08 -0.92,0.2 -1.64,0.2 -0.56,0 -0.96,-0.16 -1.2,-0.52 -0.16,0.48 -0.8,0.76 -1.28,0.76 l 0.4,3.48 m 4.04,13.84 c 0,-0.64 0.12,-1.4 1.16,-1.4 0.96,0 1.16,0.72 1.16,1.4 l 0,9.44 c 0,0.84 -0.24,1.44 -1.16,1.44 -0.92,0 -1.16,-0.6 -1.16,-1.44 l 0,-9.44 m 0,-14.4 c 0,-0.88 0.16,-1.48 1.16,-1.48 0.88,0 1.16,0.64 1.16,1.48 l 0,9.64 c 0,1.08 -0.6,1.36 -1.16,1.36 -0.72,0 -1.16,-0.4 -1.16,-1.36 l 0,-9.64" />
      <path
         id="path3032"
         style="font-variant:normal;font-weight:500;font-stretch:normal;font-family:Mesquite Std;-inkscape-font-specification:Mesquite Std Medium"
         d="m 402.31395,159.93361 c 0,-2.24 0,-2.76 0.64,-2.76 0.24,0 0.56,0.24 0.56,0.6 0,0.32 -0.04,0.52 -0.16,0.76 -0.12,0.28 -0.24,0.64 -0.24,1.04 0,0.72 0.52,1.12 1,1.04 -0.16,-0.2 -0.24,-0.44 -0.24,-0.68 0,-0.28 0.24,-0.52 0.76,-1 0.28,-0.32 0.48,-0.64 0.48,-1.12 0,-0.56 -0.28,-0.96 -0.68,-1.28 l 0.92,-0.68 -0.88,-0.76 c 0.44,-0.28 0.64,-0.68 0.64,-1.12 0,-0.4 -0.28,-0.88 -0.48,-1.08 -0.4,-0.4 -0.56,-0.64 -0.56,-0.88 0,-0.24 0.04,-0.44 0.16,-0.64 -0.36,-0.04 -1.04,0.44 -1.04,1.08 0,0.32 0.08,0.64 0.16,0.88 0.08,0.2 0.16,0.32 0.16,0.64 0,0.24 -0.2,0.6 -0.48,0.6 -0.44,0 -0.72,-0.16 -0.72,-1.92 l 0,-7.96 c 0,-1.6 0.4,-2.04 1.08,-2.04 0.76,0 1.08,0.6 1.08,2 l 0,2.44 c 0,1.32 -0.12,1.84 -0.4,2.2 1.12,0.48 1.4,1.08 1.4,3.28 l 0.32,0 c 0,-2.28 0.2,-2.8 1.32,-3.28 -0.24,-0.44 -0.28,-1.12 -0.28,-2.16 l 0,-3.84 c 0,-1.16 0.12,-1.72 0.36,-1.92 -0.4,-0.04 -0.92,-0.4 -1.04,-0.72 -0.28,0.2 -0.68,0.4 -0.96,0.4 -0.48,0 -0.8,-0.16 -1.12,-0.24 -0.32,-0.08 -0.64,-0.16 -1.12,-0.16 -0.28,0 -0.56,0.04 -0.92,0.16 -0.36,0.12 -0.8,0.24 -1.44,0.24 -0.32,0 -0.68,-0.04 -0.96,-0.12 -0.28,-0.08 -0.48,-0.16 -0.64,-0.28 -0.28,0.4 -0.72,0.68 -1.24,0.72 l 0.36,3.44 0.32,0 0,-1.32 c 0.04,-0.32 0.12,-0.44 0.32,-0.44 0.16,0 0.2,0.12 0.2,0.44 l 0,8.28 c 0,1.84 -0.36,2.84 -0.72,3.2 0.28,0.24 0.48,0.56 0.48,0.8 0,0.28 -0.2,0.64 -0.48,0.8 0.28,0.4 0.72,1.36 0.72,3.96 l 0,7.68 c 0,0.44 -0.08,0.6 -0.28,0.6 -0.2,0 -0.24,-0.16 -0.24,-0.64 l 0,-1.28 -0.36,0 -0.36,3.6 c 0.4,0.08 1.04,0.48 1.2,0.84 0.28,-0.28 0.64,-0.4 1,-0.4 0.48,0 0.96,0.08 1.36,0.16 0.4,0.08 0.8,0.24 1.28,0.24 0.6,0 0.92,-0.12 1.24,-0.2 0.28,-0.08 0.6,-0.2 1.12,-0.2 0.24,0 0.44,0.04 0.64,0.08 0.2,0.04 0.36,0.12 0.56,0.2 0.12,-0.24 0.76,-0.6 1.08,-0.68 -0.28,-0.32 -0.36,-0.56 -0.36,-2.52 l 0,-3.56 c 0,-1 0.16,-1.76 0.44,-2.12 -1.12,-0.52 -1.4,-0.72 -1.4,-3.36 l -0.28,0 c 0,2.48 -0.32,2.84 -1.4,3.28 0.24,0.48 0.28,1.28 0.28,2.2 l 0,2.88 c 0,1.76 -0.24,2.04 -1,2.04 -0.84,0 -1.16,-0.28 -1.16,-1.24 l 0,-8.2" />
      <path
         id="path3034"
         style="font-variant:normal;font-weight:500;font-stretch:normal;font-family:Mesquite Std;-inkscape-font-specification:Mesquite Std Medium"
         d="m 412.19582,158.85361 c 0,-1.4 0.32,-1.68 1.16,-1.68 0.88,0 1.32,0.24 1.32,1.72 l 0,11.36 c 0.44,0 1,0.6 1.12,1.08 0.28,-0.2 0.76,-0.24 1.08,-0.24 0.16,0 0.36,0 0.56,0.04 0.2,0.04 0.4,0.12 0.48,0.2 0.16,-0.32 0.84,-0.72 1.2,-0.72 l -0.4,-3.32 -0.32,0 0,1.16 c 0,0.24 -0.08,0.32 -0.2,0.32 -0.16,0 -0.24,-0.2 -0.24,-0.56 l 0,-8.92 c 0,-1.92 -1.04,-2.76 -1.96,-3.28 1.2,-0.64 1.96,-1.44 1.96,-3.72 l 0,-7.48 c 0,-3 -2.48,-4.16 -4.2,-4.16 -0.92,0 -1.44,0.16 -1.88,0.24 -0.48,0.08 -0.96,0.16 -1.52,0.16 -0.24,0 -0.56,-0.04 -0.8,-0.12 -0.24,-0.08 -0.44,-0.2 -0.52,-0.28 -0.16,0.36 -0.84,0.64 -1.32,0.56 l 0.4,3.68 0.32,0 0,-1.12 c 0,-0.56 0.08,-0.64 0.24,-0.64 0.12,0 0.2,0.04 0.2,0.6 l 0,6.72 c 0,2.56 -0.04,4 -0.84,4.64 0.4,0.28 0.56,0.56 0.56,0.84 0,0.12 -0.04,0.24 -0.12,0.36 -0.08,0.12 -0.2,0.24 -0.36,0.36 0.48,0.64 0.76,1.84 0.76,3.8 l 0,7.48 c 0,0.6 -0.08,0.68 -0.24,0.68 -0.24,0 -0.28,-0.28 -0.28,-0.56 l 0,-1.08 -0.32,0 -0.48,3.6 c 0.36,0 1.16,0.48 1.32,0.76 0.28,-0.24 1.04,-0.4 1.56,-0.4 0.28,0 0.6,0.04 0.92,0.12 0.32,0.08 0.6,0.2 0.76,0.28 0.24,-0.32 0.92,-0.68 1.4,-0.68 l -0.4,-3.4 -0.32,0 0,1.08 c 0,0.36 -0.04,0.4 -0.16,0.4 -0.32,0 -0.44,-0.48 -0.44,-2.2 l 0,-7.68 m 0,-14.56 c 0,-1 0.44,-1.52 1.16,-1.52 0.64,0 1.32,0.32 1.32,1.56 l 0,8.88 c 0,1.6 -0.4,1.92 -1.28,1.92 -0.84,0 -1.2,-0.32 -1.2,-1.44 l 0,-9.4" />
      <path
         id="path3036"
         style="font-variant:normal;font-weight:500;font-stretch:normal;font-family:Mesquite Std;-inkscape-font-specification:Mesquite Std Medium"
         d="m 423.59457,167.05361 c -0.36,-0.12 -0.6,-0.36 -0.72,-0.76 -0.2,0.24 -0.56,0.4 -1.04,0.4 -0.48,0 -0.88,-0.16 -1.08,-0.4 -0.04,0.36 -0.44,0.72 -0.72,0.72 l 0,3.52 c 0.32,0.12 0.6,0.4 0.72,0.8 0.16,-0.24 0.4,-0.4 0.72,-0.4 0.36,0 0.6,0.28 0.6,0.8 0,1.2 -0.76,2.2 -1.2,2.4 0.12,0.12 0.12,0.52 0.04,0.68 0.4,-0.08 0.92,-0.04 1.16,0.2 0.16,-0.6 1.52,-1.88 1.52,-4.68 l 0,-3.28" />
      <path
         id="path3038"
         style="font-variant:normal;font-weight:500;font-stretch:normal;font-family:Mesquite Std;-inkscape-font-specification:Mesquite Std Medium"
         d="m 309.31676,209.69361 c 0,-1.8 0.24,-2.6 0.6,-2.84 -0.28,-0.12 -0.44,-0.44 -0.44,-0.76 0,-0.28 0.2,-0.64 0.44,-0.76 -0.24,-0.24 -0.6,-1.04 -0.6,-2.84 l 0,-8.88 c 0,-0.72 0.2,-0.92 0.56,-0.92 0.4,0 0.64,0.2 0.64,0.92 l 0,3.68 c 0,1.52 -0.12,1.76 -0.36,2.16 1.12,0.44 1.4,0.96 1.4,3.36 l 0.28,0 c 0,-2.12 0.24,-2.88 1.36,-3.36 -0.2,-0.2 -0.48,-0.8 -0.48,-2.16 l 0,-5.92 c -0.4,0 -0.96,-0.36 -1.16,-0.72 -0.2,0.24 -0.68,0.4 -1.08,0.4 -0.2,0 -0.4,-0.04 -0.6,-0.12 -0.16,-0.08 -0.32,-0.2 -0.44,-0.28 -0.28,0.24 -0.96,0.4 -1.88,0.4 -0.36,0 -0.72,-0.04 -1,-0.12 -0.28,-0.08 -0.52,-0.16 -0.68,-0.28 -0.2,0.2 -0.64,0.4 -1.04,0.4 -0.2,0 -0.4,-0.04 -0.6,-0.12 -0.2,-0.08 -0.36,-0.16 -0.48,-0.28 -0.2,0.36 -0.76,0.72 -1.16,0.72 l 0,5.92 c 0,1.36 -0.28,1.96 -0.48,2.16 1.12,0.48 1.36,1.24 1.36,3.36 l 0.28,0 c 0,-2.4 0.28,-2.92 1.4,-3.36 -0.24,-0.4 -0.36,-0.64 -0.36,-2.16 l 0,-3.68 c 0,-0.72 0.24,-0.92 0.64,-0.92 0.36,0 0.56,0.2 0.56,0.92 l 0,8.88 c 0,1.8 -0.32,2.52 -0.68,2.88 0.28,0.2 0.44,0.52 0.44,0.8 0,0.28 -0.16,0.6 -0.4,0.76 0.36,0.32 0.64,1.24 0.64,2.76 l 0,8.8 c 0,0.2 0,0.44 -0.16,0.44 -0.16,0 -0.28,-0.12 -0.28,-0.44 l 0,-1.04 -0.32,0 -0.48,3.16 c 0.4,0 1.2,0.36 1.36,0.72 0.32,-0.28 1.04,-0.4 1.56,-0.4 0.28,0 0.64,0.04 0.92,0.08 0.32,0.08 0.64,0.16 0.8,0.32 0.2,-0.36 0.76,-0.76 1.16,-0.76 l -0.28,-3.2 -0.36,0 0,1.08 c 0,0.24 -0.04,0.44 -0.24,0.44 -0.2,0 -0.36,-0.12 -0.36,-0.48 l 0,-8.72" />
      <path
         id="path3040"
         style="font-variant:normal;font-weight:500;font-stretch:normal;font-family:Mesquite Std;-inkscape-font-specification:Mesquite Std Medium"
         d="m 317.66363,209.05361 c 0,-1.92 0.56,-2.32 1.44,-2.32 0.76,0 1.52,0.32 1.52,2.32 l 0,9.28 c 0,0.56 -0.12,0.6 -0.28,0.6 -0.12,0 -0.24,-0.04 -0.24,-0.6 l 0,-1.28 -0.28,0 -0.52,3.52 c 0.44,0 1.24,0.44 1.36,0.76 0.24,-0.24 0.84,-0.4 1.52,-0.4 0.36,0 0.68,0.04 0.96,0.12 0.32,0.04 0.56,0.16 0.72,0.28 0.16,-0.4 0.88,-0.76 1.24,-0.76 l -0.36,-3.44 -0.32,0 0,1.2 c 0,0.52 -0.08,0.64 -0.24,0.64 -0.16,0 -0.28,-0.08 -0.28,-0.64 l 0,-8.28 c 0,-2.28 0.4,-2.96 0.84,-3.24 -0.28,-0.12 -0.44,-0.48 -0.44,-0.84 0,-0.32 0.12,-0.64 0.44,-0.88 -0.56,-0.32 -0.84,-0.88 -0.84,-3.76 l 0,-7.96 c 0,-0.36 0.08,-0.44 0.2,-0.44 0.12,0 0.2,0.08 0.2,0.44 l 0,1.32 0.36,0 0.32,-3.32 c -0.36,0 -0.92,-0.4 -1.08,-0.72 -0.28,0.24 -0.8,0.4 -1.64,0.4 -0.4,0 -0.76,-0.08 -1,-0.16 -0.24,-0.08 -0.4,-0.16 -0.52,-0.24 -0.12,0.2 -0.72,0.56 -1.16,0.56 l 0.24,3.6 0.32,0 0.04,-1.44 c 0,-0.44 0.08,-0.48 0.2,-0.48 0.2,0 0.24,0.08 0.24,0.44 l 0,9.36 c 0,1.52 -0.44,2.32 -1.52,2.32 -0.99999,0 -1.44,-0.56 -1.44,-2.32 l 0,-8.84 c 0,-0.76 0.08,-1 0.36,-1 0.2,0 0.28,0.12 0.28,0.48 l 0,1.32 0.28,0 0.56,-3.4 c -0.4,0 -1.16,-0.36 -1.32,-0.6 -0.32,0.2 -1.04,0.4 -1.72,0.4 -0.36,0 -0.68,-0.04 -1,-0.12 -0.28,-0.08 -0.52,-0.2 -0.72,-0.28 -0.12,0.2 -0.72,0.52 -1.08,0.52 l 0.28,3.44 0.36,0 0,-1.12 c 0,-0.36 0.04,-0.56 0.24,-0.56 0.16,0 0.2,0.08 0.2,0.64 l 0,7.76 c 0,2.6 -0.32,3.32 -0.64,3.64 0.28,0.24 0.48,0.6 0.48,0.96 0,0.32 -0.16,0.56 -0.48,0.8 0.4,0.4 0.64,1.28 0.64,3.32 l 0,8.12 c 0,0.44 -0.04,0.64 -0.24,0.64 -0.2,0 -0.28,-0.16 -0.28,-0.6 l 0,-1.32 -0.32,0 -0.36,3.6 c 0.44,0 1.28,0.52 1.4,0.84 0.24,-0.24 0.76,-0.4 1.56,-0.4 0.4,0 0.76,0.04 1.04,0.12 0.32,0.08 0.56,0.2 0.72,0.28 0.04,-0.28 0.68,-0.76 1.04,-0.76 l -0.4,-3.56 -0.28,0 0,1.24 c 0,0.36 -0.12,0.52 -0.28,0.52 -0.16,0 -0.32,-0.12 -0.32,-0.6 l 0,-9.12" />
      <path
         id="path3042"
         style="font-variant:normal;font-weight:500;font-stretch:normal;font-family:Mesquite Std;-inkscape-font-specification:Mesquite Std Medium"
         d="m 330.16551,209.93361 c 0,-2.24 0,-2.76 0.64,-2.76 0.24,0 0.56,0.24 0.56,0.6 0,0.32 -0.04,0.52 -0.16,0.76 -0.12,0.28 -0.24,0.64 -0.24,1.04 0,0.72 0.52,1.12 1,1.04 -0.16,-0.2 -0.24,-0.44 -0.24,-0.68 0,-0.28 0.24,-0.52 0.76,-1 0.28,-0.32 0.48,-0.64 0.48,-1.12 0,-0.56 -0.28,-0.96 -0.68,-1.28 l 0.92,-0.68 -0.88,-0.76 c 0.44,-0.28 0.64,-0.68 0.64,-1.12 0,-0.4 -0.28,-0.88 -0.48,-1.08 -0.4,-0.4 -0.56,-0.64 -0.56,-0.88 0,-0.24 0.04,-0.44 0.16,-0.64 -0.36,-0.04 -1.04,0.44 -1.04,1.08 0,0.32 0.08,0.64 0.16,0.88 0.08,0.2 0.16,0.32 0.16,0.64 0,0.24 -0.2,0.6 -0.48,0.6 -0.44,0 -0.72,-0.16 -0.72,-1.92 l 0,-7.96 c 0,-1.6 0.4,-2.04 1.08,-2.04 0.76,0 1.08,0.6 1.08,2 l 0,2.44 c 0,1.32 -0.12,1.84 -0.4,2.2 1.12,0.48 1.4,1.08 1.4,3.28 l 0.32,0 c 0,-2.28 0.2,-2.8 1.32,-3.28 -0.24,-0.44 -0.28,-1.12 -0.28,-2.16 l 0,-3.84 c 0,-1.16 0.12,-1.72 0.36,-1.92 -0.4,-0.04 -0.92,-0.4 -1.04,-0.72 -0.28,0.2 -0.68,0.4 -0.96,0.4 -0.48,0 -0.8,-0.16 -1.12,-0.24 -0.32,-0.08 -0.64,-0.16 -1.12,-0.16 -0.28,0 -0.56,0.04 -0.92,0.16 -0.36,0.12 -0.8,0.24 -1.44,0.24 -0.32,0 -0.68,-0.04 -0.96,-0.12 -0.28,-0.08 -0.48,-0.16 -0.64,-0.28 -0.28,0.4 -0.72,0.68 -1.24,0.72 l 0.36,3.44 0.32,0 0,-1.32 c 0.04,-0.32 0.12,-0.44 0.32,-0.44 0.16,0 0.2,0.12 0.2,0.44 l 0,8.28 c 0,1.84 -0.36,2.84 -0.72,3.2 0.28,0.24 0.48,0.56 0.48,0.8 0,0.28 -0.2,0.64 -0.48,0.8 0.28,0.4 0.72,1.36 0.72,3.96 l 0,7.68 c 0,0.44 -0.08,0.6 -0.28,0.6 -0.2,0 -0.24,-0.16 -0.24,-0.64 l 0,-1.28 -0.36,0 -0.36,3.6 c 0.4,0.08 1.04,0.48 1.2,0.84 0.28,-0.28 0.64,-0.4 1,-0.4 0.48,0 0.96,0.08 1.36,0.16 0.4,0.08 0.8,0.24 1.28,0.24 0.6,0 0.92,-0.12 1.24,-0.2 0.28,-0.08 0.6,-0.2 1.12,-0.2 0.24,0 0.44,0.04 0.64,0.08 0.2,0.04 0.36,0.12 0.56,0.2 0.12,-0.24 0.76,-0.6 1.08,-0.68 -0.28,-0.32 -0.36,-0.56 -0.36,-2.52 l 0,-3.56 c 0,-1 0.16,-1.76 0.44,-2.12 -1.12,-0.52 -1.4,-0.72 -1.4,-3.36 l -0.28,0 c 0,2.48 -0.32,2.84 -1.4,3.28 0.24,0.48 0.28,1.28 0.28,2.2 l 0,2.88 c 0,1.76 -0.24,2.04 -1,2.04 -0.84,0 -1.16,-0.28 -1.16,-1.24 l 0,-8.2" />
      <path
         id="path3044"
         style="font-variant:normal;font-weight:500;font-stretch:normal;font-family:Mesquite Std;-inkscape-font-specification:Mesquite Std Medium"
         d="m 345.36363,217.33361 c 0,1.4 -0.2,1.88 -0.84,1.88 -0.8,0 -1,-0.36 -1,-1.88 l 0,-2.64 c 0,-1.04 0.04,-1.64 0.32,-1.96 -1.15999,-0.4 -1.48,-1.04 -1.48,-3.28 l -0.28,0 c 0,2.44 -0.44,2.76 -1.44,3.28 0.2,0.36 0.28,0.72 0.28,1.72 l 0,2.64 c 0,3.08 1.08001,3.88 2.72,4.24 0.2,-0.2 0.6,-0.4 1.12,-0.4 0.28,0 0.52,0.04 0.72,0.08 0.2,0.08 0.36,0.16 0.44,0.32 1.96,-0.4 2.6,-2.12 2.6,-4.56 l 0,-9.08 c 0,-3.72 -1.36,-4.6 -3.08,-4.6 -0.92,0 -1.4,0.28 -2.04,0.68 l 0,-7.72 c 0,-1.64 0.08,-2.04 1.24,-2.04 1.28,0 1.36,0.4 1.36,2.04 l 0,1.28 c 0,1.32 -0.16,1.8 -0.44,2.16 1.08,0.4 1.36,0.92 1.36,3.04 l 0.28,0 c 0,-2.12 0.32001,-2.64 1.4,-3.04 -0.24,-0.44 -0.28,-1.12 -0.28,-2.16 l 0,-4.04 c 0,-1.12 0.12,-1.68 0.36,-1.92 -0.4,0 -0.92,-0.36 -1.04,-0.72 -0.24,0.2 -0.56,0.4 -1,0.4 -0.4,0 -0.64,-0.12 -0.92,-0.24 -0.28,-0.12 -0.56,-0.16 -1.04,-0.16 -0.52,0 -0.84,0.04 -1.12,0.16 -0.32,0.12 -0.56,0.24 -0.92,0.24 -0.32,0 -0.64,-0.04 -0.92,-0.08 -0.28,-0.08 -0.48,-0.2 -0.64,-0.32 l -0.24,0.2 c 0.24,0.4 0.28,1 0.28,3.84 l 0,12.08 c 0.36,0 0.84,0.28 1,0.68 0.32,-0.8 1.2,-1.56 2,-1.56 1.12,0 1.24,0.52 1.24,2.92 l 0,8.52" />
      <path
         id="path3046"
         style="font-variant:normal;font-weight:500;font-stretch:normal;font-family:Mesquite Std;-inkscape-font-specification:Mesquite Std Medium"
         d="m 356.11363,209.69361 c 0,-1.8 0.24,-2.6 0.6,-2.84 -0.28,-0.12 -0.44,-0.44 -0.44,-0.76 0,-0.28 0.2,-0.64 0.44,-0.76 -0.24,-0.24 -0.6,-1.04 -0.6,-2.84 l 0,-8.88 c 0,-0.72 0.2,-0.92 0.56,-0.92 0.4,0 0.64,0.2 0.64,0.92 l 0,3.68 c 0,1.52 -0.12,1.76 -0.36,2.16 1.12,0.44 1.4,0.96 1.4,3.36 l 0.28,0 c 0,-2.12 0.24001,-2.88 1.36,-3.36 -0.2,-0.2 -0.48,-0.8 -0.48,-2.16 l 0,-5.92 c -0.4,0 -0.96,-0.36 -1.16,-0.72 -0.2,0.24 -0.68,0.4 -1.08,0.4 -0.2,0 -0.4,-0.04 -0.6,-0.12 -0.16,-0.08 -0.32,-0.2 -0.44,-0.28 -0.28,0.24 -0.96,0.4 -1.88,0.4 -0.36,0 -0.72,-0.04 -1,-0.12 -0.28,-0.08 -0.52,-0.16 -0.68,-0.28 -0.2,0.2 -0.64,0.4 -1.04,0.4 -0.2,0 -0.4,-0.04 -0.6,-0.12 -0.2,-0.08 -0.36,-0.16 -0.48,-0.28 -0.2,0.36 -0.76,0.72 -1.16,0.72 l 0,5.92 c 0,1.36 -0.28,1.96 -0.48,2.16 1.12,0.48 1.36,1.24 1.36,3.36 l 0.28,0 c 0,-2.4 0.28001,-2.92 1.4,-3.36 -0.24,-0.4 -0.36,-0.64 -0.36,-2.16 l 0,-3.68 c 0,-0.72 0.24,-0.92 0.64,-0.92 0.36,0 0.56,0.2 0.56,0.92 l 0,8.88 c 0,1.8 -0.32,2.52 -0.68,2.88 0.28,0.2 0.44,0.52 0.44,0.8 0,0.28 -0.16,0.6 -0.4,0.76 0.36,0.32 0.64,1.24 0.64,2.76 l 0,8.8 c 0,0.2 0,0.44 -0.16,0.44 -0.16,0 -0.28,-0.12 -0.28,-0.44 l 0,-1.04 -0.32,0 -0.48,3.16 c 0.4,0 1.2,0.36 1.36,0.72 0.32,-0.28 1.04,-0.4 1.56,-0.4 0.28,0 0.64,0.04 0.92,0.08 0.32,0.08 0.64,0.16 0.8,0.32 0.2,-0.36 0.76,-0.76 1.16,-0.76 l -0.28,-3.2 -0.36,0 0,1.08 c 0,0.24 -0.04,0.44 -0.24,0.44 -0.2,0 -0.36,-0.12 -0.36,-0.48 l 0,-8.72" />
      <path
         id="path3048"
         style="font-variant:normal;font-weight:500;font-stretch:normal;font-family:Mesquite Std;-inkscape-font-specification:Mesquite Std Medium"
         d="m 364.46051,209.05361 c 0,-1.92 0.56,-2.32 1.44,-2.32 0.76,0 1.52,0.32 1.52,2.32 l 0,9.28 c 0,0.56 -0.12,0.6 -0.28,0.6 -0.12,0 -0.24,-0.04 -0.24,-0.6 l 0,-1.28 -0.28,0 -0.52,3.52 c 0.44,0 1.24,0.44 1.36,0.76 0.24,-0.24 0.84,-0.4 1.52,-0.4 0.36,0 0.68,0.04 0.96,0.12 0.32,0.04 0.56,0.16 0.72,0.28 0.16,-0.4 0.88,-0.76 1.24,-0.76 l -0.36,-3.44 -0.32,0 0,1.2 c 0,0.52 -0.08,0.64 -0.24,0.64 -0.16,0 -0.28,-0.08 -0.28,-0.64 l 0,-8.28 c 0,-2.28 0.4,-2.96 0.84,-3.24 -0.28,-0.12 -0.44,-0.48 -0.44,-0.84 0,-0.32 0.12,-0.64 0.44,-0.88 -0.56,-0.32 -0.84,-0.88 -0.84,-3.76 l 0,-7.96 c 0,-0.36 0.08,-0.44 0.2,-0.44 0.12,0 0.2,0.08 0.2,0.44 l 0,1.32 0.36,0 0.32,-3.32 c -0.36,0 -0.92,-0.4 -1.08,-0.72 -0.28,0.24 -0.8,0.4 -1.64,0.4 -0.4,0 -0.76,-0.08 -1,-0.16 -0.24,-0.08 -0.4,-0.16 -0.52,-0.24 -0.12,0.2 -0.72,0.56 -1.16,0.56 l 0.24,3.6 0.32,0 0.04,-1.44 c 0,-0.44 0.08,-0.48 0.2,-0.48 0.2,0 0.24,0.08 0.24,0.44 l 0,9.36 c 0,1.52 -0.44,2.32 -1.52,2.32 -1,0 -1.44,-0.56 -1.44,-2.32 l 0,-8.84 c 0,-0.76 0.08,-1 0.36,-1 0.2,0 0.28,0.12 0.28,0.48 l 0,1.32 0.28,0 0.56,-3.4 c -0.4,0 -1.16,-0.36 -1.32,-0.6 -0.32,0.2 -1.04,0.4 -1.72,0.4 -0.36,0 -0.68,-0.04 -1,-0.12 -0.28,-0.08 -0.52,-0.2 -0.72,-0.28 -0.12,0.2 -0.72,0.52 -1.08,0.52 l 0.28,3.44 0.36,0 0,-1.12 c 0,-0.36 0.04,-0.56 0.24,-0.56 0.16,0 0.2,0.08 0.2,0.64 l 0,7.76 c 0,2.6 -0.32,3.32 -0.64,3.64 0.28,0.24 0.48,0.6 0.48,0.96 0,0.32 -0.16,0.56 -0.48,0.8 0.4,0.4 0.64,1.28 0.64,3.32 l 0,8.12 c 0,0.44 -0.04,0.64 -0.24,0.64 -0.2,0 -0.28,-0.16 -0.28,-0.6 l 0,-1.32 -0.32,0 -0.36,3.6 c 0.44,0 1.28,0.52 1.4,0.84 0.24,-0.24 0.76,-0.4 1.56,-0.4 0.4,0 0.76,0.04 1.04,0.12 0.32,0.08 0.56,0.2 0.72,0.28 0.04,-0.28 0.68,-0.76 1.04,-0.76 l -0.4,-3.56 -0.28,0 0,1.24 c 0,0.36 -0.12,0.52 -0.28,0.52 -0.16,0 -0.32,-0.12 -0.32,-0.6 l 0,-9.12" />
      <path
         id="path3050"
         style="font-variant:normal;font-weight:500;font-stretch:normal;font-family:Mesquite Std;-inkscape-font-specification:Mesquite Std Medium"
         d="m 378.51863,202.13361 c 0,2.2 -0.32,2.64 -0.72,3.04 0.32,0.16 0.52,0.48 0.52,0.76 0,0.28 -0.2,0.56 -0.52,0.76 0.32,0.4 0.72,1.04 0.72,2.68 l 0,8.44 c 0,2.36 2.32001,3.56 3.36,3.52 0.2,-0.36 0.64,-0.4 1.2,-0.4 0.28,0 0.52,0 0.76,0.08 0.2,0.04 0.36,0.16 0.48,0.32 1.04,0.04 3.32,-1.28 3.32,-4.96 l 0,-6.32 c 0,-2.28 0.32,-3.16 0.72,-3.52 -0.4,-0.24 -0.52,-0.52 -0.52,-0.8 0,-0.28 0.2,-0.68 0.52,-0.88 -0.44,-0.44 -0.72,-0.72 -0.72,-3.4 l 0,-7.28 c 0,-2.84 -2.28,-3.52 -3.2,-3.52 -0.16,0.24 -0.68,0.4 -1.28,0.4 -0.28,0 -0.6,-0.04 -0.84,-0.12 -0.2,-0.08 -0.4,-0.16 -0.48,-0.28 -1.71999,0 -3.32,1.8 -3.32,4 l 0,7.48 m 3.44,-8.16 c 0,-1 0.32,-1.4 1.16,-1.4 0.84,0 1.08,0.44 1.08,1.36 l 0,7.92 c 0,1.52 -0.12,2.68 -0.68,3.16 0.32,0.2 0.52,0.56 0.52,0.84 0,0.28 -0.24,0.6 -0.52,0.8 0.36,0.36 0.68,0.92 0.68,3.56 l 0,7.6 c 0,1.2 -0.4,1.52 -1.12,1.52 -0.76,0 -1.12,-0.4 -1.12,-1.52 l 0,-7.4 c 0,-1.96 0.16,-3.2 0.64,-3.64 -0.36,-0.28 -0.52,-0.6 -0.52,-0.92 0,-0.32 0.16,-0.68 0.52,-0.88 -0.32,-0.32 -0.64,-0.84 -0.64,-3.16 l 0,-7.84" />
      <path
         id="path3052"
         style="font-variant:normal;font-weight:500;font-stretch:normal;font-family:Mesquite Std;-inkscape-font-specification:Mesquite Std Medium"
         d="m 390.24301,202.49361 c 0,1.4 -0.4,2.2 -0.68,2.52 0.24,0.16 0.48,0.52 0.48,0.84 0,0.32 -0.24,0.64 -0.48,0.8 0.24,0.24 0.68,1 0.68,2.76 l 0,8.96 c 0,0.4 -0.04,0.52 -0.2,0.52 -0.16,0 -0.28,-0.12 -0.28,-0.48 l 0,-1.28 -0.32,0 -0.36,3.44 c 0.4,0 1.16,0.48 1.32,0.76 0.4,-0.28 1.12,-0.4 1.64,-0.4 0.24,0 0.6,0.04 0.92,0.12 0.32,0.04 0.64,0.16 0.84,0.28 0.08,-0.32 0.76,-0.76 1.08,-0.76 l -0.36,-3.32 -0.28,0 0,1.24 c 0,0.32 -0.08,0.44 -0.28,0.44 -0.2,0 -0.36,-0.16 -0.36,-0.48 l 0,-9.92 c 0,-1 0.2,-1.4 0.68,-1.4 0.4,0 0.6,0.28 0.6,0.52 0,0.28 -0.08,0.6 -0.28,0.88 -0.2,0.28 -0.24,0.64 -0.24,0.88 0,0.8 0.6,1.12 1.08,1.16 -0.12,-0.2 -0.28,-0.4 -0.28,-0.72 0,-0.28 0.08,-0.48 0.48,-0.84 0.28,-0.28 0.72,-0.8 0.72,-1.24 0,-0.48 -0.28,-0.76 -0.68,-1 l 1,-0.8 -1,-0.72 c 0.36,-0.36 0.68,-0.88 0.68,-1.24 0,-0.36 -0.4,-0.88 -0.68,-1.2 -0.36,-0.36 -0.48,-0.6 -0.48,-0.76 0,-0.2 0.04,-0.4 0.2,-0.56 -0.6,0 -0.88,0.48 -0.88,0.92 0,0.44 0.08,0.88 0.2,1.12 0.08,0.24 0.16,0.44 0.16,0.64 0,0.28 -0.24,0.48 -0.6,0.48 -0.44,0 -0.68,-0.32 -0.68,-1.72 l 0,-8.36 c 0,-1.48 0.28,-1.72 1.08,-1.72 0.8,0 1.12,0.24 1.12,1.72 l 0,3.4 c 0,0.8 -0.12,1.16 -0.44,1.48 1.08,0.36 1.44,0.92 1.44,3.04 l 0.32,0 c 0,-2.12 0.28,-2.68 1.4,-3.08 -0.36,-0.32 -0.4,-0.68 -0.4,-1.44 l 0,-3.08 c 0,-1.84 0.16,-2.88 0.48,-3.28 -0.44,-0.04 -0.8,-0.36 -0.88,-0.72 -0.2,0.16 -0.76,0.32 -1.16,0.32 -0.48,0 -0.8,-0.12 -1.12,-0.24 -0.32,-0.12 -0.68,-0.32 -1.12,-0.32 -0.44,0 -0.84,0.16 -1.12,0.28 -0.32,0.08 -0.6,0.12 -1.2,0.12 -0.4,0 -0.72,0 -0.96,-0.08 -0.24,-0.04 -0.44,-0.16 -0.6,-0.32 -0.08,0.48 -0.84,0.84 -1.28,0.8 l 0.24,3.4 0.36,0 0,-1.12 c 0,-0.4 0.08,-0.56 0.28,-0.56 0.16,0 0.2,0.08 0.2,0.52 l 0,8.8" />
      <path
         id="path3054"
         style="font-variant:normal;font-weight:500;font-stretch:normal;font-family:Mesquite Std;-inkscape-font-specification:Mesquite Std Medium"
         d="m 410.16488,218.25361 c 0,0.64 -0.08,0.84 -0.28,0.84 -0.16,0 -0.32,-0.08 -0.32,-0.4 l 0,-1.44 -0.28,0 -0.36,3.36 c 0.44,0 1,0.32 1.2,0.72 0.2,-0.28 0.6,-0.4 1,-0.4 0.2,0 0.44,0.04 0.64,0.12 0.2,0.04 0.36,0.16 0.44,0.28 0.24,-0.4 0.92,-0.68 1.44,-0.68 l -0.32,-3.4 -0.28,0 0,1.24 c 0,0.48 -0.16,0.6 -0.28,0.6 -0.16,0 -0.32,-0.08 -0.32,-0.6 l 0,-8.4 c 0,-1.92 0.16,-2.84 0.44,-3.24 -0.28,-0.2 -0.44,-0.56 -0.44,-0.84 0,-0.32 0.16,-0.64 0.44,-0.88 -0.24,-0.24 -0.44,-1.04 -0.44,-2.16 l 0,-3.72 0.2,0 0.52,3.72 c 0.12,0.72 0.16,1.72 -0.04,2.12 0.4,0.36 0.44,0.6 0.44,0.92 0.04,0.28 -0.08,0.64 -0.28,0.84 0.36,0.32 0.76,1.2 1.04,2.84 l 1.76,11.04 c 0.48,0 1.12,0.16 1.44,0.6 0.28,-0.44 1.04,-0.68 1.48,-0.68 l 0.12,-9.6 c 0.04,-2.24 0.44,-3.92 0.8,-4.2 -0.36,-0.2 -0.56,-0.56 -0.56,-0.84 0,-0.28 0.04,-0.56 0.48,-0.88 -0.28,-0.28 -0.72,-1.12 -0.72,-3.16 l 0,-8.12 c 0,-0.64 0.08,-0.76 0.28,-0.76 0.2,0 0.32,0.12 0.32,0.52 l 0,1.08 0.28,0 0.32,-3.44 c -0.44,0 -0.96,-0.32 -1.04,-0.6 -0.24,0.16 -0.72,0.4 -1.2,0.4 -0.2,0 -0.44,-0.08 -0.64,-0.16 -0.2,-0.08 -0.36,-0.2 -0.48,-0.24 -0.16,0.24 -0.8,0.6 -1.32,0.6 l 0.36,3.52 0.32,0 0,-1.04 c 0,-0.52 0.2,-0.68 0.32,-0.68 0.16,0 0.32,0.04 0.32,0.48 l 0,11.6 -0.2,0 -2.68,-13.88 c -0.48,0.08 -1.12,-0.28 -1.32,-0.6 -0.32,0.16 -0.72,0.4 -1.24,0.4 -0.24,0 -0.48,-0.08 -0.68,-0.16 -0.2,-0.08 -0.36,-0.16 -0.56,-0.24 -0.28,0.32 -0.84,0.56 -1.4,0.56 l 0.4,3.52 0.28,0 0,-1.2 c 0,-0.4 0.12,-0.56 0.32,-0.56 0.24,0 0.28,0.08 0.28,0.68 l 0,8.28 c 0,2.32 -0.24,2.8 -0.68,3.2 0.28,0.28 0.44,0.64 0.44,0.92 0,0.28 -0.16,0.6 -0.44,0.8 0.36,0.36 0.68,1 0.68,3.08 l 0,8.32" />
      <path
         id="path3056"
         style="font-variant:normal;font-weight:500;font-stretch:normal;font-family:Mesquite Std;-inkscape-font-specification:Mesquite Std Medium"
         d="m 421.64363,202.13361 c 0,2.2 -0.32,2.64 -0.72,3.04 0.32,0.16 0.52,0.48 0.52,0.76 0,0.28 -0.2,0.56 -0.52,0.76 0.32,0.4 0.72,1.04 0.72,2.68 l 0,8.44 c 0,2.36 2.32001,3.56 3.36,3.52 0.2,-0.36 0.64,-0.4 1.2,-0.4 0.28,0 0.52,0 0.76,0.08 0.2,0.04 0.36,0.16 0.48,0.32 1.04,0.04 3.32,-1.28 3.32,-4.96 l 0,-6.32 c 0,-2.28 0.32,-3.16 0.72,-3.52 -0.4,-0.24 -0.52,-0.52 -0.52,-0.8 0,-0.28 0.2,-0.68 0.52,-0.88 -0.44,-0.44 -0.72,-0.72 -0.72,-3.4 l 0,-7.28 c 0,-2.84 -2.28,-3.52 -3.2,-3.52 -0.16,0.24 -0.68,0.4 -1.28,0.4 -0.28,0 -0.6,-0.04 -0.84,-0.12 -0.2,-0.08 -0.4,-0.16 -0.48,-0.28 -1.71999,0 -3.32,1.8 -3.32,4 l 0,7.48 m 3.44,-8.16 c 0,-1 0.32,-1.4 1.16,-1.4 0.84,0 1.08,0.44 1.08,1.36 l 0,7.92 c 0,1.52 -0.12,2.68 -0.68,3.16 0.32,0.2 0.52,0.56 0.52,0.84 0,0.28 -0.24,0.6 -0.52,0.8 0.36,0.36 0.68,0.92 0.68,3.56 l 0,7.6 c 0,1.2 -0.4,1.52 -1.12,1.52 -0.76,0 -1.12,-0.4 -1.12,-1.52 l 0,-7.4 c 0,-1.96 0.16,-3.2 0.64,-3.64 -0.36,-0.28 -0.52,-0.6 -0.52,-0.92 0,-0.32 0.16,-0.68 0.52,-0.88 -0.32,-0.32 -0.64,-0.84 -0.64,-3.16 l 0,-7.84" />
      <path
         id="path3058"
         style="font-variant:normal;font-weight:500;font-stretch:normal;font-family:Mesquite Std;-inkscape-font-specification:Mesquite Std Medium"
         d="m 434.38676,220.53361 c 0.28,0 0.76,0.44 0.88,0.8 0.24,-0.28 0.6,-0.4 1.2,-0.4 0.32,0 0.6,0.04 0.8,0.08 0.24,0.08 0.4,0.16 0.52,0.32 0.12,-0.4 0.6,-0.84 0.92,-0.84 l 1.08,-11.12 c 0.16,-1.72 0.56,-2.32 0.92,-2.56 -0.36,-0.2 -0.6,-0.56 -0.6,-0.88 0,-0.32 0.24,-0.6 0.52,-0.8 -0.28,-0.32 -0.4,-1.08 -0.24,-2.84 l 0.72,-8.68 c 0.04,-0.28 0.08,-0.4 0.2,-0.4 0.12,0 0.2,0.12 0.2,0.4 l 0,1.24 0.36,0 0.44,-3.48 c -0.32,0 -0.92,-0.28 -1.12,-0.72 -0.24,0.28 -0.76,0.4 -1.24,0.4 -0.24,0 -0.48,-0.04 -0.72,-0.12 -0.24,-0.08 -0.44,-0.16 -0.56,-0.28 -0.16,0.4 -0.72,0.68 -1.08,0.68 l 0,3.6 0.4,0 0.16,-1.28 c 0.04,-0.36 0.16,-0.48 0.28,-0.48 0.24,0 0.24,0.24 0.2,0.72 l -0.72,8.88 c -0.08,0.92 -0.28,1.8 -0.6,2.28 0.2,0.28 0.36,0.6 0.36,0.92 0,0.32 -0.12,0.56 -0.4,0.84 0.12,0.2 0.24,0.56 0.2,1.52 l -0.16,4 -0.28,0 -0.16,-3.92 c -0.04,-0.8 0.08,-1.36 0.28,-1.6 -0.24,-0.2 -0.44,-0.56 -0.44,-0.84 0,-0.28 0.2,-0.68 0.48,-0.92 -0.4,-0.4 -0.76,-1.24 -0.84,-3.24 l -0.4,-8.04 c 0,-0.36 0.04,-0.52 0.12,-0.52 0.12,0 0.2,0.12 0.24,0.52 l 0.12,1.16 0.32,0 0,-3.6 c -0.6,0 -1,-0.28 -1.16,-0.68 -0.24,0.28 -1,0.4 -1.68,0.4 -0.36,0 -0.68,-0.04 -1,-0.12 -0.28,-0.08 -0.48,-0.16 -0.64,-0.28 -0.12,0.36 -0.64,0.8 -1.16,0.8 l 0.6,3.52 0.32,0 0,-1.48 c 0,-0.2 0.12,-0.32 0.24,-0.32 0.16,0 0.28,0.08 0.32,0.68 l 0.56,9.56 c 0.08,1.16 -0.2,1.6 -0.52,1.96 0.32,0.2 0.48,0.4 0.48,0.68 0,0.28 -0.16,0.6 -0.4,0.76 0.4,0.4 0.84,0.84 1.08,4.44 l 0.6,9.28" />
      <path
         id="path3060"
         style="font-variant:normal;font-weight:500;font-stretch:normal;font-family:Mesquite Std;-inkscape-font-specification:Mesquite Std Medium"
         d="m 441.63613,220.61361 c 0.32,0.08 0.64,0.4 0.72,0.72 0.16,-0.24 0.56,-0.4 1.04,-0.4 0.24,0 0.48,0.04 0.64,0.12 0.2,0.04 0.32,0.16 0.4,0.28 0.2,-0.32 0.44,-0.64 0.76,-0.72 l 0,-3.56 c -0.32,-0.08 -0.64,-0.4 -0.76,-0.72 -0.16,0.16 -0.56,0.32 -1.04,0.32 -0.48,0 -0.88,-0.16 -1.04,-0.32 -0.08,0.24 -0.4,0.64 -0.72,0.72 l 0,3.56" />
    </g>
  </g>
</svg>
