<?xml version="1.0" encoding="UTF-8" standalone="no"?>
<!-- Created with Inkscape (http://www.inkscape.org/) -->

<svg
   xmlns:dc="http://purl.org/dc/elements/1.1/"
   xmlns:cc="http://creativecommons.org/ns#"
   xmlns:rdf="http://www.w3.org/1999/02/22-rdf-syntax-ns#"
   xmlns:svg="http://www.w3.org/2000/svg"
   xmlns="http://www.w3.org/2000/svg"
   xmlns:xlink="http://www.w3.org/1999/xlink"
   xmlns:sodipodi="http://sodipodi.sourceforge.net/DTD/sodipodi-0.dtd"
   xmlns:inkscape="http://www.inkscape.org/namespaces/inkscape"
   version="1.0"
   id="svg2"
   sodipodi:version="0.32"
   inkscape:version="0.48.4 r9939"
   sodipodi:docname="python.svg"
   width="617.25378"
   height="229.87221">
  <metadata
     id="metadata371">
    <rdf:RDF>
      <cc:Work
         rdf:about="">
        <dc:format>image/svg+xml</dc:format>
        <dc:type
           rdf:resource="http://purl.org/dc/dcmitype/StillImage" />
      </cc:Work>
    </rdf:RDF>
  </metadata>
  <sodipodi:namedview
     inkscape:window-height="1138"
     inkscape:window-width="1920"
     inkscape:pageshadow="2"
     inkscape:pageopacity="0.0"
     guidetolerance="10.0"
     gridtolerance="10.0"
     objecttolerance="10.0"
     borderopacity="1.0"
     bordercolor="#666666"
     pagecolor="#ffffff"
     id="base"
     inkscape:zoom="1.0730821"
     inkscape:cx="242.16888"
     inkscape:cy="-19.848682"
     inkscape:window-x="-8"
     inkscape:window-y="-8"
     inkscape:current-layer="svg2"
     width="210mm"
     height="40mm"
     units="mm"
     showgrid="false"
     fit-margin-top="10"
     fit-margin-left="10"
     fit-margin-right="10"
     fit-margin-bottom="10"
     inkscape:window-maximized="1" />
  <defs
     id="defs4">
    <linearGradient
       id="linearGradient2795">
      <stop
         style="stop-color:#b8b8b8;stop-opacity:0.49803922;"
         offset="0"
         id="stop2797" />
      <stop
         style="stop-color:#7f7f7f;stop-opacity:0;"
         offset="1"
         id="stop2799" />
    </linearGradient>
    <linearGradient
       id="linearGradient2787">
      <stop
         style="stop-color:#7f7f7f;stop-opacity:0.5;"
         offset="0"
         id="stop2789" />
      <stop
         style="stop-color:#7f7f7f;stop-opacity:0;"
         offset="1"
         id="stop2791" />
    </linearGradient>
    <linearGradient
       id="linearGradient3676">
      <stop
         style="stop-color:#b2b2b2;stop-opacity:0.5;"
         offset="0"
         id="stop3678" />
      <stop
         style="stop-color:#b3b3b3;stop-opacity:0;"
         offset="1"
         id="stop3680" />
    </linearGradient>
    <linearGradient
       id="linearGradient3236">
      <stop
         style="stop-color:#f4f4f4;stop-opacity:1"
         offset="0"
         id="stop3244" />
      <stop
         style="stop-color:white;stop-opacity:1"
         offset="1"
         id="stop3240" />
    </linearGradient>
    <linearGradient
       id="linearGradient4671">
      <stop
         style="stop-color:#ffd43b;stop-opacity:1;"
         offset="0"
         id="stop4673" />
      <stop
         style="stop-color:#ffe873;stop-opacity:1"
         offset="1"
         id="stop4675" />
    </linearGradient>
    <linearGradient
       id="linearGradient4689">
      <stop
         style="stop-color:#5a9fd4;stop-opacity:1;"
         offset="0"
         id="stop4691" />
      <stop
         style="stop-color:#306998;stop-opacity:1;"
         offset="1"
         id="stop4693" />
    </linearGradient>
    <linearGradient
       x1="224.23996"
       y1="144.75717"
       x2="-65.308502"
       y2="144.75717"
       id="linearGradient2987"
       xlink:href="#linearGradient4671"
       gradientUnits="userSpaceOnUse"
       gradientTransform="translate(100.2702,99.61116)" />
    <linearGradient
       x1="172.94208"
       y1="77.475983"
       x2="26.670298"
       y2="76.313133"
       id="linearGradient2990"
       xlink:href="#linearGradient4689"
       gradientUnits="userSpaceOnUse"
       gradientTransform="translate(100.2702,99.61116)" />
    <linearGradient
       inkscape:collect="always"
       xlink:href="#linearGradient4689"
       id="linearGradient2587"
       gradientUnits="userSpaceOnUse"
       gradientTransform="translate(100.2702,99.61116)"
       x1="172.94208"
       y1="77.475983"
       x2="26.670298"
       y2="76.313133" />
    <linearGradient
       inkscape:collect="always"
       xlink:href="#linearGradient4671"
       id="linearGradient2589"
       gradientUnits="userSpaceOnUse"
       gradientTransform="translate(100.2702,99.61116)"
       x1="224.23996"
       y1="144.75717"
       x2="-65.308502"
       y2="144.75717" />
    <linearGradient
       inkscape:collect="always"
       xlink:href="#linearGradient4689"
       id="linearGradient2248"
       gradientUnits="userSpaceOnUse"
       gradientTransform="translate(100.2702,99.61116)"
       x1="172.94208"
       y1="77.475983"
       x2="26.670298"
       y2="76.313133" />
    <linearGradient
       inkscape:collect="always"
       xlink:href="#linearGradient4671"
       id="linearGradient2250"
       gradientUnits="userSpaceOnUse"
       gradientTransform="translate(100.2702,99.61116)"
       x1="224.23996"
       y1="144.75717"
       x2="-65.308502"
       y2="144.75717" />
    <linearGradient
       inkscape:collect="always"
       xlink:href="#linearGradient4671"
       id="linearGradient2255"
       gradientUnits="userSpaceOnUse"
       gradientTransform="matrix(0.562541,0,0,0.567972,-11.5974,-7.60954)"
       x1="224.23996"
       y1="144.75717"
       x2="-65.308502"
       y2="144.75717" />
    <linearGradient
       inkscape:collect="always"
       xlink:href="#linearGradient4689"
       id="linearGradient2258"
       gradientUnits="userSpaceOnUse"
       gradientTransform="matrix(0.562541,0,0,0.567972,-11.5974,-7.60954)"
       x1="172.94208"
       y1="76.176224"
       x2="26.670298"
       y2="76.313133" />
    <radialGradient
       inkscape:collect="always"
       xlink:href="#linearGradient2795"
       id="radialGradient2801"
       cx="61.518883"
       cy="132.28575"
       fx="61.518883"
       fy="132.28575"
       r="29.036913"
       gradientTransform="matrix(1,0,0,0.177966,0,108.7434)"
       gradientUnits="userSpaceOnUse" />
    <linearGradient
       inkscape:collect="always"
       xlink:href="#linearGradient4671"
       id="linearGradient1475"
       gradientUnits="userSpaceOnUse"
       gradientTransform="matrix(0.562541,0,0,0.567972,20.441951,26.866121)"
       x1="150.96111"
       y1="192.35176"
       x2="112.03144"
       y2="137.27299" />
    <linearGradient
       inkscape:collect="always"
       xlink:href="#linearGradient4689"
       id="linearGradient1478"
       gradientUnits="userSpaceOnUse"
       gradientTransform="matrix(0.562541,0,0,0.567972,20.441951,26.866121)"
       x1="26.648937"
       y1="20.603781"
       x2="135.66525"
       y2="114.39767" />
    <radialGradient
       inkscape:collect="always"
       xlink:href="#linearGradient2795"
       id="radialGradient1480"
       gradientUnits="userSpaceOnUse"
       gradientTransform="matrix(2.382716e-8,-0.296405,1.43676,4.683673e-7,-128.544,150.5202)"
       cx="61.518883"
       cy="132.28575"
       fx="61.518883"
       fy="132.28575"
       r="29.036913" />
  </defs>
  <g
     id="g9942">
    <path
       inkscape:connector-curvature="0"
       d="m 214.45514,94.100801 c 0,-14.56215 -4.15226,-22.03817 -12.45678,-22.44755 -3.30427,-0.15595 -6.53055,0.37039 -9.66912,1.58878 -2.505,0.89673 -4.19124,1.78372 -5.07823,2.68045 l 0,34.758119 c 5.31216,3.33351 10.02976,4.88329 14.14303,4.63962 8.70415,-0.57508 13.0611,-7.64172 13.0611,-21.219419 z m 10.24419,0.60432 c 0,7.398039 -1.73498,13.538709 -5.22444,18.421999 -3.88909,5.5266 -9.27923,8.37275 -16.17042,8.52871 -5.1952,0.1657 -10.54635,-1.46207 -16.05346,-4.87355 l 0,31.59032 -8.90884,-3.17755 0,-70.120569 c 1.46206,-1.79346 3.34325,-3.3335 5.62407,-4.63961 5.30242,-3.08983 11.74524,-4.67861 19.32848,-4.75658 l 0.12671,0.12671 c 6.93018,-0.08773 12.27159,2.75843 16.02422,8.5287 3.4992,5.29267 5.25368,12.07665 5.25368,20.37142 z"
       style="fill:#646464;fill-opacity:1"
       id="path46" />
    <path
       inkscape:connector-curvature="0"
       d="m 279.14657,115.43718 c 0,9.92254 -0.9942,16.79424 -2.9826,20.6151 -1.99816,3.82086 -5.79952,6.8717 -11.41385,9.14277 -4.55189,1.79346 -9.47417,2.76817 -14.75709,2.93387 l -1.47181,-5.61432 c 5.37064,-0.73103 9.15252,-1.46207 11.34561,-2.1931 4.31796,-1.46206 7.28108,-3.70389 8.90884,-6.706 1.30611,-2.44652 1.94942,-7.11537 1.94942,-14.02606 l 0,-2.3198 c -6.09193,2.76817 -12.47628,4.14251 -19.15303,4.14251 -4.38619,0 -8.25579,-1.37434 -11.58929,-4.14251 -3.74289,-3.01186 -5.61433,-6.83272 -5.61433,-11.46258 l 0,-37.077929 8.90884,-3.05084 0,37.321599 c 0,3.98656 1.28662,7.0569 3.85985,9.21101 2.57323,2.1541 5.90674,3.18729 9.99077,3.10932 4.08403,-0.0877 8.46047,-1.66676 13.10983,-4.75658 l 0,-43.540249 8.90884,0 0,48.413789 z"
       style="fill:#646464;fill-opacity:1"
       id="path48" />
    <path
       inkscape:connector-curvature="0"
       d="m 313.92419,121.16847 c -1.06243,0.0877 -2.03714,0.12671 -2.93387,0.12671 -5.03925,0 -8.96733,-1.19889 -11.77449,-3.60642 -2.79742,-2.40753 -4.20099,-5.73129 -4.20099,-9.97127 l 0,-35.089529 -6.10168,0 0,-5.60457 6.10168,0 0,-14.88381 8.89909,-3.16781 0,18.05162 10.01026,0 0,5.60457 -10.01026,0 0,34.845849 c 0,3.34325 0.89673,5.71179 2.6902,7.09588 1.54004,1.14041 3.98656,1.79347 7.32006,1.95917 l 0,4.63961 z"
       style="fill:#646464;fill-opacity:1"
       id="path50" />
    <path
       inkscape:connector-curvature="0"
       d="m 367.86458,120.43744 -8.90884,0 0,-34.387729 c 0,-3.49921 -0.81876,-6.51106 -2.44651,-9.02581 -1.88119,-2.84615 -4.49342,-4.26923 -7.84641,-4.26923 -4.08404,0 -9.19152,2.15411 -15.32242,6.46233 l 0,41.220439 -8.90885,0 0,-82.197209 8.90885,-2.80716 0,37.43857 c 5.6923,-4.14251 11.91093,-6.21864 18.66566,-6.21864 4.7176,0 8.53846,1.58877 11.46258,4.75658 2.93388,3.1678 4.39594,7.11537 4.39594,11.83296 l 0,37.194899 0,0 z"
       style="fill:#646464;fill-opacity:1"
       id="path52" />
    <path
       inkscape:connector-curvature="0"
       d="m 415.21594,92.697221 c 0,-5.59483 -1.06242,-10.21495 -3.17755,-13.87011 -2.51474,-4.45442 -6.42332,-6.80347 -11.70625,-7.04715 -9.76658,0.56534 -14.64012,7.56375 -14.64012,20.97574 0,6.15042 1.01369,11.287129 3.06057,15.410149 2.61223,5.25368 6.53056,7.84641 11.755,7.75869 9.80557,-0.078 14.70835,-7.81717 14.70835,-23.227319 z m 9.75685,0.05848 c 0,7.963379 -2.03714,14.591399 -6.10168,19.884069 -4.47391,5.92623 -10.65357,8.89909 -18.53897,8.89909 -7.81716,0 -13.90909,-2.97286 -18.30503,-8.89909 -3.98656,-5.29267 -5.97497,-11.92069 -5.97497,-19.884069 0,-7.48576 2.15411,-13.78238 6.46232,-18.90935 4.5519,-5.43888 10.53661,-8.16806 17.93464,-8.16806 7.39805,0 13.42174,2.72918 18.06137,8.16806 4.3082,5.12697 6.46232,11.42359 6.46232,18.90935 z"
       style="fill:#646464;fill-opacity:1"
       id="path54" />
    <path
       inkscape:connector-curvature="0"
       d="m 476.04753,120.43744 -8.90884,0 0,-36.337149 c 0,-3.98656 -1.19889,-7.09588 -3.59667,-9.33772 -2.39779,-2.23208 -5.59483,-3.31401 -9.58139,-3.22628 -4.23023,0.07798 -8.25579,1.46206 -12.07664,4.14251 l 0,44.758639 -8.90884,0 0,-45.860059 c 5.12697,-3.73313 9.84456,-6.16991 14.15276,-7.31032 4.06455,-1.06243 7.65148,-1.58877 10.74131,-1.58877 2.11512,0 4.10352,0.20469 5.97496,0.61406 3.49921,0.80901 6.34535,2.31006 8.53845,4.51291 2.44651,2.43677 3.6649,5.3609 3.6649,8.78212 l 0,40.850059 z"
       style="fill:#646464;fill-opacity:1"
       id="path56" />
    <path
       inkscape:connector-curvature="0"
       id="path1948"
       d="m 90.351856,38.569411 c -4.583653,0.0213 -8.960939,0.412218 -12.8125,1.09375 -11.346216,2.004504 -13.406249,6.200102 -13.40625,13.9375 l 0,10.21875 26.8125,0 0,3.40625 -26.8125,0 -10.0625,0 c -7.792459,0 -14.615759,4.683717 -16.75,13.59375 -2.46182,10.212966 -2.571015,16.586023 0,27.249999 1.905928,7.93785 6.457543,13.59375 14.25,13.59375 l 9.21875,0 0,-12.25 c 0,-8.8499 7.657144,-16.656247 16.75,-16.656249 l 26.781254,0 c 7.45495,0 13.40625,-6.138164 13.40625,-13.625 l 0,-25.53125 c 0,-7.266339 -6.12998,-12.724778 -13.40625,-13.9375 -4.605991,-0.766725 -9.385101,-1.115048 -13.968754,-1.09375 z m -14.5,8.21875 c 2.769547,0 5.03125,2.298646 5.03125,5.125 -2e-6,2.816336 -2.261703,5.09375 -5.03125,5.09375 -2.779476,-1e-6 -5.03125,-2.277415 -5.03125,-5.09375 -10e-7,-2.826353 2.251774,-5.125 5.03125,-5.125 z"
       style="fill:url(#linearGradient1478);fill-opacity:1" />
    <path
       inkscape:connector-curvature="0"
       id="path1950"
       d="m 121.07061,67.225661 0,11.90625 c 0,9.230755 -7.8259,16.999999 -16.75,17 l -26.781254,0 c -7.335833,0 -13.406249,6.278479 -13.40625,13.624999 l 0,25.53125 c 0,7.26634 6.318588,11.54032 13.40625,13.625 8.487331,2.49561 16.626237,2.94663 26.781254,0 6.75015,-1.95439 13.40625,-5.88761 13.40625,-13.625 l 0,-10.21875 -26.781254,0 0,-3.40625 26.781254,0 13.40625,0 c 7.79246,0 10.69625,-5.43541 13.40624,-13.59375 2.79933,-8.398885 2.68022,-16.475775 0,-27.249999 -1.92578,-7.757441 -5.60387,-13.59375 -13.40624,-13.59375 l -10.0625,0 z m -15.0625,64.656249 c 2.77947,0 5.03125,2.27742 5.03125,5.09375 -1e-5,2.82635 -2.25178,5.125 -5.03125,5.125 -2.76955,0 -5.03125,-2.29865 -5.03125,-5.125 0,-2.81633 2.26169,-5.09375 5.03125,-5.09375 z"
       style="fill:url(#linearGradient1475);fill-opacity:1" />
    <path
       inkscape:connector-curvature="0"
       sodipodi:nodetypes="ccccccccccccccccccccccc"
       id="text3004"
       style="font-size:15.16445827px;font-style:normal;font-weight:normal;line-height:125%;fill:#646464;fill-opacity:1;stroke:none;font-family:Bitstream Vera Sans"
       d="m 493.3961,59.080821 1.56195,0 0,-9.79624 3.70013,0 0,-1.16766 -8.96221,0 0,1.16766 3.70013,0 0,9.79624 m 6.64702,0 1.33447,0 0,-8.94703 2.89641,8.945906 1.48569,0 3.01816,-8.915576 0,8.9167 1.45579,0 0,-10.9639 -1.92589,0 -3.29831,9.392857 -2.81297,-9.392857 -2.15335,0 0,10.9639" />
    <path
       transform="matrix(0.73406,0,0,0.809524,46.09128,59.180788)"
       d="m 110.46717,132.28575 a 48.948284,8.6066771 0 1 1 -97.896571,0 48.948284,8.6066771 0 1 1 97.896571,0 z"
       sodipodi:ry="8.6066771"
       sodipodi:rx="48.948284"
       sodipodi:cy="132.28575"
       sodipodi:cx="61.518883"
       id="path1894"
       style="opacity:0.44382019;fill:url(#radialGradient1480);fill-opacity:1;fill-rule:nonzero;stroke:none"
       sodipodi:type="arc" />
    <path
       d="m 262.26874,158.08655 0,27.53906 c -10e-6,0.60938 0.11718,1.04688 0.35157,1.3125 0.12498,0.15625 0.24217,0.25391 0.35156,0.29297 0.10936,0.0391 0.46873,0.13672 1.07812,0.29297 0.74999,0.17187 1.12499,0.60156 1.125,1.28906 -10e-6,0.40625 -0.20314,0.73437 -0.60937,0.98437 -0.29689,0.1875 -0.78908,0.28125 -1.47656,0.28125 l -0.79688,0 -10.45312,0 -0.60938,0 c -0.5625,0 -0.9961,-0.10547 -1.30078,-0.3164 -0.30469,-0.21094 -0.45703,-0.51172 -0.45703,-0.90235 0,-0.64062 0.3125,-1.0625 0.9375,-1.26562 0.51562,-0.17187 0.8164,-0.27734 0.90234,-0.31641 0.0859,-0.0391 0.17578,-0.1289 0.26953,-0.26953 0.1875,-0.25 0.28125,-0.64843 0.28125,-1.19531 l 0,-23.46094 c 0,-0.54685 -0.0937,-0.94528 -0.28125,-1.19531 -0.0937,-0.1406 -0.18359,-0.23044 -0.26953,-0.26953 -0.0859,-0.039 -0.38672,-0.14451 -0.90234,-0.31641 -0.625,-0.2031 -0.9375,-0.62497 -0.9375,-1.26562 0,-0.3906 0.15234,-0.69138 0.45703,-0.90235 0.30468,-0.2109 0.73828,-0.31637 1.30078,-0.3164 l 0.60938,0 z m 7.19532,16.3125 c 1.43747,0.21876 2.54294,0.46095 3.3164,0.72656 0.77341,0.26564 1.47263,0.62501 2.09766,1.07812 0.65622,0.48439 1.16013,1.06252 1.51172,1.73438 0.35153,0.67188 0.52731,1.38282 0.52734,2.13281 l 0,4.85156 c -3e-5,0.50001 0.16403,0.75001 0.49219,0.75 0.12497,1e-5 0.23044,-0.0352 0.3164,-0.10547 0.0859,-0.0703 0.20701,-0.20702 0.36329,-0.41015 0.39059,-0.53125 0.78903,-0.79687 1.19531,-0.79688 0.26559,1e-5 0.53122,0.14063 0.79687,0.42188 0.2656,0.28125 0.39841,0.5625 0.39844,0.84375 -3e-5,0.48438 -0.2305,1.07422 -0.69141,1.76953 -0.46096,0.69531 -1.03518,1.31641 -1.72265,1.86328 -0.64066,0.51563 -1.33597,0.88672 -2.08594,1.11328 -0.75003,0.22656 -1.63284,0.33984 -2.64844,0.33985 -2.06252,-10e-6 -3.67189,-0.58985 -4.82812,-1.76954 -1.15627,-1.17968 -1.7344,-2.82421 -1.73438,-4.93359 l 0,-3.9375 c -2e-5,-0.87499 -0.008,-1.3828 -0.0234,-1.52344 -0.0782,-0.62499 -0.2969,-1.16405 -0.65625,-1.61718 -0.45315,-0.54687 -1.10158,-0.86718 -1.94532,-0.96094 l 0,-2.50781 c 0.84374,-0.12499 1.4453,-0.34374 1.80469,-0.65625 0.31248,-0.28124 0.52733,-0.60155 0.64453,-0.96094 0.11717,-0.35936 0.17576,-0.89061 0.17578,-1.59375 l 0,-6.21094 c -2e-5,-0.98435 -0.19142,-1.71872 -0.57422,-2.20312 -0.38283,-0.48435 -1.07423,-0.86716 -2.07421,-1.14844 l 0,-2.60156 0.60937,0 c 1.73436,3e-5 3.21092,0.0625 4.42969,0.1875 1.81248,0.1719 3.42966,0.76565 4.85156,1.78125 2.04685,1.45315 3.07028,3.52346 3.07031,6.21093 -3e-5,2.20315 -0.68753,4.00783 -2.0625,5.41407 -0.57815,0.59376 -1.25393,1.07814 -2.02734,1.45312 -0.77346,0.37502 -1.94924,0.79689 -3.52734,1.26563 z"
       style="font-size:48px;font-style:normal;font-variant:normal;font-weight:normal;font-stretch:normal;text-align:center;line-height:125%;letter-spacing:0px;word-spacing:0px;writing-mode:lr-tb;text-anchor:middle;fill:#a6a6a6;fill-opacity:1;stroke:none;font-family:Stencil;-inkscape-font-specification:Stencil"
       id="path7680"
       inkscape:connector-curvature="0" />
    <path
       d="m 295.83124,158.08655 0,31.99218 -10.42968,0 -0.60938,0 c -0.5625,0 -0.9961,-0.10547 -1.30078,-0.3164 -0.30469,-0.21094 -0.45703,-0.51172 -0.45703,-0.90235 0,-0.64062 0.3125,-1.0625 0.9375,-1.26562 0.51562,-0.17187 0.8164,-0.27734 0.90234,-0.31641 0.0859,-0.0391 0.17578,-0.1289 0.26953,-0.26953 0.1875,-0.25 0.28125,-0.64843 0.28125,-1.19531 l 0,-23.46094 c 0,-0.54685 -0.0937,-0.94528 -0.28125,-1.19531 -0.0937,-0.1406 -0.18359,-0.23044 -0.26953,-0.26953 -0.0859,-0.039 -0.38672,-0.14451 -0.90234,-0.31641 -0.625,-0.2031 -0.9375,-0.62497 -0.9375,-1.26562 0,-0.3906 0.15234,-0.69138 0.45703,-0.90235 0.30468,-0.2109 0.73828,-0.31637 1.30078,-0.3164 l 0.60938,0 z m 2.08594,0 9.44531,0 0,8.29687 c -2e-5,0.4844 -0.0938,0.83596 -0.28125,1.05469 -0.18752,0.21877 -0.4844,0.32814 -0.89062,0.32812 -0.34378,2e-5 -0.59378,-0.0703 -0.75,-0.21093 -0.15628,-0.14061 -0.30471,-0.42967 -0.44531,-0.86719 -0.59378,-1.81248 -1.46487,-3.19529 -2.61329,-4.14844 -1.14845,-0.9531 -2.63673,-1.52341 -4.46484,-1.71094 z m -0.11719,17.0625 0,-2.71875 c 0.90624,-0.43749 1.57811,-0.91405 2.01563,-1.42969 0.43748,-0.51561 0.75779,-1.20311 0.96094,-2.0625 0.12498,-0.59373 0.28904,-1.00389 0.49218,-1.23047 0.20311,-0.22654 0.49217,-0.33982 0.86719,-0.33984 0.49998,2e-5 0.84373,0.19533 1.03125,0.58593 0.10935,0.20315 0.16404,0.66409 0.16406,1.38282 l 0,8.92968 c -2e-5,0.73439 -0.082,1.2422 -0.24609,1.52344 -0.16408,0.28126 -0.46487,0.42188 -0.90234,0.42188 -0.3594,0 -0.64065,-0.10937 -0.84375,-0.32813 -0.20315,-0.21874 -0.36721,-0.58593 -0.49219,-1.10156 -0.26565,-1.07812 -0.64455,-1.90624 -1.13672,-2.48438 -0.49221,-0.57811 -1.12892,-0.96092 -1.91016,-1.14843 z m 0.14063,14.92968 0,-2.53125 c 1.01561,-0.15624 1.85545,-0.37499 2.51953,-0.65625 0.66404,-0.28124 1.33201,-0.71093 2.00391,-1.28906 0.67185,-0.57812 1.207,-1.17578 1.60546,-1.79297 0.39842,-0.61718 0.77732,-1.43358 1.13672,-2.44922 0.17185,-0.49999 0.35154,-0.83983 0.53907,-1.01953 0.18747,-0.17968 0.44528,-0.26952 0.77343,-0.26953 0.43748,1e-5 0.74217,0.12892 0.91407,0.38672 0.17184,0.25782 0.25778,0.70704 0.25781,1.34766 l 0,8.27343 z"
       style="font-size:48px;font-style:normal;font-variant:normal;font-weight:normal;font-stretch:normal;text-align:center;line-height:125%;letter-spacing:0px;word-spacing:0px;writing-mode:lr-tb;text-anchor:middle;fill:#788f74;fill-opacity:1;stroke:none;font-family:Stencil;-inkscape-font-specification:Stencil"
       id="path7682"
       inkscape:connector-curvature="0" />
    <path
       d="m 324.04999,190.07873 -10.42968,0 -0.60938,0 c -0.5625,0 -0.9961,-0.10547 -1.30078,-0.3164 -0.30469,-0.21094 -0.45703,-0.51172 -0.45703,-0.90235 0,-0.64062 0.3125,-1.0625 0.9375,-1.26562 0.51562,-0.17187 0.8164,-0.27734 0.90234,-0.31641 0.0859,-0.0391 0.17578,-0.1289 0.26953,-0.26953 0.1875,-0.25 0.28125,-0.64843 0.28125,-1.19531 l 0,-23.46094 c 0,-0.54685 -0.0937,-0.94528 -0.28125,-1.19531 -0.0937,-0.1406 -0.18359,-0.23044 -0.26953,-0.26953 -0.0859,-0.039 -0.38672,-0.14451 -0.90234,-0.31641 -0.625,-0.2031 -0.9375,-0.62497 -0.9375,-1.26562 0,-0.3906 0.15234,-0.69138 0.45703,-0.90235 0.30468,-0.2109 0.73828,-0.31637 1.30078,-0.3164 l 0.60938,0 10.45312,0 0.79688,0 c 0.68748,3e-5 1.17967,0.0938 1.47656,0.28125 0.40623,0.25003 0.60936,0.57815 0.60937,0.98437 -10e-6,0.68753 -0.37501,1.11722 -1.125,1.28906 -0.60939,0.14066 -0.96876,0.23441 -1.07812,0.28125 -0.10939,0.0469 -0.22658,0.14066 -0.35156,0.28125 -0.23439,0.28128 -0.35158,0.71878 -0.35157,1.3125 z m 1.89844,0 0,-2.625 c 0.76561,-0.14062 1.37108,-0.29687 1.81641,-0.46875 0.44529,-0.17187 0.87107,-0.42187 1.27734,-0.75 0.65623,-0.51562 1.25779,-1.22655 1.80469,-2.13281 0.54685,-0.90624 0.99216,-1.91405 1.33594,-3.02344 0.24997,-0.85936 0.48044,-1.42577 0.6914,-1.69922 0.21092,-0.27342 0.51951,-0.41014 0.92578,-0.41015 0.43748,1e-5 0.75779,0.1797 0.96094,0.53906 0.0937,0.17189 0.1406,0.51564 0.14063,1.03125 l 0,9.53906 z"
       style="font-size:48px;font-style:normal;font-variant:normal;font-weight:normal;font-stretch:normal;text-align:center;line-height:125%;letter-spacing:0px;word-spacing:0px;writing-mode:lr-tb;text-anchor:middle;fill:#81a5a3;fill-opacity:1;stroke:none;font-family:Stencil;-inkscape-font-specification:Stencil"
       id="path7684"
       inkscape:connector-curvature="0" />
    <path
       d="m 346.24531,158.08655 9.44531,0 6.51562,27.53906 c 0.12498,0.48438 0.2656,0.91406 0.42188,1.28906 0.1406,0.29688 0.4531,0.53907 0.9375,0.72656 0.40622,0.17188 0.68747,0.34375 0.84375,0.51563 0.15622,0.17187 0.23434,0.40625 0.23437,0.70312 -3e-5,0.8125 -0.6094,1.21875 -1.82812,1.21875 l -11.69531,0 c -0.46877,0 -0.84377,-0.11328 -1.125,-0.33984 -0.28127,-0.22656 -0.42189,-0.52734 -0.42188,-0.90234 -10e-6,-0.3125 0.0625,-0.54688 0.1875,-0.70313 0.12499,-0.15625 0.40624,-0.35156 0.84375,-0.58594 0.31249,-0.15624 0.53123,-0.32812 0.65625,-0.51562 0.12498,-0.1875 0.18748,-0.42187 0.1875,-0.70313 -2e-5,-0.26562 -0.0234,-0.49999 -0.0703,-0.70312 l -0.75,-3.39844 -6.53906,0 0.63281,-2.78906 5.25,0 -4.3125,-19.05469 z m -1.61719,5.95312 1.19531,4.85156 -4.14844,15.14063 c -0.125,0.4375 -0.1875,0.84375 -0.1875,1.21875 0,0.98438 0.46093,1.6875 1.38282,2.10937 l 0.82031,0.375 c 0.51561,0.23438 0.77343,0.625 0.77344,1.17188 -1e-5,0.78125 -0.57033,1.17187 -1.71094,1.17187 l -5.95313,0 c -0.57812,0 -1.03515,-0.12109 -1.37109,-0.36328 -0.33594,-0.24219 -0.50391,-0.57422 -0.50391,-0.99609 0,-0.45313 0.34375,-0.82813 1.03125,-1.125 0.64063,-0.28125 1.11328,-0.53516 1.41797,-0.76172 0.30469,-0.22656 0.59766,-0.53515 0.87891,-0.92578 0.43749,-0.64062 0.79687,-1.49218 1.07812,-2.55469 z"
       style="font-size:48px;font-style:normal;font-variant:normal;font-weight:normal;font-stretch:normal;text-align:center;line-height:125%;letter-spacing:0px;word-spacing:0px;writing-mode:lr-tb;text-anchor:middle;fill:#1c762d;fill-opacity:1;stroke:none;font-family:Stencil;-inkscape-font-specification:Stencil"
       id="path7686"
       inkscape:connector-curvature="0" />
    <path
       d="m 384.07343,158.08655 0,27.53906 c -2e-5,0.60938 0.11717,1.04688 0.35156,1.3125 0.12498,0.15625 0.24217,0.25391 0.35157,0.29297 0.10935,0.0391 0.46873,0.13672 1.07812,0.29297 0.74998,0.17187 1.12498,0.60156 1.125,1.28906 -2e-5,0.40625 -0.20315,0.73437 -0.60937,0.98437 -0.2969,0.1875 -0.7969,0.28125 -1.5,0.28125 l -0.77344,0 -10.45313,0 -0.77343,0 c -0.68751,0 -1.20704,-0.10547 -1.5586,-0.3164 -0.35157,-0.21094 -0.52735,-0.52735 -0.52734,-0.94922 -1e-5,-0.6875 0.37499,-1.11719 1.125,-1.28906 0.60937,-0.15625 0.96874,-0.25391 1.07812,-0.29297 0.10937,-0.0391 0.21875,-0.13672 0.32813,-0.29297 0.23436,-0.26562 0.35155,-0.70312 0.35156,-1.3125 l 0,-27.53906 z m 8.10938,0 0,9.58593 c -3e-5,0.45315 -0.12894,0.82034 -0.38672,1.10157 -0.25784,0.28127 -0.58987,0.42189 -0.9961,0.42187 -0.39065,2e-5 -0.71487,-0.12889 -0.97265,-0.38672 -0.25784,-0.25779 -0.42581,-0.61326 -0.50391,-1.0664 l -0.23437,-1.42969 c -0.2344,-1.4531 -0.68753,-2.71091 -1.35938,-3.77344 -0.4219,-0.65622 -0.99221,-1.19528 -1.71094,-1.61719 l 0,-2.83593 z m -26.57813,0 6.16406,0 0,2.83593 c -0.73438,0.42191 -1.30469,0.96097 -1.71093,1.61719 -0.67188,1.06253 -1.12501,2.32034 -1.35938,3.77344 l -0.23437,1.42969 c -0.0781,0.45314 -0.2461,0.80861 -0.50391,1.0664 -0.25782,0.25783 -0.58203,0.38674 -0.97266,0.38672 -0.40625,2e-5 -0.73828,-0.1406 -0.99609,-0.42187 -0.25781,-0.28123 -0.38672,-0.64842 -0.38672,-1.10157 z"
       style="font-size:48px;font-style:normal;font-variant:normal;font-weight:normal;font-stretch:normal;text-align:center;line-height:125%;letter-spacing:0px;word-spacing:0px;writing-mode:lr-tb;text-anchor:middle;fill:#3d6337;fill-opacity:1;stroke:none;font-family:Stencil;-inkscape-font-specification:Stencil"
       id="path7688"
       inkscape:connector-curvature="0" />
    <path
       d="m 407.86249,158.08655 0,31.99218 -10.42968,0 -0.60938,0 c -0.5625,0 -0.9961,-0.10547 -1.30078,-0.3164 -0.30469,-0.21094 -0.45703,-0.51172 -0.45703,-0.90235 0,-0.64062 0.3125,-1.0625 0.9375,-1.26562 0.51562,-0.17187 0.8164,-0.27734 0.90234,-0.31641 0.0859,-0.0391 0.17578,-0.1289 0.26953,-0.26953 0.1875,-0.25 0.28125,-0.64843 0.28125,-1.19531 l 0,-23.46094 c 0,-0.54685 -0.0937,-0.94528 -0.28125,-1.19531 -0.0937,-0.1406 -0.18359,-0.23044 -0.26953,-0.26953 -0.0859,-0.039 -0.38672,-0.14451 -0.90234,-0.31641 -0.625,-0.2031 -0.9375,-0.62497 -0.9375,-1.26562 0,-0.3906 0.15234,-0.69138 0.45703,-0.90235 0.30468,-0.2109 0.73828,-0.31637 1.30078,-0.3164 l 0.60938,0 z m 2.08594,0 9.44531,0 0,8.29687 c -2e-5,0.4844 -0.0938,0.83596 -0.28125,1.05469 -0.18752,0.21877 -0.4844,0.32814 -0.89062,0.32812 -0.34378,2e-5 -0.59378,-0.0703 -0.75,-0.21093 -0.15628,-0.14061 -0.30471,-0.42967 -0.44531,-0.86719 -0.59378,-1.81248 -1.46487,-3.19529 -2.61329,-4.14844 -1.14845,-0.9531 -2.63673,-1.52341 -4.46484,-1.71094 z m -0.11719,17.0625 0,-2.71875 c 0.90624,-0.43749 1.57811,-0.91405 2.01563,-1.42969 0.43748,-0.51561 0.75779,-1.20311 0.96094,-2.0625 0.12498,-0.59373 0.28904,-1.00389 0.49218,-1.23047 0.20311,-0.22654 0.49217,-0.33982 0.86719,-0.33984 0.49998,2e-5 0.84373,0.19533 1.03125,0.58593 0.10935,0.20315 0.16404,0.66409 0.16406,1.38282 l 0,8.92968 c -2e-5,0.73439 -0.082,1.2422 -0.24609,1.52344 -0.16408,0.28126 -0.46487,0.42188 -0.90234,0.42188 -0.3594,0 -0.64065,-0.10937 -0.84375,-0.32813 -0.20315,-0.21874 -0.36721,-0.58593 -0.49219,-1.10156 -0.26565,-1.07812 -0.64455,-1.90624 -1.13672,-2.48438 -0.49221,-0.57811 -1.12892,-0.96092 -1.91016,-1.14843 z m 0.14063,14.92968 0,-2.53125 c 1.01561,-0.15624 1.85545,-0.37499 2.51953,-0.65625 0.66404,-0.28124 1.33201,-0.71093 2.00391,-1.28906 0.67185,-0.57812 1.207,-1.17578 1.60546,-1.79297 0.39842,-0.61718 0.77732,-1.43358 1.13672,-2.44922 0.17185,-0.49999 0.35154,-0.83983 0.53907,-1.01953 0.18747,-0.17968 0.44528,-0.26952 0.77343,-0.26953 0.43748,1e-5 0.74217,0.12892 0.91407,0.38672 0.17184,0.25782 0.25778,0.70704 0.25781,1.34766 l 0,8.27343 z"
       style="font-size:48px;font-style:normal;font-variant:normal;font-weight:normal;font-stretch:normal;text-align:center;line-height:125%;letter-spacing:0px;word-spacing:0px;writing-mode:lr-tb;text-anchor:middle;fill:#9a9681;fill-opacity:1;stroke:none;font-family:Stencil;-inkscape-font-specification:Stencil"
       id="path7690"
       inkscape:connector-curvature="0" />
    <path
       d="m 436.08124,158.08655 0,31.99218 -10.42968,0 -0.60938,0 c -0.5625,0 -0.9961,-0.10547 -1.30078,-0.3164 -0.30469,-0.21094 -0.45703,-0.51172 -0.45703,-0.90235 0,-0.64062 0.3125,-1.0625 0.9375,-1.26562 0.51562,-0.17187 0.8164,-0.27734 0.90234,-0.31641 0.0859,-0.0391 0.17578,-0.1289 0.26953,-0.26953 0.1875,-0.25 0.28125,-0.64843 0.28125,-1.19531 l 0,-23.46094 c 0,-0.54685 -0.0937,-0.94528 -0.28125,-1.19531 -0.0937,-0.1406 -0.18359,-0.23044 -0.26953,-0.26953 -0.0859,-0.039 -0.38672,-0.14451 -0.90234,-0.31641 -0.625,-0.2031 -0.9375,-0.62497 -0.9375,-1.26562 0,-0.3906 0.15234,-0.69138 0.45703,-0.90235 0.30468,-0.2109 0.73828,-0.31637 1.30078,-0.3164 l 0.60938,0 z m 4.73438,25.28906 0,-18.49219 c -2e-5,-1.1406 -0.16408,-2.04685 -0.49219,-2.71875 -0.20314,-0.43747 -0.45314,-0.75778 -0.75,-0.96094 -0.29689,-0.20309 -0.76564,-0.37497 -1.40625,-0.51562 l 0,-2.60156 c 0.82811,3e-5 1.53123,0.0313 2.10938,0.0937 1.98435,0.21878 3.90622,1.06253 5.76562,2.53125 1.84372,1.4219 3.21091,3.27346 4.10156,5.55468 0.92185,2.31252 1.38279,4.87502 1.38282,7.6875 -3e-5,3.18752 -0.58597,6.01954 -1.75782,8.4961 -1.1719,2.47656 -2.85158,4.42578 -5.03906,5.84765 -1.06252,0.6875 -2.0508,1.15625 -2.96484,1.40625 -0.91408,0.25 -2.1133,0.375 -3.59766,0.375 l 0,-2.53125 c 0.65623,-0.17187 1.11326,-0.32812 1.37109,-0.46875 0.2578,-0.14062 0.48046,-0.35937 0.66797,-0.65625 0.23436,-0.34374 0.39452,-0.73046 0.48047,-1.16015 0.0859,-0.42969 0.12889,-1.05859 0.12891,-1.88672 z"
       style="font-size:48px;font-style:normal;font-variant:normal;font-weight:normal;font-stretch:normal;text-align:center;line-height:125%;letter-spacing:0px;word-spacing:0px;writing-mode:lr-tb;text-anchor:middle;fill:#9e755f;fill-opacity:1;stroke:none;font-family:Stencil;-inkscape-font-specification:Stencil"
       id="path7692"
       inkscape:connector-curvature="0" />
    <path
       d="m 479.20624,158.08655 0,27.53906 c -10e-6,0.60938 0.11718,1.04688 0.35157,1.3125 0.12498,0.15625 0.24217,0.25391 0.35156,0.29297 0.10936,0.0391 0.46873,0.13672 1.07812,0.29297 0.74999,0.17187 1.12499,0.60156 1.125,1.28906 -10e-6,0.40625 -0.20314,0.73437 -0.60937,0.98437 -0.29689,0.1875 -0.78908,0.28125 -1.47656,0.28125 l -0.79688,0 -10.45312,0 -0.60938,0 c -0.5625,0 -0.9961,-0.10547 -1.30078,-0.3164 -0.30469,-0.21094 -0.45703,-0.51172 -0.45703,-0.90235 0,-0.64062 0.3125,-1.0625 0.9375,-1.26562 0.51562,-0.17187 0.8164,-0.27734 0.90234,-0.31641 0.0859,-0.0391 0.17578,-0.1289 0.26953,-0.26953 0.1875,-0.25 0.28125,-0.64843 0.28125,-1.19531 l 0,-23.46094 c 0,-0.54685 -0.0937,-0.94528 -0.28125,-1.19531 -0.0937,-0.1406 -0.18359,-0.23044 -0.26953,-0.26953 -0.0859,-0.039 -0.38672,-0.14451 -0.90234,-0.31641 -0.625,-0.2031 -0.9375,-0.62497 -0.9375,-1.26562 0,-0.3906 0.15234,-0.69138 0.45703,-0.90235 0.30468,-0.2109 0.73828,-0.31637 1.30078,-0.3164 l 0.60938,0 z m 1.99219,19.73437 0,-2.50781 c 0.67186,-0.15624 1.14451,-0.3203 1.41797,-0.49219 0.27342,-0.17186 0.5117,-0.43748 0.71484,-0.79687 0.32811,-0.60936 0.49217,-1.42967 0.49219,-2.46094 l 0,-7.5 c -2e-5,-0.73435 -0.0547,-1.28123 -0.16406,-1.64063 -0.1094,-0.35934 -0.32815,-0.68747 -0.65625,-0.98437 -0.45314,-0.43747 -1.06252,-0.71091 -1.82813,-0.82031 l 0,-2.53125 c 3.21873,3e-5 5.59373,0.30471 7.125,0.91406 1.7656,0.70315 3.16404,1.78128 4.19532,3.23437 1.04684,1.4844 1.57028,3.30471 1.57031,5.46094 -3e-5,2.40627 -0.53128,4.37502 -1.59375,5.90625 -1.06253,1.51564 -2.5469,2.63283 -4.45313,3.35156 -1.57814,0.57814 -3.85158,0.8672 -6.82031,0.86719 z"
       style="font-size:48px;font-style:normal;font-variant:normal;font-weight:normal;font-stretch:normal;text-align:center;line-height:125%;letter-spacing:0px;word-spacing:0px;writing-mode:lr-tb;text-anchor:middle;fill:#604686;fill-opacity:1;stroke:none;font-family:Stencil;-inkscape-font-specification:Stencil"
       id="path7694"
       inkscape:connector-curvature="0" />
    <path
       d="m 509.29999,159.98498 c -0.79688,0.28128 -1.35938,0.66409 -1.6875,1.14844 -0.32813,0.4844 -0.4922,1.19534 -0.49218,2.13281 l 0,20.95313 c -2e-5,1.375 0.18748,2.34375 0.5625,2.90625 0.29686,0.46875 0.83592,0.80469 1.61718,1.00781 l 0,2.57813 c -3.46876,-0.28126 -6.375,-1.58594 -8.71875,-3.91407 -3.04687,-3.03124 -4.57031,-7.2578 -4.57031,-12.67968 0,-2.71874 0.40234,-5.17577 1.20703,-7.3711 0.80469,-2.19529 1.99609,-4.05857 3.57422,-5.58984 1.20312,-1.17185 2.49999,-2.06247 3.89063,-2.67188 1.39061,-0.60934 2.92967,-0.95309 4.61718,-1.03125 z m 1.92188,0 0,-2.53125 c 1.68748,0.0782 3.23045,0.42191 4.6289,1.03125 1.39842,0.60941 2.6992,1.50003 3.90235,2.67188 3.18747,3.1094 4.78122,7.42971 4.78125,12.96094 -3e-5,5.42188 -1.52347,9.64844 -4.57031,12.67968 -2.34378,2.34375 -5.25784,3.64844 -8.74219,3.91407 l 0,-2.57813 c 0.40623,-0.0937 0.72264,-0.21484 0.94922,-0.36328 0.22654,-0.14844 0.43357,-0.36328 0.62109,-0.64453 0.42186,-0.64062 0.6328,-1.60937 0.63281,-2.90625 l 0,-20.95313 c -10e-6,-0.82809 -0.14064,-1.48434 -0.42187,-1.96875 -0.18752,-0.32809 -0.41018,-0.58591 -0.66797,-0.77343 -0.25783,-0.18748 -0.62892,-0.36716 -1.11328,-0.53907 z"
       style="font-size:48px;font-style:normal;font-variant:normal;font-weight:normal;font-stretch:normal;text-align:center;line-height:125%;letter-spacing:0px;word-spacing:0px;writing-mode:lr-tb;text-anchor:middle;fill:#a79d6c;fill-opacity:1;stroke:none;font-family:Stencil;-inkscape-font-specification:Stencil"
       id="path7696"
       inkscape:connector-curvature="0" />
    <path
       d="m 538.24531,157.45373 0,2.69532 c -0.96877,0.26565 -1.70705,0.67581 -2.21485,1.23046 -0.50782,0.55472 -0.76173,1.23831 -0.76172,2.05079 -10e-6,0.78127 0.21093,1.46486 0.63282,2.05078 0.42186,0.58596 1.10936,1.14455 2.0625,1.67578 0.65623,0.3594 2.14061,1.04689 4.45312,2.0625 1.40623,0.60939 2.49608,1.16017 3.26953,1.65234 0.77342,0.49221 1.50389,1.10549 2.19141,1.83985 1.84372,1.93751 2.7656,4.2422 2.76562,6.91406 -2e-5,2.01563 -0.50002,3.85938 -1.5,5.53125 -1.00002,1.67188 -2.37502,2.98437 -4.125,3.9375 -0.93751,0.5 -1.96486,0.89453 -3.08203,1.18359 -1.1172,0.28906 -2.16017,0.43359 -3.1289,0.4336 l 0,-2.67188 c 1.35936,-0.32812 2.33982,-0.78515 2.9414,-1.37109 0.60155,-0.58594 0.90233,-1.37891 0.90235,-2.37891 -2e-5,-1.04687 -0.46877,-1.96874 -1.40625,-2.76562 -0.62502,-0.51562 -1.81252,-1.15625 -3.5625,-1.92188 -1.92189,-0.84374 -3.23829,-1.4453 -3.94922,-1.80469 -0.71095,-0.35936 -1.39454,-0.78123 -2.05078,-1.26562 -2.93751,-2.09374 -4.40626,-4.8828 -4.40625,-8.36719 -10e-6,-1.78123 0.36718,-3.42576 1.10156,-4.93359 0.73437,-1.50779 1.75781,-2.72263 3.07031,-3.64453 1.82812,-1.28122 4.09374,-1.99216 6.79688,-2.13282 z m 1.85156,2.69532 0,-2.57813 c 0.93748,0.0625 1.74998,0.18363 2.4375,0.36328 0.68748,0.17972 1.66404,0.53519 2.92969,1.06641 0.31248,0.12503 0.57029,0.18753 0.77343,0.1875 0.29686,3e-5 0.51561,-0.10153 0.65625,-0.30469 l 0.51563,-0.67969 c 0.24998,-0.34372 0.55466,-0.51559 0.91406,-0.51562 0.42185,3e-5 0.73045,0.15237 0.92578,0.45703 0.19529,0.30472 0.29295,0.78519 0.29297,1.44141 l 0,7.73437 c -2e-5,0.45315 -0.12893,0.82424 -0.38672,1.11328 -0.25783,0.28909 -0.58986,0.43362 -0.99609,0.4336 -0.31252,2e-5 -0.60159,-0.10155 -0.86719,-0.30469 -0.14065,-0.12498 -0.25393,-0.27732 -0.33984,-0.45703 -0.086,-0.17967 -0.16799,-0.48045 -0.2461,-0.90235 -0.17189,-0.7656 -0.46877,-1.55466 -0.89062,-2.36718 -0.4219,-0.81248 -0.91408,-1.53904 -1.47656,-2.17969 -1.12502,-1.2656 -2.53908,-2.10154 -4.24219,-2.50781 z m -3.07031,27.89062 0,2.67188 c -1.28126,-10e-6 -2.69533,-0.36719 -4.24219,-1.10157 -0.57813,-0.26562 -0.97657,-0.4375 -1.19531,-0.51562 -0.21876,-0.0781 -0.4297,-0.11719 -0.63282,-0.11719 -0.3125,0 -0.54688,0.0508 -0.70312,0.15234 -0.15626,0.10157 -0.40626,0.35547 -0.75,0.76172 -0.28126,0.34375 -0.58594,0.51563 -0.91406,0.51563 -0.87501,0 -1.31251,-0.67188 -1.3125,-2.01563 l 0,-8.53125 c -10e-6,-0.43749 0.12499,-0.80858 0.375,-1.11328 0.24999,-0.30467 0.56249,-0.46483 0.9375,-0.48047 0.34374,-0.0156 0.61327,0.082 0.80859,0.29297 0.19531,0.21095 0.36328,0.58204 0.50391,1.11328 0.35937,1.34376 0.8789,2.60157 1.55859,3.77344 0.67968,1.17188 1.47265,2.16407 2.37891,2.97656 0.92186,0.84376 1.98436,1.38282 3.1875,1.61719 z"
       style="font-size:48px;font-style:normal;font-variant:normal;font-weight:normal;font-stretch:normal;text-align:center;line-height:125%;letter-spacing:0px;word-spacing:0px;writing-mode:lr-tb;text-anchor:middle;fill:#875669;fill-opacity:1;stroke:none;font-family:Stencil;-inkscape-font-specification:Stencil"
       id="path7698"
       inkscape:connector-curvature="0" />
    <path
       d="m 571.85468,158.08655 0,27.53906 c -2e-5,0.60938 0.11717,1.04688 0.35156,1.3125 0.12498,0.15625 0.24217,0.25391 0.35157,0.29297 0.10935,0.0391 0.46873,0.13672 1.07812,0.29297 0.74998,0.17187 1.12498,0.60156 1.125,1.28906 -2e-5,0.40625 -0.20315,0.73437 -0.60937,0.98437 -0.2969,0.1875 -0.7969,0.28125 -1.5,0.28125 l -0.77344,0 -10.45313,0 -0.77343,0 c -0.68751,0 -1.20704,-0.10547 -1.5586,-0.3164 -0.35157,-0.21094 -0.52735,-0.52735 -0.52734,-0.94922 -10e-6,-0.6875 0.37499,-1.11719 1.125,-1.28906 0.60937,-0.15625 0.96874,-0.25391 1.07812,-0.29297 0.10937,-0.0391 0.21875,-0.13672 0.32813,-0.29297 0.23436,-0.26562 0.35155,-0.70312 0.35156,-1.3125 l 0,-27.53906 z m 8.10938,0 0,9.58593 c -3e-5,0.45315 -0.12894,0.82034 -0.38672,1.10157 -0.25784,0.28127 -0.58987,0.42189 -0.9961,0.42187 -0.39065,2e-5 -0.71487,-0.12889 -0.97265,-0.38672 -0.25784,-0.25779 -0.42581,-0.61326 -0.50391,-1.0664 l -0.23437,-1.42969 c -0.2344,-1.4531 -0.68753,-2.71091 -1.35938,-3.77344 -0.4219,-0.65622 -0.99221,-1.19528 -1.71094,-1.61719 l 0,-2.83593 z m -26.57813,0 6.16406,0 0,2.83593 c -0.73438,0.42191 -1.30469,0.96097 -1.71093,1.61719 -0.67188,1.06253 -1.12501,2.32034 -1.35938,3.77344 l -0.23437,1.42969 c -0.0781,0.45314 -0.2461,0.80861 -0.50391,1.0664 -0.25782,0.25783 -0.58203,0.38674 -0.97266,0.38672 -0.40625,2e-5 -0.73828,-0.1406 -0.99609,-0.42187 -0.25781,-0.28123 -0.38672,-0.64842 -0.38672,-1.10157 z"
       style="font-size:48px;font-style:normal;font-variant:normal;font-weight:normal;font-stretch:normal;text-align:center;line-height:125%;letter-spacing:0px;word-spacing:0px;writing-mode:lr-tb;text-anchor:middle;fill:#8e94a6;fill-opacity:1;stroke:none;font-family:Stencil;-inkscape-font-specification:Stencil"
       id="path7700"
       inkscape:connector-curvature="0" />
    <path
       d="m 593.65156,157.45373 0,2.69532 c -0.96877,0.26565 -1.70705,0.67581 -2.21485,1.23046 -0.50782,0.55472 -0.76173,1.23831 -0.76172,2.05079 -10e-6,0.78127 0.21093,1.46486 0.63282,2.05078 0.42186,0.58596 1.10936,1.14455 2.0625,1.67578 0.65623,0.3594 2.14061,1.04689 4.45312,2.0625 1.40623,0.60939 2.49608,1.16017 3.26953,1.65234 0.77342,0.49221 1.50389,1.10549 2.19141,1.83985 1.84372,1.93751 2.7656,4.2422 2.76562,6.91406 -2e-5,2.01563 -0.50002,3.85938 -1.5,5.53125 -1.00002,1.67188 -2.37502,2.98437 -4.125,3.9375 -0.93751,0.5 -1.96486,0.89453 -3.08203,1.18359 -1.1172,0.28906 -2.16017,0.43359 -3.1289,0.4336 l 0,-2.67188 c 1.35936,-0.32812 2.33982,-0.78515 2.9414,-1.37109 0.60155,-0.58594 0.90233,-1.37891 0.90235,-2.37891 -2e-5,-1.04687 -0.46877,-1.96874 -1.40625,-2.76562 -0.62502,-0.51562 -1.81252,-1.15625 -3.5625,-1.92188 -1.92189,-0.84374 -3.23829,-1.4453 -3.94922,-1.80469 -0.71095,-0.35936 -1.39454,-0.78123 -2.05078,-1.26562 -2.93751,-2.09374 -4.40626,-4.8828 -4.40625,-8.36719 -10e-6,-1.78123 0.36718,-3.42576 1.10156,-4.93359 0.73437,-1.50779 1.75781,-2.72263 3.07031,-3.64453 1.82812,-1.28122 4.09374,-1.99216 6.79688,-2.13282 z m 1.85156,2.69532 0,-2.57813 c 0.93748,0.0625 1.74998,0.18363 2.4375,0.36328 0.68748,0.17972 1.66404,0.53519 2.92969,1.06641 0.31248,0.12503 0.57029,0.18753 0.77343,0.1875 0.29686,3e-5 0.51561,-0.10153 0.65625,-0.30469 l 0.51563,-0.67969 c 0.24998,-0.34372 0.55466,-0.51559 0.91406,-0.51562 0.42185,3e-5 0.73045,0.15237 0.92578,0.45703 0.19529,0.30472 0.29295,0.78519 0.29297,1.44141 l 0,7.73437 c -2e-5,0.45315 -0.12893,0.82424 -0.38672,1.11328 -0.25783,0.28909 -0.58986,0.43362 -0.99609,0.4336 -0.31252,2e-5 -0.60159,-0.10155 -0.86719,-0.30469 -0.14065,-0.12498 -0.25393,-0.27732 -0.33984,-0.45703 -0.086,-0.17967 -0.16799,-0.48045 -0.2461,-0.90235 -0.17189,-0.7656 -0.46877,-1.55466 -0.89062,-2.36718 -0.4219,-0.81248 -0.91408,-1.53904 -1.47656,-2.17969 -1.12502,-1.2656 -2.53908,-2.10154 -4.24219,-2.50781 z m -3.07031,27.89062 0,2.67188 c -1.28126,-10e-6 -2.69533,-0.36719 -4.24219,-1.10157 -0.57813,-0.26562 -0.97657,-0.4375 -1.19531,-0.51562 -0.21876,-0.0781 -0.4297,-0.11719 -0.63282,-0.11719 -0.3125,0 -0.54688,0.0508 -0.70312,0.15234 -0.15626,0.10157 -0.40626,0.35547 -0.75,0.76172 -0.28126,0.34375 -0.58594,0.51563 -0.91406,0.51563 -0.87501,0 -1.31251,-0.67188 -1.3125,-2.01563 l 0,-8.53125 c -10e-6,-0.43749 0.12499,-0.80858 0.375,-1.11328 0.24999,-0.30467 0.56249,-0.46483 0.9375,-0.48047 0.34374,-0.0156 0.61327,0.082 0.80859,0.29297 0.19531,0.21095 0.36328,0.58204 0.50391,1.11328 0.35937,1.34376 0.8789,2.60157 1.55859,3.77344 0.67968,1.17188 1.47265,2.16407 2.37891,2.97656 0.92186,0.84376 1.98436,1.38282 3.1875,1.61719 z"
       style="font-size:48px;font-style:normal;font-variant:normal;font-weight:normal;font-stretch:normal;text-align:center;line-height:125%;letter-spacing:0px;word-spacing:0px;writing-mode:lr-tb;text-anchor:middle;fill:#5f764d;fill-opacity:1;stroke:none;font-family:Stencil;-inkscape-font-specification:Stencil"
       id="path7702"
       inkscape:connector-curvature="0" />
  </g>
</svg>
