<?xml version="1.0" encoding="UTF-8" standalone="no"?>
<!-- Created with Inkscape (http://www.inkscape.org/) -->

<svg
   xmlns:dc="http://purl.org/dc/elements/1.1/"
   xmlns:cc="http://creativecommons.org/ns#"
   xmlns:rdf="http://www.w3.org/1999/02/22-rdf-syntax-ns#"
   xmlns:svg="http://www.w3.org/2000/svg"
   xmlns="http://www.w3.org/2000/svg"
   xmlns:sodipodi="http://sodipodi.sourceforge.net/DTD/sodipodi-0.dtd"
   xmlns:inkscape="http://www.inkscape.org/namespaces/inkscape"
   width="656.84375"
   height="640.28125"
   id="svg8746"
   version="1.1"
   inkscape:version="0.48.4 r9939"
   sodipodi:docname="uniUnit.svg">
  <defs
     id="defs8748" />
  <sodipodi:namedview
     id="base"
     pagecolor="#ffffff"
     bordercolor="#666666"
     borderopacity="1.0"
     inkscape:pageopacity="0.0"
     inkscape:pageshadow="2"
     inkscape:zoom="0.24748737"
     inkscape:cx="190.37452"
     inkscape:cy="356.79798"
     inkscape:document-units="px"
     inkscape:current-layer="layer1"
     showgrid="false"
     inkscape:window-width="1920"
     inkscape:window-height="1138"
     inkscape:window-x="-8"
     inkscape:window-y="-8"
     inkscape:window-maximized="1"
     fit-margin-top="0"
     fit-margin-left="0"
     fit-margin-right="0"
     fit-margin-bottom="0" />
  <metadata
     id="metadata8751">
    <rdf:RDF>
      <cc:Work
         rdf:about="">
        <dc:format>image/svg+xml</dc:format>
        <dc:type
           rdf:resource="http://purl.org/dc/dcmitype/StillImage" />
        <dc:title />
      </cc:Work>
    </rdf:RDF>
  </metadata>
  <g
     inkscape:label="Layer 1"
     inkscape:groupmode="layer"
     id="layer1"
     transform="translate(-46.455671,-212.21606)">
    <g
       transform="translate(0.9244215,129.65356)"
       id="g8703">
      <path
         inkscape:connector-curvature="0"
         style="color:#000000;fill:#f0a830;fill-opacity:1;fill-rule:nonzero;stroke:#e5fb42;stroke-width:4;stroke-linecap:butt;stroke-linejoin:miter;stroke-miterlimit:4;stroke-opacity:1;stroke-dasharray:none;stroke-dashoffset:0;marker:none;visibility:visible;display:inline;overflow:visible;enable-background:accumulate"
         d="M 632.79592,208.66867 377.18531,85.568173 c 0.35268,0.306318 0.71723,0.513183 1.06351,0.919333 0.67046,0.786332 1.33532,1.761052 1.98293,2.902208 0.64756,1.141155 1.2845,2.459272 1.91071,3.929697 0.62628,1.470425 1.23224,3.092928 1.83873,4.867057 0.60643,1.774129 1.21436,3.698062 1.80261,5.750342 1.1764,4.10455 2.31242,8.72621 3.42491,13.78999 1.11255,5.06379 2.20196,10.56722 3.26276,16.38576 1.0608,5.81855 2.09715,11.96376 3.11855,18.33258 2.04269,12.73764 4.00844,26.3602 5.96663,40.07211 1.95818,13.7119 3.90517,27.50845 5.87652,40.5588 0.98569,6.52518 1.98506,12.87438 2.99233,18.92744 1.00727,6.05307 2.02331,11.80242 3.06444,17.17892 1.04113,5.37648 2.10344,10.37613 3.1906,14.87156 1.08722,4.49542 2.18938,8.48735 3.33487,11.89725 0.57274,1.70494 1.15892,3.27354 1.74856,4.66877 0.58959,1.39522 1.19463,2.61738 1.80261,3.67733 0.60793,1.05994 1.22878,1.95074 1.85667,2.64984 0.62789,0.6991 1.26142,1.21951 1.91076,1.53222 0.64936,0.31271 1.4414,0.48576 2.37945,0.54078 0.93806,0.0551 2.01894,-0.0127 3.22671,-0.19828 1.20773,-0.18553 2.54333,-0.49236 4.00175,-0.90131 1.45847,-0.40895 3.03277,-0.91698 4.7229,-1.53222 3.38015,-1.23048 7.21801,-2.86012 11.41052,-4.81298 4.1925,-1.95285 8.73907,-4.23963 13.59171,-6.77782 4.85263,-2.5382 9.99772,-5.32356 15.35826,-8.31005 5.36054,-2.9865 10.93999,-6.16597 16.65616,-9.46373 11.43226,-6.5955 23.42601,-13.67572 35.36727,-20.694 11.94127,-7.01828 23.82854,-13.97073 35.06087,-20.31546 5.61614,-3.17236 11.06707,-6.19662 16.27757,-8.99504 5.21057,-2.79841 10.18284,-5.37368 14.83554,-7.66111 4.65264,-2.28743 9.00021,-4.2912 12.94276,-5.93059 1.97123,-0.8197 3.84093,-1.54918 5.6061,-2.18117 1.76518,-0.632 3.41712,-1.15914 4.95722,-1.5863 1.54004,-0.42716 2.95819,-0.75019 4.25417,-0.95538 1.29592,-0.2052 2.46425,-0.30429 3.49707,-0.2704 0.50571,0.0166 0.87667,0.15736 1.31588,0.23435 z"
         id="path8122" />
      <path
         inkscape:connector-curvature="0"
         style="color:#000000;fill:#5a2e2e;fill-opacity:1;fill-rule:nonzero;stroke:#749633;stroke-width:4;stroke-linecap:butt;stroke-linejoin:miter;stroke-miterlimit:4;stroke-opacity:1;stroke-dasharray:none;stroke-dashoffset:0;marker:none;visibility:visible;display:inline;overflow:visible;enable-background:accumulate"
         d="M 699.8712,490.18284 636.74367,213.62585 c -0.0225,0.44555 0.0421,0.83694 -0.0542,1.33394 -0.19675,1.01442 -0.53905,2.13506 -1.02746,3.35285 -0.48846,1.21781 -1.1336,2.5413 -1.89278,3.94773 -0.75916,1.40643 -1.64086,2.89017 -2.6498,4.47048 -1.00895,1.58031 -2.13315,3.25379 -3.37092,4.99324 -2.47561,3.4789 -5.38713,7.25735 -8.65254,11.28437 -3.26542,4.027 -6.89193,8.30531 -10.77964,12.7625 -3.8877,4.45718 -8.04138,9.09268 -12.38392,13.8621 -8.68508,9.53885 -18.11658,19.59084 -27.61604,29.67102 -9.49952,10.08018 -19.07466,20.19129 -28.04867,29.8693 -4.48704,4.83901 -8.82035,9.57094 -12.92477,14.1325 -4.10442,4.56155 -7.96433,8.95684 -11.51867,13.12303 -3.55441,4.16617 -6.80719,8.10018 -9.64401,11.75303 -2.83683,3.65286 -5.25868,7.01897 -7.21046,10.04056 -0.97589,1.5108 -1.83647,2.94133 -2.55971,4.2722 -0.72324,1.33087 -1.31692,2.55915 -1.76656,3.69535 -0.44965,1.13621 -0.76425,2.17371 -0.9193,3.1005 -0.15512,0.92679 -0.14237,1.74892 0.0179,2.45156 0.16036,0.70263 0.50364,1.43147 1.04552,2.19918 0.54187,0.76772 1.26506,1.56888 2.16314,2.39748 0.89807,0.8286 1.97958,1.69246 3.20864,2.57774 1.22908,0.88527 2.61129,1.80221 4.14602,2.73997 3.06952,1.87552 6.72896,3.85231 10.86979,5.91258 4.14076,2.06025 8.76191,4.20589 13.77196,6.4173 5.01,2.21141 10.40216,4.48491 16.07932,6.81388 5.67711,2.32897 11.64956,4.70737 17.79177,7.12032 12.28448,4.82589 25.28302,9.78513 38.21541,14.74538 12.93238,4.96025 25.80102,9.91948 37.76478,14.74538 5.98185,2.41294 11.72426,4.79136 17.16088,7.12033 5.43657,2.32897 10.56083,4.60246 15.25011,6.81387 4.68922,2.21142 8.95048,4.35705 12.6904,6.41731 1.86993,1.03013 3.61481,2.04235 5.20952,3.02839 1.59473,0.98604 3.05008,1.94642 4.34434,2.88418 1.29418,0.93776 2.42046,1.85469 3.38891,2.73997 0.96839,0.88528 1.762,1.74915 2.37945,2.57774 0.30687,0.41189 0.43337,0.79262 0.64894,1.18973 z"
         id="path8120" />
      <path
         inkscape:connector-curvature="0"
         style="color:#000000;fill:#dfba69;fill-opacity:1;fill-rule:nonzero;stroke:#5421ef;stroke-width:4;stroke-linecap:butt;stroke-linejoin:miter;stroke-miterlimit:4;stroke-opacity:1;stroke-dasharray:none;stroke-dashoffset:0;marker:none;visibility:visible;display:inline;overflow:visible;enable-background:accumulate"
         d="M 521.61071,718.08728 698.46516,496.32975 c -0.36554,0.26327 -0.64594,0.55603 -1.09962,0.79315 -0.91579,0.47865 -2.00607,0.90244 -3.26271,1.27985 -1.25669,0.37742 -2.66325,0.70808 -4.23616,0.99144 -1.57292,0.28336 -3.30891,0.52457 -5.17348,0.72104 -1.86462,0.19649 -3.87104,0.3519 -6.00273,0.46869 -4.2634,0.23356 -9.03822,0.31257 -14.22259,0.27038 -5.18443,-0.0421 -10.7655,-0.20815 -16.67421,-0.46867 -5.9087,-0.26052 -12.13052,-0.62407 -18.56692,-1.04552 -12.87285,-0.84289 -26.61073,-1.94035 -40.41459,-3.08247 -13.80387,-1.14212 -27.68544,-2.31672 -40.84723,-3.29878 -6.5809,-0.49103 -12.98228,-0.95101 -19.1077,-1.31591 -6.12543,-0.3649 -11.97593,-0.64785 -17.4493,-0.8292 -5.47337,-0.18135 -10.57139,-0.25789 -15.19601,-0.19829 -4.62467,0.0596 -8.7686,0.25492 -12.34793,0.61289 -1.78964,0.17899 -3.42969,0.40262 -4.92111,0.66697 -1.49146,0.26434 -2.83318,0.58048 -4.0018,0.93736 -1.16867,0.35687 -2.1711,0.75116 -2.99234,1.20775 -0.8213,0.45658 -1.46147,0.96875 -1.91077,1.53222 -0.44936,0.56347 -0.80117,1.29688 -1.06357,2.19919 -0.26241,0.9023 -0.43487,1.97186 -0.52273,3.19062 -0.0879,1.21877 -0.0922,2.59709 -0.0179,4.10996 0.0742,1.51287 0.22692,3.15456 0.45068,4.93916 0.44745,3.56922 1.17409,7.66371 2.14508,12.18567 0.97099,4.52196 2.17444,9.48565 3.56917,14.78143 1.39474,5.29578 2.98605,10.92772 4.70486,16.81839 1.71874,5.89068 3.57286,12.02594 5.51599,18.33258 3.88621,12.61328 8.1267,25.89508 12.31182,39.09868 4.18513,13.20361 8.31919,26.3396 12.00541,38.70212 1.84311,6.18126 3.56866,12.16131 5.13748,17.8639 1.56876,5.7026 2.96926,11.12443 4.16401,16.16945 1.19474,5.04501 2.18119,9.7257 2.90223,13.9342 0.36047,2.10425 0.6599,4.08705 0.88325,5.94863 0.22335,1.86157 0.37691,3.59499 0.45069,5.19152 0.0737,1.59654 0.0703,3.05321 -0.0179,4.36234 -0.0883,1.30912 -0.25992,2.46164 -0.52273,3.46102 -0.12869,0.48921 -0.35002,0.81477 -0.52279,1.22577 z"
         id="path8118" />
      <path
         inkscape:connector-curvature="0"
         style="color:#000000;fill:#3e4147;fill-opacity:1;fill-rule:nonzero;stroke:#5a6056;stroke-width:4;stroke-linecap:butt;stroke-linejoin:miter;stroke-miterlimit:4;stroke-opacity:1;stroke-dasharray:none;stroke-dashoffset:0;marker:none;visibility:visible;display:inline;overflow:visible;enable-background:accumulate"
         d="m 232.27322,720.84525 283.62324,0 c -0.42906,-0.1212 -0.81721,-0.15609 -1.27989,-0.36052 -0.9452,-0.41757 -1.96782,-1.00133 -3.04639,-1.74851 -1.07863,-0.74718 -2.22278,-1.65085 -3.42497,-2.70392 -1.20223,-1.05307 -2.45132,-2.25191 -3.76749,-3.58721 -1.31616,-1.33529 -2.68956,-2.80454 -4.10996,-4.39837 -2.8408,-3.18766 -5.88575,-6.88027 -9.08517,-10.95989 -3.19942,-4.07962 -6.56025,-8.5573 -10.04053,-13.33934 -3.48034,-4.78206 -7.07806,-9.86503 -10.76163,-15.15998 -7.36707,-10.58992 -15.05341,-22.00622 -22.76704,-33.5106 -7.71357,-11.50437 -15.45471,-23.09467 -22.89314,-33.99728 -3.71927,-5.45132 -7.37196,-10.73827 -10.90583,-15.75485 -3.53388,-5.01658 -6.95001,-9.75819 -10.22079,-14.15052 -3.27084,-4.39231 -6.38951,-8.42687 -9.31955,-12.0054 -2.93004,-3.57853 -5.67232,-6.70825 -8.18387,-9.28346 -1.25577,-1.28761 -2.45062,-2.44175 -3.58722,-3.44299 -1.13655,-1.00125 -2.21898,-1.8505 -3.22665,-2.54169 -1.00768,-0.69119 -1.94302,-1.21084 -2.81208,-1.56827 -0.86906,-0.35744 -1.65875,-0.54079 -2.37945,-0.54079 -0.7207,0 -1.52844,0.18335 -2.39751,0.54079 -0.869,0.35743 -1.8044,0.87708 -2.81207,1.56827 -1.00762,0.69119 -2.09006,1.54044 -3.22666,2.54169 -1.13659,1.00124 -2.33145,2.15538 -3.58717,3.44299 -2.51154,2.57521 -5.25388,5.70493 -8.18392,9.28346 -2.92998,3.57853 -6.0487,7.61309 -9.31948,12.0054 -3.27078,4.39233 -6.68698,9.13394 -10.22085,14.15052 -3.53382,5.01658 -7.18657,10.30353 -10.90578,15.75485 -7.43848,10.90261 -15.16157,22.49291 -22.87514,33.99728 -7.71363,11.50438 -15.41797,22.92068 -22.78504,33.5106 -3.68356,5.29495 -7.28129,10.37792 -10.76163,15.15998 -3.48034,4.78204 -6.84111,9.25972 -10.04059,13.33934 -3.19942,4.07962 -6.22631,7.77223 -9.06711,10.95989 -1.4204,1.59383 -2.7938,3.06308 -4.10996,4.39837 -1.31617,1.3353 -2.58325,2.53414 -3.78549,3.58721 -1.20225,1.05307 -2.3464,1.95674 -3.42497,2.70392 -1.07856,0.74718 -2.08319,1.33094 -3.02839,1.74851 -0.45974,0.2031 -0.85337,0.23956 -1.27983,0.36052 z"
         id="path8116" />
      <path
         inkscape:connector-curvature="0"
         style="color:#000000;fill:#c0d860;fill-opacity:1;fill-rule:nonzero;stroke:#d446ec;stroke-width:4;stroke-linecap:butt;stroke-linejoin:miter;stroke-miterlimit:4;stroke-opacity:1;stroke-dasharray:none;stroke-dashoffset:0;marker:none;visibility:visible;display:inline;overflow:visible;enable-background:accumulate"
         d="M 49.686463,496.31172 226.57696,718.12333 c -0.17939,-0.42097 -0.40822,-0.75785 -0.54084,-1.26182 -0.26281,-0.99938 -0.43441,-2.1519 -0.52273,-3.46102 -0.0883,-1.30913 -0.0918,-2.7658 -0.018,-4.36234 0.0737,-1.59652 0.20922,-3.32995 0.43262,-5.19152 0.22336,-1.86158 0.52274,-3.84438 0.88326,-5.94863 0.72099,-4.2085 1.70743,-8.88919 2.90218,-13.9342 1.1948,-5.04501 2.59524,-10.46685 4.16406,-16.16945 1.56883,-5.70259 3.31237,-11.68264 5.15548,-17.8639 3.68622,-12.36252 7.82028,-25.49851 12.00541,-38.70212 4.18512,-13.2036 8.40762,-26.4854 12.29382,-39.09868 1.94313,-6.30664 3.81525,-12.4419 5.53399,-18.33258 1.71881,-5.89067 3.29207,-11.52261 4.6868,-16.81839 1.39479,-5.29578 2.59824,-10.25947 3.56923,-14.78143 0.97094,-4.52196 1.71563,-8.61645 2.16315,-12.18567 0.22369,-1.7846 0.37643,-3.42629 0.45061,-4.93916 0.0742,-1.51287 0.0698,-2.89119 -0.0179,-4.10996 -0.0879,-1.21876 -0.26039,-2.28832 -0.52279,-3.19062 -0.2624,-0.90231 -0.61421,-1.63572 -1.06351,-2.19919 -0.44936,-0.56347 -1.08953,-1.07564 -1.91082,-1.53222 -0.82125,-0.45659 -1.82367,-0.85088 -2.99229,-1.20775 -1.16867,-0.35688 -2.51039,-0.67302 -4.00185,-0.93736 -1.49142,-0.26435 -3.13148,-0.48798 -4.92111,-0.66697 -3.57927,-0.35797 -7.74126,-0.55328 -12.36593,-0.61289 -4.62468,-0.0596 -9.7227,0.017 -15.196,0.19829 -5.47338,0.18135 -11.32388,0.4643 -17.4493,0.8292 -6.12549,0.3649 -12.52682,0.82489 -19.10771,1.31591 -13.16184,0.98206 -27.04342,2.15667 -40.84728,3.29878 -13.80381,1.14212 -27.52369,2.23958 -40.39655,3.08247 -6.4364,0.42145 -12.65821,0.785 -18.56691,1.04552 -5.908714,0.26052 -11.50783,0.42649 -16.692212,0.46867 -5.184373,0.0422 -9.959193,-0.0369 -14.22259,-0.27038 -2.131755,-0.11679 -4.138105,-0.2722 -6.002732,-0.46869 -1.864619,-0.19647 -3.582553,-0.43768 -5.155472,-0.72104 -1.572919,-0.28336 -2.997529,-0.61402 -4.254167,-0.99144 -1.256639,-0.37741 -2.346921,-0.8012 -3.262708,-1.27985 -0.459732,-0.24026 -0.730444,-0.54406 -1.099617,-0.81118 z"
         id="path8114" />
      <path
         inkscape:connector-curvature="0"
         style="color:#000000;fill:#607848;fill-opacity:1;fill-rule:nonzero;stroke:#010904;stroke-width:4;stroke-linecap:butt;stroke-linejoin:miter;stroke-miterlimit:4;stroke-opacity:1;stroke-dasharray:none;stroke-dashoffset:0;marker:none;visibility:visible;display:inline;overflow:visible;enable-background:accumulate"
         d="M 111.40795,213.57177 48.280418,490.18284 c 0.215508,-0.39711 0.342011,-0.77784 0.648939,-1.18973 0.617447,-0.82859 1.411006,-1.69246 2.379458,-2.57774 0.968442,-0.88528 2.112716,-1.80221 3.406906,-2.73997 1.294251,-0.93776 2.749607,-1.89814 4.344331,-2.88418 1.594715,-0.98604 3.321598,-1.99826 5.191521,-3.02839 3.739864,-2.06026 8.019182,-4.20589 12.708457,-6.41731 4.689223,-2.21141 9.795437,-4.4849 15.232062,-6.81387 5.436624,-2.32897 11.197028,-4.70739 17.178878,-7.12033 11.96376,-4.8259 24.81435,-9.78513 37.74679,-14.74538 12.93238,-4.96025 25.94892,-9.91949 38.2334,-14.74538 6.14227,-2.41295 12.09661,-4.79135 17.77378,-7.12032 5.67716,-2.32897 11.06931,-4.60247 16.0793,-6.81388 5.01,-2.21141 9.63116,-4.35705 13.77198,-6.4173 4.14081,-2.06027 7.80026,-4.03706 10.86972,-5.91258 1.53479,-0.93776 2.93501,-1.8547 4.16407,-2.73997 1.22907,-0.88528 2.29252,-1.74914 3.1906,-2.57774 0.89813,-0.8286 1.62131,-1.62976 2.16314,-2.39748 0.54188,-0.76771 0.90321,-1.49655 1.06357,-2.19918 0.16035,-0.70264 0.1551,-1.52477 0,-2.45156 -0.15512,-0.92679 -0.46972,-1.96429 -0.91936,-3.1005 -0.44959,-1.1362 -1.02527,-2.36448 -1.74852,-3.69535 -0.72323,-1.33087 -1.58381,-2.7614 -2.5597,-4.2722 -1.95179,-3.02159 -4.39169,-6.3877 -7.22851,-10.04056 -2.83677,-3.65285 -6.07155,-7.58686 -9.6259,-11.75303 -3.55441,-4.16619 -7.43231,-8.56148 -11.53673,-13.12303 -4.10448,-4.56156 -8.43773,-9.29349 -12.92477,-14.1325 -8.97407,-9.67801 -18.54915,-19.78912 -28.04866,-29.8693 -9.49952,-10.08018 -18.93097,-20.13217 -27.61605,-29.67102 -4.34253,-4.76943 -8.49622,-9.40492 -12.38392,-13.8621 -3.88777,-4.45719 -7.49622,-8.7355 -10.76164,-12.7625 -3.26541,-4.02702 -6.17693,-7.80547 -8.65254,-11.28437 -1.23778,-1.73945 -2.37997,-3.41293 -3.38892,-4.99324 -1.00894,-1.58031 -1.89069,-3.06405 -2.64981,-4.47048 -0.75917,-1.40643 -1.38631,-2.72992 -1.87472,-3.94773 -0.48846,-1.21779 -0.83076,-2.33843 -1.02752,-3.35285 -0.10036,-0.51743 -0.0517,-0.9264 -0.0721,-1.38802 z"
         id="path8112" />
      <path
         inkscape:connector-curvature="0"
         style="color:#000000;fill:#aee239;fill-opacity:1;fill-rule:nonzero;stroke:#d3d6d5;stroke-width:4;stroke-linecap:butt;stroke-linejoin:miter;stroke-miterlimit:4;stroke-opacity:1;stroke-dasharray:none;stroke-dashoffset:0;marker:none;visibility:visible;display:inline;overflow:visible;enable-background:accumulate"
         d="M 370.94826,85.586199 115.35565,208.66867 c 0.43926,-0.077 0.81022,-0.21775 1.31593,-0.23435 1.03277,-0.0339 2.20109,0.0652 3.49707,0.2704 1.29598,0.20519 2.71407,0.52822 4.25417,0.95538 1.5401,0.42716 3.21004,0.9543 4.97521,1.5863 1.76518,0.63199 3.63488,1.36147 5.60616,2.18117 3.9425,1.63939 8.27207,3.64316 12.92472,5.93059 4.65264,2.28743 9.62497,4.8627 14.83553,7.66111 5.21051,2.79842 10.66144,5.82268 16.27757,8.99504 11.23228,6.34473 23.11955,13.29718 35.06087,20.31546 11.94126,7.01828 23.93496,14.0985 35.36722,20.694 5.71616,3.29776 11.29566,6.47723 16.65615,9.46373 5.36054,2.98649 10.50563,5.77185 15.35827,8.31005 4.85269,2.53819 9.41726,4.82497 13.60976,6.77782 4.19251,1.95286 8.01237,3.5825 11.39252,4.81298 1.69007,0.61524 3.26443,1.12327 4.72285,1.53222 1.45841,0.40895 2.79402,0.71578 4.0018,0.90131 1.20778,0.18552 2.2886,0.25331 3.2267,0.19828 0.93806,-0.0551 1.74811,-0.22807 2.39745,-0.54078 0.64935,-0.31271 1.28289,-0.83312 1.91077,-1.53222 0.62789,-0.6991 1.24874,-1.5899 1.85666,-2.64984 0.60799,-1.05995 1.19504,-2.28211 1.78462,-3.67733 0.58959,-1.39523 1.17583,-2.96383 1.74851,-4.66877 1.14548,-3.4099 2.2657,-7.40183 3.35292,-11.89725 1.08716,-4.49543 2.14947,-9.49508 3.1906,-14.87156 1.04113,-5.3765 2.05717,-11.12585 3.06444,-17.17892 1.00727,-6.05306 2.00664,-12.40226 2.99234,-18.92744 1.97134,-13.05035 3.90034,-26.8469 5.85847,-40.5588 1.95818,-13.71191 3.94197,-27.33447 5.98467,-40.07211 1.02141,-6.36882 2.05775,-12.51403 3.11855,-18.33258 1.06081,-5.81854 2.13222,-11.32197 3.24471,-16.38576 1.11248,-5.06378 2.26656,-9.68544 3.44296,-13.78999 0.58826,-2.05228 1.17813,-3.976213 1.78462,-5.750342 0.60648,-1.774129 1.23044,-3.396632 1.85671,-4.867057 0.62622,-1.470425 1.26316,-2.788542 1.91072,-3.929697 0.64761,-1.141156 1.29442,-2.115876 1.96488,-2.902208 0.34004,-0.398807 0.6993,-0.598727 1.04551,-0.901307 z"
         id="path8110" />
      <path
         inkscape:connector-curvature="0"
         style="color:#000000;fill:#f9f2e7;fill-opacity:1;fill-rule:nonzero;stroke:#951f2b;stroke-width:3;stroke-linecap:butt;stroke-linejoin:miter;stroke-miterlimit:4;stroke-opacity:1;stroke-dasharray:none;stroke-dashoffset:0;marker:none;visibility:visible;display:inline;overflow:visible;enable-background:accumulate"
         d="m 374.08481,84.072004 -3.13655,1.514195 c -0.34621,0.30258 -0.70547,0.5025 -1.04551,0.901307 -0.67046,0.786332 -1.31727,1.761052 -1.96488,2.902208 -0.64756,1.141155 -1.2845,2.459272 -1.91072,3.929697 -0.62627,1.470425 -1.25023,3.092928 -1.85671,4.867057 -0.60649,1.774129 -1.19636,3.698062 -1.78462,5.750342 -1.1764,4.10455 -2.33048,8.72621 -3.44296,13.78999 -1.11249,5.06379 -2.1839,10.56722 -3.24471,16.38576 -1.0608,5.81855 -2.09714,11.96376 -3.11855,18.33258 -2.0427,12.73764 -4.02649,26.3602 -5.98467,40.07211 -1.95813,13.7119 -3.88713,27.50845 -5.85847,40.5588 -0.9857,6.52518 -1.98507,12.87438 -2.99234,18.92744 -1.00727,6.05307 -2.02331,11.80242 -3.06444,17.17892 -1.04113,5.37648 -2.10344,10.37613 -3.1906,14.87156 -1.08722,4.49542 -2.20744,8.48735 -3.35292,11.89725 -0.57268,1.70494 -1.15892,3.27354 -1.74851,4.66877 -0.58958,1.39522 -1.17663,2.61738 -1.78462,3.67733 -0.60792,1.05994 -1.22877,1.95074 -1.85666,2.64984 -0.62788,0.6991 -1.26142,1.21951 -1.91077,1.53222 -0.64934,0.31271 -1.45939,0.48576 -2.39745,0.54078 -0.9381,0.0551 -2.01892,-0.0127 -3.2267,-0.19828 -1.20778,-0.18553 -2.54339,-0.49236 -4.0018,-0.90131 -1.45842,-0.40895 -3.03278,-0.91698 -4.72285,-1.53222 -3.38015,-1.23048 -7.20001,-2.86012 -11.39252,-4.81298 -4.1925,-1.95285 -8.75707,-4.23963 -13.60976,-6.77782 -4.85264,-2.5382 -9.99773,-5.32356 -15.35827,-8.31005 -5.36049,-2.9865 -10.93999,-6.16597 -16.65615,-9.46373 -11.43226,-6.5955 -23.42596,-13.67572 -35.36722,-20.694 -11.94132,-7.01828 -23.82859,-13.97073 -35.06087,-20.31546 -5.61613,-3.17236 -11.06706,-6.19662 -16.27757,-8.99504 -5.21056,-2.79841 -10.18289,-5.37368 -14.83553,-7.66111 -4.65265,-2.28743 -8.98222,-4.2912 -12.92472,-5.93059 -1.97128,-0.8197 -3.84098,-1.54918 -5.60616,-2.18117 -1.76517,-0.632 -3.43511,-1.15914 -4.97521,-1.5863 -1.5401,-0.42716 -2.95819,-0.75019 -4.25417,-0.95538 -1.29598,-0.2052 -2.4643,-0.30429 -3.49707,-0.2704 -0.50571,0.0166 -0.87667,0.15736 -1.31593,0.23435 l -3.17261,1.53221 -0.77509,3.37089 c 0.0204,0.46162 -0.0283,0.87059 0.0721,1.38802 0.19676,1.01442 0.53905,2.13506 1.02752,3.35285 0.48841,1.21781 1.11554,2.5413 1.87472,3.94773 0.75911,1.40643 1.64087,2.89017 2.64981,4.47048 1.00894,1.58031 2.15114,3.25379 3.38891,4.99324 2.47561,3.4789 5.38714,7.25735 8.65255,11.28437 3.26541,4.027 6.87387,8.30531 10.76163,12.7625 3.88771,4.45718 8.04139,9.09267 12.38392,13.8621 8.68509,9.53885 18.11654,19.59084 27.61605,29.67102 9.49951,10.08018 19.07459,20.19129 28.04867,29.8693 4.48703,4.83901 8.82028,9.57094 12.92476,14.1325 4.10443,4.56155 7.98233,8.95684 11.53673,13.12303 3.55435,4.16617 6.78914,8.10018 9.6259,11.75303 2.83682,3.65286 5.27673,7.01897 7.22851,10.04056 0.9759,1.5108 1.83647,2.94133 2.55971,4.2722 0.72324,1.33087 1.29893,2.55915 1.74851,3.69535 0.44964,1.13621 0.76425,2.17371 0.91936,3.1005 0.15511,0.92679 0.16036,1.74892 0,2.45156 -0.16036,0.70263 -0.52169,1.43147 -1.06357,2.19918 -0.54183,0.76772 -1.265,1.56888 -2.16313,2.39748 -0.89809,0.8286 -1.96154,1.69246 -3.1906,2.57774 -1.22907,0.88527 -2.62928,1.80221 -4.16407,2.73997 -3.06946,1.87552 -6.72892,3.85231 -10.86973,5.91258 -4.14082,2.06025 -8.76198,4.20589 -13.77197,6.4173 -5.01,2.21141 -10.40215,4.48491 -16.07931,6.81388 -5.67717,2.32897 -11.63151,4.70737 -17.77378,7.12032 -12.28447,4.82589 -25.30101,9.78513 -38.2334,14.74538 -12.93244,4.96025 -25.78303,9.91948 -37.74679,14.74538 -5.98185,2.41294 -11.742252,4.79136 -17.178876,7.12033 -5.436625,2.32897 -10.542839,4.60246 -15.232062,6.81387 -4.689275,2.21142 -8.968593,4.35705 -12.708457,6.41731 -1.869923,1.03013 -3.596806,2.04235 -5.191521,3.02839 -1.594724,0.98604 -3.05008,1.94642 -4.344331,2.88418 -1.29419,0.93776 -2.438464,1.85469 -3.406906,2.73997 -0.968452,0.88528 -1.762011,1.74915 -2.379458,2.57774 -0.306928,0.41189 -0.433431,0.79262 -0.648939,1.18973 l -0.775153,3.40694 2.181198,2.72194 c 0.369173,0.26712 0.639876,0.57092 1.099617,0.81118 0.915787,0.47865 2.006069,0.90244 3.262708,1.27985 1.256629,0.37742 2.681248,0.70808 4.254167,0.99144 1.572918,0.28336 3.290844,0.52457 5.155472,0.72104 1.864627,0.19649 3.870977,0.3519 6.002732,0.46869 4.263397,0.23356 9.038217,0.31257 14.22259,0.27038 5.184373,-0.0421 10.783498,-0.20815 16.692199,-0.46867 5.90872,-0.26052 12.13053,-0.62407 18.56693,-1.04552 12.87285,-0.84289 26.59274,-1.94035 40.39655,-3.08247 13.80386,-1.14211 27.68543,-2.31672 40.84728,-3.29878 6.58089,-0.49102 12.98222,-0.95101 19.1077,-1.31591 6.12542,-0.3649 11.97593,-0.64785 17.4493,-0.8292 5.47331,-0.18135 10.57133,-0.25789 15.196,-0.19829 4.62468,0.0596 8.78666,0.25492 12.36594,0.61289 1.78963,0.17899 3.42969,0.40262 4.9211,0.66697 1.49146,0.26434 2.83319,0.58048 4.00186,0.93736 1.16861,0.35687 2.17104,0.75116 2.99228,1.20775 0.8213,0.45658 1.46147,0.96875 1.91083,1.53222 0.4493,0.56347 0.80111,1.29688 1.06351,2.19919 0.2624,0.9023 0.43488,1.97186 0.52279,3.19062 0.0879,1.21877 0.0922,2.59709 0.0179,4.10996 -0.0742,1.51287 -0.22692,3.15456 -0.45062,4.93916 -0.44751,3.56922 -1.19221,7.66371 -2.16314,12.18567 -0.97099,4.52196 -2.17444,9.48565 -3.56923,14.78143 -1.39473,5.29578 -2.968,10.92772 -4.6868,16.81839 -1.71874,5.89068 -3.59086,12.02594 -5.53399,18.33258 -3.88621,12.61328 -8.10871,25.89508 -12.29382,39.09868 -4.18513,13.20361 -8.3192,26.3396 -12.00542,38.70212 -1.8431,6.18126 -3.58664,12.16131 -5.15547,17.8639 -1.56882,5.7026 -2.96927,11.12444 -4.16406,16.16945 -1.19475,5.04501 -2.18119,9.7257 -2.90219,13.9342 -0.36052,2.10425 -0.6599,4.08705 -0.88325,5.94863 -0.22341,1.86157 -0.3589,3.595 -0.43262,5.19152 -0.0738,1.59654 -0.0703,3.05321 0.018,4.36234 0.0883,1.30912 0.25992,2.46164 0.52273,3.46102 0.13262,0.50397 0.36145,0.84085 0.54084,1.26182 l 2.16314,2.72192 3.53312,0 c 0.42645,-0.12096 0.82009,-0.15742 1.27983,-0.36052 0.9452,-0.41757 1.94982,-1.00133 3.02838,-1.74851 1.07858,-0.74718 2.22273,-1.65085 3.42498,-2.70392 1.20224,-1.05307 2.46932,-2.25191 3.78548,-3.58721 1.31617,-1.33529 2.68956,-2.80454 4.10996,-4.39837 2.84081,-3.18766 5.86769,-6.88027 9.06712,-10.95989 3.19948,-4.07962 6.56024,-8.5573 10.04059,-13.33934 3.48034,-4.78206 7.07807,-9.86503 10.76163,-15.15998 7.36707,-10.58992 15.07141,-22.00622 22.78504,-33.5106 7.71357,-11.50437 15.43666,-23.09467 22.87514,-33.99728 3.71921,-5.45132 7.37196,-10.73827 10.90578,-15.75485 3.53387,-5.01658 6.95007,-9.75819 10.22085,-14.15052 3.27077,-4.39231 6.3895,-8.42687 9.31948,-12.0054 2.93004,-3.57853 5.67238,-6.70825 8.18392,-9.28346 1.25572,-1.28761 2.45058,-2.44175 3.58717,-3.44299 1.1366,-1.00125 2.21903,-1.8505 3.22665,-2.54169 1.00768,-0.69119 1.94308,-1.21084 2.81208,-1.56827 0.86906,-0.35744 1.67681,-0.54079 2.39751,-0.54079 0.7207,0 1.51039,0.18335 2.37945,0.54079 0.86906,0.35743 1.8044,0.87708 2.81208,1.56827 1.00767,0.69119 2.0901,1.54044 3.22665,2.54169 1.1366,1.00124 2.33145,2.15538 3.58722,3.44299 2.51155,2.57521 5.25383,5.70493 8.18387,9.28346 2.93004,3.57853 6.04871,7.61309 9.31955,12.0054 3.27077,4.39233 6.68691,9.13394 10.22079,14.15052 3.53386,5.01658 7.18656,10.30353 10.90583,15.75485 7.43842,10.90261 15.17957,22.49291 22.89314,33.99728 7.71363,11.50438 15.39997,22.92068 22.76704,33.5106 3.68356,5.29495 7.28128,10.37792 10.76163,15.15998 3.48028,4.78204 6.84111,9.25972 10.04053,13.33934 3.19942,4.07962 6.24437,7.77223 9.08517,10.95989 1.4204,1.59383 2.7938,3.06308 4.10996,4.39837 1.31617,1.3353 2.56525,2.53414 3.76749,3.58721 1.20219,1.05307 2.34634,1.95674 3.42497,2.70392 1.07857,0.74718 2.10119,1.33094 3.04638,1.74851 0.46269,0.20443 0.85084,0.23932 1.27989,0.36052 l 3.51507,0 2.19919,-2.75797 c 0.17276,-0.411 0.39409,-0.73656 0.52279,-1.22577 0.2628,-0.99938 0.43441,-2.1519 0.52272,-3.46102 0.0883,-1.30913 0.0918,-2.7658 0.0179,-4.36234 -0.0738,-1.59653 -0.22733,-3.32995 -0.45068,-5.19152 -0.22335,-1.86158 -0.52279,-3.84438 -0.88326,-5.94863 -0.72104,-4.2085 -1.70749,-8.88919 -2.90223,-13.9342 -1.19475,-5.04502 -2.59524,-10.46685 -4.16401,-16.16945 -1.56882,-5.70259 -3.29437,-11.68264 -5.13747,-17.8639 -3.68622,-12.36252 -7.82029,-25.49851 -12.00542,-38.70212 -4.18511,-13.2036 -8.42561,-26.4854 -12.31182,-39.09868 -1.94313,-6.30664 -3.79725,-12.4419 -5.51599,-18.33258 -1.7188,-5.89067 -3.31012,-11.52261 -4.70485,-16.81839 -1.39473,-5.29578 -2.59819,-10.25947 -3.56918,-14.78143 -0.97099,-4.52196 -1.69763,-8.61645 -2.14508,-12.18567 -0.22375,-1.7846 -0.3765,-3.42629 -0.45068,-4.93916 -0.0742,-1.51287 -0.0698,-2.89119 0.0179,-4.10996 0.0879,-1.21876 0.26033,-2.28832 0.52274,-3.19062 0.2624,-0.90231 0.61421,-1.63572 1.06356,-2.19919 0.4493,-0.56347 1.08948,-1.07564 1.91078,-1.53222 0.82124,-0.45659 1.82366,-0.85088 2.99234,-1.20775 1.16861,-0.35688 2.51032,-0.67302 4.0018,-0.93736 1.4914,-0.26435 3.13147,-0.48798 4.9211,-0.66697 3.57933,-0.35797 7.72327,-0.55328 12.34793,-0.61289 4.62462,-0.0596 9.72264,0.017 15.19601,0.19829 5.47336,0.18135 11.32387,0.4643 17.4493,0.8292 6.12542,0.3649 12.52681,0.82488 19.10771,1.31591 13.16178,0.98206 27.04335,2.15666 40.84722,3.29878 13.80386,1.14212 27.54174,2.23958 40.4146,3.08247 6.43639,0.42145 12.65821,0.785 18.56691,1.04552 5.90871,0.26052 11.48978,0.42649 16.67421,0.46867 5.18437,0.0422 9.95919,-0.0369 14.22259,-0.27038 2.1317,-0.11679 4.13811,-0.2722 6.00273,-0.46869 1.86457,-0.19647 3.60056,-0.43768 5.17348,-0.72104 1.57292,-0.28336 2.97947,-0.61402 4.23617,-0.99144 1.25664,-0.37741 2.34691,-0.8012 3.2627,-1.27985 0.45368,-0.23712 0.73408,-0.52988 1.09962,-0.79315 l 2.18114,-2.73997 -0.7751,-3.40694 c -0.21556,-0.39711 -0.34206,-0.77784 -0.64894,-1.18973 -0.61745,-0.82859 -1.41106,-1.69246 -2.37945,-2.57774 -0.96845,-0.88528 -2.09472,-1.80221 -3.38891,-2.73997 -1.29425,-0.93776 -2.74961,-1.89814 -4.34433,-2.88418 -1.59472,-0.98604 -3.33959,-1.99826 -5.20952,-3.02839 -3.73992,-2.06026 -8.00118,-4.20589 -12.69041,-6.41731 -4.68927,-2.21141 -9.81354,-4.4849 -15.2501,-6.81387 -5.43663,-2.32897 -11.17904,-4.70739 -17.16089,-7.12033 -11.96376,-4.8259 -24.8324,-9.78513 -37.76479,-14.74538 -12.93237,-4.96025 -25.93092,-9.91949 -38.2154,-14.74538 -6.14221,-2.41295 -12.11466,-4.79135 -17.79177,-7.12032 -5.67717,-2.32897 -11.06932,-4.60247 -16.07931,-6.81388 -5.01005,-2.21141 -9.63121,-4.35705 -13.77197,-6.4173 -4.14082,-2.06027 -7.80027,-4.03706 -10.86979,-5.91258 -1.53473,-0.93776 -2.91695,-1.8547 -4.14601,-2.73997 -1.22906,-0.88528 -2.31057,-1.74914 -3.20866,-2.57774 -0.89807,-0.8286 -1.62125,-1.62976 -2.16313,-2.39748 -0.54188,-0.76771 -0.88515,-1.49655 -1.04551,-2.19918 -0.16037,-0.70264 -0.17311,-1.52477 -0.0179,-2.45156 0.15506,-0.92679 0.46967,-1.96429 0.91931,-3.1005 0.44964,-1.1362 1.04333,-2.36448 1.76656,-3.69535 0.72324,-1.33087 1.58382,-2.7614 2.55972,-4.2722 1.95178,-3.02159 4.37362,-6.3877 7.21044,-10.04056 2.83683,-3.65285 6.08962,-7.58686 9.64402,-11.75303 3.55435,-4.16619 7.41425,-8.56148 11.51867,-13.12303 4.10443,-4.56156 8.43774,-9.29349 12.92477,-14.1325 8.97402,-9.67801 18.54916,-19.78912 28.04867,-29.8693 9.49945,-10.08018 18.93096,-20.13217 27.61604,-29.67102 4.34254,-4.76942 8.49622,-9.40492 12.38393,-13.8621 3.8877,-4.45719 7.51421,-8.7355 10.77962,-12.7625 3.26541,-4.02702 6.17694,-7.80547 8.65255,-11.28437 1.23778,-1.73945 2.36198,-3.41293 3.37092,-4.99324 1.00894,-1.58031 1.89064,-3.06405 2.64981,-4.47048 0.75918,-1.40643 1.40431,-2.72992 1.89277,-3.94773 0.48841,-1.21779 0.83071,-2.33843 1.02747,-3.35285 0.0964,-0.497 0.0312,-0.88839 0.0542,-1.33394 l -0.77515,-3.42497 -3.1726,-1.53221 c -0.43921,-0.077 -0.81017,-0.21775 -1.31588,-0.23435 -1.03283,-0.0339 -2.20115,0.0652 -3.49707,0.2704 -1.29598,0.20519 -2.71413,0.52822 -4.25417,0.95538 -1.54009,0.42716 -3.19204,0.9543 -4.95721,1.5863 -1.76519,0.63199 -3.63488,1.36147 -5.6061,2.18117 -3.94257,1.63939 -8.29012,3.64316 -12.94277,5.93059 -4.65271,2.28743 -9.62498,4.8627 -14.83554,7.66111 -5.21051,2.79842 -10.66144,5.82268 -16.27757,8.99504 -11.23233,6.34473 -23.11961,13.29718 -35.06087,20.31546 -11.94126,7.01828 -23.93501,14.0985 -35.36728,20.694 -5.71615,3.29776 -11.2956,6.47723 -16.65614,9.46373 -5.36054,2.98649 -10.50563,5.77185 -15.35827,8.31005 -4.85264,2.53819 -9.3992,4.82497 -13.59171,6.77782 -4.1925,1.95286 -8.03036,3.5825 -11.41051,4.81298 -1.69013,0.61524 -3.26444,1.12327 -4.72291,1.53222 -1.45841,0.40895 -2.79402,0.71578 -4.00174,0.90131 -1.20779,0.18552 -2.28866,0.25331 -3.22671,0.19828 -0.93805,-0.0551 -1.73011,-0.22807 -2.37945,-0.54078 -0.64934,-0.31271 -1.28289,-0.83312 -1.91077,-1.53222 -0.62789,-0.6991 -1.24873,-1.5899 -1.85666,-2.64984 -0.60799,-1.05995 -1.21304,-2.28211 -1.80262,-3.67733 -0.58964,-1.39523 -1.17582,-2.96383 -1.74857,-4.66877 -1.14547,-3.4099 -2.24764,-7.40183 -3.33485,-11.89725 -1.08717,-4.49543 -2.14947,-9.49508 -3.1906,-14.87156 -1.04113,-5.3765 -2.05717,-11.12585 -3.06445,-17.17892 -1.00727,-6.05306 -2.00664,-12.40226 -2.99234,-18.92744 -1.97134,-13.05035 -3.91833,-26.8469 -5.87652,-40.5588 -1.95818,-13.71191 -3.92392,-27.33447 -5.96662,-40.07211 -1.02141,-6.36882 -2.05775,-12.51403 -3.11855,-18.33258 -1.0608,-5.81854 -2.15022,-11.32197 -3.26276,-16.38576 -1.11248,-5.06378 -2.2485,-9.68544 -3.42491,-13.78999 -0.58826,-2.05228 -1.19618,-3.976213 -1.80261,-5.750342 -0.60649,-1.774129 -1.21245,-3.396632 -1.83872,-4.867057 -0.62622,-1.470425 -1.26316,-2.788542 -1.91072,-3.929697 -0.64761,-1.141156 -1.31247,-2.115876 -1.98293,-2.902208 -0.34627,-0.40615 -0.71084,-0.613015 -1.06351,-0.919333 l -3.1005,-1.496169 z"
         id="path8105" />
      <path
         d="m 347.24975,370.64628 c -2.15164,3.92224 -4.64506,7.03761 -7.48025,9.34611 -2.83522,2.30852 -5.70966,3.46277 -8.6233,3.46277 -1.72579,0 -3.46838,-0.90771 -5.22777,-2.72315 -1.7594,-1.81542 -2.6391,-4.60581 -2.6391,-8.37115 0,-2.66711 0.67238,-6.69019 2.01715,-12.06926 1.16546,-4.4377 1.74819,-7.81081 1.74819,-10.11935 0.8965,-1.88264 2.2973,-2.82397 4.20239,-2.82401 1.29993,4e-5 2.33651,0.43149 3.10977,1.29434 0.77322,0.86292 1.15984,1.73142 1.15986,2.60548 -2e-5,1.59133 -0.56034,3.85502 -1.68096,6.79106 -0.64998,1.74822 -1.35038,4.21922 -2.10119,7.41301 -0.75084,3.19383 -1.12625,5.23899 -1.12624,6.13549 -10e-6,2.9809 0.61634,4.47134 1.84905,4.47134 1.94989,0 4.58339,-1.87146 7.90049,-5.61439 3.31706,-3.74291 5.47988,-7.57549 6.48848,-11.49774 1.00855,-3.83254 1.90506,-6.34277 2.68953,-7.53067 0.78442,-1.18785 1.89385,-1.78178 3.32829,-1.78182 2.33089,4e-5 3.49635,1.29997 3.49639,3.89982 -4e-5,0.38105 -0.19054,1.14308 -0.57152,2.2861 -1.32239,3.96708 -1.98357,8.43841 -1.98353,13.41402 -4e-5,5.82732 0.98612,9.3125 2.95848,10.45554 0.64993,0.38102 0.97492,0.85169 0.97495,1.412 -3e-5,0.80686 -0.57156,1.56889 -1.71457,2.2861 -1.14309,0.71721 -2.2301,1.07581 -3.26105,1.07581 -1.77064,0 -3.13221,-1.24951 -4.08472,-3.74853 -0.95257,-2.49901 -1.42884,-5.85532 -1.42882,-10.06892 z"
         style="font-size:68.85192108px;font-style:normal;font-variant:normal;font-weight:bold;font-stretch:normal;text-align:center;line-height:125%;letter-spacing:0px;word-spacing:0px;writing-mode:lr-tb;text-anchor:middle;fill:#aee239;fill-opacity:1;stroke:#2e0d23;stroke-width:2;font-family:Segoe Print;-inkscape-font-specification:Segoe Print Bold"
         id="path8657"
         inkscape:connector-curvature="0" />
      <path
         d="m 393.64411,378.04248 c -1.07584,-2.01713 -1.86028,-5.78247 -2.35333,-11.29601 -0.49311,-5.73764 -1.59134,-8.60647 -3.29468,-8.60649 -1.61374,2e-5 -4.40412,2.98652 -8.37115,8.95949 -3.96707,5.973 -6.41006,10.3827 -7.32897,13.22911 -0.20172,0.85169 -0.57713,1.55769 -1.12624,2.11801 -0.54912,0.56032 -1.09263,0.84047 -1.63052,0.84047 -3.40674,0 -5.11011,-1.55768 -5.11011,-4.67305 0,-1.05339 0.33619,-3.45155 1.00858,-7.19449 0.87409,-4.84113 1.31114,-10.75809 1.31114,-17.75088 0,-1.05337 0.45946,-2.17961 1.37839,-3.37872 0.91891,-1.19905 1.89386,-1.79859 2.92486,-1.79863 1.29993,4e-5 2.29729,0.32502 2.9921,0.97496 0.69478,0.65 1.04218,2.37578 1.04219,5.17734 -10e-6,2.12924 -0.63878,6.25317 -1.91629,12.37183 4.86355,-11.38564 10.28742,-17.07847 16.27165,-17.0785 5.19972,3e-5 8.24785,4.09035 9.14439,12.27097 0.89647,8.33755 1.92746,12.50631 3.09296,12.5063 0.51545,1e-5 1.10939,-0.11205 1.78181,-0.33619 0.80682,-0.26894 1.44558,-0.40342 1.91629,-0.40343 1.07577,10e-6 1.61367,0.62757 1.61372,1.88267 -5e-5,1.14306 -0.73967,2.35895 -2.21886,3.64768 -1.47929,1.28873 -3.33954,1.9331 -5.58077,1.93309 -2.59992,10e-6 -4.46017,-1.13184 -5.58078,-3.39553 z"
         style="font-size:68.85192108px;font-style:normal;font-variant:normal;font-weight:bold;font-stretch:normal;text-align:center;line-height:125%;letter-spacing:0px;word-spacing:0px;writing-mode:lr-tb;text-anchor:middle;fill:#f0a830;fill-opacity:1;stroke:#2e0d23;stroke-width:2;font-family:Segoe Print;-inkscape-font-specification:Segoe Print Bold"
         id="path8659"
         inkscape:connector-curvature="0" />
      <path
         d="m 429.61656,332.99289 c -3e-5,1.59135 -0.71723,2.98654 -2.15163,4.18558 -1.43443,1.19912 -2.67834,1.79866 -3.73172,1.79862 -1.34478,4e-5 -2.53825,-0.56028 -3.58043,-1.68096 -1.04221,-1.12059 -1.5633,-2.24122 -1.56329,-3.36191 -1e-5,-1.61366 0.51548,-2.9192 1.54648,-3.91662 1.03097,-0.99732 2.51021,-1.496 4.43772,-1.49605 1.50164,5e-5 2.71752,0.4427 3.64767,1.32795 0.93011,0.88536 1.39517,1.93315 1.3952,3.14339 z m -16.23803,27.6349 0,0.0336 c 0.7172,-4.07909 1.0758,-6.41001 1.07581,-6.99277 -10e-6,-1.65852 0.3642,-3.0481 1.09262,-4.16877 0.72841,-1.1206 1.74258,-1.68092 3.04253,-1.68096 1.52405,4e-5 2.71193,0.35864 3.56363,1.07581 0.85166,0.71724 1.2775,1.5241 1.27752,2.42058 -2e-5,0.89654 -0.41465,2.74559 -1.24391,5.54715 l -0.20171,0.73962 c -1.23271,4.32568 -1.97233,7.85568 -2.21886,10.59002 -0.24655,2.73436 -0.36982,4.94202 -0.36981,6.62296 -10e-6,1.36718 0.23532,3.19382 0.706,5.47991 0.0672,0.40344 0.10084,0.73963 0.10086,1.00858 -2e-5,0.51549 -0.48749,1.21029 -1.46243,2.08438 -0.97497,0.8741 -2.02276,1.31115 -3.14339,1.31115 -2.95849,0 -4.43773,-2.24128 -4.43772,-6.72382 -1e-5,-3.81016 0.5379,-8.44959 1.61372,-13.91831 0.22412,-1.21027 0.42583,-2.35332 0.60514,-3.42915 z"
         style="font-size:68.85192108px;font-style:normal;font-variant:normal;font-weight:bold;font-stretch:normal;text-align:center;line-height:125%;letter-spacing:0px;word-spacing:0px;writing-mode:lr-tb;text-anchor:middle;fill:#5a2e2e;fill-opacity:1;stroke:#2e0d23;stroke-width:2;font-family:Segoe Print;-inkscape-font-specification:Segoe Print Bold"
         id="path8661"
         inkscape:connector-curvature="0" />
      <path
         d="m 283.17921,459.7009 0,-39.13824 c -1e-5,-2.56806 -0.38523,-4.40855 -1.15565,-5.52147 -0.77045,-1.11278 -1.86619,-1.80618 -3.2872,-2.08018 -1.42104,-0.27386 -3.75803,-0.5478 -7.01099,-0.8218 l 0,-2.82494 34.82379,0 0,2.82494 c -2.73937,0.17128 -4.79387,0.41953 -6.1635,0.74476 -1.3697,0.32536 -2.42263,1.01875 -3.1588,2.08018 -0.73622,1.06156 -1.10432,2.75652 -1.10429,5.08489 l 0,40.78184 c -3e-5,3.7666 0.84745,7.02812 2.54244,9.78456 1.69493,2.75646 4.10041,4.83664 7.21644,6.24054 3.11595,1.40392 6.74556,2.10587 10.88885,2.10587 4.34864,0 8.15802,-0.80468 11.42816,-2.41404 3.27002,-1.60935 5.82958,-4.04051 7.6787,-7.29348 1.84898,-3.25294 2.7735,-7.17361 2.77357,-11.76202 l 0,-23.67812 c -7e-5,-5.34165 -0.39385,-9.53625 -1.18133,-12.58381 -0.78763,-3.04745 -2.10593,-5.28172 -3.95492,-6.70281 -1.84911,-1.42096 -4.45148,-2.21708 -7.8071,-2.38836 l 0,-2.82494 26.40033,0 0,2.82494 c -3.01334,0.41097 -5.28185,1.47246 -6.80553,3.18448 -1.52383,1.71214 -2.54252,3.96353 -3.05607,6.75417 -0.5137,2.79075 -0.77051,6.2406 -0.77044,10.34954 l 0,26.55443 c -7e-5,3.66388 -0.67634,6.99388 -2.02882,9.99001 -1.35261,2.99615 -3.31295,5.56428 -5.88101,7.70437 -2.56818,2.14011 -5.65849,3.75803 -9.27093,4.85376 -3.61255,1.09573 -7.73011,1.6436 -12.35269,1.6436 -11.02585,0 -19.17536,-3.09887 -24.44855,-9.29661 -1.60938,-1.98601 -2.73079,-4.07475 -3.36425,-6.26623 -0.63349,-2.19145 -0.95022,-4.82806 -0.95021,-7.90983 z m 5.08489,0.30818 0,-41.03866 c -2e-5,-5.0677 -2.43117,-7.34477 -7.29347,-6.83121 2.60235,1.02732 3.90353,3.49272 3.90355,7.3962 l 0,40.98729 c -2e-5,5.85534 1.71206,10.43516 5.13625,13.73948 3.42414,3.30432 8.56039,5.7098 15.40875,7.21643 -2.63664,-1.12997 -4.87947,-2.23427 -6.72849,-3.31288 -1.84907,-1.07861 -3.57828,-2.4226 -5.18761,-4.03196 -1.60938,-1.60935 -2.88488,-3.59537 -3.82651,-5.95805 -0.94166,-2.36266 -1.41249,-5.08487 -1.41247,-8.16664 z m 54.90653,-47.86987 -10.52931,0 c 3.15017,1.43822 5.1533,4.14331 6.00941,8.11528 0.41083,-1.95171 0.95014,-3.57819 1.61792,-4.87944 0.66764,-1.30112 1.63497,-2.37973 2.90198,-3.23584 z"
         style="font-size:105.19043732px;font-style:normal;font-variant:normal;font-weight:bold;font-stretch:normal;text-align:center;line-height:125%;letter-spacing:0px;word-spacing:0px;writing-mode:lr-tb;text-anchor:middle;fill:#dfba69;fill-opacity:1;stroke:#2e0d23;stroke-width:1;font-family:Imprint MT Shadow;-inkscape-font-specification:Segoe Print Bold"
         id="path8663"
         inkscape:connector-curvature="0" />
      <path
         d="m 375.27221,436.02278 0,6.83122 c 2.87628,-2.22567 5.53857,-3.92063 7.98687,-5.08489 2.44825,-1.16418 5.36735,-1.74628 8.75731,-1.74633 9.69035,5e-5 14.53554,4.811 14.53559,14.43287 l 0,23.42131 c -5e-5,2.22571 0.5307,3.62962 1.59224,4.21172 1.06144,0.58211 2.6708,0.87317 4.82808,0.87317 l 0,2.82493 -24.75674,0 0,-2.82493 c 2.19144,0 3.79223,-0.35098 4.8024,-1.05294 1.01009,-0.70195 1.51515,-2.1829 1.51519,-4.44285 l 0,-24.8081 c -4e-5,-1.81477 -0.28253,-3.34709 -0.84748,-4.59695 -0.56502,-1.24978 -1.39538,-2.19998 -2.49108,-2.85061 -1.09577,-0.65056 -2.43119,-0.97585 -4.00628,-0.97589 -1.9518,4e-5 -3.86077,0.5051 -5.72692,1.51519 -1.86619,1.01017 -3.92925,2.54248 -6.18918,4.59695 l 0,27.11941 c -2e-5,1.54088 0.25679,2.72222 0.77044,3.54401 0.5136,0.8218 1.20699,1.33543 2.08018,1.54088 0.87314,0.20545 2.13152,0.34242 3.77515,0.4109 l 0,2.82493 -24.8081,0 0,-2.82493 c 2.08874,0 3.69809,-0.28249 4.82808,-0.84749 1.12996,-0.56498 1.69495,-1.8576 1.69496,-3.87787 l 0,-22.75359 c -10e-6,-2.25992 -0.51364,-4.08329 -1.54088,-5.47011 -1.02725,-1.38675 -2.68797,-2.43968 -4.98216,-3.15879 l 0,-1.69497 16.23055,-5.13625 z m -9.96433,13.76516 0,23.57539 c -1e-5,1.54088 -0.11129,2.65374 -0.33385,3.33857 -0.22259,0.68483 -0.71053,1.43815 -1.46384,2.25995 3.35568,-0.30818 5.03352,-2.17435 5.03353,-5.59852 l 0,-24.49992 c -1e-5,-1.71205 -0.6078,-3.17588 -1.82337,-4.3915 -1.21559,-1.21554 -2.62806,-1.82333 -4.23741,-1.82336 -0.17121,3e-5 -0.47939,0.0343 -0.92452,0.10272 -0.44515,0.0685 -0.7362,0.10276 -0.87316,0.10273 3.08174,1.40394 4.62261,3.71525 4.62262,6.93394 z m 30.92024,-1.64361 0,25.32173 c -4e-5,1.0615 -0.0257,1.84049 -0.077,2.33699 -0.0514,0.49651 -0.18837,0.97589 -0.4109,1.43815 -0.22261,0.46227 -0.65919,1.03582 -1.30974,1.72065 l 0.97589,0 c 1.78052,0 2.96186,-0.65915 3.54401,-1.97746 0.58206,-1.3183 0.87312,-3.29575 0.87316,-5.93237 l 0,-22.70223 c -4e-5,-2.94475 -0.65063,-5.18758 -1.95177,-6.72849 -1.30123,-1.54084 -3.59542,-2.37976 -6.88258,-2.51677 1.84901,0.75336 3.18444,1.84053 4.00628,3.26152 0.82176,1.42107 1.23266,3.34716 1.2327,5.77828 z"
         style="font-size:105.19043732px;font-style:normal;font-variant:normal;font-weight:bold;font-stretch:normal;text-align:center;line-height:125%;letter-spacing:0px;word-spacing:0px;writing-mode:lr-tb;text-anchor:middle;fill:#3e4147;fill-opacity:1;stroke:#2e0d23;stroke-width:1;font-family:Imprint MT Shadow;-inkscape-font-specification:Segoe Print Bold"
         id="path8665"
         inkscape:connector-curvature="0" />
      <path
         d="m 435.36636,436.02278 0,37.1351 c -2e-5,1.57513 0.16262,2.76502 0.48794,3.5697 0.32527,0.80468 0.94162,1.36111 1.84905,1.66928 0.90738,0.30818 2.30273,0.49651 4.18605,0.56499 l 0,2.82493 -23.9863,0 0,-2.82493 c 2.12298,-0.0685 3.60393,-0.49651 4.44286,-1.28407 0.83891,-0.78755 1.25837,-2.19146 1.25838,-4.21172 l 0,-23.5754 c -10e-6,-1.47236 -0.49651,-2.84202 -1.48951,-4.109 -0.99302,-1.26691 -2.39693,-2.20855 -4.21173,-2.82494 l 0,-1.6436 15.35739,-5.29034 z m -10.06706,14.02197 0,24.39719 c -1e-5,1.98603 -0.70196,3.49266 -2.10586,4.51991 1.88328,0 3.26151,-0.42802 4.13468,-1.28407 0.87315,-0.85603 1.30973,-2.25994 1.30975,-4.21172 l 0,-24.08902 c -2e-5,-2.19144 -0.53076,-3.87784 -1.59224,-5.05921 -1.0615,-1.1813 -2.44829,-1.77197 -4.16037,-1.77201 -0.78756,4e-5 -1.42103,0.0343 -1.90041,0.10273 2.87629,1.50667 4.31444,3.97207 4.31445,7.3962 z m 3.74947,-39.03552 c 1.30116,8e-5 2.51674,0.31681 3.64674,0.95021 1.12995,0.63354 2.02023,1.49814 2.67085,2.59381 0.65057,1.0958 0.97586,2.29426 0.97588,3.59537 -2e-5,1.30125 -0.32531,2.50827 -0.97588,3.62106 -0.65062,1.11292 -1.5409,1.99464 -2.67085,2.64517 -1.13,0.65065 -2.34558,0.97595 -3.64674,0.97589 -1.95179,6e-5 -3.62963,-0.71902 -5.03353,-2.15723 -1.40392,-1.43809 -2.10587,-3.13305 -2.10586,-5.08489 -10e-6,-1.26687 0.31672,-2.45677 0.9502,-3.56969 0.63347,-1.11279 1.50663,-1.98595 2.61949,-2.61949 1.11284,-0.6334 2.30274,-0.95013 3.5697,-0.95021 z m 0.87316,1.6436 c -2.02027,7e-5 -3.57827,0.47946 -4.67399,1.43816 -1.09574,0.95883 -1.64361,2.27713 -1.6436,3.95491 -10e-6,1.60942 0.53074,2.93628 1.59224,3.98059 1.06148,1.04443 2.63659,1.61798 4.72535,1.72065 -1.09575,-0.99295 -1.90043,-1.87467 -2.41404,-2.64517 -0.51364,-0.77038 -0.77045,-1.75482 -0.77044,-2.95335 -1e-5,-2.22564 1.06148,-4.05757 3.18448,-5.49579 z"
         style="font-size:105.19043732px;font-style:normal;font-variant:normal;font-weight:bold;font-stretch:normal;text-align:center;line-height:125%;letter-spacing:0px;word-spacing:0px;writing-mode:lr-tb;text-anchor:middle;fill:#c0d860;fill-opacity:1;stroke:#2e0d23;stroke-width:1;font-family:Imprint MT Shadow;-inkscape-font-specification:Segoe Print Bold"
         id="path8667"
         inkscape:connector-curvature="0" />
      <path
         d="m 451.64827,469.35705 0,-29.22527 -5.49579,0 0,-2.61949 c 3.01326,-2.2599 5.27321,-3.99766 6.77985,-5.21329 1.50663,-1.21553 2.93621,-2.57664 4.28877,-4.08332 1.35253,-1.50658 2.50819,-3.0817 3.46697,-4.72535 l 2.72222,0 0,13.40561 12.7379,0 0,3.23584 -12.7379,0 0,30.71479 c -2e-5,2.25996 0.27391,3.94636 0.8218,5.05921 0.54784,1.11286 1.47237,1.66928 2.77357,1.66928 1.23268,0 2.37121,-0.34241 3.41561,-1.02725 1.04434,-0.68483 2.31985,-1.74632 3.82651,-3.18448 l 1.90041,2.00314 c -2.56815,2.63661 -4.92227,4.59695 -7.06234,5.88101 -2.14013,1.28406 -4.59697,1.92609 -7.37053,1.92609 -2.63662,0 -4.69112,-0.58211 -6.1635,-1.74632 -1.4724,-1.16422 -2.49109,-2.74789 -3.05607,-4.75104 -0.56499,-2.00313 -0.84749,-4.44284 -0.84748,-7.31916 z m 5.03353,-37.9569 -3.38993,2.82494 0,34.10471 c -1e-5,4.55416 0.59066,7.86704 1.77201,9.93865 1.18132,2.07162 3.29574,3.10743 6.34327,3.10743 1.60934,0 3.2187,-0.25681 4.82808,-0.77043 -3.11602,0.10272 -5.48725,-0.62491 -7.11371,-2.18291 -1.6265,-1.55799 -2.43974,-4.1518 -2.43972,-7.78142 z"
         style="font-size:105.19043732px;font-style:normal;font-variant:normal;font-weight:bold;font-stretch:normal;text-align:center;line-height:125%;letter-spacing:0px;word-spacing:0px;writing-mode:lr-tb;text-anchor:middle;fill:#607848;fill-opacity:1;stroke:#2e0d23;stroke-width:1;font-family:Imprint MT Shadow;-inkscape-font-specification:Segoe Print Bold"
         id="path8669"
         inkscape:connector-curvature="0" />
    </g>
  </g>
</svg>
