<?xml version="1.0" encoding="UTF-8" standalone="no"?>
<!-- Created with Inkscape (http://www.inkscape.org/) -->

<svg
   xmlns:dc="http://purl.org/dc/elements/1.1/"
   xmlns:cc="http://creativecommons.org/ns#"
   xmlns:rdf="http://www.w3.org/1999/02/22-rdf-syntax-ns#"
   xmlns:svg="http://www.w3.org/2000/svg"
   xmlns="http://www.w3.org/2000/svg"
   xmlns:sodipodi="http://sodipodi.sourceforge.net/DTD/sodipodi-0.dtd"
   xmlns:inkscape="http://www.inkscape.org/namespaces/inkscape"
   width="600"
   height="600"
   id="svg2"
   version="1.1"
   inkscape:version="0.48.4 r9939"
   sodipodi:docname="New document 1">
  <sodipodi:namedview
     id="base"
     pagecolor="#ffffff"
     bordercolor="#666666"
     borderopacity="1.0"
     inkscape:pageopacity="0.0"
     inkscape:pageshadow="2"
     inkscape:zoom="0.7"
     inkscape:cx="474.8812"
     inkscape:cy="191.78119"
     inkscape:document-units="px"
     inkscape:current-layer="layer1"
     showgrid="false"
     fit-margin-top="0"
     fit-margin-left="0"
     fit-margin-right="0"
     fit-margin-bottom="0"
     inkscape:window-width="1832"
     inkscape:window-height="1058"
     inkscape:window-x="2000"
     inkscape:window-y="111"
     inkscape:window-maximized="1" />
  <defs
     id="defs4" />
  <metadata
     id="metadata7">
    <rdf:RDF>
      <cc:Work
         rdf:about="">
        <dc:format>image/svg+xml</dc:format>
        <dc:type
           rdf:resource="http://purl.org/dc/dcmitype/StillImage" />
        <dc:title></dc:title>
      </cc:Work>
    </rdf:RDF>
  </metadata>
  <g
     transform="translate(1777,569.92352)"
     id="layer1"
     inkscape:groupmode="layer"
     inkscape:label="Layer 1">
    <g
       id="g7638"
       transform="matrix(0.5859375,0,0,0.5859375,-735.78906,12.453545)">
      <path
         style="fill:#0fba19;fill-opacity:1"
         d="m -1777,-481.92353 0,-512 512,0 512,0 0,512 0,512.000016 -512,0 -512,0 0,-512.000016 z m 844.17126,338.34501 c 1.00581,-0.91024 1.82874,-2.69854 1.82874,-3.974 0,-1.27545 -4.95,-16.98767 -11,-34.91605 -6.05,-17.92837 -11,-32.94869 -11,-33.37848 0,-0.4298 2.8125,-2.97974 6.25,-5.66655 3.4375,-2.6868 10.24226,-8.71568 15.12168,-13.39751 79.98279,-76.74382 82.98509,-192.13884 7.07417,-271.89945 -33.1925,-34.87581 -79.91635,-60.30146 -130.44585,-70.9846 -21.3322,-4.51014 -32.4302,-5.54743 -59,-5.51453 -29.4102,0.0364 -43.5568,1.73587 -69.4583,8.34415 -18.8978,4.82139 -31.1171,9.29308 -49.0417,17.94691 -65.0302,31.39598 -108.844,84.72469 -121.6721,148.0951 -2.0364,10.06001 -2.3279,14.37998 -2.3279,34.5 0,20.12002 0.2915,24.43999 2.3279,34.5 12.833,63.39487 56.6168,116.687 121.6721,148.0951 17.9215,8.65234 30.1438,13.12548 49.0281,17.94344 53.4011,13.62427 108.5058,11.50557 161.0462,-6.19202 l 12.0744,-4.06708 29.42564,17.26033 c 16.18411,9.49319 32.12566,18.94985 35.42566,21.0148 6.66221,4.16883 9.94081,4.76147 12.67126,2.29044 z m -280.81476,-281.36762 c -20.6953,-8.19886 -26.9245,-34.68994 -12.1135,-51.51609 13.2534,-15.0567 37.9013,-13.89712 49.846,2.34504 6.0486,8.22484 7.7936,20.00974 4.4523,30.06934 -2.1448,6.45729 -9.2676,14.4369 -15.9337,17.85034 -7.068,3.6192 -18.8558,4.18112 -26.2511,1.25137 z m 179.6435,1.08748 c -9.351,-2.85476 -18.6862,-11.59343 -21.5295,-20.15374 -1.9634,-5.91112 -2.1693,-15.20693 -0.4561,-20.59311 3.0096,-9.46261 10.8296,-17.58761 20.0627,-20.84521 2.2959,-0.81005 7.3803,-1.47245 11.2986,-1.47202 28.22077,0.003 42.25076,34.50318 22.1895,54.56443 -6.398,6.39798 -13.9135,9.47251 -22.8527,9.34883 -3.4169,-0.0473 -7.3375,-0.42941 -8.7125,-0.84918 z m -496.5,116.3083 46,-27.62606 6,1.67774 c 27.0795,7.57206 46.5661,11.49221 67.356,13.55008 12.9369,1.28055 42.144,1.35265 42.144,0.10403 0,-0.50658 -0.929,-4.83272 -2.0645,-9.61365 -6.743,-28.3915 -6.5574,-63.11432 0.4914,-91.96531 20.1593,-82.51269 90.1798,-148.59678 182.2312,-171.98642 24.815,-6.30534 62.4211,-10.44582 81.1605,-8.93588 l 8.3185,0.67028 -0.6714,-3.87399 c -2.8682,-16.5491 -10.1162,-38.59108 -18.373,-55.87399 -25.0359,-52.40457 -68.0764,-94.24067 -125.5927,-122.07807 -27.2899,-13.20808 -58.3168,-22.65614 -90.5,-27.55834 -13.7887,-2.10032 -18.9226,-2.35957 -46.5,-2.34819 -33.1461,0.0137 -41.5828,0.7847 -66.8819,6.11221 -98.4154,20.72444 -177.658,86.76386 -205.9356,171.62318 -4.1787,12.53986 -8.0182,29.31055 -9.7872,42.74921 -1.6079,12.21536 -1.6079,40.78464 0,53 5.7494,43.67728 23.7063,84.24497 52.6744,119 12.5784,15.09112 33.0048,34.17204 48.7608,45.54888 l 2.8304,2.04378 -12.5804,42.53661 c -6.9193,23.39513 -12.5805,43.51179 -12.5805,44.70367 0,2.60695 3.3197,6.16721 5.75,6.16668 0.9625,-2.1e-4 22.45,-12.43212 47.75,-27.62645 z m 29.8242,-304.75435 c -18.5486,-6.0588 -29.355,-26.92857 -23.5057,-45.39496 5.0923,-16.07614 19.7722,-26.09073 36.6568,-25.00714 13.0642,0.83841 23.3486,7.43935 29.6256,19.01494 3.2517,5.99645 3.3991,6.72379 3.3991,16.76834 0,10.06282 -0.1428,10.76339 -3.4298,16.82601 -6.4385,11.87517 -16.923,18.34201 -30.5702,18.8557 -4.8648,0.18311 -9.6365,-0.23344 -12.1758,-1.06289 z m 221.9756,-0.42187 c -14.7159,-5.25192 -23.239,-16.82834 -24.0732,-32.69695 -0.3426,-6.51774 -0.012,-9.08273 1.7834,-13.84367 3.292,-8.72922 9.2925,-15.49209 17.4402,-19.65633 6.4205,-3.28144 7.4477,-3.5 16.449,-3.5 8.584,0 10.2304,0.30915 15.5463,2.91921 7.5588,3.71131 13.424,9.57648 17.1353,17.13526 2.6035,5.30258 2.9192,6.97286 2.9192,15.44553 0,8.39522 -0.3278,10.16745 -2.8184,15.23943 -3.5773,7.28499 -10.1294,13.85403 -17.3339,17.3789 -7.4633,3.65142 -19.3036,4.34246 -27.0479,1.57862 z"
         id="path7334"
         inkscape:connector-curvature="0" />
      <g
         id="g7464"
         transform="translate(104.3351,-859.59312)"
         style="stroke:none">
        <g
           id="g7488"
           style="fill:#effab4;fill-opacity:1;stroke:none"
           transform="translate(-1101.0347,83.525769)">
          <g
             transform="matrix(25.88211,0,0,-25.88211,124.26521,81.24665)"
             id="g7422"
             style="fill:#effab4;fill-opacity:1;stroke:none">
            <path
               style="fill:#effab4;fill-opacity:1;stroke:none"
               inkscape:connector-curvature="0"
               d="M 0,0 H 0.18 C 1.184,-0.002 1.76,-0.958 1.764,-1.605 1.76,-1.731 1.729,-1.84 1.586,-1.837 1.285,-1.84 1.393,-1.355 1.145,-0.944 1.027,-0.741 0.65,-0.374 0.221,-0.377 H 0.063 c -0.231,0.003 -0.665,-0.13 -0.956,-0.567 -0.363,-0.529 -0.125,-0.915 -0.429,-0.913 -0.047,-0.002 -0.182,0.011 -0.18,0.23 C -1.488,-0.634 -0.578,-0.002 0,0"
               id="path7424" />
          </g>
          <g
             transform="matrix(25.88211,0,0,-25.88211,127.80361,223.37052)"
             id="g7426"
             style="fill:#effab4;fill-opacity:1;stroke:none">
            <path
               style="fill:#effab4;fill-opacity:1;stroke:none"
               inkscape:connector-curvature="0"
               d="M 0,0 C 0.377,-0.004 0.668,0.378 0.672,0.641 V 1.187 C 0.668,2.305 1.842,2.745 1.838,3.864 1.842,4.912 0.895,5.704 0,5.702 -0.742,5.704 -1.248,5.226 -1.439,4.978 -2.014,4.268 -1.684,3.591 -2.09,3.591 c -0.115,0 -0.228,0.065 -0.23,0.295 -0.018,1.11 0.898,2.287 2.341,2.289 C 1.186,6.173 2.33,5.245 2.33,3.822 2.33,2.504 1.176,2.229 1.176,1.071 V 0.577 c 0,-0.508 -0.453,-1.089 -1.197,-1.092 -0.028,0.008 -0.059,0.018 -0.094,0.022 -0.137,0.041 -0.233,0.184 -0.199,0.325 0.039,0.122 0.152,0.152 0.304,0.168 H 0 z"
               id="path7428" />
          </g>
          <g
             transform="matrix(25.88211,0,0,-25.88211,102.82964,173.50086)"
             id="g7430"
             style="fill:#effab4;fill-opacity:1;stroke:none">
            <path
               style="fill:#effab4;fill-opacity:1;stroke:none"
               inkscape:connector-curvature="0"
               d="M 0,0 -0.293,-0.294 -1.1,0.502 -0.807,0.796 0,0 z"
               id="path7432" />
          </g>
          <g
             transform="matrix(25.88211,0,0,-25.88211,102.4263,147.26675)"
             id="g7434"
             style="fill:#effab4;fill-opacity:1;stroke:none">
            <path
               style="fill:#effab4;fill-opacity:1;stroke:none"
               inkscape:connector-curvature="0"
               d="M 0,0 C -0.004,0.128 0.1,0.232 0.223,0.236 0.357,0.232 0.461,0.128 0.459,0 0.457,-0.128 0.357,-0.232 0.223,-0.236 0.1,-0.232 -0.004,-0.129 0,0"
               id="path7436" />
          </g>
          <g
             transform="matrix(25.88211,0,0,-25.88211,121.68487,128.00528)"
             id="g7438"
             style="fill:#effab4;fill-opacity:1;stroke:none">
            <path
               style="fill:#effab4;fill-opacity:1;stroke:none"
               inkscape:connector-curvature="0"
               d="M 0,0 C 0.002,0.133 0.105,0.237 0.236,0.236 0.367,0.235 0.467,0.133 0.473,0 0.467,-0.123 0.363,-0.228 0.236,-0.223 0.105,-0.228 0.002,-0.123 0,0"
               id="path7440" />
          </g>
          <g
             transform="matrix(25.88211,0,0,-25.88211,43.43267,206.20819)"
             id="g7442"
             style="fill:#effab4;fill-opacity:1;stroke:none">
            <path
               style="fill:#effab4;fill-opacity:1;stroke:none"
               inkscape:connector-curvature="0"
               d="M 0,0 C -0.006,0.125 0.1,0.229 0.225,0.223 0.355,0.229 0.459,0.125 0.461,0 0.463,-0.125 0.355,-0.235 0.225,-0.236 0.095,-0.237 -0.006,-0.131 0,0"
               id="path7444" />
          </g>
          <g
             transform="matrix(25.88211,0,0,-25.88211,62.74363,186.94921)"
             id="g7446"
             style="fill:#effab4;fill-opacity:1;stroke:none">
            <path
               style="fill:#effab4;fill-opacity:1;stroke:none"
               inkscape:connector-curvature="0"
               d="M 0,0 C 0,0.131 0.104,0.235 0.236,0.236 0.359,0.234 0.465,0.131 0.459,0 0.465,-0.126 0.359,-0.229 0.236,-0.236 0.104,-0.229 0,-0.126 0,0"
               id="path7448" />
          </g>
          <g
             transform="matrix(25.88211,0,0,-25.88211,145.44465,51.87542)"
             id="g7450"
             style="fill:#effab4;fill-opacity:1;stroke:none">
            <path
               style="fill:#effab4;fill-opacity:1;fill-rule:evenodd;stroke:none"
               inkscape:connector-curvature="0"
               d="m 0,0 c 0.994,-0.252 1.791,-1.004 2.102,-1.975 l 0.367,0.117 C 2.113,-0.765 1.227,0.085 0.105,0.367 L 0,-0.011 V 0 z"
               id="path7452" />
          </g>
          <g
             transform="matrix(25.88211,0,0,-25.88211,150.65213,32.0346)"
             id="g7454"
             style="fill:#effab4;fill-opacity:1;stroke:none">
            <path
               style="fill:#effab4;fill-opacity:1;fill-rule:evenodd;stroke:none"
               inkscape:connector-curvature="0"
               d="m 0,0 0.104,0.378 c 1.388,-0.349 2.5,-1.397 2.941,-2.751 L 2.656,-2.499 C 2.258,-1.276 1.252,-0.322 0,0"
               id="path7456" />
          </g>
        </g>
        <g
           transform="matrix(-1,0,0,1,-1644.3487,-87.190011)"
           style="fill:#effab4;fill-opacity:1;stroke:none"
           id="g7508">
          <g
             style="fill:#effab4;fill-opacity:1;stroke:none"
             id="g7510"
             transform="matrix(25.88211,0,0,-25.88211,124.26521,81.24665)">
            <path
               id="path7512"
               d="M 0,0 H 0.18 C 1.184,-0.002 1.76,-0.958 1.764,-1.605 1.76,-1.731 1.729,-1.84 1.586,-1.837 1.285,-1.84 1.393,-1.355 1.145,-0.944 1.027,-0.741 0.65,-0.374 0.221,-0.377 H 0.063 c -0.231,0.003 -0.665,-0.13 -0.956,-0.567 -0.363,-0.529 -0.125,-0.915 -0.429,-0.913 -0.047,-0.002 -0.182,0.011 -0.18,0.23 C -1.488,-0.634 -0.578,-0.002 0,0"
               inkscape:connector-curvature="0"
               style="fill:#effab4;fill-opacity:1;stroke:none" />
          </g>
          <g
             style="fill:#effab4;fill-opacity:1;stroke:none"
             id="g7514"
             transform="matrix(25.88211,0,0,-25.88211,127.80361,223.37052)">
            <path
               id="path7516"
               d="M 0,0 C 0.377,-0.004 0.668,0.378 0.672,0.641 V 1.187 C 0.668,2.305 1.842,2.745 1.838,3.864 1.842,4.912 0.895,5.704 0,5.702 -0.742,5.704 -1.248,5.226 -1.439,4.978 -2.014,4.268 -1.684,3.591 -2.09,3.591 c -0.115,0 -0.228,0.065 -0.23,0.295 -0.018,1.11 0.898,2.287 2.341,2.289 C 1.186,6.173 2.33,5.245 2.33,3.822 2.33,2.504 1.176,2.229 1.176,1.071 V 0.577 c 0,-0.508 -0.453,-1.089 -1.197,-1.092 -0.028,0.008 -0.059,0.018 -0.094,0.022 -0.137,0.041 -0.233,0.184 -0.199,0.325 0.039,0.122 0.152,0.152 0.304,0.168 H 0 z"
               inkscape:connector-curvature="0"
               style="fill:#effab4;fill-opacity:1;stroke:none" />
          </g>
          <g
             style="fill:#effab4;fill-opacity:1;stroke:none"
             id="g7518"
             transform="matrix(25.88211,0,0,-25.88211,102.82964,173.50086)">
            <path
               id="path7520"
               d="M 0,0 -0.293,-0.294 -1.1,0.502 -0.807,0.796 0,0 z"
               inkscape:connector-curvature="0"
               style="fill:#effab4;fill-opacity:1;stroke:none" />
          </g>
          <g
             style="fill:#effab4;fill-opacity:1;stroke:none"
             id="g7522"
             transform="matrix(25.88211,0,0,-25.88211,102.4263,147.26675)">
            <path
               id="path7524"
               d="M 0,0 C -0.004,0.128 0.1,0.232 0.223,0.236 0.357,0.232 0.461,0.128 0.459,0 0.457,-0.128 0.357,-0.232 0.223,-0.236 0.1,-0.232 -0.004,-0.129 0,0"
               inkscape:connector-curvature="0"
               style="fill:#effab4;fill-opacity:1;stroke:none" />
          </g>
          <g
             style="fill:#effab4;fill-opacity:1;stroke:none"
             id="g7526"
             transform="matrix(25.88211,0,0,-25.88211,121.68487,128.00528)">
            <path
               id="path7528"
               d="M 0,0 C 0.002,0.133 0.105,0.237 0.236,0.236 0.367,0.235 0.467,0.133 0.473,0 0.467,-0.123 0.363,-0.228 0.236,-0.223 0.105,-0.228 0.002,-0.123 0,0"
               inkscape:connector-curvature="0"
               style="fill:#effab4;fill-opacity:1;stroke:none" />
          </g>
          <g
             style="fill:#effab4;fill-opacity:1;stroke:none"
             id="g7530"
             transform="matrix(25.88211,0,0,-25.88211,43.43267,206.20819)">
            <path
               id="path7532"
               d="M 0,0 C -0.006,0.125 0.1,0.229 0.225,0.223 0.355,0.229 0.459,0.125 0.461,0 0.463,-0.125 0.355,-0.235 0.225,-0.236 0.095,-0.237 -0.006,-0.131 0,0"
               inkscape:connector-curvature="0"
               style="fill:#effab4;fill-opacity:1;stroke:none" />
          </g>
          <g
             style="fill:#effab4;fill-opacity:1;stroke:none"
             id="g7534"
             transform="matrix(25.88211,0,0,-25.88211,62.74363,186.94921)">
            <path
               id="path7536"
               d="M 0,0 C 0,0.131 0.104,0.235 0.236,0.236 0.359,0.234 0.465,0.131 0.459,0 0.465,-0.126 0.359,-0.229 0.236,-0.236 0.104,-0.229 0,-0.126 0,0"
               inkscape:connector-curvature="0"
               style="fill:#effab4;fill-opacity:1;stroke:none" />
          </g>
          <g
             style="fill:#effab4;fill-opacity:1;stroke:none"
             id="g7538"
             transform="matrix(25.88211,0,0,-25.88211,145.44465,51.87542)">
            <path
               id="path7540"
               d="m 0,0 c 0.994,-0.252 1.791,-1.004 2.102,-1.975 l 0.367,0.117 C 2.113,-0.765 1.227,0.085 0.105,0.367 L 0,-0.011 V 0 z"
               inkscape:connector-curvature="0"
               style="fill:#effab4;fill-opacity:1;fill-rule:evenodd;stroke:none" />
          </g>
          <g
             style="fill:#effab4;fill-opacity:1;stroke:none"
             id="g7542"
             transform="matrix(25.88211,0,0,-25.88211,150.65213,32.0346)">
            <path
               id="path7544"
               d="m 0,0 0.104,0.378 c 1.388,-0.349 2.5,-1.397 2.941,-2.751 L 2.656,-2.499 C 2.258,-1.276 1.252,-0.322 0,0"
               inkscape:connector-curvature="0"
               style="fill:#effab4;fill-opacity:1;fill-rule:evenodd;stroke:none" />
          </g>
        </g>
      </g>
    </g>
  </g>
</svg>
