<?xml version="1.0" encoding="UTF-8" standalone="no"?>
<!-- Created with Inkscape (http://www.inkscape.org/) -->

<svg
   xmlns:dc="http://purl.org/dc/elements/1.1/"
   xmlns:cc="http://creativecommons.org/ns#"
   xmlns:rdf="http://www.w3.org/1999/02/22-rdf-syntax-ns#"
   xmlns:svg="http://www.w3.org/2000/svg"
   xmlns="http://www.w3.org/2000/svg"
   xmlns:sodipodi="http://sodipodi.sourceforge.net/DTD/sodipodi-0.dtd"
   xmlns:inkscape="http://www.inkscape.org/namespaces/inkscape"
   width="150.06985"
   height="150.06985"
   id="svg2"
   version="1.1"
   inkscape:version="0.48.4 r9939"
   sodipodi:docname="rss.svg">
  <defs
     id="defs4" />
  <sodipodi:namedview
     id="base"
     pagecolor="#ffffff"
     bordercolor="#666666"
     borderopacity="1.0"
     inkscape:pageopacity="0.0"
     inkscape:pageshadow="2"
     inkscape:zoom="1.4"
     inkscape:cx="135.64036"
     inkscape:cy="175.93471"
     inkscape:document-units="px"
     inkscape:current-layer="g7369"
     showgrid="false"
     fit-margin-top="0"
     fit-margin-left="0"
     fit-margin-right="0"
     fit-margin-bottom="0"
     inkscape:window-width="1920"
     inkscape:window-height="1138"
     inkscape:window-x="-8"
     inkscape:window-y="-8"
     inkscape:window-maximized="1" />
  <metadata
     id="metadata7">
    <rdf:RDF>
      <cc:Work
         rdf:about="">
        <dc:format>image/svg+xml</dc:format>
        <dc:type
           rdf:resource="http://purl.org/dc/dcmitype/StillImage" />
        <dc:title />
      </cc:Work>
    </rdf:RDF>
  </metadata>
  <g
     inkscape:label="Layer 1"
     inkscape:groupmode="layer"
     id="layer1"
     transform="translate(-127.65419,-483.71302)">
    <g
       id="g7369"
       transform="matrix(3.1929755,0,0,3.1929755,112.58734,321.46995)"
       style="fill:#cc333f">
      <path
         id="path7371"
         d="m 42.3084,51.766547 -28.186743,0 c -2.329349,0 -4.3209975,0.826712 -5.9749452,2.480659 -1.6544709,1.653946 -2.4811829,3.646117 -2.4811829,5.975465 l 0,28.18673 c 0,2.329348 0.826712,4.321518 2.4811829,5.974418 1.6539477,1.653947 3.6455962,2.480661 5.9749452,2.480661 l 28.186743,0 c 2.329349,0 4.320474,-0.826714 5.974945,-2.480661 1.653947,-1.6529 2.481183,-3.64507 2.481183,-5.974418 l 0,-28.18673 c 0,-2.329348 -0.827236,-4.321519 -2.481183,-5.975465 -1.654471,-1.653947 -3.64612,-2.480659 -5.974945,-2.480659 z"
         style="fill:#f1d4af;stroke:#774f38;stroke-width:1.879125"
         inkscape:connector-curvature="0"
         sodipodi:nodetypes="sscsscsscsscs" />
    </g>
    <path
       style="fill:#aab55b"
       inkscape:connector-curvature="0"
       d="m 174.24224,569.1006 c -0.22885,0.0418 -0.4125,0.13505 -0.57129,0.25202 -6.36896,-1.76699 -11.89596,0.91373 -15.65653,5.51908 -0.0322,-0.0367 -0.0689,-0.0695 -0.10115,-0.10679 -0.31757,-0.36843 -0.9708,0.1294 -0.67696,0.52269 0.0769,0.10284 0.16331,0.19439 0.24129,0.29666 -7.65112,10.23181 -7.03631,28.66511 10.93081,30.79036 23.32177,2.75869 28.07292,-41.33917 5.83383,-37.27402 z m 1.05839,3.48312 c 0.12092,0.0107 0.22885,-0.0136 0.33678,-0.039 3.17855,0.7928 5.89769,1.52513 7.92687,4.59688 0.9951,1.50649 1.5031,3.2667 1.69692,5.07946 -0.47692,-0.52213 -1.18044,-0.8397 -1.80711,-1.23017 -1.38726,-0.86457 -2.74344,-1.77942 -4.08492,-2.71293 -2.44565,-1.702 -4.53077,-3.62551 -6.70349,-5.62814 -0.0848,-0.0785 -0.18026,-0.0915 -0.27293,-0.12545 0.95046,-0.0475 1.92182,-0.0311 2.90788,0.0593 z m -19.16056,16.91099 c 2.16706,2.85927 4.49573,5.59424 6.98941,8.17211 1.58503,1.63871 3.37915,3.5012 5.33713,5.05968 -7.81555,-0.31588 -12.29094,-6.30059 -12.32654,-13.23179 z m 15.94528,12.96111 c -2.42191,-2.13654 -5.19417,-3.97756 -7.52002,-6.22542 -2.93839,-2.84063 -5.54338,-5.98979 -8.26817,-9.02764 0.10962,-0.82105 0.25937,-1.64549 0.49331,-2.46994 0.0932,-0.32887 0.20738,-0.6391 0.31531,-0.95497 3.48369,3.74079 6.93064,7.50532 10.61437,11.05738 1.82971,1.76416 4.95344,5.33939 8.0218,6.28702 -1.14767,0.58259 -2.35128,1.06855 -3.6566,1.33357 z m 6.14462,-2.909 c -0.12036,-0.074 -0.25145,-0.13279 -0.40233,-0.15313 -3.98321,-0.53174 -8.19189,-5.51231 -10.94493,-8.06023 -3.14634,-2.91126 -6.15084,-5.96945 -9.23898,-8.94174 0.61763,-1.41834 1.42738,-2.65133 2.33263,-3.7764 2.50498,2.8056 5.27441,5.32753 8.22128,7.73192 4.12674,3.36841 8.44334,7.46803 13.12047,10.03573 -0.90356,1.18326 -1.92917,2.25917 -3.08814,3.16385 z m 4.17252,-4.74267 c -2.84911,-3.21358 -7.12164,-5.50496 -10.56634,-7.9732 -3.9024,-2.79656 -7.72231,-5.74455 -11.1348,-9.11861 0.90864,-0.97419 1.92747,-1.81502 3.03332,-2.52306 6.63003,5.33374 12.50116,12.87296 20.2585,16.3736 -0.4351,1.13071 -0.96458,2.21961 -1.59068,3.24127 z m 2.24504,-5.24389 c -3.73458,-2.67733 -7.572,-5.09698 -11.14949,-8.04893 -2.88867,-2.38348 -5.76264,-4.72741 -8.83495,-6.84475 2.11451,-1.16462 4.51438,-1.84101 7.06061,-2.06082 -0.21868,0.165 -0.36617,0.43567 -0.29723,0.76511 0.53569,2.57052 4.16291,4.78505 6.06043,6.27402 1.39235,1.09229 2.82199,2.13655 4.27084,3.15368 0.99792,0.70069 1.99584,1.70709 3.28195,1.43473 0.11584,-0.0243 0.21473,-0.0808 0.30627,-0.14636 -0.002,1.23582 -0.11358,2.46599 -0.30231,3.62609 -0.10172,0.62384 -0.23507,1.23977 -0.39612,1.84723 z"
       id="path7326" />
    <path
       style="fill:#c02942"
       inkscape:connector-curvature="0"
       d="m 224.07394,579.20696 c 0.45432,-0.38199 0.70691,-1.03013 0.34695,-1.61951 -0.36221,-0.59276 -0.77189,-1.14371 -1.15614,-1.71613 -5.59424,-20.06297 -25.63801,-38.33918 -45.36478,-43.0779 -8.07096,-1.93877 -17.77952,-0.58429 -21.79833,7.44994 -3.32038,6.63794 1.6212,11.60494 7.27873,13.66068 -0.0802,0.65888 0.39612,1.46185 1.17875,1.52005 8.57896,0.63515 16.61942,3.15143 22.9929,7.6918 1.57825,1.31776 3.13729,2.65755 4.66582,4.03181 3.85098,4.00412 6.71704,9.04176 8.1529,15.20616 1.80033,7.72909 3.04519,17.01101 8.01785,23.47659 2.94686,3.83121 7.41095,2.85589 10.14083,-0.69843 5.96832,-7.77147 7.39118,-16.51205 5.54452,-25.92506 z m -43.17003,-41.51943 c 8.65017,2.59426 16.24929,8.52076 22.67589,14.64787 4.00638,3.82047 7.74096,8.32016 10.71156,13.20579 -12.32824,-11.34557 -28.84538,-18.81359 -41.51153,-29.5421 2.76152,0.19212 5.50044,0.90186 8.12408,1.68844 z m -11.37157,-1.65284 c 0.38086,-0.0401 0.76172,-0.0571 1.14315,-0.0718 14.34047,15.12762 33.87624,23.69867 48.1003,38.97433 0.90017,2.59709 1.54548,5.2439 1.85232,7.91161 -6.64585,-8.63038 -16.25438,-15.91306 -24.42536,-22.6787 -9.97244,-8.25574 -20.87952,-16.07412 -32.53419,-21.75594 -0.0814,-0.0396 -0.15935,-0.052 -0.23733,-0.0644 1.62628,-1.19739 3.70576,-2.06309 6.10111,-2.31511 z m -0.64079,16.73355 c -0.0362,-0.77189 -0.43172,-1.49462 -1.30815,-1.61611 -5.9056,-0.8171 -8.12804,-3.79335 -7.86415,-6.89674 5.12014,2.76152 10.09958,5.80106 14.91572,9.09262 -1.93708,-0.34752 -3.86511,-0.5566 -5.74342,-0.57977 z m 47.44708,49.12081 c -5.27893,8.30943 -9.38816,-8.51171 -10.29793,-11.97506 -0.0667,-0.25372 -0.11527,-0.51365 -0.17969,-0.76793 3.33168,4.09792 6.95324,7.9506 10.32166,12.0197 0.12205,0.14748 0.2571,0.24524 0.39611,0.30627 -0.0848,0.13844 -0.15257,0.27858 -0.24015,0.41702 z m 1.39234,-2.46598 c -3.7634,-4.16856 -7.73079,-8.14838 -11.57669,-12.23952 -0.25541,-0.2718 -0.55208,-0.28762 -0.78941,-0.16557 -0.68826,-2.98585 -1.31323,-5.99544 -2.08739,-8.95925 5.61515,6.07963 10.76016,12.5746 15.36835,19.41596 -0.27519,0.65266 -0.58712,1.30137 -0.91486,1.94838 z m 1.74495,-4.14991 c -5.12749,-8.09017 -11.19526,-15.7006 -17.98125,-22.6708 -3.42774,-8.12407 -11.54956,-14.38115 -20.44215,-17.5433 -6.67636,-4.77149 -13.70024,-8.97621 -20.93602,-12.51415 0.46506,-1.24486 1.3138,-2.44225 2.4496,-3.47408 -0.0102,0.23055 0.0825,0.46506 0.35487,0.62328 11.19526,6.5074 21.4768,14.04719 31.44302,22.31537 9.30792,7.72231 17.34724,16.84713 26.49128,24.64403 -0.0198,2.88414 -0.4498,5.77167 -1.37935,8.61965 z"
       id="path7328" />
    <path
       style="fill:#53777a"
       inkscape:connector-curvature="0"
       d="m 256.64542,572.62045 c -4.77206,-32.25616 -24.46322,-58.6039 -55.16374,-69.85905 -10.45106,-3.83121 -28.30065,-10.85904 -37.14068,-0.64306 -4.27423,4.93988 -6.26781,16.73977 1.35844,18.35815 0.0978,0.20738 0.26502,0.38651 0.52043,0.47466 10.72625,3.71311 22.37866,3.49555 33.24505,7.0058 13.2431,4.27761 23.03528,16.95732 28.21419,29.26747 5.34109,12.69554 2.33546,26.24207 5.52757,39.33711 2.09925,8.61117 8.957,11.58742 16.79628,7.95908 10.54882,-4.88168 7.93309,-23.17484 6.64246,-31.90016 z m -22.98047,-43.46837 c 0.20795,0.24581 0.3916,0.51648 0.59616,0.76624 -5.48971,-5.15405 -11.61907,-9.83117 -17.01441,-15.05868 6.05082,3.85833 11.55296,8.53602 16.41825,14.29244 z m -22.16902,-17.63429 c 4.07815,5.29984 8.84343,9.9295 13.72341,14.49134 5.50948,5.15122 10.63019,10.73699 16.15154,15.84696 0.27689,0.25598 0.60915,0.34413 0.9335,0.32548 0.74929,1.42681 1.46863,2.8734 2.1422,4.3409 -15.49492,-11.9954 -29.07593,-25.77023 -43.0005,-39.50776 3.49103,1.31098 6.83345,2.81747 10.04985,4.50308 z m -13.43409,-5.74059 c 0.32492,0.10906 0.63458,0.23846 0.95724,0.35035 14.16191,16.70078 29.91111,32.39121 47.55275,45.38962 0.60519,1.54039 1.18553,3.08757 1.71331,4.64322 -7.70254,-10.96189 -21.41691,-18.80625 -31.37748,-27.07951 -10.53187,-8.74792 -21.55422,-20.89364 -33.98022,-27.57395 5.17044,0.85044 10.34991,2.66659 15.1344,4.27027 z m -28.63856,13.54314 c 0.25542,-1.04651 -0.29779,-2.31511 -1.70539,-2.33319 -4.33865,-0.0554 -3.75606,-4.37537 -2.69372,-7.62229 5.0433,3.75944 10.28945,7.23239 15.41638,10.87825 -3.62891,-0.46562 -7.30925,-0.77641 -11.01727,-0.92277 z m 15.6215,1.62007 c -5.74455,-5.20999 -13.03458,-8.62756 -19.54199,-12.75091 -0.0181,-0.0113 -0.0339,-0.0107 -0.052,-0.0203 0.32604,-0.8414 0.64362,-1.53926 0.84139,-1.94329 0.67979,-1.38613 1.64155,-2.39535 2.75926,-3.16046 9.82779,7.36235 19.99122,14.26983 29.89812,21.51578 -4.43076,-1.61555 -9.09827,-2.80221 -13.9048,-3.64078 z m 38.93309,21.8068 c -4.87942,-6.67127 -11.04947,-11.58855 -18.05244,-15.14344 -11.32976,-8.81234 -23.23758,-17.06243 -35.34318,-25.39954 1.93764,-0.85044 4.17986,-1.15332 6.38817,-1.19004 1.01488,-0.017 2.03653,0.0362 3.06101,0.12431 21.48528,21.63671 48.44557,37.57295 69.14031,60.08722 0.23563,0.25654 0.51365,0.32039 0.77528,0.27971 0.16048,0.56846 0.34131,1.13862 0.49162,1.70652 0.99735,3.76397 2.01053,8.0009 2.66998,12.35028 -8.62361,-12.36497 -18.46552,-23.07765 -29.13075,-32.81502 z m 13.04137,52.76215 c -0.82332,-2.39252 -1.23752,-4.9314 -1.47598,-7.49515 1.07082,1.25673 2.1648,2.49198 3.24579,3.7391 2.88132,3.32547 5.95363,6.53113 9.07511,9.6317 -4.08324,2.43717 -9.1836,-1.04935 -10.84492,-5.87565 z m 13.85168,2.52589 c -0.34978,0.65379 -0.7329,1.19287 -1.12959,1.68166 -3.14577,-3.15764 -6.4475,-6.16214 -9.61927,-9.29548 -1.45224,-1.43472 -2.97286,-3.14747 -4.72572,-4.28835 -0.11301,-1.7653 -0.17009,-3.52833 -0.23959,-5.24955 -0.005,-0.12488 -0.0124,-0.24241 -0.0175,-0.36673 2.60556,2.49085 5.16818,5.00317 7.58557,7.6918 2.84402,3.16102 5.2648,6.68935 8.1512,9.81534 -0.001,0.003 -0.003,0.007 -0.005,0.0113 z m 1.13354,-2.54454 c -4.54885,-6.17739 -10.7206,-11.98636 -16.9353,-16.44141 -0.14861,-3.12656 -0.3656,-6.07851 -0.72273,-8.97225 3.13956,3.36106 6.18079,6.80689 9.21468,10.26571 2.72479,3.10621 5.9638,8.0574 9.808,9.93571 -0.29553,1.79863 -0.73064,3.54923 -1.36465,5.21224 z m 1.73647,-8.45521 c -2.17101,-2.64059 -5.34165,-4.96474 -7.61834,-7.21883 -4.04141,-4.00186 -8.01897,-8.06983 -12.09994,-12.031 -0.73178,-4.72742 -1.92352,-9.3599 -4.02729,-14.36024 -0.27237,-0.64645 -0.57808,-1.24995 -0.86796,-1.87379 7.70197,9.26948 14.7575,19.16055 24.00099,26.56981 0.10341,0.0831 0.22151,0.12319 0.34187,0.14579 0.32831,2.93952 0.46506,5.89768 0.27067,8.76826 z"
       id="path7330" />
  </g>
</svg>
