<?xml version="1.0" encoding="UTF-8" standalone="no"?>
<!-- Created with Inkscape (http://www.inkscape.org/) -->

<svg
   xmlns:dc="http://purl.org/dc/elements/1.1/"
   xmlns:cc="http://creativecommons.org/ns#"
   xmlns:rdf="http://www.w3.org/1999/02/22-rdf-syntax-ns#"
   xmlns:svg="http://www.w3.org/2000/svg"
   xmlns="http://www.w3.org/2000/svg"
   xmlns:sodipodi="http://sodipodi.sourceforge.net/DTD/sodipodi-0.dtd"
   xmlns:inkscape="http://www.inkscape.org/namespaces/inkscape"
   width="61"
   height="60.998547"
   id="svg2"
   version="1.1"
   inkscape:version="0.48.4 r9939"
   sodipodi:docname="rss.svg">
  <defs
     id="defs4" />
  <sodipodi:namedview
     id="base"
     pagecolor="#ffffff"
     bordercolor="#666666"
     borderopacity="1.0"
     inkscape:pageopacity="0.0"
     inkscape:pageshadow="2"
     inkscape:zoom="1.4"
     inkscape:cx="134.11731"
     inkscape:cy="168.33627"
     inkscape:document-units="px"
     inkscape:current-layer="g7369"
     showgrid="false"
     fit-margin-top="0"
     fit-margin-left="0"
     fit-margin-right="0"
     fit-margin-bottom="0"
     inkscape:window-width="1920"
     inkscape:window-height="1138"
     inkscape:window-x="-8"
     inkscape:window-y="-8"
     inkscape:window-maximized="1" />
  <metadata
     id="metadata7">
    <rdf:RDF>
      <cc:Work
         rdf:about="">
        <dc:format>image/svg+xml</dc:format>
        <dc:type
           rdf:resource="http://purl.org/dc/dcmitype/StillImage" />
        <dc:title />
      </cc:Work>
    </rdf:RDF>
  </metadata>
  <g
     inkscape:label="Layer 1"
     inkscape:groupmode="layer"
     id="layer1"
     transform="translate(-129.17724,-571.25731)">
    <g
       id="g7369"
       transform="matrix(3.1929755,0,0,3.1929755,112.58734,321.46995)"
       style="fill:#cc333f">
      <path
         id="path7371"
         d="m 20.424463,78.70006 -11.3529935,0 c -0.9382101,0 -1.7404018,0.332981 -2.4065752,0.999153 -0.6663841,0.666172 -0.9993653,1.468573 -0.9993653,2.406781 l 0,11.352973 c 0,0.938208 0.3329812,1.740609 0.9993653,2.406359 0.6661734,0.666172 1.4683651,0.999154 2.4065752,0.999154 l 11.3529935,0 c 0.93821,0 1.740191,-0.332982 2.406575,-0.999154 0.666173,-0.66575 0.999366,-1.468151 0.999366,-2.406359 l 0,-11.352973 c 0,-0.938208 -0.333193,-1.740609 -0.999366,-2.406781 -0.666384,-0.666172 -1.468576,-0.999153 -2.406575,-0.999153 z"
         style="fill:#f1d4af;stroke:#774f38;stroke-width:0.9395625"
         inkscape:connector-curvature="0"
         sodipodi:nodetypes="sscsscsscsscs" />
    </g>
    <path
       style="fill:#aab55b"
       inkscape:connector-curvature="0"
       d="m 148.22425,605.92253 c -0.0922,0.0168 -0.16614,0.0544 -0.2301,0.1015 -2.56528,-0.7117 -4.79143,0.36803 -6.3061,2.22296 -0.013,-0.0148 -0.0278,-0.028 -0.0408,-0.043 -0.12791,-0.14839 -0.39101,0.0521 -0.27266,0.21053 0.031,0.0414 0.0658,0.0783 0.0972,0.11949 -3.0817,4.12114 -2.83407,11.54565 4.40268,12.40165 9.39349,1.11114 11.30715,-16.65047 2.34974,-15.01312 z m 0.4263,1.40292 c 0.0487,0.004 0.0922,-0.005 0.13564,-0.0157 1.28025,0.31932 2.37546,0.61429 3.19277,1.85152 0.40081,0.60678 0.60542,1.31575 0.68348,2.04589 -0.19209,-0.2103 -0.47545,-0.33821 -0.72786,-0.49549 -0.55876,-0.34822 -1.105,-0.7167 -1.64532,-1.0927 -0.98505,-0.68553 -1.82489,-1.46027 -2.70001,-2.26689 -0.0342,-0.0316 -0.0726,-0.0369 -0.10993,-0.0505 0.38282,-0.0191 0.77406,-0.0125 1.17123,0.0239 z m -7.71745,6.81136 c 0.87284,1.15165 1.81078,2.25323 2.81518,3.29154 0.63841,0.66003 1.36104,1.4102 2.14968,2.03792 -3.14793,-0.12723 -4.95052,-2.53773 -4.96486,-5.32946 z m 6.4224,5.22044 c -0.97549,-0.86055 -2.09209,-1.60207 -3.02889,-2.50746 -1.18352,-1.14414 -2.23275,-2.41255 -3.33024,-3.63613 0.0441,-0.3307 0.10447,-0.66276 0.1987,-0.99483 0.0375,-0.13246 0.0835,-0.25742 0.127,-0.38464 1.40315,1.5067 2.7915,3.02297 4.27523,4.45366 0.73696,0.71056 1.99513,2.15058 3.231,2.53227 -0.46226,0.23465 -0.94704,0.43039 -1.4728,0.53713 z m 2.47492,-1.17168 c -0.0485,-0.0298 -0.10128,-0.0535 -0.16205,-0.0617 -1.60435,-0.21417 -3.29951,-2.22023 -4.40837,-3.24647 -1.26728,-1.17259 -2.47743,-2.40436 -3.72126,-3.60153 0.24877,-0.57128 0.57492,-1.0679 0.93953,-1.52105 1.00895,1.13003 2.12442,2.14581 3.31135,3.11424 1.66216,1.35672 3.40079,3.00795 5.28463,4.04216 -0.36393,0.47659 -0.77702,0.90995 -1.24383,1.27433 z m 1.6806,-1.91024 c -1.14756,-1.29436 -2.86844,-2.21727 -4.25589,-3.21142 -1.5718,-1.12639 -3.11037,-2.31378 -4.48485,-3.67277 0.36598,-0.39238 0.77634,-0.73105 1.22176,-1.01623 2.67042,2.14831 5.03518,5.18493 8.15967,6.59491 -0.17525,0.45543 -0.38851,0.89401 -0.64069,1.30551 z m 0.90425,-2.11212 c -1.50421,-1.07837 -3.04983,-2.05295 -4.49077,-3.24192 -1.16349,-0.96002 -2.32106,-1.9041 -3.55852,-2.75691 0.85168,-0.46909 1.81829,-0.74152 2.84386,-0.83005 -0.0881,0.0665 -0.14749,0.17547 -0.11972,0.30816 0.21577,1.03535 1.67673,1.92731 2.44101,2.52704 0.56081,0.43995 1.13663,0.86055 1.7202,1.27023 0.40194,0.28222 0.80388,0.68757 1.32189,0.57787 0.0467,-0.01 0.0865,-0.0325 0.12336,-0.059 -8e-4,0.49776 -0.0457,0.99325 -0.12176,1.46051 -0.041,0.25127 -0.0947,0.49935 -0.15955,0.74402 z"
       id="path7326" />
    <path
       style="fill:#c02942"
       inkscape:connector-curvature="0"
       d="m 168.29535,609.99314 c 0.18299,-0.15386 0.28473,-0.41491 0.13975,-0.6523 -0.14589,-0.23875 -0.3109,-0.46066 -0.46567,-0.69122 -2.25324,-8.08091 -10.32642,-15.44215 -18.27193,-17.3508 -3.2508,-0.78089 -7.16119,-0.23534 -8.77988,3.00067 -1.33737,2.67361 0.65298,4.6742 2.93171,5.50221 -0.0323,0.26538 0.15955,0.5888 0.47478,0.61224 3.45541,0.25582 6.69393,1.26932 9.26102,3.09808 0.63569,0.53077 1.26364,1.0704 1.87929,1.62392 1.55109,1.61277 2.70548,3.64182 3.28381,6.1247 0.72513,3.1131 1.22654,6.85165 3.22941,9.45583 1.18693,1.54313 2.98497,1.15029 4.0845,-0.28131 2.40391,-3.13017 2.97701,-6.65068 2.23321,-10.44202 z m -17.38793,-16.72308 c 3.4841,1.04491 6.54486,3.43197 9.13335,5.89983 1.61368,1.53879 3.11788,3.35117 4.31438,5.31899 -4.96554,-4.56974 -11.61828,-7.57769 -16.71993,-11.89889 1.11228,0.0774 2.21546,0.36325 3.2722,0.68007 z m -4.58021,-0.66573 c 0.1534,-0.0162 0.3068,-0.023 0.46043,-0.0289 5.77603,6.09306 13.6446,9.54529 19.37374,15.69797 0.36256,1.04605 0.62248,2.11213 0.74607,3.18662 -2.6768,-3.47612 -6.5469,-6.40942 -9.83799,-9.13446 -4.01668,-3.32523 -8.40981,-6.47429 -13.10405,-8.7628 -0.0328,-0.0159 -0.0642,-0.0209 -0.0956,-0.0259 0.65503,-0.48228 1.49259,-0.83096 2.45739,-0.93247 z m -0.2581,6.73989 c -0.0146,-0.3109 -0.17389,-0.60199 -0.52689,-0.65093 -2.37865,-0.32911 -3.2738,-1.52787 -3.16751,-2.77785 2.06228,1.11228 4.06789,2.33654 6.00772,3.6623 -0.78021,-0.13997 -1.55678,-0.22418 -2.31332,-0.23352 z m 19.11063,19.78475 c -2.12623,3.34685 -3.78134,-3.42833 -4.14778,-4.82328 -0.0269,-0.1022 -0.0464,-0.20689 -0.0724,-0.30931 1.34193,1.65055 2.80061,3.20232 4.15733,4.84126 0.0492,0.0594 0.10356,0.0988 0.15955,0.12336 -0.0342,0.0558 -0.0614,0.11221 -0.0967,0.16797 z m 0.56081,-0.99324 c -1.51582,-1.679 -3.1138,-3.28198 -4.66284,-4.9298 -0.10287,-0.10948 -0.22236,-0.11585 -0.31796,-0.0667 -0.27721,-1.20263 -0.52894,-2.41483 -0.84075,-3.60858 2.26166,2.44873 4.33395,5.06476 6.19003,7.8203 -0.11084,0.26288 -0.23648,0.52417 -0.36848,0.78477 z m 0.70282,-1.67149 c -2.06524,-3.25854 -4.5092,-6.32385 -7.24245,-9.13128 -1.38061,-3.27219 -4.6519,-5.7924 -8.23364,-7.06605 -2.68909,-1.92184 -5.51815,-3.61541 -8.43256,-5.04041 0.18731,-0.5014 0.52917,-0.98368 0.98664,-1.39928 -0.004,0.0929 0.0332,0.18732 0.14293,0.25104 4.50921,2.62104 8.65038,5.65789 12.66455,8.98813 3.74903,3.11037 6.98709,6.78564 10.6701,9.92605 -0.008,1.16167 -0.18117,2.3247 -0.55557,3.4718 z"
       id="path7328" />
    <path
       style="fill:#53777a"
       inkscape:connector-curvature="0"
       d="m 181.41442,607.34024 c -1.92208,-12.99204 -9.85324,-23.60431 -22.21873,-28.13763 -4.20945,-1.54313 -11.39887,-4.37378 -14.95944,-0.25901 -1.72156,1.98967 -2.52453,6.7424 0.54715,7.39424 0.0394,0.0835 0.10675,0.15568 0.20962,0.19119 4.32029,1.49555 9.01363,1.40792 13.39037,2.82177 5.33402,1.72293 9.27809,6.83002 11.36404,11.78827 2.15128,5.11348 0.94068,10.56971 2.22639,15.84409 0.84553,3.46839 3.60768,4.66715 6.76517,3.20574 4.24883,-1.96623 3.19527,-9.3343 2.67543,-12.84866 z m -9.25602,-17.50807 c 0.0838,0.099 0.15773,0.20803 0.24012,0.30863 -2.21114,-2.07594 -4.67991,-3.95977 -6.85303,-6.0653 2.43714,1.55405 4.65328,3.43812 6.61291,5.75667 z m -8.92919,-7.10269 c 1.64259,2.13466 3.56194,3.99938 5.52748,5.83678 2.2191,2.0748 4.28161,4.32462 6.50549,6.3828 0.11152,0.1031 0.24535,0.13861 0.37599,0.1311 0.3018,0.57468 0.59153,1.15734 0.86283,1.74841 -6.24101,-4.83147 -11.71114,-10.37966 -17.31965,-15.91282 1.40611,0.52803 2.75237,1.13481 4.04786,1.81373 z m -5.41095,-2.31218 c 0.13087,0.0439 0.25559,0.096 0.38555,0.14112 5.7041,6.72669 12.04753,13.04644 19.15319,18.2819 0.24376,0.62044 0.47751,1.2436 0.69009,1.87019 -3.10242,-4.4152 -8.62626,-7.57473 -12.63816,-10.90701 -4.242,-3.52347 -8.68156,-8.41549 -13.68647,-11.10616 2.08253,0.34253 4.16871,1.07404 6.0958,1.71996 z m -11.53498,5.45487 c 0.10288,-0.42151 -0.11994,-0.93247 -0.68689,-0.93975 -1.74751,-0.0223 -1.51286,-1.7623 -1.08497,-3.07009 2.03133,1.51422 4.14436,2.91304 6.20937,4.38151 -1.46164,-0.18754 -2.944,-0.31272 -4.43751,-0.37167 z m 6.29199,0.65253 c -2.31377,-2.09847 -5.25004,-3.47498 -7.87108,-5.13578 -0.007,-0.005 -0.0137,-0.004 -0.0209,-0.008 0.13132,-0.3389 0.25924,-0.61998 0.33889,-0.78272 0.27381,-0.5583 0.66118,-0.96479 1.11137,-1.27296 3.95842,2.96539 8.05202,5.74757 12.0423,8.66607 -1.78461,-0.65071 -3.66458,-1.12867 -5.60054,-1.46642 z m 15.68139,8.78328 c -1.96532,-2.68703 -4.45048,-4.6676 -7.27112,-6.09943 -4.56338,-3.54941 -9.35958,-6.87236 -14.23545,-10.23036 0.78044,-0.34253 1.68355,-0.46453 2.57301,-0.47932 0.40877,-0.007 0.82027,0.0146 1.23291,0.0501 8.65379,8.71478 19.5128,15.13353 27.84818,24.20176 0.0949,0.10333 0.20689,0.12905 0.31226,0.11267 0.0646,0.22896 0.13748,0.45861 0.19802,0.68734 0.40171,1.51604 0.80979,3.22258 1.07541,4.97441 -3.4734,-4.98032 -7.4375,-9.29515 -11.73322,-13.21714 z m 5.25277,21.25139 c -0.33161,-0.96365 -0.49844,-1.98625 -0.59449,-3.01887 0.4313,0.50618 0.87193,1.00371 1.30733,1.50602 1.16053,1.33943 2.39799,2.63059 3.65525,3.87943 -1.64463,0.98164 -3.69895,-0.42265 -4.36809,-2.36658 z m 5.57915,1.01737 c -0.14088,0.26334 -0.2952,0.48047 -0.45497,0.67734 -1.26705,-1.27183 -2.59691,-2.48197 -3.87443,-3.74401 -0.58493,-0.57787 -1.1974,-1.26773 -1.90342,-1.72725 -0.0455,-0.71102 -0.0685,-1.42113 -0.0965,-2.1144 -0.002,-0.0503 -0.005,-0.0976 -0.007,-0.14771 1.04947,1.00326 2.08163,2.01517 3.0553,3.09808 1.14551,1.27319 2.12055,2.69432 3.28312,3.9534 -4e-4,10e-4 -0.001,0.003 -0.002,0.005 z m 0.45657,-1.02488 c -1.83218,-2.48811 -4.31802,-4.82783 -6.82117,-6.62222 -0.0599,-1.25931 -0.14725,-2.44829 -0.2911,-3.61382 1.26455,1.35376 2.48949,2.74166 3.71147,4.13479 1.09749,1.25111 2.40209,3.24534 3.95045,4.00188 -0.11904,0.72445 -0.29429,1.42955 -0.54965,2.09937 z m 0.69941,-3.40556 c -0.87444,-1.06357 -2.1515,-1.99969 -3.0685,-2.90758 -1.62779,-1.61186 -3.22986,-3.25035 -4.87359,-4.84582 -0.29474,-1.90409 -0.77475,-3.76995 -1.6221,-5.78397 -0.10971,-0.26038 -0.23284,-0.50346 -0.3496,-0.75472 3.10219,3.73353 5.944,7.71743 9.66707,10.70171 0.0417,0.0335 0.0892,0.0496 0.1377,0.0587 0.13223,1.18397 0.18731,2.37545 0.10902,3.53166 z"
       id="path7330" />
  </g>
</svg>
