<?xml version="1.0" encoding="UTF-8" standalone="no"?>
<!-- Created with Inkscape (http://www.inkscape.org/) -->

<svg
   xmlns:dc="http://purl.org/dc/elements/1.1/"
   xmlns:cc="http://creativecommons.org/ns#"
   xmlns:rdf="http://www.w3.org/1999/02/22-rdf-syntax-ns#"
   xmlns:svg="http://www.w3.org/2000/svg"
   xmlns="http://www.w3.org/2000/svg"
   xmlns:sodipodi="http://sodipodi.sourceforge.net/DTD/sodipodi-0.dtd"
   xmlns:inkscape="http://www.inkscape.org/namespaces/inkscape"
   width="260.82617"
   height="260.82617"
   id="svg2"
   version="1.1"
   inkscape:version="0.48.4 r9939"
   sodipodi:docname="New document 1">
  <defs
     id="defs4">
	
	
	
</defs>
  <sodipodi:namedview
     id="base"
     pagecolor="#ffffff"
     bordercolor="#666666"
     borderopacity="1.0"
     inkscape:pageopacity="0.0"
     inkscape:pageshadow="2"
     inkscape:zoom="1.4"
     inkscape:cx="135.64036"
     inkscape:cy="182.00612"
     inkscape:document-units="px"
     inkscape:current-layer="g7369"
     showgrid="false"
     fit-margin-top="0"
     fit-margin-left="0"
     fit-margin-right="0"
     fit-margin-bottom="0"
     inkscape:window-width="1920"
     inkscape:window-height="1138"
     inkscape:window-x="-8"
     inkscape:window-y="-8"
     inkscape:window-maximized="1" />
  <metadata
     id="metadata7">
    <rdf:RDF>
      <cc:Work
         rdf:about="">
        <dc:format>image/svg+xml</dc:format>
        <dc:type
           rdf:resource="http://purl.org/dc/dcmitype/StillImage" />
        <dc:title></dc:title>
      </cc:Work>
    </rdf:RDF>
  </metadata>
  <g
     inkscape:label="Layer 1"
     inkscape:groupmode="layer"
     id="layer1"
     transform="translate(-127.65419,-372.95668)">
    <g
       id="g7369"
       transform="matrix(3.1929755,0,0,3.1929755,112.58734,321.46995)"
       style="fill:#cc333f">
	<path
   id="path7371"
   d="m 70.511572,17.055677 -49.881429,0 c -4.122195,0 -7.646769,1.463013 -10.573722,4.389966 -2.927879,2.926952 -4.3908921,6.452453 -4.3908921,10.574647 l 0,49.881425 c 0,4.122195 1.4630131,7.647695 4.3908921,10.572795 2.926953,2.926953 6.451527,4.38997 10.573722,4.38997 l 49.881429,0 c 4.122195,0 7.645842,-1.463017 10.573721,-4.38997 2.926953,-2.9251 4.390893,-6.4506 4.390893,-10.572795 l 0,-49.881425 c 0,-4.122194 -1.46394,-7.647695 -4.390893,-10.574647 C 78.157414,18.51869 74.63284,17.055677 70.511572,17.055677 z"
   style="fill:#f1d4af;stroke:#774f38;stroke-width:1.87912499999999990"
   inkscape:connector-curvature="0"
   sodipodi:nodetypes="sscsscsscsscs" />

</g>
    <path
       style="fill:#aab55b"
       inkscape:connector-curvature="0"
       d="m 207.77322,521.64592 c -0.405,0.074 -0.73,0.239 -1.011,0.446 -11.271,-3.127 -21.052,1.617 -27.707,9.767 -0.057,-0.065 -0.122,-0.123 -0.179,-0.189 -0.562,-0.652 -1.718,0.229 -1.198,0.925 0.136,0.182 0.289,0.344 0.427,0.525 -13.54,18.107 -12.452,50.728 19.344,54.489 41.272,4.882 49.68,-73.157 10.324,-65.963 z m 1.873,6.164 c 0.214,0.019 0.405,-0.024 0.596,-0.069 5.625,1.403 10.437,2.699 14.028,8.135 1.761,2.666 2.66,5.781 3.003,8.989 -0.844,-0.924 -2.089,-1.486 -3.198,-2.177 -2.455,-1.53 -4.855,-3.149 -7.229,-4.801 -4.328,-3.012 -8.018,-6.416 -11.863,-9.96 -0.15,-0.139 -0.319,-0.162 -0.483,-0.222 1.682,-0.084 3.401,-0.055 5.146,0.105 z m -33.908,29.927 c 3.835,5.06 7.956,9.9 12.369,14.462 2.805,2.9 5.98,6.196 9.445,8.954 -13.831,-0.559 -21.751,-11.15 -21.814,-23.416 z m 28.218,22.937 c -4.286,-3.781 -9.192,-7.039 -13.308,-11.017 -5.2,-5.027 -9.81,-10.6 -14.632,-15.976 0.194,-1.453 0.459,-2.912 0.873,-4.371 0.165,-0.582 0.367,-1.131 0.558,-1.69 6.165,6.62 12.265,13.282 18.784,19.568 3.238,3.122 8.766,9.449 14.196,11.126 -2.031,1.031 -4.161,1.891 -6.471,2.36 z m 10.874,-5.148 c -0.213,-0.131 -0.445,-0.235 -0.712,-0.271 -7.049,-0.941 -14.497,-9.755 -19.369,-14.264 -5.568,-5.152 -10.885,-10.564 -16.35,-15.824 1.093,-2.51 2.526,-4.692 4.128,-6.683 4.433,4.965 9.334,9.428 14.549,13.683 7.303,5.961 14.942,13.216 23.219,17.76 -1.599,2.094 -3.414,3.998 -5.465,5.599 z m 7.384,-8.393 c -5.042,-5.687 -12.603,-9.742 -18.699,-14.11 -6.906,-4.949 -13.666,-10.166 -19.705,-16.137 1.608,-1.724 3.411,-3.212 5.368,-4.465 11.733,9.439 22.123,22.781 35.851,28.976 -0.77,2.001 -1.707,3.928 -2.815,5.736 z m 3.973,-9.28 c -6.609,-4.738 -13.4,-9.02 -19.731,-14.244 -5.112,-4.218 -10.198,-8.366 -15.635,-12.113 3.742,-2.061 7.989,-3.258 12.495,-3.647 -0.387,0.292 -0.648,0.771 -0.526,1.354 0.948,4.549 7.367,8.468 10.725,11.103 2.464,1.933 4.994,3.781 7.558,5.581 1.766,1.24 3.532,3.021 5.808,2.539 0.205,-0.043 0.38,-0.143 0.542,-0.259 -0.004,2.187 -0.201,4.364 -0.535,6.417 -0.18,1.104 -0.416,2.194 -0.701,3.269 z"
       id="path7326" />
    <path
       style="fill:#c02942"
       inkscape:connector-curvature="0"
       d="m 295.95922,539.53092 c 0.804,-0.676 1.251,-1.823 0.614,-2.866 -0.641,-1.049 -1.366,-2.024 -2.046,-3.037 -9.9,-35.505 -45.371,-67.848 -80.281,-76.234 -14.283,-3.431 -31.464,-1.034 -38.576,13.184 -5.876,11.747 2.869,20.537 12.881,24.175 -0.142,1.166 0.701,2.587 2.086,2.69 15.182,1.124 29.411,5.577 40.69,13.612 2.793,2.332 5.552,4.703 8.257,7.135 6.815,7.086 11.887,16.001 14.428,26.91 3.186,13.678 5.389,30.104 14.189,41.546 5.215,6.78 13.115,5.054 17.946,-1.236 10.562,-13.753 13.08,-29.221 9.812,-45.879 z m -76.397,-73.476 c 15.308,4.591 28.756,15.079 40.129,25.922 7.09,6.761 13.699,14.724 18.956,23.37 -21.817,-20.078 -51.047,-33.294 -73.462,-52.28 4.887,0.34 9.734,1.596 14.377,2.988 z m -20.124,-2.925 c 0.674,-0.071 1.348,-0.101 2.023,-0.127 25.378,26.771 59.95,41.939 85.122,68.972 1.593,4.596 2.735,9.28 3.278,14.001 -11.761,-15.273 -28.765,-28.161 -43.225,-40.134 -17.648,-14.61 -36.95,-28.446 -57.575,-38.501 -0.144,-0.07 -0.282,-0.092 -0.42,-0.114 2.878,-2.119 6.558,-3.651 10.797,-4.097 z m -1.134,29.613 c -0.064,-1.366 -0.764,-2.645 -2.315,-2.86 -10.451,-1.446 -14.384,-6.713 -13.917,-12.205 9.061,4.887 17.873,10.266 26.396,16.091 -3.428,-0.615 -6.84,-0.985 -10.164,-1.026 z m 83.966,86.928 c -9.342,14.705 -16.614,-15.063 -18.224,-21.192 -0.118,-0.449 -0.204,-0.909 -0.318,-1.359 5.896,7.252 12.305,14.07 18.266,21.271 0.216,0.261 0.455,0.434 0.701,0.542 -0.15,0.245 -0.27,0.493 -0.425,0.738 z m 2.464,-4.364 c -6.66,-7.377 -13.681,-14.42 -20.487,-21.66 -0.452,-0.481 -0.977,-0.509 -1.397,-0.293 -1.218,-5.284 -2.324,-10.61 -3.694,-15.855 9.937,10.759 19.042,22.253 27.197,34.36 -0.487,1.155 -1.039,2.303 -1.619,3.448 z m 3.088,-7.344 c -9.074,-14.317 -19.812,-27.785 -31.821,-40.12 -6.066,-14.377 -20.439,-25.45 -36.176,-31.046 -11.815,-8.444 -24.245,-15.885 -37.05,-22.146 0.823,-2.203 2.325,-4.322 4.335,-6.148 -0.018,0.408 0.146,0.823 0.628,1.103 19.812,11.516 38.007,24.859 55.644,39.491 16.472,13.666 30.699,29.814 46.881,43.612 -0.035,5.104 -0.796,10.214 -2.441,15.254 z"
       id="path7328" />
    <path
       style="fill:#53777a"
       inkscape:connector-curvature="0"
       d="m 353.60022,527.87492 c -8.445,-57.083 -43.292,-103.71 -97.622,-123.628 -18.495,-6.78 -50.083,-19.217 -65.727,-1.138 -7.564,8.742 -11.092,29.624 2.404,32.488 0.173,0.367 0.469,0.684 0.921,0.84 18.982,6.571 39.603,6.186 58.833,12.398 23.436,7.57 40.765,30.009 49.93,51.794 9.452,22.467 4.133,46.44 9.782,69.614 3.715,15.239 15.851,20.506 29.724,14.085 18.668,-8.639 14.039,-41.012 11.755,-56.453 z m -40.668,-76.925 c 0.368,0.435 0.693,0.914 1.055,1.356 -9.715,-9.121 -20.562,-17.398 -30.11,-26.649 10.708,6.828 20.445,15.106 29.055,25.293 z m -39.232,-31.207 c 7.217,9.379 15.65,17.572 24.286,25.645 9.75,9.116 18.812,19.001 28.583,28.044 0.49,0.453 1.078,0.609 1.652,0.576 1.326,2.525 2.599,5.085 3.791,7.682 -27.421,-21.228 -51.455,-45.605 -76.097,-69.916 6.178,2.32 12.093,4.986 17.785,7.969 z m -23.774,-10.159 c 0.575,0.193 1.123,0.422 1.694,0.62 25.062,29.555 52.933,57.322 84.153,80.325 1.071,2.726 2.098,5.464 3.032,8.217 -13.631,-19.399 -37.901,-33.281 -55.528,-47.922 -18.638,-15.481 -38.144,-36.975 -60.134,-48.797 9.15,1.505 18.316,4.719 26.783,7.557 z m -50.681,23.967 c 0.452,-1.852 -0.527,-4.097 -3.018,-4.129 -7.678,-0.098 -6.647,-7.743 -4.767,-13.489 8.925,6.653 18.209,12.799 27.282,19.251 -6.422,-0.824 -12.935,-1.374 -19.497,-1.633 z m 27.645,2.867 c -10.166,-9.22 -23.067,-15.268 -34.583,-22.565 -0.032,-0.02 -0.06,-0.019 -0.092,-0.036 0.577,-1.489 1.139,-2.724 1.489,-3.439 1.203,-2.453 2.905,-4.239 4.883,-5.593 17.392,13.029 35.378,25.253 52.91,38.076 -7.841,-2.859 -16.101,-4.959 -24.607,-6.443 z m 68.899,38.591 c -8.635,-11.806 -19.554,-20.508 -31.947,-26.799 -20.05,-15.595 -41.123,-30.195 -62.546,-44.949 3.429,-1.505 7.397,-2.041 11.305,-2.106 1.796,-0.03 3.604,0.064 5.417,0.22 38.022,38.29 85.733,66.492 122.356,106.335 0.417,0.454 0.909,0.567 1.372,0.495 0.284,1.006 0.604,2.015 0.87,3.02 1.765,6.661 3.558,14.159 4.725,21.856 -15.261,-21.882 -32.678,-40.84 -51.552,-58.072 z m 23.079,93.372 c -1.457,-4.234 -2.19,-8.727 -2.612,-13.264 1.895,2.224 3.831,4.41 5.744,6.617 5.099,5.885 10.536,11.558 16.06,17.045 -7.226,4.313 -16.252,-1.857 -19.192,-10.398 z m 24.513,4.47 c -0.619,1.157 -1.297,2.111 -1.999,2.976 -5.567,-5.588 -11.41,-10.905 -17.023,-16.45 -2.57,-2.539 -5.261,-5.57 -8.363,-7.589 -0.2,-3.124 -0.301,-6.244 -0.424,-9.29 -0.009,-0.221 -0.022,-0.429 -0.031,-0.649 4.611,4.408 9.146,8.854 13.424,13.612 5.033,5.594 9.317,11.838 14.425,17.37 -0.002,0.006 -0.005,0.013 -0.009,0.02 z m 2.006,-4.503 c -8.05,-10.932 -18.972,-21.212 -29.97,-29.096 -0.263,-5.533 -0.647,-10.757 -1.279,-15.878 5.556,5.948 10.938,12.046 16.307,18.167 4.822,5.497 10.554,14.259 17.357,17.583 -0.523,3.183 -1.293,6.281 -2.415,9.224 z m 3.073,-14.963 c -3.842,-4.673 -9.453,-8.786 -13.482,-12.775 -7.152,-7.082 -14.191,-14.281 -21.413,-21.291 -1.295,-8.366 -3.404,-16.564 -7.127,-25.413 -0.482,-1.144 -1.023,-2.212 -1.536,-3.316 13.63,16.404 26.116,33.908 42.474,47.02 0.183,0.147 0.392,0.218 0.605,0.258 0.581,5.202 0.823,10.437 0.479,15.517 z"
       id="path7330" />
  </g>
</svg>
